<mxfile host="app.diagrams.net" agent="Mozilla/5.0 (Windows NT 10.0; Win64; x64) AppleWebKit/537.36 (KHTML, like Gecko) Chrome/138.0.0.0 Safari/537.36" version="28.0.7">
  <diagram name="第 1 页" id="pqINXiQKJTRounRxMx4P">
    <mxGraphModel dx="2205" dy="1475" grid="1" gridSize="10" guides="1" tooltips="1" connect="1" arrows="1" fold="1" page="1" pageScale="1" pageWidth="827" pageHeight="1169" math="0" shadow="0">
      <root>
        <mxCell id="0" />
        <mxCell id="1" parent="0" />
        <mxCell id="CWH9IZx8YpNh54ZALPy3-3" value="" style="group" vertex="1" connectable="0" parent="1">
          <mxGeometry x="70" y="50" width="1822" height="770" as="geometry" />
        </mxCell>
        <mxCell id="CWH9IZx8YpNh54ZALPy3-1" value="" style="shape=image;verticalLabelPosition=bottom;labelBackgroundColor=default;verticalAlign=top;aspect=fixed;imageAspect=0;editableCssRules=.*;image=data:image/svg+xml,PHN2ZyB4bWxuczp4bGluaz0iaHR0cDovL3d3dy53My5vcmcvMTk5OS94bGluayIgeG1sbnM9Imh0dHA6Ly93d3cudzMub3JnLzIwMDAvc3ZnIiBzdHlsZT0iY29sb3I6IHJnYigwLCAwLCAwKTsgZm9udC1zaXplOiBtZWRpdW07IGZvbnQtc3R5bGU6IG5vcm1hbDsgZm9udC12YXJpYW50LWxpZ2F0dXJlczogbm9ybWFsOyBmb250LXZhcmlhbnQtY2Fwczogbm9ybWFsOyBmb250LXdlaWdodDogNDAwOyBsZXR0ZXItc3BhY2luZzogbm9ybWFsOyBvcnBoYW5zOiAyOyB0ZXh0LWFsaWduOiBzdGFydDsgdGV4dC1pbmRlbnQ6IDBweDsgdGV4dC10cmFuc2Zvcm06IG5vbmU7IHdpZG93czogMjsgd29yZC1zcGFjaW5nOiAwcHg7IC13ZWJraXQtdGV4dC1zdHJva2Utd2lkdGg6IDBweDsgd2hpdGUtc3BhY2U6IG5vcm1hbDsgdGV4dC1kZWNvcmF0aW9uLXRoaWNrbmVzczogaW5pdGlhbDsgdGV4dC1kZWNvcmF0aW9uLXN0eWxlOiBpbml0aWFsOyB0ZXh0LWRlY29yYXRpb24tY29sb3I6IGluaXRpYWw7IiBvdmVyZmxvdz0iaGlkZGVuIiB4bWw6c3BhY2U9InByZXNlcnZlIiBoZWlnaHQ9IjcyMS40ODAyNiIgd2lkdGg9IjkwNS44MjI3MjgyNjE3MTg4IiB2aWV3Qm94PSI3Ljg1OTg2OTQyNzc5NTQxIC0wLjc0MDEzIDkwNS44MjI3MjgyNjE3MTg4IDcyMS40ODAyNiI+PGRlZnM+PGNsaXBQYXRoIGlkPSJjbGlwMCI+PHJlY3QgaGVpZ2h0PSI3MjAiIHdpZHRoPSI4NzIiIHk9IjAiIHg9IjQxIi8+PC9jbGlwUGF0aD48Y2xpcFBhdGggaWQ9ImNsaXAxIj48cmVjdCBoZWlnaHQ9IjcyMCIgd2lkdGg9Ijg3MyIgeT0iMCIgeD0iNDEiLz48L2NsaXBQYXRoPjxjbGlwUGF0aCBpZD0iY2xpcDIiPjxyZWN0IGhlaWdodD0iNzIwIiB3aWR0aD0iODczIiB5PSIwIiB4PSI0MSIvPjwvY2xpcFBhdGg+PGNsaXBQYXRoIGlkPSJjbGlwMyI+PHJlY3QgaGVpZ2h0PSI2MDEiIHdpZHRoPSI2ODYiIHk9IjU0IiB4PSI4OSIvPjwvY2xpcFBhdGg+PGNsaXBQYXRoIGlkPSJjbGlwNCI+PHJlY3QgaGVpZ2h0PSI2MDEiIHdpZHRoPSI2ODYiIHk9IjU0IiB4PSI4OSIvPjwvY2xpcFBhdGg+PGNsaXBQYXRoIGlkPSJjbGlwNSI+PHJlY3QgaGVpZ2h0PSI2MDEiIHdpZHRoPSI2ODYiIHk9IjU0IiB4PSI4OSIvPjwvY2xpcFBhdGg+PGNsaXBQYXRoIGlkPSJjbGlwNiI+PHJlY3QgaGVpZ2h0PSI2MDEiIHdpZHRoPSI2ODYiIHk9IjU0IiB4PSI4OSIvPjwvY2xpcFBhdGg+PGNsaXBQYXRoIGlkPSJjbGlwNyI+PHJlY3QgaGVpZ2h0PSI2MDEiIHdpZHRoPSI2ODYiIHk9IjU0IiB4PSI4OSIvPjwvY2xpcFBhdGg+PGltYWdlIGlkPSJpbWc4IiBwcmVzZXJ2ZUFzcGVjdFJhdGlvPSJub25lIiB4bGluazpocmVmPSJkYXRhOmltYWdlL2pwZWc7YmFzZTY0LC85ai80QUFRU2taSlJnQUJBUUVBWUFCZ0FBRC8yd0JEQUFNQ0FnTUNBZ01EQXdNRUF3TUVCUWdGQlFRRUJRb0hCd1lJREFvTURBc0tDd3NORGhJUURRNFJEZ3NMRUJZUUVSTVVGUlVWREE4WEdCWVVHQklVRlJULzJ3QkRBUU1FQkFVRUJRa0ZCUWtVRFFzTkZCUVVGQlFVRkJRVUZCUVVGQlFVRkJRVUZCUVVGQlFVRkJRVUZCUVVGQlFVRkJRVUZCUVVGQlFVRkJRVUZCUVVGQlQvd0FBUkNBTEZBQmtEQVNJQUFoRUJBeEVCLzhRQUh3QUFBUVVCQVFFQkFRRUFBQUFBQUFBQUFBRUNBd1FGQmdjSUNRb0wvOFFBdFJBQUFnRURBd0lFQXdVRkJBUUFBQUY5QVFJREFBUVJCUkloTVVFR0UxRmhCeUp4RkRLQmthRUlJMEt4d1JWUzBmQWtNMkp5Z2drS0ZoY1lHUm9sSmljb0tTbzBOVFkzT0RrNlEwUkZSa2RJU1VwVFZGVldWMWhaV21Oa1pXWm5hR2xxYzNSMWRuZDRlWHFEaElXR2g0aUppcEtUbEpXV2w1aVptcUtqcEtXbXA2aXBxckt6dExXMnQ3aTV1c0xEeE1YR3g4akp5dExUMU5YVzE5aloydUhpNCtUbDV1Zm82ZXJ4OHZQMDlmYjMrUG42LzhRQUh3RUFBd0VCQVFFQkFRRUJBUUFBQUFBQUFBRUNBd1FGQmdjSUNRb0wvOFFBdFJFQUFnRUNCQVFEQkFjRkJBUUFBUUozQUFFQ0F4RUVCU0V4QmhKQlVRZGhjUk1pTW9FSUZFS1JvYkhCQ1NNelV2QVZZbkxSQ2hZa05PRWw4UmNZR1JvbUp5Z3BLalUyTnpnNU9rTkVSVVpIU0VsS1UxUlZWbGRZV1ZwalpHVm1aMmhwYW5OMGRYWjNlSGw2Z29PRWhZYUhpSW1La3BPVWxaYVhtSm1hb3FPa3BhYW5xS21xc3JPMHRiYTN1TG02d3NQRXhjYkh5TW5LMHRQVTFkYlgyTm5hNHVQazVlYm42T25xOHZQMDlmYjMrUG42LzlvQURBTUJBQUlSQXhFQVB3RDlJdDU5cU41OXFxNzZOOWVGekh1Y3BhM24ybzNuMnFydm8zMGN3Y3BXODAwZWFhcmVaUjVsYzNNZG5JV2ZOTkhtbXEzbVVlWlJ6QnlGYnpmODVvODMvT2FyZVpSNWxjM01kZklXZk4vem1qemY4NXF0NWxIbVVjd2NoWDh3ZXRIbUQxcXR2SHZSdkh2WE56SFh5bG56QjYwZVlQV3EyOGU5RzhlOUhNSEtWdDlHK3EzbS9TanpmcFhOekhaeWxuZlJ2cXQ1djBvODM2VWN3Y3BXOHdVZVlLcmViOUtQTitsYy9NZGZLV2ZNRkhtQ3EzbS9TanpmcFJ6QnlsZmZSdnFwNW52K3RIbWUvd0N0Yy9NZHZJVzk5Rytxbm1lLzYwZVo3L3JSekJ5RmZ6ZmNVZWI3aXEzbUNqekJXRnp0NUN6NXZ1S1BOOXhWYnpCUjVnb3VISVZ0OUcrcS9tKzFIbSsxWTNPemxMRytqZlZmemZhanpmYWk0Y3BWOHdVZVlLcmViOUtQTitsUmM3T1FzK1lLUE1GVnZOK2xIbS9TaTRjaFY4MzNvODMzcXR2bzMxbGM3ZVFzK2I3MGViNzFXMzBiNkxoeUZYelBmOWFQTTkvMXF0NXZ1S1BOOXhTT3prTFBtZS82MGVaNy9yVmJ6ZmNVZWI3aWdPUXErWVBXanpCNjFWMzBiNmpVN09VdGVZUFdqekI2MVYzMGI2TlE1U3Q1dnRSNXZ0VlR6ZnBSNXYwb092a0xmbSsxSG0rMVZQTitsSG0vU2dPUXJiNk45VmZPOXpSNTN1YW83T1V0YjZOOVZmTzl6UjUzdWFBNVNyNW52K3RIbWUvNjFVOHozL1dqelBmOWExNVRzNUMzNW52K3RIbWUvd0N0VlBNOS93QmFQTTkvMW81UTVDcjV2dUtQTjl4VlhmUnZybzVUcHNXdk45eFI1dnVLcTc2TjlIS0ZpbjV2MW84MzYxWDNqM28zajNyczVEb3NXUE4rdEhtL1dxKzhlOUc4ZTlISUZpcjV2MG84MzZWVzMwYjY3dVEwc1dmTitsSG0vU3EyK2pmUnlCWXErYjdtanpmYzFYMzBiNjlEMlpSWTgzM05IbSs1cXZ2bzMwZXpBcmIvQVBhL1dqZi9BTFg2MVc4eWp6SzlEa0FzNy84QWEvV2pmL3RmclZiektQTW81QUsrK2pmVU82amRYZnlFWEp0OUcrb2QxRzZqa0M1QnZvMzFCdW8zVjNjaGp6RSsramZVRzZqZFJ5QnpFZTczbzNlOVJidmVqZDcxMThweTg1THU5Nk4zdlVXNzNvM2U5SEtIT016Um1tNW96WFJZNHVjZG1qTk56Um1pd2M1SHVvM1VsRmJXT0huRjNVYnFTaWl3YzQzSm95YVp1bzNWcWVmemo4bWpKcG02amRRSE9OM1VicVp1bzNWZGp6dWNmdW8zVXpkUnVvc0hPTXpSbW1ab3pWbkR6c2Ztak5NelJtZ09kak0rOUdmZW85MUc2ck9MbkpNKzlHZmVvOTFHNmdPY2J1bzNWSGswWk5VY0hPU2JxTjFSNU5HVFFIT1I1RkdSVWU2amRUT1BtSk1paklxUGRSdW9EbUl0eG8zR285M3ZSdTk2bzQrY2szR2pjYWozZTlHNzNvRG5JOTFHNm90NTlhTjU5YURqNXlYZFJ1cUxlZldqZWZXZ09jaTNVYnFqeWFNbWc1ZVlrM1VicWp5YU1tZ09ZaDMwYjZpMzBiNkRrNXlYZlJ2cUxmUnZvRG5JdDlHK29kM3ZSdTk2bTV6Y3hOdm8zMUR1OTZOM3ZSY09ZaTNlOUc3M3FIZlJ2cEhQekUyNzNvM2U5UTc2TjlBY3hENWxIbVZEdTk2TjN2VW5QekUzbVVlWlVPNzNvM2U5QWN4RmswWk5RYnFOMUk1N2srVFJrMUJ1bzNVQmNnMzBiNmh5S01pb3VZM0p0OUcrb2NpaklvdUZ5RHpQZWp6UGVvTjlHK3BNTGsvbWU5SG1lOVFiNk45QVhJUE4vd0E1bzgzL0FEbW9ONDlxTjQ5cURPNVA1djhBbk5IbS93Q2MxQnZIdFJ2SHRRRnl2dUZHNFZCdm8zMEdGeWZjS053cURmUnZvQzVGUlJSUVJjS0tLS0F1Zi8vWiIgaGVpZ2h0PSI3MDkiIHdpZHRoPSIyNSIvPjxjbGlwUGF0aCBpZD0iY2xpcDkiPjxyZWN0IGhlaWdodD0iNzA5IiB3aWR0aD0iMjUiIHk9IjIuNzU2NzJlLTA1IiB4PSIxLjcxNjYxZS0wNSIvPjwvY2xpcFBhdGg+PC9kZWZzPjxnPjx0ZXh0IHRyYW5zZm9ybT0ibWF0cml4KC0xLjgzNjk3ZS0xNiAtMSAxIC0xLjgzNjk3ZS0xNiAzNC42IDQ2NCkiIGZvbnQtc2l6ZT0iMjciIGZvbnQtd2VpZ2h0PSI3MDAiIGZvbnQtZmFtaWx5PSJDYWxpYnJpLENhbGlicmlfTVNGb250U2VydmljZSxzYW5zLXNlcmlmIj5UcmFuc2Zvcm0gbWV0aG9kPC90ZXh0PjxnIGNsaXAtcGF0aD0idXJsKCNjbGlwMCkiPjxnIGNsaXAtcGF0aD0idXJsKCNjbGlwMSkiPjxnIGNsaXAtcGF0aD0idXJsKCNjbGlwMikiPjxwYXRoIHRyYW5zZm9ybT0ibWF0cml4KDEuMDAwMzUgMCAwIDEgNDEuMDU4NCAwKSIgZmlsbD0iI0ZGRkZGRiIgZD0iTTAgNzIwIDg3MS41NzkgNzIwIDg3MS41NzkgMCAwIDBaIi8+PHBhdGggdHJhbnNmb3JtPSJtYXRyaXgoMS4wMDAzNSAwIDAgMSA0MS4wNTg0IDApIiBmaWxsPSIjRkZGRkZGIiBkPSJNNDguNjE2MSA2NTQuNzY3IDczMy41NzkgNjU0Ljc2NyA3MzMuNTc5IDU0IDQ4LjYxNjEgNTRaIi8+PGcgY2xpcC1wYXRoPSJ1cmwoI2NsaXAzKSI+PHBhdGggdHJhbnNmb3JtPSJtYXRyaXgoMS4wMDAzNSAwIDAgMSA0MS4wNTg0IDApIiBmaWxsPSIjRjU5NzZFIiBzdHJva2UtbGluZWpvaW49InJvdW5kIiBzdHJva2Utd2lkdGg9IjEuNDgwMjYiIHN0cm9rZT0iI0ZGRkZGRiIgZD0iTTQ4LjYxNjEgNTQgMTg1LjYwOCA1NCAxODUuNjA4IDI1NC4yNTYgNDguNjE2MSAyNTQuMjU2IDQ4LjYxNjEgNTQiLz48L2c+PGcgY2xpcC1wYXRoPSJ1cmwoI2NsaXA0KSI+PHBhdGggdHJhbnNmb3JtPSJtYXRyaXgoMS4wMDAzNSAwIDAgMSA0MS4wNTg0IDApIiBmaWxsPSIjRjdDMkEyIiBzdHJva2UtbGluZWpvaW49InJvdW5kIiBzdHJva2Utd2lkdGg9IjEuNDgwMjYiIHN0cm9rZT0iI0ZGRkZGRiIgZD0iTTE4NS42MDggNTQgMzIyLjYwMiA1NCAzMjIuNjAyIDI1NC4yNTYgMTg1LjYwOCAyNTQuMjU2IDE4NS42MDggNTQiLz48L2c+PGcgY2xpcC1wYXRoPSJ1cmwoI2NsaXA1KSI+PHBhdGggdHJhbnNmb3JtPSJtYXRyaXgoMS4wMDAzNSAwIDAgMSA0MS4wNTg0IDApIiBmaWxsPSIjNzExRjU3IiBzdHJva2UtbGluZWpvaW49InJvdW5kIiBzdHJva2Utd2lkdGg9IjEuNDgwMjYiIHN0cm9rZT0iI0ZGRkZGRiIgZD0iTTMyMi42MDIgNTQgNDU5LjU5NCA1NCA0NTkuNTk0IDI1NC4yNTYgMzIyLjYwMiAyNTQuMjU2IDMyMi42MDIgNTQiLz48L2c+PGcgY2xpcC1wYXRoPSJ1cmwoI2NsaXA2KSI+PHBhdGggdHJhbnNmb3JtPSJtYXRyaXgoMS4wMDAzNSAwIDAgMSA0MS4wNTg0IDApIiBmaWxsPSIjOTIxQzVCIiBzdHJva2UtbGluZWpvaW49InJvdW5kIiBzdHJva2Utd2lkdGg9IjEuNDgwMjYiIHN0cm9rZT0iI0ZGRkZGRiIgZD0iTTQ1OS41OTQgNTQgNTk2LjU4NyA1NCA1OTYuNTg3IDI1NC4yNTYgNDU5LjU5NCAyNTQuMjU2IDQ1OS41OTQgNTQiLz48L2c+PGcgY2xpcC1wYXRoPSJ1cmwoI2NsaXA3KSI+PHBhdGggdHJhbnNmb3JtPSJtYXRyaXgoMS4wMDAzNSAwIDAgMSA0MS4wNTg0IDApIiBmaWxsPSIjMEIwOTIwIiBzdHJva2UtbGluZWpvaW49InJvdW5kIiBzdHJva2Utd2lkdGg9IjEuNDgwMjYiIHN0cm9rZT0iI0ZGRkZGRiIgZD0iTTU5Ni41ODcgNTQgNzMzLjU3OSA1NCA3MzMuNTc5IDI1NC4yNTYgNTk2LjU4NyAyNTQuMjU2IDU5Ni41ODcgNTQiLz48L2c+PGc+PHBhdGggdHJhbnNmb3JtPSJtYXRyaXgoMS4wMDAzNSAwIDAgMSA0MS4wNTg0IDApIiBmaWxsPSIjRjdEMEI1IiBzdHJva2UtbGluZWpvaW49InJvdW5kIiBzdHJva2Utd2lkdGg9IjEuNDgwMjYiIHN0cm9rZT0iI0ZGRkZGRiIgZD0iTTQ4LjYxNjEgMjU0LjI1NiAxODUuNjA4IDI1NC4yNTYgMTg1LjYwOCA0NTQuNTExIDQ4LjYxNjEgNDU0LjUxMSA0OC42MTYxIDI1NC4yNTYiLz48L2c+PGc+PHBhdGggdHJhbnNmb3JtPSJtYXRyaXgoMS4wMDAzNSAwIDAgMSA0MS4wNTg0IDApIiBmaWxsPSIjRjdEMEI1IiBzdHJva2UtbGluZWpvaW49InJvdW5kIiBzdHJva2Utd2lkdGg9IjEuNDgwMjYiIHN0cm9rZT0iI0ZGRkZGRiIgZD0iTTE4NS42MDggMjU0LjI1NiAzMjIuNjAyIDI1NC4yNTYgMzIyLjYwMiA0NTQuNTExIDE4NS42MDggNDU0LjUxMSAxODUuNjA4IDI1NC4yNTYiLz48L2c+PGc+PHBhdGggdHJhbnNmb3JtPSJtYXRyaXgoMS4wMDAzNSAwIDAgMSA0MS4wNTg0IDApIiBmaWxsPSIjRjU5OTcwIiBzdHJva2UtbGluZWpvaW49InJvdW5kIiBzdHJva2Utd2lkdGg9IjEuNDgwMjYiIHN0cm9rZT0iI0ZGRkZGRiIgZD0iTTMyMi42MDIgMjU0LjI1NiA0NTkuNTk0IDI1NC4yNTYgNDU5LjU5NCA0NTQuNTExIDMyMi42MDIgNDU0LjUxMSAzMjIuNjAyIDI1NC4yNTYiLz48L2c+PGc+PHBhdGggdHJhbnNmb3JtPSJtYXRyaXgoMS4wMDAzNSAwIDAgMSA0MS4wNTg0IDApIiBmaWxsPSIjRkFFQkREIiBzdHJva2UtbGluZWpvaW49InJvdW5kIiBzdHJva2Utd2lkdGg9IjEuNDgwMjYiIHN0cm9rZT0iI0ZGRkZGRiIgZD0iTTQ1OS41OTQgMjU0LjI1NiA1OTYuNTg3IDI1NC4yNTYgNTk2LjU4NyA0NTQuNTExIDQ1OS41OTQgNDU0LjUxMSA0NTkuNTk0IDI1NC4yNTYiLz48L2c+PGc+PHBhdGggdHJhbnNmb3JtPSJtYXRyaXgoMS4wMDAzNSAwIDAgMSA0MS4wNTg0IDApIiBmaWxsPSIjRjU4QTYxIiBzdHJva2UtbGluZWpvaW49InJvdW5kIiBzdHJva2Utd2lkdGg9IjEuNDgwMjYiIHN0cm9rZT0iI0ZGRkZGRiIgZD0iTTU5Ni41ODcgMjU0LjI1NiA3MzMuNTc5IDI1NC4yNTYgNzMzLjU3OSA0NTQuNTExIDU5Ni41ODcgNDU0LjUxMSA1OTYuNTg3IDI1NC4yNTYiLz48L2c+PGc+PHBhdGggdHJhbnNmb3JtPSJtYXRyaXgoMS4wMDAzNSAwIDAgMSA0MS4wNTg0IDApIiBmaWxsPSIjRkFFQkREIiBzdHJva2UtbGluZWpvaW49InJvdW5kIiBzdHJva2Utd2lkdGg9IjEuNDgwMjYiIHN0cm9rZT0iI0ZGRkZGRiIgZD0iTTQ4LjYxNjEgNDU0LjUxMSAxODUuNjA4IDQ1NC41MTEgMTg1LjYwOCA2NTQuNzY3IDQ4LjYxNjEgNjU0Ljc2NyA0OC42MTYxIDQ1NC41MTEiLz48L2c+PGc+PHBhdGggdHJhbnNmb3JtPSJtYXRyaXgoMS4wMDAzNSAwIDAgMSA0MS4wNTg0IDApIiBmaWxsPSIjRjlEREM5IiBzdHJva2UtbGluZWpvaW49InJvdW5kIiBzdHJva2Utd2lkdGg9IjEuNDgwMjYiIHN0cm9rZT0iI0ZGRkZGRiIgZD0iTTE4NS42MDggNDU0LjUxMSAzMjIuNjAyIDQ1NC41MTEgMzIyLjYwMiA2NTQuNzY3IDE4NS42MDggNjU0Ljc2NyAxODUuNjA4IDQ1NC41MTEiLz48L2c+PGc+PHBhdGggdHJhbnNmb3JtPSJtYXRyaXgoMS4wMDAzNSAwIDAgMSA0MS4wNTg0IDApIiBmaWxsPSIjRjU5OTcwIiBzdHJva2UtbGluZWpvaW49InJvdW5kIiBzdHJva2Utd2lkdGg9IjEuNDgwMjYiIHN0cm9rZT0iI0ZGRkZGRiIgZD0iTTMyMi42MDIgNDU0LjUxMSA0NTkuNTk0IDQ1NC41MTEgNDU5LjU5NCA2NTQuNzY3IDMyMi42MDIgNjU0Ljc2NyAzMjIuNjAyIDQ1NC41MTEiLz48L2c+PGc+PHBhdGggdHJhbnNmb3JtPSJtYXRyaXgoMS4wMDAzNSAwIDAgMSA0MS4wNTg0IDApIiBmaWxsPSIjRkFFQkREIiBzdHJva2UtbGluZWpvaW49InJvdW5kIiBzdHJva2Utd2lkdGg9IjEuNDgwMjYiIHN0cm9rZT0iI0ZGRkZGRiIgZD0iTTQ1OS41OTQgNDU0LjUxMSA1OTYuNTg3IDQ1NC41MTEgNTk2LjU4NyA2NTQuNzY3IDQ1OS41OTQgNjU0Ljc2NyA0NTkuNTk0IDQ1NC41MTEiLz48L2c+PGc+PHBhdGggdHJhbnNmb3JtPSJtYXRyaXgoMS4wMDAzNSAwIDAgMSA0MS4wNTg0IDApIiBmaWxsPSIjODQxRTVBIiBzdHJva2UtbGluZWpvaW49InJvdW5kIiBzdHJva2Utd2lkdGg9IjEuNDgwMjYiIHN0cm9rZT0iI0ZGRkZGRiIgZD0iTTU5Ni41ODcgNDU0LjUxMSA3MzMuNTc5IDQ1NC41MTEgNzMzLjU3OSA2NTQuNzY3IDU5Ni41ODcgNjU0Ljc2NyA1OTYuNTg3IDQ1NC41MTEiLz48L2c+PHBhdGggdHJhbnNmb3JtPSJtYXRyaXgoMS4wMDAzNSAwIDAgMSAxNTguMjEyIDY1NC43NjcpIiBmaWxsPSJub25lIiBzdHJva2UtbGluZWpvaW49InJvdW5kIiBzdHJva2Utd2lkdGg9IjAuNzg5NDc0IiBzdHJva2U9IiMwMDAwMDAiIGQ9Ik0wIDAgMCAzLjQ1Mzk1Ii8+PHBhdGggdHJhbnNmb3JtPSJtYXRyaXgoMS4wMDAzNSAwIDAgLTEgMTM0LjkyIDY3NS4xNzIpIiBkPSJNLTAuMDM2MDgxNCAxMi45NTA1IDEuODQ4NDggMTIuOTUwNSA1LjQzNzE5IDcuNjI0MjggOS4wMDM3IDEyLjk1MDUgMTAuODg1NSAxMi45NTA1IDYuMzA1OTIgNi4xNjcxNSA2LjMwNTkyIDAgNC41NDYyNiAwIDQuNTQ2MjYgNi4xNjcxNS0wLjAzNjA4MTQgMTIuOTUwNVoiLz48cGF0aCB0cmFuc2Zvcm09Im1hdHJpeCgxLjAwMDM1IDAgMCAtMSAxNDUuNzc0IDY3NS4xNzIpIiBkPSJNMS43NDMwMSAxMi45NTA1IDkuOTMwNzEgMTIuOTUwNSA5LjkzMDcxIDExLjQ3MzkgMy40OTQzNSAxMS40NzM5IDMuNDk0MzUgNy42NDA5MyA5LjY2MTQ5IDcuNjQwOTMgOS42NjE0OSA2LjE2NzE1IDMuNDk0MzUgNi4xNjcxNSAzLjQ5NDM1IDEuNDczNzkgMTAuMDg2MSAxLjQ3Mzc5IDEwLjA4NjEgMCAxLjc0MzAxIDAgMS43NDMwMSAxMi45NTA1WiIvPjxwYXRoIHRyYW5zZm9ybT0ibWF0cml4KDEuMDAwMzUgMCAwIC0xIDE1Ny4wMDIgNjc1LjE3MikiIGQ9Ik02LjA3Mjc4IDExLjIyNDEgMy42OTQxOCA0Ljc3OTQgOC40NTY5MyA0Ljc3OTQgNi4wNzI3OCAxMS4yMjQxWk01LjA4MTkzIDEyLjk1MDUgNy4wNjkxOCAxMi45NTA1IDEyLjAwNCAwIDEwLjE4MzMgMCA5LjAwMzcgMy4zMjIyNyAzLjE2Njg0IDMuMzIyMjcgMS45ODcyNSAwIDAuMTM4Nzc1IDAgNS4wODE5MyAxMi45NTA1WiIvPjxwYXRoIHRyYW5zZm9ybT0ibWF0cml4KDEuMDAwMzUgMCAwIC0xIDE2OS4xNTcgNjc1LjE3MikiIGQ9Ik03Ljg4NTE4IDYuMDcyNzhDOC4yNjA3OCA1Ljk0NTExIDguNjI2MjMgNS42NzMxMSA4Ljk4MTUgNS4yNTY3OCA5LjMzNjc2IDQuODQwNDYgOS42OTM4OCA0LjI2Nzc5IDEwLjA1MjggMy41Mzg3NUwxMS44MzE5IDAgOS45NDczNyAwIDguMjkzMTcgMy4zMjIyN0M3Ljg2Mzg5IDQuMTkwMDggNy40NDg1MSA0Ljc2NTUyIDcuMDQ2OTggNS4wNDg2MiA2LjY0NTQ1IDUuMzMxNzIgNi4wOTc3NiA1LjQ3MzI3IDUuNDAzODkgNS40NzMyN0wzLjQ5NDM1IDUuNDczMjcgMy40OTQzNSAwIDEuNzQzMDEgMCAxLjc0MzAxIDEyLjk1MDUgNS42OTgwOSAxMi45NTA1QzcuMTc4MzQgMTIuOTUwNSA4LjI4Mjk5IDEyLjY0MDUgOS4wMTIwMyAxMi4wMjA3IDkuNzQxMDcgMTEuNDAyNiAxMC4xMDU2IDEwLjQ2OTIgMTAuMTA1NiA5LjIyMDE5IDEwLjEwNTYgOC40MDQxOSA5LjkxNTkyIDcuNzI2OTcgOS41MzY2IDcuMTg4NTMgOS4xNTcyNyA2LjY1MTk0IDguNjA2OCA2LjI4MDAzIDcuODg1MTggNi4wNzI3OFpNMy40OTQzNSAxMS41MSAzLjQ5NDM1IDYuOTEzNzUgNS42OTgwOSA2LjkxMzc1QzYuNTQxODQgNi45MTM3NSA3LjE3OTI5IDcuMTA4OTUgNy42MTA0IDcuNDk5MzggOC4wNDE1MiA3Ljg4OTgxIDguMjU3MDkgOC40NjM0IDguMjU3MDkgOS4yMjAxOSA4LjI1NzA5IDkuOTc2OTggOC4wNDE1MiAxMC41NDc4IDcuNjEwNCAxMC45MzI3IDcuMTc5MjkgMTEuMzE3NSA2LjU0MTg0IDExLjUxIDUuNjk4MDkgMTEuNTFMMy40OTQzNSAxMS41MVoiLz48cGF0aCB0cmFuc2Zvcm09Im1hdHJpeCgxLjAwMDM1IDAgMCAxIDI5NS4yNTIgNjU0Ljc2NykiIGZpbGw9Im5vbmUiIHN0cm9rZS1saW5lam9pbj0icm91bmQiIHN0cm9rZS13aWR0aD0iMC43ODk0NzQiIHN0cm9rZT0iIzAwMDAwMCIgZD0iTTAgMCAwIDMuNDUzOTUiLz48cGF0aCB0cmFuc2Zvcm09Im1hdHJpeCgxLjAwMDM1IDAgMCAtMSAyNzAuODA5IDY3NS4xNzIpIiBkPSJNMS43NDMwMSAxMi45NTA1IDMuNDk0MzUgMTIuOTUwNSAzLjQ5NDM1IDEuNDczNzkgOS44MDAyNyAxLjQ3Mzc5IDkuODAwMjcgMCAxLjc0MzAxIDAgMS43NDMwMSAxMi45NTA1WiIvPjxwYXRoIHRyYW5zZm9ybT0ibWF0cml4KDEuMDAwMzUgMCAwIC0xIDI4MC4wNjUgNjc1LjE3MikiIGQ9Ik02Ljk5OTc5IDExLjc2MjVDNS43MjY3NiAxMS43NjI1IDQuNzE1NTYgMTEuMjg3OSAzLjk2NjE4IDEwLjMzODcgMy4yMTg2NiA5LjM5MTM1IDIuODQ0ODggOC4wOTg4OSAyLjg0NDg4IDYuNDYxMzUgMi44NDQ4OCA0LjgzMTIyIDMuMjE4NjYgMy41NDE1MyAzLjk2NjE4IDIuNTkyMzEgNC43MTU1NiAxLjY0NDk0IDUuNzI2NzYgMS4xNzEyNiA2Ljk5OTc5IDEuMTcxMjYgOC4yNzA5NyAxLjE3MTI2IDkuMjc4NDcgMS42NDQ5NCAxMC4wMjIzIDIuNTkyMzEgMTAuNzY2MSAzLjU0MTUzIDExLjEzODEgNC44MzEyMiAxMS4xMzgxIDYuNDYxMzUgMTEuMTM4MSA4LjA5ODg5IDEwLjc2NjEgOS4zOTEzNSAxMC4wMjIzIDEwLjMzODcgOS4yNzg0NyAxMS4yODc5IDguMjcwOTcgMTEuNzYyNSA2Ljk5OTc5IDExLjc2MjVaTTYuOTk5NzkgMTMuMTgzNkM4LjgxNDk3IDEzLjE4MzYgMTAuMjY1NiAxMi41NzQ4IDExLjM1MTggMTEuMzU3MyAxMi40Mzk4IDEwLjEzOTggMTIuOTgzOCA4LjUwNzggMTIuOTgzOCA2LjQ2MTM1IDEyLjk4MzggNC40MjA0NCAxMi40Mzk4IDIuNzkxMjMgMTEuMzUxOCAxLjU3MzcgMTAuMjY1NiAwLjM1NjE4NyA4LjgxNDk3LTAuMjUyNTcgNi45OTk3OS0wLjI1MjU3IDUuMTc5MDctMC4yNTI1NyAzLjcyMjg1IDAuMzU0MzM5IDIuNjMxMTcgMS41NjgxNSAxLjU0MTMyIDIuNzgzODIgMC45OTY0MDIgNC40MTQ4OSAwLjk5NjQwMiA2LjQ2MTM1IDAuOTk2NDAyIDguNTA3OCAxLjU0MTMyIDEwLjEzOTggMi42MzExNyAxMS4zNTczIDMuNzIyODUgMTIuNTc0OCA1LjE3OTA3IDEzLjE4MzYgNi45OTk3OSAxMy4xODM2WiIvPjxwYXRoIHRyYW5zZm9ybT0ibWF0cml4KDEuMDAwMzUgMCAwIC0xIDI5NC4wNTEgNjc1LjE3MikiIGQ9Ik02Ljk5OTc5IDExLjc2MjVDNS43MjY3NiAxMS43NjI1IDQuNzE1NTYgMTEuMjg3OSAzLjk2NjE4IDEwLjMzODcgMy4yMTg2NiA5LjM5MTM1IDIuODQ0ODggOC4wOTg4OSAyLjg0NDg4IDYuNDYxMzUgMi44NDQ4OCA0LjgzMTIyIDMuMjE4NjYgMy41NDE1MyAzLjk2NjE4IDIuNTkyMzEgNC43MTU1NiAxLjY0NDk0IDUuNzI2NzYgMS4xNzEyNiA2Ljk5OTc5IDEuMTcxMjYgOC4yNzA5NyAxLjE3MTI2IDkuMjc4NDcgMS42NDQ5NCAxMC4wMjIzIDIuNTkyMzEgMTAuNzY2MSAzLjU0MTUzIDExLjEzODEgNC44MzEyMiAxMS4xMzgxIDYuNDYxMzUgMTEuMTM4MSA4LjA5ODg5IDEwLjc2NjEgOS4zOTEzNSAxMC4wMjIzIDEwLjMzODcgOS4yNzg0NyAxMS4yODc5IDguMjcwOTcgMTEuNzYyNSA2Ljk5OTc5IDExLjc2MjVaTTYuOTk5NzkgMTMuMTgzNkM4LjgxNDk3IDEzLjE4MzYgMTAuMjY1NiAxMi41NzQ4IDExLjM1MTggMTEuMzU3MyAxMi40Mzk4IDEwLjEzOTggMTIuOTgzOCA4LjUwNzggMTIuOTgzOCA2LjQ2MTM1IDEyLjk4MzggNC40MjA0NCAxMi40Mzk4IDIuNzkxMjMgMTEuMzUxOCAxLjU3MzcgMTAuMjY1NiAwLjM1NjE4NyA4LjgxNDk3LTAuMjUyNTcgNi45OTk3OS0wLjI1MjU3IDUuMTc5MDctMC4yNTI1NyAzLjcyMjg1IDAuMzU0MzM5IDIuNjMxMTcgMS41NjgxNSAxLjU0MTMyIDIuNzgzODIgMC45OTY0MDIgNC40MTQ4OSAwLjk5NjQwMiA2LjQ2MTM1IDAuOTk2NDAyIDguNTA3OCAxLjU0MTMyIDEwLjEzOTggMi42MzExNyAxMS4zNTczIDMuNzIyODUgMTIuNTc0OCA1LjE3OTA3IDEzLjE4MzYgNi45OTk3OSAxMy4xODM2WiIvPjxwYXRoIHRyYW5zZm9ybT0ibWF0cml4KDEuMDAwMzUgMCAwIC0xIDMwOC4wMzggNjc1LjE3MikiIGQ9Ik0xLjc0MzAxIDEyLjk1MDUgMy40OTQzNSAxMi45NTA1IDMuNDk0MzUgNy40NzcxOCA5LjMwNjIzIDEyLjk1MDUgMTEuNTYyNyAxMi45NTA1IDUuMTM0NjYgNi45MTM3NSAxMi4wMjA3IDAgOS43MTQyMyAwIDMuNDk0MzUgNi4yMzY1MyAzLjQ5NDM1IDAgMS43NDMwMSAwIDEuNzQzMDEgMTIuOTUwNVoiLz48cGF0aCB0cmFuc2Zvcm09Im1hdHJpeCgxLjAwMDM1IDAgMCAxIDQzMi4yOTIgNjU0Ljc2NykiIGZpbGw9Im5vbmUiIHN0cm9rZS1saW5lam9pbj0icm91bmQiIHN0cm9rZS13aWR0aD0iMC43ODk0NzQiIHN0cm9rZT0iIzAwMDAwMCIgZD0iTTAgMCAwIDMuNDUzOTUiLz48cGF0aCB0cmFuc2Zvcm09Im1hdHJpeCgxLjAwMDM1IDAgMCAtMSA0MDUuMzM3IDY3NS4xNzIpIiBkPSJNMS43NDMwMSAxMi45NTA1IDMuNDk0MzUgMTIuOTUwNSAzLjQ5NDM1IDcuNjQwOTMgOS44NjEzMyA3LjY0MDkzIDkuODYxMzMgMTIuOTUwNSAxMS42MTI3IDEyLjk1MDUgMTEuNjEyNyAwIDkuODYxMzMgMCA5Ljg2MTMzIDYuMTY3MTUgMy40OTQzNSA2LjE2NzE1IDMuNDk0MzUgMCAxLjc0MzAxIDAgMS43NDMwMSAxMi45NTA1WiIvPjxwYXRoIHRyYW5zZm9ybT0ibWF0cml4KDEuMDAwMzUgMCAwIC0xIDQxOC42OTkgNjc1LjE3MikiIGQ9Ik02Ljk5OTc5IDExLjc2MjVDNS43MjY3NiAxMS43NjI1IDQuNzE1NTYgMTEuMjg3OSAzLjk2NjE4IDEwLjMzODcgMy4yMTg2NiA5LjM5MTM1IDIuODQ0ODggOC4wOTg4OSAyLjg0NDg4IDYuNDYxMzUgMi44NDQ4OCA0LjgzMTIyIDMuMjE4NjYgMy41NDE1MyAzLjk2NjE4IDIuNTkyMzEgNC43MTU1NiAxLjY0NDk0IDUuNzI2NzYgMS4xNzEyNiA2Ljk5OTc5IDEuMTcxMjYgOC4yNzA5NyAxLjE3MTI2IDkuMjc4NDcgMS42NDQ5NCAxMC4wMjIzIDIuNTkyMzEgMTAuNzY2MSAzLjU0MTUzIDExLjEzODEgNC44MzEyMiAxMS4xMzgxIDYuNDYxMzUgMTEuMTM4MSA4LjA5ODg5IDEwLjc2NjEgOS4zOTEzNSAxMC4wMjIzIDEwLjMzODcgOS4yNzg0NyAxMS4yODc5IDguMjcwOTcgMTEuNzYyNSA2Ljk5OTc5IDExLjc2MjVaTTYuOTk5NzkgMTMuMTgzNkM4LjgxNDk3IDEzLjE4MzYgMTAuMjY1NiAxMi41NzQ4IDExLjM1MTggMTEuMzU3MyAxMi40Mzk4IDEwLjEzOTggMTIuOTgzOCA4LjUwNzggMTIuOTgzOCA2LjQ2MTM1IDEyLjk4MzggNC40MjA0NCAxMi40Mzk4IDIuNzkxMjMgMTEuMzUxOCAxLjU3MzcgMTAuMjY1NiAwLjM1NjE4NyA4LjgxNDk3LTAuMjUyNTcgNi45OTk3OS0wLjI1MjU3IDUuMTc5MDctMC4yNTI1NyAzLjcyMjg1IDAuMzU0MzM5IDIuNjMxMTcgMS41NjgxNSAxLjU0MTMyIDIuNzgzODIgMC45OTY0MDIgNC40MTQ4OSAwLjk5NjQwMiA2LjQ2MTM1IDAuOTk2NDAyIDguNTA3OCAxLjU0MTMyIDEwLjEzOTggMi42MzExNyAxMS4zNTczIDMuNzIyODUgMTIuNTc0OCA1LjE3OTA3IDEzLjE4MzYgNi45OTk3OSAxMy4xODM2WiIvPjxwYXRoIHRyYW5zZm9ybT0ibWF0cml4KDEuMDAwMzUgMCAwIC0xIDQzMi42ODUgNjc1LjE3MikiIGQ9Ik0xLjc0MzAxIDEyLjk1MDUgNC4zNTQ3NSAxMi45NTA1IDcuNjU3NTkgNC4xMzgyNiAxMC45Nzk5IDEyLjk1MDUgMTMuNTkxNiAxMi45NTA1IDEzLjU5MTYgMCAxMS44ODE5IDAgMTEuODgxOSAxMS4zNzEyIDguNTQyOTcgMi40ODk2MiA2Ljc4MzMxIDIuNDg5NjIgMy40NDQzOSAxMS4zNzEyIDMuNDQ0MzkgMCAxLjc0MzAxIDAgMS43NDMwMSAxMi45NTA1WiIvPjxwYXRoIHRyYW5zZm9ybT0ibWF0cml4KDEuMDAwMzUgMCAwIC0xIDQ0OC4wMTcgNjc1LjE3MikiIGQ9Ik0xLjc0MzAxIDEyLjk1MDUgOS45MzA3MSAxMi45NTA1IDkuOTMwNzEgMTEuNDczOSAzLjQ5NDM1IDExLjQ3MzkgMy40OTQzNSA3LjY0MDkzIDkuNjYxNDkgNy42NDA5MyA5LjY2MTQ5IDYuMTY3MTUgMy40OTQzNSA2LjE2NzE1IDMuNDk0MzUgMS40NzM3OSAxMC4wODYxIDEuNDczNzkgMTAuMDg2MSAwIDEuNzQzMDEgMCAxLjc0MzAxIDEyLjk1MDVaIi8+PHBhdGggdHJhbnNmb3JtPSJtYXRyaXgoMS4wMDAzNSAwIDAgMSA1NjkuMzMzIDY1NC43NjcpIiBmaWxsPSJub25lIiBzdHJva2UtbGluZWpvaW49InJvdW5kIiBzdHJva2Utd2lkdGg9IjAuNzg5NDc0IiBzdHJva2U9IiMwMDAwMDAiIGQ9Ik0wIDAgMCAzLjQ1Mzk1Ii8+PHBhdGggdHJhbnNmb3JtPSJtYXRyaXgoMS4wMDAzNSAwIDAgLTEgNTM1LjU5IDY3NS4xNzIpIiBkPSJNMC41OTExOCAxMi45NTA1IDIuMzU5MTcgMTIuOTUwNSA1LjA4MTkzIDIuMDAzOTEgNy43OTYzNiAxMi45NTA1IDkuNzY2OTYgMTIuOTUwNSAxMi40ODk3IDIuMDAzOTEgMTUuMjA0MiAxMi45NTA1IDE2Ljk4MzIgMTIuOTUwNSAxMy43MzA0IDAgMTEuNTI2NiAwIDguNzk1NTQgMTEuMjQwNyA2LjAzNjcgMCAzLjgzMjk2IDAgMC41OTExOCAxMi45NTA1WiIvPjxwYXRoIHRyYW5zZm9ybT0ibWF0cml4KDEuMDAwMzUgMCAwIC0xIDU1My4xNTkgNjc1LjE3MikiIGQ9Ik02Ljk5OTc5IDExLjc2MjVDNS43MjY3NiAxMS43NjI1IDQuNzE1NTYgMTEuMjg3OSAzLjk2NjE4IDEwLjMzODcgMy4yMTg2NiA5LjM5MTM1IDIuODQ0ODggOC4wOTg4OSAyLjg0NDg4IDYuNDYxMzUgMi44NDQ4OCA0LjgzMTIyIDMuMjE4NjYgMy41NDE1MyAzLjk2NjE4IDIuNTkyMzEgNC43MTU1NiAxLjY0NDk0IDUuNzI2NzYgMS4xNzEyNiA2Ljk5OTc5IDEuMTcxMjYgOC4yNzA5NyAxLjE3MTI2IDkuMjc4NDcgMS42NDQ5NCAxMC4wMjIzIDIuNTkyMzEgMTAuNzY2MSAzLjU0MTUzIDExLjEzODEgNC44MzEyMiAxMS4xMzgxIDYuNDYxMzUgMTEuMTM4MSA4LjA5ODg5IDEwLjc2NjEgOS4zOTEzNSAxMC4wMjIzIDEwLjMzODcgOS4yNzg0NyAxMS4yODc5IDguMjcwOTcgMTEuNzYyNSA2Ljk5OTc5IDExLjc2MjVaTTYuOTk5NzkgMTMuMTgzNkM4LjgxNDk3IDEzLjE4MzYgMTAuMjY1NiAxMi41NzQ4IDExLjM1MTggMTEuMzU3MyAxMi40Mzk4IDEwLjEzOTggMTIuOTgzOCA4LjUwNzggMTIuOTgzOCA2LjQ2MTM1IDEyLjk4MzggNC40MjA0NCAxMi40Mzk4IDIuNzkxMjMgMTEuMzUxOCAxLjU3MzcgMTAuMjY1NiAwLjM1NjE4NyA4LjgxNDk3LTAuMjUyNTcgNi45OTk3OS0wLjI1MjU3IDUuMTc5MDctMC4yNTI1NyAzLjcyMjg1IDAuMzU0MzM5IDIuNjMxMTcgMS41NjgxNSAxLjU0MTMyIDIuNzgzODIgMC45OTY0MDIgNC40MTQ4OSAwLjk5NjQwMiA2LjQ2MTM1IDAuOTk2NDAyIDguNTA3OCAxLjU0MTMyIDEwLjEzOTggMi42MzExNyAxMS4zNTczIDMuNzIyODUgMTIuNTc0OCA1LjE3OTA3IDEzLjE4MzYgNi45OTk3OSAxMy4xODM2WiIvPjxwYXRoIHRyYW5zZm9ybT0ibWF0cml4KDEuMDAwMzUgMCAwIC0xIDU2Ny4xNDYgNjc1LjE3MikiIGQ9Ik03Ljg4NTE4IDYuMDcyNzhDOC4yNjA3OCA1Ljk0NTExIDguNjI2MjMgNS42NzMxMSA4Ljk4MTUgNS4yNTY3OCA5LjMzNjc2IDQuODQwNDYgOS42OTM4OCA0LjI2Nzc5IDEwLjA1MjggMy41Mzg3NUwxMS44MzE5IDAgOS45NDczNyAwIDguMjkzMTcgMy4zMjIyN0M3Ljg2Mzg5IDQuMTkwMDggNy40NDg1MSA0Ljc2NTUyIDcuMDQ2OTggNS4wNDg2MiA2LjY0NTQ1IDUuMzMxNzIgNi4wOTc3NiA1LjQ3MzI3IDUuNDAzODkgNS40NzMyN0wzLjQ5NDM1IDUuNDczMjcgMy40OTQzNSAwIDEuNzQzMDEgMCAxLjc0MzAxIDEyLjk1MDUgNS42OTgwOSAxMi45NTA1QzcuMTc4MzQgMTIuOTUwNSA4LjI4Mjk5IDEyLjY0MDUgOS4wMTIwMyAxMi4wMjA3IDkuNzQxMDcgMTEuNDAyNiAxMC4xMDU2IDEwLjQ2OTIgMTAuMTA1NiA5LjIyMDE5IDEwLjEwNTYgOC40MDQxOSA5LjkxNTkyIDcuNzI2OTcgOS41MzY2IDcuMTg4NTMgOS4xNTcyNyA2LjY1MTk0IDguNjA2OCA2LjI4MDAzIDcuODg1MTggNi4wNzI3OFpNMy40OTQzNSAxMS41MSAzLjQ5NDM1IDYuOTEzNzUgNS42OTgwOSA2LjkxMzc1QzYuNTQxODQgNi45MTM3NSA3LjE3OTI5IDcuMTA4OTUgNy42MTA0IDcuNDk5MzggOC4wNDE1MiA3Ljg4OTgxIDguMjU3MDkgOC40NjM0IDguMjU3MDkgOS4yMjAxOSA4LjI1NzA5IDkuOTc2OTggOC4wNDE1MiAxMC41NDc4IDcuNjEwNCAxMC45MzI3IDcuMTc5MjkgMTEuMzE3NSA2LjU0MTg0IDExLjUxIDUuNjk4MDkgMTEuNTFMMy40OTQzNSAxMS41MVoiLz48cGF0aCB0cmFuc2Zvcm09Im1hdHJpeCgxLjAwMDM1IDAgMCAtMSA1NzkuNDkyIDY3NS4xNzIpIiBkPSJNMS43NDMwMSAxMi45NTA1IDMuNDk0MzUgMTIuOTUwNSAzLjQ5NDM1IDEuNDczNzkgOS44MDAyNyAxLjQ3Mzc5IDkuODAwMjcgMCAxLjc0MzAxIDAgMS43NDMwMSAxMi45NTA1WiIvPjxwYXRoIHRyYW5zZm9ybT0ibWF0cml4KDEuMDAwMzUgMCAwIC0xIDU4OS4zOTIgNjc1LjE3MikiIGQ9Ik0zLjQ5NDM1IDExLjUxIDMuNDk0MzUgMS40NDA0OCA1LjYxMjA1IDEuNDQwNDhDNy4zOTk0NyAxLjQ0MDQ4IDguNzA3NjQgMS44NDQ3OCA5LjUzNjYgMi42NTMzNyAxMC4zNjU2IDMuNDYzODIgMTAuNzggNC43NDI0IDEwLjc4IDYuNDg5MSAxMC43OCA4LjIyMjg3IDEwLjM2NTYgOS40OTMxIDkuNTM2NiAxMC4yOTk5IDguNzA3NjQgMTEuMTA2NiA3LjM5OTQ3IDExLjUxIDUuNjEyMDUgMTEuNTFMMy40OTQzNSAxMS41MVpNMS43NDMwMSAxMi45NTA1IDUuMzQyODIgMTIuOTUwNUM3Ljg1MTg3IDEyLjk1MDUgOS42OTI5NCAxMi40Mjg3IDEwLjg2NjEgMTEuMzg1MSAxMi4wNDEgMTAuMzQxNSAxMi42Mjg1IDguNzA5NSAxMi42Mjg1IDYuNDg5MSAxMi42Mjg1IDQuMjU1NzUgMTIuMDM4MiAyLjYxNTQ0IDEwLjg1NzcgMS41NjgxNSA5LjY3OTA2IDAuNTIyNzE3IDcuODQwNzcgMCA1LjM0MjgyIDBMMS43NDMwMSAwIDEuNzQzMDEgMTIuOTUwNVoiLz48cGF0aCB0cmFuc2Zvcm09Im1hdHJpeCgxLjAwMDM1IDAgMCAxIDcwNi4zNzMgNjU0Ljc2NykiIGZpbGw9Im5vbmUiIHN0cm9rZS1saW5lam9pbj0icm91bmQiIHN0cm9rZS13aWR0aD0iMC43ODk0NzQiIHN0cm9rZT0iIzAwMDAwMCIgZD0iTTAgMCAwIDMuNDUzOTUiLz48cGF0aCB0cmFuc2Zvcm09Im1hdHJpeCgxLjAwMDM1IDAgMCAtMSA2NzYuNTA5IDY3NS4xNzIpIiBkPSJNMS43NDMwMSAxMi45NTA1IDkuMTg0MTEgMTIuOTUwNSA5LjE4NDExIDExLjQ3MzkgMy40OTQzNSAxMS40NzM5IDMuNDk0MzUgNy42NTc1OSA4LjYyOTAxIDcuNjU3NTkgOC42MjkwMSA2LjE4MzggMy40OTQzNSA2LjE4MzggMy40OTQzNSAwIDEuNzQzMDEgMCAxLjc0MzAxIDEyLjk1MDVaIi8+PHBhdGggdHJhbnNmb3JtPSJtYXRyaXgoMS4wMDAzNSAwIDAgLTEgNjg1LjEwOSA2NzUuMTcyKSIgZD0iTTYuMDcyNzggMTEuMjI0MSAzLjY5NDE4IDQuNzc5NCA4LjQ1NjkzIDQuNzc5NCA2LjA3Mjc4IDExLjIyNDFaTTUuMDgxOTMgMTIuOTUwNSA3LjA2OTE4IDEyLjk1MDUgMTIuMDA0IDAgMTAuMTgzMyAwIDkuMDAzNyAzLjMyMjI3IDMuMTY2ODQgMy4zMjIyNyAxLjk4NzI1IDAgMC4xMzg3NzUgMCA1LjA4MTkzIDEyLjk1MDVaIi8+PHBhdGggdHJhbnNmb3JtPSJtYXRyaXgoMS4wMDAzNSAwIDAgLTEgNjk3LjI2NSA2NzUuMTcyKSIgZD0iTTEuNzQzMDEgMTIuOTUwNSA0LjM1NDc1IDEyLjk1MDUgNy42NTc1OSA0LjEzODI2IDEwLjk3OTkgMTIuOTUwNSAxMy41OTE2IDEyLjk1MDUgMTMuNTkxNiAwIDExLjg4MTkgMCAxMS44ODE5IDExLjM3MTIgOC41NDI5NyAyLjQ4OTYyIDYuNzgzMzEgMi40ODk2MiAzLjQ0NDM5IDExLjM3MTIgMy40NDQzOSAwIDEuNzQzMDEgMCAxLjc0MzAxIDEyLjk1MDVaIi8+PHBhdGggdHJhbnNmb3JtPSJtYXRyaXgoMS4wMDAzNSAwIDAgLTEgNzEyLjU5NiA2NzUuMTcyKSIgZD0iTTEuNzQzMDEgMTIuOTUwNSAzLjQ5NDM1IDEyLjk1MDUgMy40OTQzNSAwIDEuNzQzMDEgMCAxLjc0MzAxIDEyLjk1MDVaIi8+PHBhdGggdHJhbnNmb3JtPSJtYXRyaXgoMS4wMDAzNSAwIDAgLTEgNzE3LjgzNiA2NzUuMTcyKSIgZD0iTTEuNzQzMDEgMTIuOTUwNSAzLjQ5NDM1IDEyLjk1MDUgMy40OTQzNSAxLjQ3Mzc5IDkuODAwMjcgMS40NzM3OSA5LjgwMDI3IDAgMS43NDMwMSAwIDEuNzQzMDEgMTIuOTUwNVoiLz48cGF0aCB0cmFuc2Zvcm09Im1hdHJpeCgxLjAwMDM1IDAgMCAtMSA3MjUuMzgyIDY3NS4xNzIpIiBkPSJNLTAuMDM2MDgxNCAxMi45NTA1IDEuODQ4NDggMTIuOTUwNSA1LjQzNzE5IDcuNjI0MjggOS4wMDM3IDEyLjk1MDUgMTAuODg1NSAxMi45NTA1IDYuMzA1OTIgNi4xNjcxNSA2LjMwNTkyIDAgNC41NDYyNiAwIDQuNTQ2MjYgNi4xNjcxNS0wLjAzNjA4MTQgMTIuOTUwNVoiLz48cGF0aCB0cmFuc2Zvcm09Im1hdHJpeCgxLjAwMDM1IDAgMCAxIDg5LjY5MTUgMTU0LjEyOCkiIGZpbGw9Im5vbmUiIHN0cm9rZS1saW5lam9pbj0icm91bmQiIHN0cm9rZS13aWR0aD0iMC43ODk0NzQiIHN0cm9rZT0iIzAwMDAwMCIgZD0iTTAgMC0zLjQ1Mzk1IDAiLz48cGF0aCB0cmFuc2Zvcm09Im1hdHJpeCgxLjAwMDM1IDAgMCAtMSA1MS43OTg2IDE1OS4wMykiIGQ9Ik0xLjc0MzAxIDEyLjk1MDUgOS4xODQxMSAxMi45NTA1IDkuMTg0MTEgMTEuNDczOSAzLjQ5NDM1IDExLjQ3MzkgMy40OTQzNSA3LjY1NzU5IDguNjI5MDEgNy42NTc1OSA4LjYyOTAxIDYuMTgzOCAzLjQ5NDM1IDYuMTgzOCAzLjQ5NDM1IDAgMS43NDMwMSAwIDEuNzQzMDEgMTIuOTUwNVoiLz48cGF0aCB0cmFuc2Zvcm09Im1hdHJpeCgxLjAwMDM1IDAgMCAtMSA2Mi4wMTk1IDE1OS4wMykiIGQ9Ik0xLjc0MzAxIDEyLjk1MDUgOS4xODQxMSAxMi45NTA1IDkuMTg0MTEgMTEuNDczOSAzLjQ5NDM1IDExLjQ3MzkgMy40OTQzNSA3LjY1NzU5IDguNjI5MDEgNy42NTc1OSA4LjYyOTAxIDYuMTgzOCAzLjQ5NDM1IDYuMTgzOCAzLjQ5NDM1IDAgMS43NDMwMSAwIDEuNzQzMDEgMTIuOTUwNVoiLz48cGF0aCB0cmFuc2Zvcm09Im1hdHJpeCgxLjAwMDM1IDAgMCAtMSA3MS45Mjk0IDE1OS4wMykiIGQ9Ik0tMC4wNTI3MzQ0IDEyLjk1MDUgMTAuOTAyMSAxMi45NTA1IDEwLjkwMjEgMTEuNDczOSA2LjMwNTkyIDExLjQ3MzkgNi4zMDU5MiAwIDQuNTQ2MjYgMCA0LjU0NjI2IDExLjQ3MzktMC4wNTI3MzQ0IDExLjQ3MzktMC4wNTI3MzQ0IDEyLjk1MDVaIi8+PHBhdGggdHJhbnNmb3JtPSJtYXRyaXgoMS4wMDAzNSAwIDAgMSA4OS42OTE1IDM1NC4zODMpIiBmaWxsPSJub25lIiBzdHJva2UtbGluZWpvaW49InJvdW5kIiBzdHJva2Utd2lkdGg9IjAuNzg5NDc0IiBzdHJva2U9IiMwMDAwMDAiIGQ9Ik0wIDAtMy40NTM5NSAwIi8+PHBhdGggdHJhbnNmb3JtPSJtYXRyaXgoMS4wMDAzNSAwIDAgLTEgNDUuODM3NiAzNTkuMjg1KSIgZD0iTTMuNDk0MzUgMTEuNTEgMy40OTQzNSAxLjQ0MDQ4IDUuNjEyMDUgMS40NDA0OEM3LjM5OTQ3IDEuNDQwNDggOC43MDc2NCAxLjg0NDc4IDkuNTM2NiAyLjY1MzM3IDEwLjM2NTYgMy40NjM4MiAxMC43OCA0Ljc0MjQgMTAuNzggNi40ODkxIDEwLjc4IDguMjIyODcgMTAuMzY1NiA5LjQ5MzEgOS41MzY2IDEwLjI5OTkgOC43MDc2NCAxMS4xMDY2IDcuMzk5NDcgMTEuNTEgNS42MTIwNSAxMS41MUwzLjQ5NDM1IDExLjUxWk0xLjc0MzAxIDEyLjk1MDUgNS4zNDI4MiAxMi45NTA1QzcuODUxODcgMTIuOTUwNSA5LjY5Mjk0IDEyLjQyODcgMTAuODY2MSAxMS4zODUxIDEyLjA0MSAxMC4zNDE1IDEyLjYyODUgOC43MDk1IDEyLjYyODUgNi40ODkxIDEyLjYyODUgNC4yNTU3NSAxMi4wMzgyIDIuNjE1NDQgMTAuODU3NyAxLjU2ODE1IDkuNjc5MDYgMC41MjI3MTcgNy44NDA3NyAwIDUuMzQyODIgMEwxLjc0MzAxIDAgMS43NDMwMSAxMi45NTA1WiIvPjxwYXRoIHRyYW5zZm9ybT0ibWF0cml4KDEuMDAwMzUgMCAwIC0xIDU5LjUyMDMgMzU5LjI4NSkiIGQ9Ik0xMS40NDA2IDExLjk1MTMgMTEuNDQwNiAxMC4xMDU2QzEwLjg1MDMgMTAuNjU1MSAxMC4yMjEyIDExLjA2NSA5LjU1MzI1IDExLjMzNTEgOC44ODUyNyAxMS42MDcxIDguMTc1NjkgMTEuNzQzMSA3LjQyNDQ0IDExLjc0MzEgNS45NDQxOSAxMS43NDMxIDQuODEwODUgMTEuMjkwNyA0LjAyNDQ3IDEwLjM4NTkgMy4yMzgwOCA5LjQ4MTA4IDIuODQ0ODggOC4xNzI5MSAyLjg0NDg4IDYuNDYxMzUgMi44NDQ4OCA0Ljc1NTM0IDMuMjM4MDggMy40NDk5NCA0LjAyNDQ3IDIuNTQ1MTMgNC44MTA4NSAxLjY0MDMyIDUuOTQ0MTkgMS4xODc5MSA3LjQyNDQ0IDEuMTg3OTEgOC4xNzU2OSAxLjE4NzkxIDguODg1MjcgMS4zMjM5MSA5LjU1MzI1IDEuNTk1OTEgMTAuMjIxMiAxLjg2NzkxIDEwLjg1MDMgMi4yNzg2OCAxMS40NDA2IDIuODI4MjNMMTEuNDQwNiAwLjk5NjQwMkMxMC44MjgxIDAuNTgwMDc4IDEwLjE3ODYgMC4yNjczNzIgOS40OTIxOSAwLjA1ODI4NTQgOC44MDc1Ni0wLjE0ODk1MiA4LjA4NDEtMC4yNTI1NyA3LjMyMTc1LTAuMjUyNTcgNS4zNjAzOS0wLjI1MjU3IDMuODE1MzkgMC4zNDY5MzcgMi42ODY2OCAxLjU0NTk1IDEuNTU5ODMgMi43NDY4MSAwLjk5NjQwMiA0LjM4NTI4IDAuOTk2NDAyIDYuNDYxMzUgMC45OTY0MDIgOC41NDI5NyAxLjU1OTgzIDEwLjE4MzMgMi42ODY2OCAxMS4zODIzIDMuODE1MzkgMTIuNTgzMiA1LjM2MDM5IDEzLjE4MzYgNy4zMjE3NSAxMy4xODM2IDguMDk1MiAxMy4xODM2IDguODI0MjEgMTMuMDgwOSA5LjUwODg0IDEyLjg3NTUgMTAuMTk1MyAxMi42NzAxIDEwLjgzOTIgMTIuMzYyIDExLjQ0MDYgMTEuOTUxM1oiLz48cGF0aCB0cmFuc2Zvcm09Im1hdHJpeCgxLjAwMDM1IDAgMCAtMSA3MS45Mjc2IDM1OS4yODUpIiBkPSJNLTAuMDUyNzM0NCAxMi45NTA1IDEwLjkwMjEgMTIuOTUwNSAxMC45MDIxIDExLjQ3MzkgNi4zMDU5MiAxMS40NzM5IDYuMzA1OTIgMCA0LjU0NjI2IDAgNC41NDYyNiAxMS40NzM5LTAuMDUyNzM0NCAxMS40NzM5LTAuMDUyNzM0NCAxMi45NTA1WiIvPjxwYXRoIHRyYW5zZm9ybT0ibWF0cml4KDEuMDAwMzUgMCAwIDEgODkuNjkxNSA1NTQuNjM5KSIgZmlsbD0ibm9uZSIgc3Ryb2tlLWxpbmVqb2luPSJyb3VuZCIgc3Ryb2tlLXdpZHRoPSIwLjc4OTQ3NCIgc3Ryb2tlPSIjMDAwMDAwIiBkPSJNMCAwLTMuNDUzOTUgMCIvPjxwYXRoIHRyYW5zZm9ybT0ibWF0cml4KDEuMDAwMzUgMCAwIC0xIDQ2Ljk2NDggNTU5LjU0KSIgZD0iTTMuNDk0MzUgMTEuNTEgMy40OTQzNSAxLjQ0MDQ4IDUuNjEyMDUgMS40NDA0OEM3LjM5OTQ3IDEuNDQwNDggOC43MDc2NCAxLjg0NDc4IDkuNTM2NiAyLjY1MzM3IDEwLjM2NTYgMy40NjM4MiAxMC43OCA0Ljc0MjQgMTAuNzggNi40ODkxIDEwLjc4IDguMjIyODcgMTAuMzY1NiA5LjQ5MzEgOS41MzY2IDEwLjI5OTkgOC43MDc2NCAxMS4xMDY2IDcuMzk5NDcgMTEuNTEgNS42MTIwNSAxMS41MUwzLjQ5NDM1IDExLjUxWk0xLjc0MzAxIDEyLjk1MDUgNS4zNDI4MiAxMi45NTA1QzcuODUxODcgMTIuOTUwNSA5LjY5Mjk0IDEyLjQyODcgMTAuODY2MSAxMS4zODUxIDEyLjA0MSAxMC4zNDE1IDEyLjYyODUgOC43MDk1IDEyLjYyODUgNi40ODkxIDEyLjYyODUgNC4yNTU3NSAxMi4wMzgyIDIuNjE1NDQgMTAuODU3NyAxLjU2ODE1IDkuNjc5MDYgMC41MjI3MTcgNy44NDA3NyAwIDUuMzQyODIgMEwxLjc0MzAxIDAgMS43NDMwMSAxMi45NTA1WiIvPjxwYXRoIHRyYW5zZm9ybT0ibWF0cml4KDEuMDAwMzUgMCAwIC0xIDYwLjY0NzYgNTU5LjU0KSIgZD0iTTkuNTA2MDYgMTIuNTI1OCA5LjUwNjA2IDEwLjgxNjFDOC44NDE4MSAxMS4xMzQ0IDguMjE0NTQgMTEuMzcxMiA3LjYyNDI4IDExLjUyNjYgNy4wMzQwMiAxMS42ODM5IDYuNDY0MTIgMTEuNzYyNSA1LjkxNDU4IDExLjc2MjUgNC45NjE2NyAxMS43NjI1IDQuMjI2MTYgMTEuNTc3NSAzLjcwODA2IDExLjIwNzQgMy4xODk5NiAxMC44Mzc0IDIuOTMwOTIgMTAuMzExIDIuOTMwOTIgOS42MjgxOSAyLjkzMDkyIDkuMDU0NTcgMy4xMDMgOC42MjE2IDMuNDQ3MTYgOC4zMjkyNiAzLjc5MTMyIDguMDM4NzQgNC40NDM1NiA3LjgwMzc3IDUuNDAzODkgNy42MjQyOEw2LjQ2MTM1IDcuNDA3NzlDNy43Njc2OSA3LjE1OCA4LjczMTcgNi43MTk0NyA5LjM1MzQxIDYuMDkyMjEgOS45NzUxMiA1LjQ2NDk1IDEwLjI4NiA0LjYyNTgzIDEwLjI4NiAzLjU3NDg0IDEwLjI4NiAyLjMxODQ2IDkuODY1MDIgMS4zNjY0NyA5LjAyMzEzIDAuNzE4ODUzIDguMTgzMDcgMC4wNzEyMzc4IDYuOTUwNzUtMC4yNTI1NyA1LjMyNjE3LTAuMjUyNTcgNC43MTM3LTAuMjUyNTcgNC4wNjE0Ni0wLjE4MzE4MyAzLjM2OTQ1LTAuMDQ0NDA3OSAyLjY3OTI4IDAuMDk0MzY2OCAxLjk2NDEzIDAuMjk5NzUzIDEuMjIzOTkgMC41NzE3NTJMMS4yMjM5OSAyLjM3NTgyQzEuOTM0NTIgMS45NzggMi42MzExNyAxLjY3NzMyIDMuMzEzOTQgMS40NzM3OSAzLjk5NjcxIDEuMjcyMSA0LjY2NzQ2IDEuMTcxMjYgNS4zMjYxNyAxLjE3MTI2IDYuMzI1MzUgMS4xNzEyNiA3LjA5Njk0IDEuMzY3MzkgNy42NDA5MyAxLjc1OTY2IDguMTg0OTMgMi4xNTM3OCA4LjQ1NjkzIDIuNzE1MzYgOC40NTY5MyAzLjQ0NDM5IDguNDU2OTMgNC4wNzkwNiA4LjI2MTczIDQuNTc1ODcgNy44NzEzIDQuOTM0ODMgNy40ODA4NyA1LjI5Mzc4IDYuODQwNjcgNS41NjMgNS45NTA2NiA1Ljc0MjVMNC44ODIwOSA1Ljk1MDY2QzMuNTc1NzUgNi4yMDk2OSAyLjYzMDI0IDYuNjE2NzggMi4wNDU1NCA3LjE3MTg3IDEuNDYyNjggNy43MjY5NyAxLjE3MTI2IDguNDk5NDggMS4xNzEyNiA5LjQ4OTQxIDEuMTcxMjYgMTAuNjM0OCAxLjU3NDYzIDExLjUzNjggMi4zODEzNyAxMi4xOTU1IDMuMTg4MTMgMTIuODU0MiA0LjI5OTI0IDEzLjE4MzYgNS43MTQ3NCAxMy4xODM2IDYuMzIzNDkgMTMuMTgzNiA2Ljk0MjQyIDEzLjEyODEgNy41NzE1NSAxMy4wMTcxIDguMjAyNSAxMi45MDc5IDguODQ3MzYgMTIuNzQ0MSA5LjUwNjA2IDEyLjUyNThaIi8+PHBhdGggdHJhbnNmb3JtPSJtYXRyaXgoMS4wMDAzNSAwIDAgLTEgNzEuOTI3IDU1OS41NCkiIGQ9Ik0tMC4wNTI3MzQ0IDEyLjk1MDUgMTAuOTAyMSAxMi45NTA1IDEwLjkwMjEgMTEuNDczOSA2LjMwNTkyIDExLjQ3MzkgNi4zMDU5MiAwIDQuNTQ2MjYgMCA0LjU0NjI2IDExLjQ3MzktMC4wNTI3MzQ0IDExLjQ3MzktMC4wNTI3MzQ0IDEyLjk1MDVaIi8+PHBhdGggdHJhbnNmb3JtPSJtYXRyaXgoNi4xMjUzN2UtMTcgLTEgLTEuMDAwMzUgLTYuMTIzMjNlLTE3IDM5LjQyNTIgNDE1Ljc1OCkiIGQ9Ik0wLjA1NzM2MDIgOC42MzM2NCA4LjAxMzc3IDguNjMzNjQgOC4wMTM3NyA2Ljk0OTg0IDUuMTUxMzIgNi45NDk4NCA1LjE1MTMyIDAgMi45MjUzNyAwIDIuOTI1MzcgNi45NDk4NCAwLjA1NzM2MDIgNi45NDk4NCAwLjA1NzM2MDIgOC42MzM2NFoiLz48cGF0aCB0cmFuc2Zvcm09Im1hdHJpeCg2LjEyNTM3ZS0xNyAtMSAtMS4wMDAzNSAtNi4xMjMyM2UtMTcgMzkuNDI1MiA0MDguOTgyKSIgZD0iTTUuODA2MzMgNC43MTI3OUM1LjYyNSA0Ljc5NzkgNS40NDQyOCA0Ljg2MDIgNS4yNjQxOSA0Ljg5OTY3IDUuMDg1MzEgNC45NDAzOCA0LjkwNTIyIDQuOTYwNzMgNC43MjM4OSA0Ljk2MDczIDQuMTkyMjMgNC45NjA3MyAzLjc4MjY4IDQuNzg5ODkgMy40OTUyNyA0LjQ0ODE5IDMuMjA3ODYgNC4xMDc3MyAzLjA2NDE0IDMuNjE5ODUgMy4wNjQxNCAyLjk4NDU4TDMuMDY0MTQgMCAwLjk5NTQ3NyAwIDAuOTk1NDc3IDYuNDc2MTUgMy4wNjQxNCA2LjQ3NjE1IDMuMDY0MTQgNS40MTIyMUMzLjMzMDU5IDUuODM2NTUgMy42MzU5IDYuMTQ1NTUgMy45ODAwNiA2LjMzOTIzIDQuMzI1NDYgNi41MzQxMiA0LjczOTMgNi42MzE1OCA1LjIyMTYzIDYuNjMxNTggNS4yOTA3IDYuNjMxNTggNS4zNjUzNCA2LjYyODQ5IDUuNDQ1NTIgNi42MjIzMyA1LjUyNjkzIDYuNjE3MzkgNS42NDQ3NCA2LjYwNTA2IDUuNzk4OTMgNi41ODUzMkw1LjgwNjMzIDQuNzEyNzlaIi8+PHBhdGggdHJhbnNmb3JtPSJtYXRyaXgoNi4xMjUzN2UtMTcgLTEgLTEuMDAwMzUgLTYuMTIzMjNlLTE3IDM5LjQyNTIgNDAzLjE0MikiIGQ9Ik0zLjg5Njc5IDIuOTE0MjdDMy40NjUwNiAyLjkxNDI3IDMuMTQwMDEgMi44NDA4NyAyLjkyMTY3IDIuNjk0MDggMi43MDQ1NyAyLjU0ODUxIDIuNTk2MDEgMi4zMzI2NSAyLjU5NjAxIDIuMDQ2NDYgMi41OTYwMSAxLjc4NDk1IDIuNjgzNTkgMS41Nzk1NiAyLjg1ODc2IDEuNDMwMyAzLjAzNTE1IDEuMjgyMjggMy4yNzkzOSAxLjIwODI2IDMuNTkxNDkgMS4yMDgyNiAzLjk4MDA2IDEuMjA4MjYgNC4zMDc1NyAxLjM0NzY2IDQuNTc0MDEgMS42MjY0NCA0Ljg0MDQ2IDEuOTA2NDUgNC45NzM2OCAyLjI1Njc5IDQuOTczNjggMi42Nzc0M0w0Ljk3MzY4IDIuOTE0MjcgMy44OTY3OSAyLjkxNDI3Wk03LjA2MDg2IDMuNjk1MTEgNy4wNjA4NiAwIDQuOTczNjggMCA0Ljk3MzY4IDAuOTYwMzIxQzQuNjk2MTQgMC41NjY4MTcgNC4zODM0MyAwLjI4MDAxNiA0LjAzNTU3IDAuMDk5OTE3OCAzLjY4ODk1LTAuMDc4OTQ3NCAzLjI2NzA3LTAuMTY4MzggMi43Njk5NC0wLjE2ODM4IDIuMDk4ODgtMC4xNjgzOCAxLjU1NDI4IDAuMDI3MTM4MiAxLjEzNjEgMC40MTgxNzQgMC43MTc5MjggMC44MTA0NDQgMC41MDg4NDEgMS4zMTg2NyAwLjUwODg0MSAxLjk0Mjg1IDAuNTA4ODQxIDIuNzAyNzIgMC43Njk3MzcgMy4yNTk2NyAxLjI5MTUzIDMuNjEzNjkgMS44MTQ1NiAzLjk2ODk2IDIuNjM0ODcgNC4xNDY1OSAzLjc1MjQ3IDQuMTQ2NTlMNC45NzM2OCA0LjE0NjU5IDQuOTczNjggNC4zMDc1N0M0Ljk3MzY4IDQuNjM1NjggNC44NDQxNiA0Ljg3NTYyIDQuNTg1MTIgNS4wMjczNCA0LjMyNzMxIDUuMTgwMzEgMy45MjQ1NSA1LjI1Njc4IDMuMzc2ODUgNS4yNTY3OCAyLjkzNDAxIDUuMjU2NzggMi41MjEzOSA1LjIxMjM4IDIuMTM4OTggNS4xMjM1NiAxLjc1NzgxIDUuMDM0NzUgMS40MDMxNyA0LjkwMTUyIDEuMDc1MDQgNC43MjM4OUwxLjA3NTA0IDYuMzAyMjJDMS41MTkxMiA2LjQxMDc4IDEuOTY0NDQgNi40OTI4IDIuNDEwOTggNi41NDgzMSAyLjg1ODc2IDYuNjAzODIgMy4zMDU5MyA2LjYzMTU4IDMuNzUyNDcgNi42MzE1OCA0LjkyMDY0IDYuNjMxNTggNS43NjM3NyA2LjQwMTUzIDYuMjgxODcgNS45NDE0MSA2LjgwMTIgNS40ODEyOSA3LjA2MDg2IDQuNzMyNTMgNy4wNjA4NiAzLjY5NTExWiIvPjxwYXRoIHRyYW5zZm9ybT0ibWF0cml4KDYuMTI1MzdlLTE3IC0xIC0xLjAwMDM1IC02LjEyMzIzZS0xNyAzOS40MjUyIDM5NS4xNTEpIiBkPSJNNy41MDQ5MyAzLjk0MzA1IDcuNTA0OTMgMCA1LjQyMzMxIDAgNS40MjMzMSAwLjY0MjA2NCA1LjQyMzMxIDMuMDE3ODlDNS40MjMzMSAzLjU3NjY5IDUuNDEwOTcgMy45NjIxNyA1LjM4NjMxIDQuMTc0MzQgNS4zNjE2NCA0LjM4NjUyIDUuMzE4NDYgNC41NDI1NiA1LjI1Njc4IDQuNjQyNDggNS4xNzUzNyA0Ljc3ODE2IDUuMDY0OTYgNC44ODM2MyA0LjkyNTU4IDQuOTU4ODggNC43ODc0MSA1LjAzNDEzIDQuNjI5NTIgNS4wNzE3NSA0LjQ1MTg5IDUuMDcxNzUgNC4wMjAxNSA1LjA3MTc1IDMuNjgwOTEgNC45MDQ2MSAzLjQzNDIxIDQuNTcwMzEgMy4xODc1MSA0LjIzNzI1IDMuMDY0MTQgMy43NzU5MSAzLjA2NDE0IDMuMTg2MjdMMy4wNjQxNCAwIDAuOTk1NDc3IDAgMC45OTU0NzcgNi40NzYxNSAzLjA2NDE0IDYuNDc2MTUgMy4wNjQxNCA1LjUyODc4QzMuMzc2MjQgNS45MDYyNSAzLjcwNzQ1IDYuMTg0NDEgNC4wNTc3NyA2LjM2MzI4IDQuNDA5MzMgNi41NDIxNSA0Ljc5NzI5IDYuNjMxNTggNS4yMjE2MyA2LjYzMTU4IDUuOTY5MTYgNi42MzE1OCA2LjUzNjYgNi40MDIxNCA2LjkyMzkzIDUuOTQzMjYgNy4zMTEyNiA1LjQ4NTYxIDcuNTA0OTMgNC44MTg4NyA3LjUwNDkzIDMuOTQzMDVaIi8+PHBhdGggdHJhbnNmb3JtPSJtYXRyaXgoNi4xMjUzN2UtMTcgLTEgLTEuMDAwMzUgLTYuMTIzMjNlLTE3IDM5LjQyNTIgMzg2LjcyMSkiIGQ9Ik02LjA1NDI4IDYuMjc0NDcgNi4wNTQyOCA0LjcwMTY5QzUuNjExNDQgNC44ODY3MiA1LjE4MzM4IDUuMDI1NDkgNC43NzAxNSA1LjExODAxIDQuMzU4MTQgNS4yMTA1MyAzLjk2ODk2IDUuMjU2NzggMy42MDI1OSA1LjI1Njc4IDMuMjA5MDggNS4yNTY3OCAyLjkxNjczIDUuMjA3NDQgMi43MjU1MyA1LjEwODc2IDIuNTM1NTYgNS4wMTAwOCAyLjQ0MDU4IDQuODU4OTYgMi40NDA1OCA0LjY1NTQzIDIuNDQwNTggNC40ODg5IDIuNTEyNzUgNC4zNjEyMyAyLjY1NzA3IDQuMjcyNDEgMi44MDE0IDQuMTg0ODMgMy4wNjA0NCA0LjExOTQ0IDMuNDM0MjEgNC4wNzYyN0wzLjc5ODczIDQuMDI0NDdDNC44NTk1NyAzLjg5IDUuNTcyNTggMy42Njg1OSA1LjkzNzcxIDMuMzYwMiA2LjMwNDA3IDMuMDUxOCA2LjQ4NzI1IDIuNTY3NjUgNi40ODcyNSAxLjkwNzY5IDYuNDg3MjUgMS4yMTgxMyA2LjIzMjUyIDAuNjk5NDI0IDUuNzIzMDcgMC4zNTE1NjIgNS4yMTQ4NCAwLjAwNDkzNDIyIDQuNDU2Mi0wLjE2ODM4IDMuNDQ3MTYtMC4xNjgzOCAzLjAxOTEzLTAuMTY4MzggMi41NzYyNy0wLjEzNDQ1NyAyLjExODYzLTAuMDY2NjExOCAxLjY2MjIxIDAuMDAxMjMzNTUgMS4xOTI4NSAwLjEwMjM4NSAwLjcxMDUyNiAwLjIzNjg0MkwwLjcxMDUyNiAxLjgwOTYyQzEuMTIzNzcgMS42MDk3OSAxLjU0Njg4IDEuNDU5MjkgMS45Nzk4NSAxLjM1ODE0IDIuNDE0MDcgMS4yNTgyMiAyLjg1NDQ1IDEuMjA4MjYgMy4zMDA5OSAxLjIwODI2IDMuNzA2ODIgMS4yMDgyNiA0LjAxMTUxIDEuMjYzNzcgNC4yMTUwNSAxLjM3NDc5IDQuNDE5ODMgMS40ODcwNSA0LjUyMjIgMS42NTM1OCA0LjUyMjIgMS44NzQzOCA0LjUyMjIgMi4wNTk0MiA0LjQ1MTg5IDIuMTk2OTUgNC4zMTEyNyAyLjI4NzAxIDQuMTcwNjQgMi4zNzcwNiAzLjg5IDIuNDQ3MzcgMy40NjkzNyAyLjQ5Nzk0TDMuMTA0ODUgMi41NDQyQzIuMTgzMzkgMi42NjAxNiAxLjUzNzYyIDIuODc0MTcgMS4xNjc1NiAzLjE4NjI3IDAuNzk3NDkyIDMuNDk4MzYgMC42MTI0NTkgMy45NzI2NiAwLjYxMjQ1OSA0LjYwOTE3IDAuNjEyNDU5IDUuMjk1MDMgMC44NDc0NTEgNS44MDMyNCAxLjMxNzQzIDYuMTMzODQgMS43ODg2NSA2LjQ2NTY2IDIuNTA5NjYgNi42MzE1OCAzLjQ4MDQ3IDYuNjMxNTggMy44NjI4OCA2LjYzMTU4IDQuMjYzNzcgNi42MDI1OCA0LjY4MzE4IDYuNTQ0NjEgNS4xMDM4MiA2LjQ4Nzg2IDUuNTYwODUgNi4zOTc4MyA2LjA1NDI4IDYuMjc0NDdaIi8+PHBhdGggdHJhbnNmb3JtPSJtYXRyaXgoNi4xMjUzN2UtMTcgLTEgLTEuMDAwMzUgLTYuMTIzMjNlLTE3IDM5LjQyNTIgMzc5LjY3MikiIGQ9Ik01LjI1Njc4IDguOTk4MTUgNS4yNTY3OCA3LjYzODE2IDQuMTExNDMgNy42MzgxNkMzLjgxNzg0IDcuNjM4MTYgMy42MTMwOCA3LjU4NTExIDMuNDk3MTIgNy40NzkwMyAzLjM4MjQgNy4zNzI5NSAzLjMyNTA0IDcuMTg5MTQgMy4zMjUwNCA2LjkyNzYzTDMuMzI1MDQgNi40NzYxNSA1LjA5Mzk2IDYuNDc2MTUgNS4wOTM5NiA0Ljk5NTg5IDMuMzI1MDQgNC45OTU4OSAzLjMyNTA0IDAgMS4yNTQ1MiAwIDEuMjU0NTIgNC45OTU4OSAwLjIyNTc0IDQuOTk1ODkgMC4yMjU3NCA2LjQ3NjE1IDEuMjU0NTIgNi40NzYxNSAxLjI1NDUyIDYuOTI3NjNDMS4yNTQ1MiA3LjYzMzIyIDEuNDUxMjcgOC4xNTQ0IDEuODQ0NzggOC40OTExNiAyLjIzODI5IDguODI5MTYgMi44NDcwNSA4Ljk5ODE1IDMuNjcxMDUgOC45OTgxNUw1LjI1Njc4IDguOTk4MTVaIi8+PHBhdGggdHJhbnNmb3JtPSJtYXRyaXgoNi4xMjUzN2UtMTcgLTEgLTEuMDAwMzUgLTYuMTIzMjNlLTE3IDM5LjQyNTIgMzc0LjUyKSIgZD0iTTQuMDc2MjcgNS4xNTEzMkMzLjYxNzM5IDUuMTUxMzIgMy4yNjc2OCA0Ljk4NjY0IDMuMDI3MTQgNC42NTcyOCAyLjc4NjYgNC4zMjc5MiAyLjY2NjMyIDMuODUzIDIuNjY2MzIgMy4yMzI1MiAyLjY2NjMyIDIuNjEyMDUgMi43ODY2IDIuMTM2NTIgMy4wMjcxNCAxLjgwNTkyIDMuMjY3NjggMS40NzY1NiAzLjYxNzM5IDEuMzExODggNC4wNzYyNyAxLjMxMTg4IDQuNTI3NzYgMS4zMTE4OCA0Ljg3MjUzIDEuNDc2NTYgNS4xMTA2MSAxLjgwNTkyIDUuMzQ5OTEgMi4xMzY1MiA1LjQ2OTU3IDIuNjEyMDUgNS40Njk1NyAzLjIzMjUyIDUuNDY5NTcgMy44NTMgNS4zNDk5MSA0LjMyNzkyIDUuMTEwNjEgNC42NTcyOCA0Ljg3MjUzIDQuOTg2NjQgNC41Mjc3NiA1LjE1MTMyIDQuMDc2MjcgNS4xNTEzMlpNNC4wNzYyNyA2LjYzMTU4QzUuMTkwMTcgNi42MzE1OCA2LjA2MDQ0IDYuMzMwNTkgNi42ODcwOSA1LjcyODYyIDcuMzEzNzQgNS4xMjc4NyA3LjYyNzA2IDQuMjk1ODUgNy42MjcwNiAzLjIzMjUyIDcuNjI3MDYgMi4xNjc5NyA3LjMxMzc0IDEuMzM0NyA2LjY4NzA5IDAuNzMyNzMgNi4wNjA0NCAwLjEzMTk5IDUuMTkwMTctMC4xNjgzOCA0LjA3NjI3LTAuMTY4MzggMi45NTg2OC0wLjE2ODM4IDIuMDg0NzEgMC4xMzE5OSAxLjQ1NDM2IDAuNzMyNzMgMC44MjQwMTMgMS4zMzQ3IDAuNTA4ODQxIDIuMTY3OTcgMC41MDg4NDEgMy4yMzI1MiAwLjUwODg0MSA0LjI5NTg1IDAuODI0MDEzIDUuMTI3ODcgMS40NTQzNiA1LjcyODYyIDIuMDg0NzEgNi4zMzA1OSAyLjk1ODY4IDYuNjMxNTggNC4wNzYyNyA2LjYzMTU4WiIvPjxwYXRoIHRyYW5zZm9ybT0ibWF0cml4KDYuMTI1MzdlLTE3IC0xIC0xLjAwMDM1IC02LjEyMzIzZS0xNyAzOS40MjUyIDM2Ni4zODQpIiBkPSJNNS44MDYzMyA0LjcxMjc5QzUuNjI1IDQuNzk3OSA1LjQ0NDI4IDQuODYwMiA1LjI2NDE5IDQuODk5NjcgNS4wODUzMSA0Ljk0MDM4IDQuOTA1MjIgNC45NjA3MyA0LjcyMzg5IDQuOTYwNzMgNC4xOTIyMyA0Ljk2MDczIDMuNzgyNjggNC43ODk4OSAzLjQ5NTI3IDQuNDQ4MTkgMy4yMDc4NiA0LjEwNzczIDMuMDY0MTQgMy42MTk4NSAzLjA2NDE0IDIuOTg0NThMMy4wNjQxNCAwIDAuOTk1NDc3IDAgMC45OTU0NzcgNi40NzYxNSAzLjA2NDE0IDYuNDc2MTUgMy4wNjQxNCA1LjQxMjIxQzMuMzMwNTkgNS44MzY1NSAzLjYzNTkgNi4xNDU1NSAzLjk4MDA2IDYuMzM5MjMgNC4zMjU0NiA2LjUzNDEyIDQuNzM5MyA2LjYzMTU4IDUuMjIxNjMgNi42MzE1OCA1LjI5MDcgNi42MzE1OCA1LjM2NTM0IDYuNjI4NDkgNS40NDU1MiA2LjYyMjMzIDUuNTI2OTMgNi42MTczOSA1LjY0NDc0IDYuNjA1MDYgNS43OTg5MyA2LjU4NTMyTDUuODA2MzMgNC43MTI3OVoiLz48cGF0aCB0cmFuc2Zvcm09Im1hdHJpeCg2LjEyNTM3ZS0xNyAtMSAtMS4wMDAzNSAtNi4xMjMyM2UtMTcgMzkuNDI1MiAzNjAuNTQ0KSIgZD0iTTYuOTk2MDkgNS40MDExMUM3LjI1ODg0IDUuODAyMDIgNy41NzAzMSA2LjEwNzMzIDcuOTMwNTEgNi4zMTcwMiA4LjI5MDcxIDYuNTI2NzIgOC42ODY2OCA2LjYzMTU4IDkuMTE4NDIgNi42MzE1OCA5Ljg2MjI1IDYuNjMxNTggMTAuNDI5MSA2LjQwMjE0IDEwLjgxODkgNS45NDMyNiAxMS4yMDg3IDUuNDg1NjEgMTEuNDAzNiA0LjgxODg3IDExLjQwMzYgMy45NDMwNUwxMS40MDM2IDAgOS4zMjE5NiAwIDkuMzIxOTYgMy4zNzY4NUM5LjMyNTY2IDMuNDI3NDIgOS4zMjgxMiAzLjQ3OTIzIDkuMzI5MzYgMy41MzIyOCA5LjMzMTgyIDMuNTg2NTUgOS4zMzMwNiAzLjY2MzY1IDkuMzMzMDYgMy43NjM1NyA5LjMzMzA2IDQuMjIyNDUgOS4yNjUyMSA0LjU1NDkgOS4xMjk1MiA0Ljc2MDkgOC45OTUwNiA0Ljk2ODEzIDguNzc3MzUgNS4wNzE3NSA4LjQ3NjM2IDUuMDcxNzUgOC4wODQwOSA1LjA3MTc1IDcuNzgwNjMgNC45MDk1MyA3LjU2NiA0LjU4NTEyIDcuMzUyNiA0LjI2MTkyIDcuMjQxNTggMy43OTM3OSA3LjIzMjk0IDMuMTgwNzJMNy4yMzI5NCAwIDUuMTUxMzIgMCA1LjE1MTMyIDMuMzc2ODVDNS4xNTEzMiA0LjA5MzU0IDUuMDg5NjQgNC41NTQ5IDQuOTY2MjggNC43NjA5IDQuODQyOTIgNC45NjgxMyA0LjYyMzM2IDUuMDcxNzUgNC4zMDc1NyA1LjA3MTc1IDMuOTEwMzYgNS4wNzE3NSAzLjYwMzgzIDQuOTA4OTIgMy4zODc5NSA0LjU4MzI2IDMuMTcyMDcgNC4yNTc2MSAzLjA2NDE0IDMuNzkxOTMgMy4wNjQxNCAzLjE4NjI3TDMuMDY0MTQgMCAwLjk4MjUyNSAwIDAuOTgyNTI1IDYuNDc2MTUgMy4wNjQxNCA2LjQ3NjE1IDMuMDY0MTQgNS41Mjg3OEMzLjMxOTQ5IDUuODkzOTEgMy42MTE4NCA2LjE2OSAzLjk0MTIgNi4zNTQwMyA0LjI3MDU2IDYuNTM5MDYgNC42MzM4MyA2LjYzMTU4IDUuMDMxMDQgNi42MzE1OCA1LjQ3NzU4IDYuNjMxNTggNS44NzIzMyA2LjUyMzY1IDYuMjE1MjYgNi4zMDc3NyA2LjU1OTQyIDYuMDkxODkgNi44MTk3IDUuNzg5NjggNi45OTYwOSA1LjQwMTExWiIvPjxwYXRoIHRyYW5zZm9ybT0ibWF0cml4KDYuMTI1MzdlLTE3IC0xIC0xLjAwMDM1IC02LjEyMzIzZS0xNyAzOS40MjUyIDM0NC4wODIpIiBkPSJNNi45OTYwOSA1LjQwMTExQzcuMjU4ODQgNS44MDIwMiA3LjU3MDMxIDYuMTA3MzMgNy45MzA1MSA2LjMxNzAyIDguMjkwNzEgNi41MjY3MiA4LjY4NjY4IDYuNjMxNTggOS4xMTg0MiA2LjYzMTU4IDkuODYyMjUgNi42MzE1OCAxMC40MjkxIDYuNDAyMTQgMTAuODE4OSA1Ljk0MzI2IDExLjIwODcgNS40ODU2MSAxMS40MDM2IDQuODE4ODcgMTEuNDAzNiAzLjk0MzA1TDExLjQwMzYgMCA5LjMyMTk2IDAgOS4zMjE5NiAzLjM3Njg1QzkuMzI1NjYgMy40Mjc0MiA5LjMyODEyIDMuNDc5MjMgOS4zMjkzNiAzLjUzMjI4IDkuMzMxODIgMy41ODY1NSA5LjMzMzA2IDMuNjYzNjUgOS4zMzMwNiAzLjc2MzU3IDkuMzMzMDYgNC4yMjI0NSA5LjI2NTIxIDQuNTU0OSA5LjEyOTUyIDQuNzYwOSA4Ljk5NTA2IDQuOTY4MTMgOC43NzczNSA1LjA3MTc1IDguNDc2MzYgNS4wNzE3NSA4LjA4NDA5IDUuMDcxNzUgNy43ODA2MyA0LjkwOTUzIDcuNTY2IDQuNTg1MTIgNy4zNTI2IDQuMjYxOTIgNy4yNDE1OCAzLjc5Mzc5IDcuMjMyOTQgMy4xODA3Mkw3LjIzMjk0IDAgNS4xNTEzMiAwIDUuMTUxMzIgMy4zNzY4NUM1LjE1MTMyIDQuMDkzNTQgNS4wODk2NCA0LjU1NDkgNC45NjYyOCA0Ljc2MDkgNC44NDI5MiA0Ljk2ODEzIDQuNjIzMzYgNS4wNzE3NSA0LjMwNzU3IDUuMDcxNzUgMy45MTAzNiA1LjA3MTc1IDMuNjAzODMgNC45MDg5MiAzLjM4Nzk1IDQuNTgzMjYgMy4xNzIwNyA0LjI1NzYxIDMuMDY0MTQgMy43OTE5MyAzLjA2NDE0IDMuMTg2MjdMMy4wNjQxNCAwIDAuOTgyNTI1IDAgMC45ODI1MjUgNi40NzYxNSAzLjA2NDE0IDYuNDc2MTUgMy4wNjQxNCA1LjUyODc4QzMuMzE5NDkgNS44OTM5MSAzLjYxMTg0IDYuMTY5IDMuOTQxMiA2LjM1NDAzIDQuMjcwNTYgNi41MzkwNiA0LjYzMzgzIDYuNjMxNTggNS4wMzEwNCA2LjYzMTU4IDUuNDc3NTggNi42MzE1OCA1Ljg3MjMzIDYuNTIzNjUgNi4yMTUyNiA2LjMwNzc3IDYuNTU5NDIgNi4wOTE4OSA2LjgxOTcgNS43ODk2OCA2Ljk5NjA5IDUuNDAxMTFaIi8+PHBhdGggdHJhbnNmb3JtPSJtYXRyaXgoNi4xMjUzN2UtMTcgLTEgLTEuMDAwMzUgLTYuMTIzMjNlLTE3IDM5LjQyNTIgMzMxLjc0MykiIGQ9Ik03LjQ1ODY4IDMuMjU0NzMgNy40NTg2OCAyLjY2NjMyIDIuNjIwMDcgMi42NjYzMkMyLjY2OTQxIDIuMTgwMyAyLjg0NDU3IDEuODE1NzkgMy4xNDU1NiAxLjU3Mjc4IDMuNDQ2NTUgMS4zMjk3NyAzLjg2NjU4IDEuMjA4MjYgNC40MDU2MyAxLjIwODI2IDQuODQxMDcgMS4yMDgyNiA1LjI4NyAxLjI3MzAzIDUuNzQzNDIgMS40MDI1NSA2LjIwMTA2IDEuNTMyMDcgNi42NzEwNSAxLjcyNzU5IDcuMTUzMzcgMS45ODkxTDcuMTUzMzcgMC4zOTQxMkM2LjY2MzY1IDAuMjA5MDg3IDYuMTczOTQgMC4wNjkwNzg5IDUuNjg0MjEtMC4wMjU5MDQ2IDUuMTk0NDgtMC4xMjA4ODggNC43MDQ3OC0wLjE2ODM4IDQuMjE1MDUtMC4xNjgzOCAzLjA0MzE4LTAuMTY4MzggMi4xMzIxOSAwLjEyOTUyMyAxLjQ4MjExIDAuNzI1MzI5IDAuODMzMjY0IDEuMzIxMTMgMC41MDg4NDEgMi4xNTY4NyAwLjUwODg0MSAzLjIzMjUyIDAuNTA4ODQxIDQuMjg4NDUgMC44Mjc3MTMgNS4xMTg2MiAxLjQ2NTQ2IDUuNzIzMDcgMi4xMDMyMSA2LjMyODc0IDIuOTgxNDkgNi42MzE1OCA0LjEwMDMzIDYuNjMxNTggNS4xMTgwMSA2LjYzMTU4IDUuOTMyMTUgNi4zMjUwNCA2LjU0Mjc2IDUuNzExOTcgNy4xNTMzNyA1LjEwMDEyIDcuNDU4NjggNC4yODEwNSA3LjQ1ODY4IDMuMjU0NzNaTTUuMzMwOCAzLjk0MzA1QzUuMzMwOCA0LjMzNjU2IDUuMjE2MDggNC42NTM1OCA0Ljk4NjY0IDQuODk0MTIgNC43NTcyIDUuMTM1OSA0LjQ1NzQ0IDUuMjU2NzggNC4wODczOCA1LjI1Njc4IDMuNjg2NDcgNS4yNTY3OCAzLjM2MDgxIDUuMTQzOTEgMy4xMTA0IDQuOTE4MTcgMi44NiA0LjY5MjQzIDIuNzAzOTQgNC4zNjczOSAyLjY0MjI3IDMuOTQzMDVMNS4zMzA4IDMuOTQzMDVaIi8+PHBhdGggdHJhbnNmb3JtPSJtYXRyaXgoNi4xMjUzN2UtMTcgLTEgLTEuMDAwMzUgLTYuMTIzMjNlLTE3IDM5LjQyNTIgMzIzLjcxMSkiIGQ9Ik0zLjI1NDczIDguMzE1MzggMy4yNTQ3MyA2LjQ3NjE1IDUuMzkwMDEgNi40NzYxNSA1LjM5MDAxIDQuOTk1ODkgMy4yNTQ3MyA0Ljk5NTg5IDMuMjU0NzMgMi4yNUMzLjI1NDczIDEuOTQ5MDEgMy4zMTQ1NSAxLjc0NTQ4IDMuNDM0MjEgMS42MzkzOSAzLjU1Mzg3IDEuNTMzMzEgMy43OTEzMiAxLjQ4MDI2IDQuMTQ2NTkgMS40ODAyNkw1LjIxMDUzIDEuNDgwMjYgNS4yMTA1MyAwIDMuNDM0MjEgMEMyLjYxNzYgMCAyLjAzODQ1IDAuMTcwMjMgMS42OTY3NSAwLjUxMDY5MSAxLjM1NjI5IDAuODUyMzg1IDEuMTg2MDYgMS40MzIxNSAxLjE4NjA2IDIuMjVMMS4xODYwNiA0Ljk5NTg5IDAuMTU1NDI4IDQuOTk1ODkgMC4xNTU0MjggNi40NzYxNSAxLjE4NjA2IDYuNDc2MTUgMS4xODYwNiA4LjMxNTM4IDMuMjU0NzMgOC4zMTUzOFoiLz48cGF0aCB0cmFuc2Zvcm09Im1hdHJpeCg2LjEyNTM3ZS0xNyAtMSAtMS4wMDAzNSAtNi4xMjMyM2UtMTcgMzkuNDI1MiAzMTguMDUpIiBkPSJNNy41MDQ5MyAzLjk0MzA1IDcuNTA0OTMgMCA1LjQyMzMxIDAgNS40MjMzMSAwLjY0MjA2NCA1LjQyMzMxIDMuMDA2NzhDNS40MjMzMSAzLjU3Mjk5IDUuNDEwOTcgMy45NjIxNyA1LjM4NjMxIDQuMTc0MzQgNS4zNjE2NCA0LjM4NjUyIDUuMzE4NDYgNC41NDI1NiA1LjI1Njc4IDQuNjQyNDggNS4xNzUzNyA0Ljc3ODE2IDUuMDY0OTYgNC44ODM2MyA0LjkyNTU4IDQuOTU4ODggNC43ODc0MSA1LjAzNDEzIDQuNjI5NTIgNS4wNzE3NSA0LjQ1MTg5IDUuMDcxNzUgNC4wMjAxNSA1LjA3MTc1IDMuNjgwOTEgNC45MDQ2MSAzLjQzNDIxIDQuNTcwMzEgMy4xODc1MSA0LjIzNzI1IDMuMDY0MTQgMy43NzU5MSAzLjA2NDE0IDMuMTg2MjdMMy4wNjQxNCAwIDAuOTk1NDc3IDAgMC45OTU0NzcgOC45OTgxNSAzLjA2NDE0IDguOTk4MTUgMy4wNjQxNCA1LjUyODc4QzMuMzc2MjQgNS45MDYyNSAzLjcwNzQ1IDYuMTg0NDEgNC4wNTc3NyA2LjM2MzI4IDQuNDA5MzMgNi41NDIxNSA0Ljc5NzI5IDYuNjMxNTggNS4yMjE2MyA2LjYzMTU4IDUuOTY5MTYgNi42MzE1OCA2LjUzNjYgNi40MDIxNCA2LjkyMzkzIDUuOTQzMjYgNy4zMTEyNiA1LjQ4NTYxIDcuNTA0OTMgNC44MTg4NyA3LjUwNDkzIDMuOTQzMDVaIi8+PHBhdGggdHJhbnNmb3JtPSJtYXRyaXgoNi4xMjUzN2UtMTcgLTEgLTEuMDAwMzUgLTYuMTIzMjNlLTE3IDM5LjQyNTIgMzA5LjYyKSIgZD0iTTQuMDc2MjcgNS4xNTEzMkMzLjYxNzM5IDUuMTUxMzIgMy4yNjc2OCA0Ljk4NjY0IDMuMDI3MTQgNC42NTcyOCAyLjc4NjYgNC4zMjc5MiAyLjY2NjMyIDMuODUzIDIuNjY2MzIgMy4yMzI1MiAyLjY2NjMyIDIuNjEyMDUgMi43ODY2IDIuMTM2NTIgMy4wMjcxNCAxLjgwNTkyIDMuMjY3NjggMS40NzY1NiAzLjYxNzM5IDEuMzExODggNC4wNzYyNyAxLjMxMTg4IDQuNTI3NzYgMS4zMTE4OCA0Ljg3MjUzIDEuNDc2NTYgNS4xMTA2MSAxLjgwNTkyIDUuMzQ5OTEgMi4xMzY1MiA1LjQ2OTU3IDIuNjEyMDUgNS40Njk1NyAzLjIzMjUyIDUuNDY5NTcgMy44NTMgNS4zNDk5MSA0LjMyNzkyIDUuMTEwNjEgNC42NTcyOCA0Ljg3MjUzIDQuOTg2NjQgNC41Mjc3NiA1LjE1MTMyIDQuMDc2MjcgNS4xNTEzMlpNNC4wNzYyNyA2LjYzMTU4QzUuMTkwMTcgNi42MzE1OCA2LjA2MDQ0IDYuMzMwNTkgNi42ODcwOSA1LjcyODYyIDcuMzEzNzQgNS4xMjc4NyA3LjYyNzA2IDQuMjk1ODUgNy42MjcwNiAzLjIzMjUyIDcuNjI3MDYgMi4xNjc5NyA3LjMxMzc0IDEuMzM0NyA2LjY4NzA5IDAuNzMyNzMgNi4wNjA0NCAwLjEzMTk5IDUuMTkwMTctMC4xNjgzOCA0LjA3NjI3LTAuMTY4MzggMi45NTg2OC0wLjE2ODM4IDIuMDg0NzEgMC4xMzE5OSAxLjQ1NDM2IDAuNzMyNzMgMC44MjQwMTMgMS4zMzQ3IDAuNTA4ODQxIDIuMTY3OTcgMC41MDg4NDEgMy4yMzI1MiAwLjUwODg0MSA0LjI5NTg1IDAuODI0MDEzIDUuMTI3ODcgMS40NTQzNiA1LjcyODYyIDIuMDg0NzEgNi4zMzA1OSAyLjk1ODY4IDYuNjMxNTggNC4wNzYyNyA2LjYzMTU4WiIvPjxwYXRoIHRyYW5zZm9ybT0ibWF0cml4KDYuMTI1MzdlLTE3IC0xIC0xLjAwMDM1IC02LjEyMzIzZS0xNyAzOS40MjUyIDMwMS40ODQpIiBkPSJNNS40MDExMSA1LjUyODc4IDUuNDAxMTEgOC45OTgxNSA3LjQ4MjczIDguOTk4MTUgNy40ODI3MyAwIDUuNDAxMTEgMCA1LjQwMTExIDAuOTM2MjY2QzUuMTE2MTYgMC41NTUwOTkgNC44MDE2IDAuMjc1Njk5IDQuNDU3NDQgMC4wOTgwNjc0IDQuMTE0NTItMC4wNzk1NjQxIDMuNzE3OTItMC4xNjgzOCAzLjI2NzY4LTAuMTY4MzggMi40Njk1OC0wLjE2ODM4IDEuODEzOTQgMC4xNDg2NDMgMS4zMDA3OCAwLjc4MjY4OSAwLjc4ODg1NiAxLjQxNzk3IDAuNTMyODk1IDIuMjM0NTkgMC41MzI4OTUgMy4yMzI1MiAwLjUzMjg5NSA0LjIzMDQ2IDAuNzg4ODU2IDUuMDQ2NDYgMS4zMDA3OCA1LjY4MDUxIDEuODEzOTQgNi4zMTQ1NiAyLjQ2OTU4IDYuNjMxNTggMy4yNjc2OCA2LjYzMTU4IDMuNzE0MjIgNi42MzE1OCA0LjExMDE5IDYuNTQyMTUgNC40NTU1OSA2LjM2MzI4IDQuODAwOTkgNi4xODQ0MSA1LjExNjE2IDUuOTA2MjUgNS40MDExMSA1LjUyODc4Wk00LjAzNTU3IDEuMzM1OTRDNC40Nzk2NSAxLjMzNTk0IDQuODE4MjYgMS40OTc1MyA1LjA1MTQgMS44MjA3MiA1LjI4NDU0IDIuMTQ1MTQgNS40MDExMSAyLjYxNTc1IDUuNDAxMTEgMy4yMzI1MiA1LjQwMTExIDMuODQ5MyA1LjI4NDU0IDQuMzE5MjggNS4wNTE0IDQuNjQyNDggNC44MTgyNiA0Ljk2Njg5IDQuNDc5NjUgNS4xMjkxMSA0LjAzNTU3IDUuMTI5MTEgMy41OTY0MyA1LjEyOTExIDMuMjYwMjggNC45NjY4OSAzLjAyNzE0IDQuNjQyNDggMi43OTQgNC4zMTkyOCAyLjY3NzQzIDMuODQ5MyAyLjY3NzQzIDMuMjMyNTIgMi42Nzc0MyAyLjYxNTc1IDIuNzk0IDIuMTQ1MTQgMy4wMjcxNCAxLjgyMDcyIDMuMjYwMjggMS40OTc1MyAzLjU5NjQzIDEuMzM1OTQgNC4wMzU1NyAxLjMzNTk0WiIvPjxwYXRoIHRyYW5zZm9ybT0ibWF0cml4KDEuMDAwMzUgMCAwIC0xIDExNS44MiAxNjIuMjk3KSIgZmlsbD0iIzI2MjYyNiIgZD0iTTMuNjcyOSAyLjQ1NjMxIDguNDQyMTMgMi40NTYzMSA4LjQ0MjEzIDE4LjkyNDIgMy4yNTE5NSAxNy44ODM0IDMuMjUxOTUgMjAuNTQzMyA4LjQxNDM3IDIxLjU4NDEgMTEuMzMzMyAyMS41ODQxIDExLjMzMzMgMi40NTYzMSAxNi4xMDI1IDIuNDU2MzEgMTYuMTAyNSAwIDMuNjcyOSAwIDMuNjcyOSAyLjQ1NjMxWiIvPjxwYXRoIHRyYW5zZm9ybT0ibWF0cml4KDEuMDAwMzUgMCAwIC0xIDEzNC42NjIgMTYyLjI5NykiIGZpbGw9IiMyNjI2MjYiIGQ9Ik05LjQwODkyIDE5LjY1OTdDNy45MDcwNiAxOS42NTk3IDYuNzc2ODMgMTguOTE5NiA2LjAxODIgMTcuNDM5NCA1LjI2MjY2IDE1Ljk2MjIgNC44ODQ4NyAxMy43Mzg3IDQuODg0ODcgMTAuNzY4OSA0Ljg4NDg3IDcuODExNDkgNS4yNjI2NiA1LjU5MjYyIDYuMDE4MiA0LjExMjM2IDYuNzc2ODMgMi42MzIwOSA3LjkwNzA2IDEuODkxOTYgOS40MDg5MiAxLjg5MTk2IDEwLjkyMzEgMS44OTE5NiAxMi4wNTggMi42MzIwOSAxMi44MTM1IDQuMTEyMzYgMTMuNTcyMiA1LjU5MjYyIDEzLjk1MTUgNy44MTE0OSAxMy45NTE1IDEwLjc2ODkgMTMuOTUxNSAxMy43Mzg3IDEzLjU3MjIgMTUuOTYyMiAxMi44MTM1IDE3LjQzOTQgMTIuMDU4IDE4LjkxOTYgMTAuOTIzMSAxOS42NTk3IDkuNDA4OTIgMTkuNjU5N1pNOS40MDg5MiAyMS45NzI3QzExLjgyOTggMjEuOTcyNyAxMy42Nzg2IDIxLjAxNTEgMTQuOTU1MyAxOS4xIDE2LjIzMiAxNy4xODggMTYuODcwNCAxNC40MTEgMTYuODcwNCAxMC43Njg5IDE2Ljg3MDQgNy4xMzYxMiAxNi4yMzIgNC4zNjIxNSAxNC45NTUzIDIuNDQ3MDYgMTMuNjc4NiAwLjUzNTA1NSAxMS44Mjk4LTAuNDIwOTUgOS40MDg5Mi0wLjQyMDk1IDYuOTkxMTQtMC40MjA5NSA1LjE0MzkxIDAuNTM1MDU1IDMuODY3MTkgMi40NDcwNiAyLjU5MDQ2IDQuMzYyMTUgMS45NTIxIDcuMTM2MTIgMS45NTIxIDEwLjc2ODkgMS45NTIxIDE0LjQxMSAyLjU5MDQ2IDE3LjE4OCAzLjg2NzE5IDE5LjEgNS4xNDM5MSAyMS4wMTUxIDYuOTkxMTQgMjEuOTcyNyA5LjQwODkyIDIxLjk3MjdaIi8+PHBhdGggdHJhbnNmb3JtPSJtYXRyaXgoMS4wMDAzNSAwIDAgLTEgMTUzLjUwNCAxNjIuMjk3KSIgZmlsbD0iIzI2MjYyNiIgZD0iTTMuMTY0MDYgMy42NzI5IDYuMjE3MTEgMy42NzI5IDYuMjE3MTEgMCAzLjE2NDA2IDAgMy4xNjQwNiAzLjY3MjlaIi8+PHBhdGggdHJhbnNmb3JtPSJtYXRyaXgoMS4wMDAzNSAwIDAgLTEgMTYyLjkxOCAxNjIuMjk3KSIgZmlsbD0iIzI2MjYyNiIgZD0iTTIuNDI4NTYgMjEuNTg0MSAxNi4zMDYgMjEuNTg0MSAxNi4zMDYgMjAuMzM5NyA4LjQ2OTg4IDAgNS40MjE0NiAwIDEyLjc5NSAxOS4xMjMxIDIuNDI4NTYgMTkuMTIzMSAyLjQyODU2IDIxLjU4NDFaIi8+PHBhdGggdHJhbnNmb3JtPSJtYXRyaXgoMS4wMDAzNSAwIDAgLTEgMTgxLjc2MSAxNjIuMjk3KSIgZmlsbD0iIzI2MjYyNiIgZD0iTTMuNjcyOSAyLjQ1NjMxIDguNDQyMTMgMi40NTYzMSA4LjQ0MjEzIDE4LjkyNDIgMy4yNTE5NSAxNy44ODM0IDMuMjUxOTUgMjAuNTQzMyA4LjQxNDM3IDIxLjU4NDEgMTEuMzMzMyAyMS41ODQxIDExLjMzMzMgMi40NTYzMSAxNi4xMDI1IDIuNDU2MzEgMTYuMTAyNSAwIDMuNjcyOSAwIDMuNjcyOSAyLjQ1NjMxWiIvPjxwYXRoIHRyYW5zZm9ybT0ibWF0cml4KDEuMDAwMzUgMCAwIC0xIDI2Mi4yODIgMTYyLjI5NykiIGZpbGw9IiMyNjI2MjYiIGQ9Ik0zLjE5NjQ0IDIxLjU4NDEgMTQuNjU5MiAyMS41ODQxIDE0LjY1OTIgMTkuMTIzMSA1Ljg3MDE3IDE5LjEyMzEgNS44NzAxNyAxMy44MzU4QzYuMjkyNjQgMTMuOTgwOCA2LjcxNTE3IDE0LjA4ODcgNy4xMzc2NCAxNC4xNTk2IDcuNTYzMjIgMTQuMjMwNiA3Ljk4ODggMTQuMjY2IDguNDE0MzcgMTQuMjY2IDEwLjgyMjkgMTQuMjY2IDEyLjczMDMgMTMuNjA2MSAxNC4xMzY1IDEyLjI4NjIgMTUuNTQ1OSAxMC45NjYzIDE2LjI1MDUgOS4xNzkxNiAxNi4yNTA1IDYuOTI0ODYgMTYuMjUwNSA0LjYwMjY5IDE1LjUyNzQgMi43OTcwOCAxNC4wODEgMS41MDgwMiAxMi42MzQ2IDAuMjIyMDM5IDEwLjU5NjItMC40MjA5NSA3Ljk2NTY3LTAuNDIwOTUgNy4wNTktMC40MjA5NSA2LjEzNTM3LTAuMzQzODUzIDUuMTk0OC0wLjE4OTY1OSA0LjI1NzMtMC4wMzU0NjQ3IDMuMjg3NDIgMC4xOTU4MjYgMi4yODUxNiAwLjUwNDIxNUwyLjI4NTE2IDMuNDQxNjFDMy4xNTE3MyAyLjk2OTc4IDQuMDQ3NTkgMi42MTgyMiA0Ljk3Mjc2IDIuMzg2OTIgNS44OTc5MiAyLjE1NTYzIDYuODc1NSAyLjAzOTk5IDcuOTA1NTMgMi4wMzk5OSA5LjU3MzkzIDIuMDM5OTkgMTAuODkzOCAyLjQ3NzkgMTEuODY1MiAzLjM1MzcyIDEyLjgzOTggNC4yMjk1NCAxMy4zMjcgNS40MTk5NCAxMy4zMjcgNi45MjQ4NiAxMy4zMjcgOC40MjY3MiAxMi44Mzk4IDkuNjE1NTYgMTEuODY1MiAxMC40OTE0IDEwLjg5MzggMTEuMzcwMyA5LjU3MzkzIDExLjgwOTcgNy45MDU1MyAxMS44MDk3IDcuMTI1MjkgMTEuODA5NyA2LjM0NjYzIDExLjcyMzQgNS41Njk0OSAxMS41NTA3IDQuNzk1NDUgMTEuMzc4IDQuMDA0NDIgMTEuMTA4MSAzLjE5NjQ0IDEwLjc0MTJMMy4xOTY0NCAyMS41ODQxWiIvPjxwYXRoIHRyYW5zZm9ybT0ibWF0cml4KDEuMDAwMzUgMCAwIC0xIDI4MS4xMjQgMTYyLjI5NykiIGZpbGw9IiMyNjI2MjYiIGQ9Ik0zLjE2NDA2IDMuNjcyOSA2LjIxNzExIDMuNjcyOSA2LjIxNzExIDAgMy4xNjQwNiAwIDMuMTY0MDYgMy42NzI5WiIvPjxwYXRoIHRyYW5zZm9ybT0ibWF0cml4KDEuMDAwMzUgMCAwIC0xIDI5MC41MzggMTYyLjI5NykiIGZpbGw9IiMyNjI2MjYiIGQ9Ik0xMS4xODk5IDE5LjAzOTkgMy44MTYzIDcuNTE2OTYgMTEuMTg5OSA3LjUxNjk2IDExLjE4OTkgMTkuMDM5OVpNMTAuNDIyIDIxLjU4NDEgMTQuMDk0OSAyMS41ODQxIDE0LjA5NDkgNy41MTY5NiAxNy4xNzU3IDcuNTE2OTYgMTcuMTc1NyA1LjA4ODQgMTQuMDk0OSA1LjA4ODQgMTQuMDk0OSAwIDExLjE4OTkgMCAxMS4xODk5IDUuMDg4NCAxLjQ0Nzg4IDUuMDg4NCAxLjQ0Nzg4IDcuOTA1NTMgMTAuNDIyIDIxLjU4NDFaIi8+PHBhdGggdHJhbnNmb3JtPSJtYXRyaXgoMS4wMDAzNSAwIDAgLTEgMzA5LjM4MSAxNjIuMjk3KSIgZmlsbD0iIzI2MjYyNiIgZD0iTTMuMTk2NDQgMjEuNTg0MSAxNC42NTkyIDIxLjU4NDEgMTQuNjU5MiAxOS4xMjMxIDUuODcwMTcgMTkuMTIzMSA1Ljg3MDE3IDEzLjgzNThDNi4yOTI2NCAxMy45ODA4IDYuNzE1MTcgMTQuMDg4NyA3LjEzNzY0IDE0LjE1OTYgNy41NjMyMiAxNC4yMzA2IDcuOTg4OCAxNC4yNjYgOC40MTQzNyAxNC4yNjYgMTAuODIyOSAxNC4yNjYgMTIuNzMwMyAxMy42MDYxIDE0LjEzNjUgMTIuMjg2MiAxNS41NDU5IDEwLjk2NjMgMTYuMjUwNSA5LjE3OTE2IDE2LjI1MDUgNi45MjQ4NiAxNi4yNTA1IDQuNjAyNjkgMTUuNTI3NCAyLjc5NzA4IDE0LjA4MSAxLjUwODAyIDEyLjYzNDYgMC4yMjIwMzkgMTAuNTk2Mi0wLjQyMDk1IDcuOTY1NjctMC40MjA5NSA3LjA1OS0wLjQyMDk1IDYuMTM1MzctMC4zNDM4NTMgNS4xOTQ4LTAuMTg5NjU5IDQuMjU3My0wLjAzNTQ2NDcgMy4yODc0MiAwLjE5NTgyNiAyLjI4NTE2IDAuNTA0MjE1TDIuMjg1MTYgMy40NDE2MUMzLjE1MTczIDIuOTY5NzggNC4wNDc1OSAyLjYxODIyIDQuOTcyNzYgMi4zODY5MiA1Ljg5NzkyIDIuMTU1NjMgNi44NzU1IDIuMDM5OTkgNy45MDU1MyAyLjAzOTk5IDkuNTczOTMgMi4wMzk5OSAxMC44OTM4IDIuNDc3OSAxMS44NjUyIDMuMzUzNzIgMTIuODM5OCA0LjIyOTU0IDEzLjMyNyA1LjQxOTk0IDEzLjMyNyA2LjkyNDg2IDEzLjMyNyA4LjQyNjcyIDEyLjgzOTggOS42MTU1NiAxMS44NjUyIDEwLjQ5MTQgMTAuODkzOCAxMS4zNzAzIDkuNTczOTMgMTEuODA5NyA3LjkwNTUzIDExLjgwOTcgNy4xMjUyOSAxMS44MDk3IDYuMzQ2NjMgMTEuNzIzNCA1LjU2OTQ5IDExLjU1MDcgNC43OTU0NSAxMS4zNzggNC4wMDQ0MiAxMS4xMDgxIDMuMTk2NDQgMTAuNzQxMkwzLjE5NjQ0IDIxLjU4NDFaIi8+PHBhdGggdHJhbnNmb3JtPSJtYXRyaXgoMS4wMDAzNSAwIDAgLTEgMzg5LjkwMSAxNjIuMjk3KSIgZmlsbD0iI0ZGRkZGRiIgZD0iTTEyLjAxMzMgMTEuNjM4NkMxMy40MTAzIDExLjMzOTQgMTQuNTAwNCAxMC43MTY1IDE1LjI4MzcgOS43Njk3NCAxNi4wNzAxIDguODI2MDcgMTYuNDYzMyA3LjY2MDM2IDE2LjQ2MzMgNi4yNzI2MiAxNi40NjMzIDQuMTQ0NzQgMTUuNzMwOSAyLjQ5NjQgMTQuMjY2IDEuMzI3NjEgMTIuODAxMiAwLjE2MTkwNCAxMC43MTk2LTAuNDIwOTUgOC4wMjExOC0wLjQyMDk1IDcuMTE3NjEtMC40MjA5NSA2LjE4NjI1LTAuMzMxNTE3IDUuMjI3MTgtMC4xNTI2NTIgNC4yNjgwOSAwLjAyNjIxMyAzLjI3ODE3IDAuMjk0NTExIDIuMjU3NCAwLjY1MjI0MUwyLjI1NzQgMy40NjkzN0MzLjA2NTM4IDIuOTk3NTMgMy45NTA0NSAyLjY0MTM0IDQuOTEyNjIgMi40MDA4IDUuODc3ODkgMi4xNjAyNiA2Ljg4NjMyIDIuMDM5OTkgNy45Mzc5MSAyLjAzOTk5IDkuNzY2NjQgMi4wMzk5OSAxMS4xNjA2IDIuNDAwOCAxMi4xMTk3IDMuMTIyNDMgMTMuMDc4NyAzLjg0NDA2IDEzLjU1ODMgNC44OTQxMiAxMy41NTgzIDYuMjcyNjIgMTMuNTU4MyA3LjU0NjI0IDEzLjExMjcgOC41NDA3OSAxMi4yMjE0IDkuMjU2MjcgMTEuMzMwMiA5Ljk3NDggMTAuMDkwNCAxMC4zMzQxIDguNTAyMjYgMTAuMzM0MUw1Ljk4NTgxIDEwLjMzNDEgNS45ODU4MSAxMi43MzQ5IDguNjE3OTEgMTIuNzM0OUMxMC4wNTE5IDEyLjczNDkgMTEuMTQ5OCAxMy4wMjE3IDExLjkxMTUgMTMuNTk1MyAxMi42NzMyIDE0LjE2ODkgMTMuMDU0MSAxNC45OTU0IDEzLjA1NDEgMTYuMDc0NyAxMy4wNTQxIDE3LjE4MTggMTIuNjYwOSAxOC4wMzE1IDExLjg3NDUgMTguNjIzNiAxMS4wOTEyIDE5LjIxODggOS45NjcxMiAxOS41MTYzIDguNTAyMjYgMTkuNTE2MyA3LjcwMDQ3IDE5LjUxNjMgNi44NDE1OSAxOS40Mjg1IDUuOTI1NjggMTkuMjUyNyA1LjAwOTc3IDE5LjA4IDQuMDAyODggMTguODExNyAyLjkwNTAyIDE4LjQ0NzhMMi45MDUwMiAyMS4wNDc1QzQuMDE1MjEgMjEuMzU1OSA1LjA1NDUgMjEuNTg3MiA2LjAyMjgyIDIxLjc0MTQgNi45OTExNCAyMS44OTU1IDcuOTA0IDIxLjk3MjcgOC43NjEzMSAyMS45NzI3IDEwLjk3ODYgMjEuOTcyNyAxMi43MzE4IDIxLjQ2ODQgMTQuMDIwOSAyMC40NiAxNS4zMTMgMTkuNDU0NyAxNS45NTkxIDE4LjA5NDcgMTUuOTU5MSAxNi4zOCAxNS45NTkxIDE1LjE4MzUgMTUuNjE2OCAxNC4xNzM1IDE0LjkzMjIgMTMuMzUwMSAxNC4yNDc1IDEyLjUyNjcgMTMuMjc0NiAxMS45NTYyIDEyLjAxMzMgMTEuNjM4NloiLz48cGF0aCB0cmFuc2Zvcm09Im1hdHJpeCgxLjAwMDM1IDAgMCAtMSA0MDguNzQzIDE2Mi4yOTcpIiBmaWxsPSIjRkZGRkZGIiBkPSJNMy4xOTY0NCAyMS41ODQxIDE0LjY1OTIgMjEuNTg0MSAxNC42NTkyIDE5LjEyMzEgNS44NzAxNyAxOS4xMjMxIDUuODcwMTcgMTMuODM1OEM2LjI5MjY0IDEzLjk4MDggNi43MTUxNyAxNC4wODg3IDcuMTM3NjQgMTQuMTU5NiA3LjU2MzIyIDE0LjIzMDYgNy45ODg4IDE0LjI2NiA4LjQxNDM3IDE0LjI2NiAxMC44MjI5IDE0LjI2NiAxMi43MzAzIDEzLjYwNjEgMTQuMTM2NSAxMi4yODYyIDE1LjU0NTkgMTAuOTY2MyAxNi4yNTA1IDkuMTc5MTYgMTYuMjUwNSA2LjkyNDg2IDE2LjI1MDUgNC42MDI2OSAxNS41Mjc0IDIuNzk3MDggMTQuMDgxIDEuNTA4MDIgMTIuNjM0NiAwLjIyMjAzOSAxMC41OTYyLTAuNDIwOTUgNy45NjU2Ny0wLjQyMDk1IDcuMDU5LTAuNDIwOTUgNi4xMzUzNy0wLjM0Mzg1MyA1LjE5NDgtMC4xODk2NTkgNC4yNTczLTAuMDM1NDY0NyAzLjI4NzQyIDAuMTk1ODI2IDIuMjg1MTYgMC41MDQyMTVMMi4yODUxNiAzLjQ0MTYxQzMuMTUxNzMgMi45Njk3OCA0LjA0NzU5IDIuNjE4MjIgNC45NzI3NiAyLjM4NjkyIDUuODk3OTIgMi4xNTU2MyA2Ljg3NTUgMi4wMzk5OSA3LjkwNTUzIDIuMDM5OTkgOS41NzM5MyAyLjAzOTk5IDEwLjg5MzggMi40Nzc5IDExLjg2NTIgMy4zNTM3MiAxMi44Mzk4IDQuMjI5NTQgMTMuMzI3IDUuNDE5OTQgMTMuMzI3IDYuOTI0ODYgMTMuMzI3IDguNDI2NzIgMTIuODM5OCA5LjYxNTU2IDExLjg2NTIgMTAuNDkxNCAxMC44OTM4IDExLjM3MDMgOS41NzM5MyAxMS44MDk3IDcuOTA1NTMgMTEuODA5NyA3LjEyNTI5IDExLjgwOTcgNi4zNDY2MyAxMS43MjM0IDUuNTY5NDkgMTEuNTUwNyA0Ljc5NTQ1IDExLjM3OCA0LjAwNDQyIDExLjEwODEgMy4xOTY0NCAxMC43NDEyTDMuMTk2NDQgMjEuNTg0MVoiLz48cGF0aCB0cmFuc2Zvcm09Im1hdHJpeCgxLjAwMDM1IDAgMCAtMSA0MjcuNTg1IDE2Mi4yOTcpIiBmaWxsPSIjRkZGRkZGIiBkPSJNMy4xNjQwNiAzLjY3MjkgNi4yMTcxMSAzLjY3MjkgNi4yMTcxMSAwIDMuMTY0MDYgMCAzLjE2NDA2IDMuNjcyOVoiLz48cGF0aCB0cmFuc2Zvcm09Im1hdHJpeCgxLjAwMDM1IDAgMCAtMSA0MzYuOTk5IDE2Mi4yOTcpIiBmaWxsPSIjRkZGRkZGIiBkPSJNMTEuMTg5OSAxOS4wMzk5IDMuODE2MyA3LjUxNjk2IDExLjE4OTkgNy41MTY5NiAxMS4xODk5IDE5LjAzOTlaTTEwLjQyMiAyMS41ODQxIDE0LjA5NDkgMjEuNTg0MSAxNC4wOTQ5IDcuNTE2OTYgMTcuMTc1NyA3LjUxNjk2IDE3LjE3NTcgNS4wODg0IDE0LjA5NDkgNS4wODg0IDE0LjA5NDkgMCAxMS4xODk5IDAgMTEuMTg5OSA1LjA4ODQgMS40NDc4OCA1LjA4ODQgMS40NDc4OCA3LjkwNTUzIDEwLjQyMiAyMS41ODQxWiIvPjxwYXRoIHRyYW5zZm9ybT0ibWF0cml4KDEuMDAwMzUgMCAwIC0xIDQ1NS44NDEgMTYyLjI5NykiIGZpbGw9IiNGRkZGRkYiIGQ9Ik01LjY4MDUxIDIuNDU2MzEgMTUuODcxMiAyLjQ1NjMxIDE1Ljg3MTIgMCAyLjE2OTUxIDAgMi4xNjk1MSAyLjQ1NjMxQzMuMjc2NjIgMy42MDM1MiA0Ljc4NjIgNS4xNDIzOSA2LjY5ODE5IDcuMDcyODggOC42MTMyOCA5LjAwNjQ4IDkuODE2IDEwLjI1MzkgMTAuMzA2MyAxMC44MTUyIDExLjI0MDcgMTEuODYzNyAxMS44OTMgMTIuNzUxOSAxMi4yNjMxIDEzLjQ3OTYgMTIuNjM2MiAxNC4yMDc0IDEyLjgyMjggMTQuOTIyOSAxMi44MjI4IDE1LjYyNiAxMi44MjI4IDE2Ljc3MzIgMTIuNDIwMyAxNy43MDc2IDExLjYxNTQgMTguNDI5MyAxMC44MTA1IDE5LjE1NCA5Ljc2MjAxIDE5LjUxNjMgOC40Njk4OCAxOS41MTYzIDcuNTUzOTcgMTkuNTE2MyA2LjU4NzE3IDE5LjM1NzUgNS41Njk0OSAxOS4wMzk5IDQuNTU0ODkgMTguNzIyMiAzLjQ2OTM3IDE4LjIzOTYgMi4zMTI5MSAxNy41OTJMMi4zMTI5MSAyMC41NDMzQzMuNDg3ODcgMjEuMDE1MSA0LjU4NTczIDIxLjM3MTMgNS42MDY1IDIxLjYxMTggNi42MzAzMyAyMS44NTI0IDcuNTY2MzIgMjEuOTcyNyA4LjQxNDM3IDIxLjk3MjcgMTAuNjUwMiAyMS45NzI3IDEyLjQzMjcgMjEuNDEyOSAxMy43NjE4IDIwLjI5MzUgMTUuMDkxIDE5LjE3NzEgMTUuNzU1NiAxNy42ODQ1IDE1Ljc1NTYgMTUuODE1NyAxNS43NTU2IDE0LjkyNzUgMTUuNTg5IDE0LjA4NTYgMTUuMjU2IDEzLjI5IDE0LjkyNiAxMi40OTc0IDE0LjMyMTUgMTEuNTYxNSAxMy40NDI2IDEwLjQ4MjEgMTMuMjAyMSAxMC4yMDE1IDEyLjQzNTcgOS4zOTM1MiAxMS4xNDM2IDguMDU4MTggOS44NTQ1MyA2LjcyMjg1IDguMDMzNTMgNC44NTU1OSA1LjY4MDUxIDIuNDU2MzFaIi8+PHBhdGggdHJhbnNmb3JtPSJtYXRyaXgoMS4wMDAzNSAwIDAgLTEgNTI2Ljk0MSAxNjIuMjk3KSIgZmlsbD0iI0ZGRkZGRiIgZD0iTTEyLjAxMzMgMTEuNjM4NkMxMy40MTAzIDExLjMzOTQgMTQuNTAwNCAxMC43MTY1IDE1LjI4MzcgOS43Njk3NCAxNi4wNzAxIDguODI2MDcgMTYuNDYzMyA3LjY2MDM2IDE2LjQ2MzMgNi4yNzI2MiAxNi40NjMzIDQuMTQ0NzQgMTUuNzMwOSAyLjQ5NjQgMTQuMjY2IDEuMzI3NjEgMTIuODAxMiAwLjE2MTkwNCAxMC43MTk2LTAuNDIwOTUgOC4wMjExOC0wLjQyMDk1IDcuMTE3NjEtMC40MjA5NSA2LjE4NjI1LTAuMzMxNTE3IDUuMjI3MTgtMC4xNTI2NTIgNC4yNjgwOSAwLjAyNjIxMyAzLjI3ODE3IDAuMjk0NTExIDIuMjU3NCAwLjY1MjI0MUwyLjI1NzQgMy40NjkzN0MzLjA2NTM4IDIuOTk3NTMgMy45NTA0NSAyLjY0MTM0IDQuOTEyNjIgMi40MDA4IDUuODc3ODkgMi4xNjAyNiA2Ljg4NjMyIDIuMDM5OTkgNy45Mzc5MSAyLjAzOTk5IDkuNzY2NjQgMi4wMzk5OSAxMS4xNjA2IDIuNDAwOCAxMi4xMTk3IDMuMTIyNDMgMTMuMDc4NyAzLjg0NDA2IDEzLjU1ODMgNC44OTQxMiAxMy41NTgzIDYuMjcyNjIgMTMuNTU4MyA3LjU0NjI0IDEzLjExMjcgOC41NDA3OSAxMi4yMjE0IDkuMjU2MjcgMTEuMzMwMiA5Ljk3NDggMTAuMDkwNCAxMC4zMzQxIDguNTAyMjYgMTAuMzM0MUw1Ljk4NTgxIDEwLjMzNDEgNS45ODU4MSAxMi43MzQ5IDguNjE3OTEgMTIuNzM0OUMxMC4wNTE5IDEyLjczNDkgMTEuMTQ5OCAxMy4wMjE3IDExLjkxMTUgMTMuNTk1MyAxMi42NzMyIDE0LjE2ODkgMTMuMDU0MSAxNC45OTU0IDEzLjA1NDEgMTYuMDc0NyAxMy4wNTQxIDE3LjE4MTggMTIuNjYwOSAxOC4wMzE1IDExLjg3NDUgMTguNjIzNiAxMS4wOTEyIDE5LjIxODggOS45NjcxMiAxOS41MTYzIDguNTAyMjYgMTkuNTE2MyA3LjcwMDQ3IDE5LjUxNjMgNi44NDE1OSAxOS40Mjg1IDUuOTI1NjggMTkuMjUyNyA1LjAwOTc3IDE5LjA4IDQuMDAyODggMTguODExNyAyLjkwNTAyIDE4LjQ0NzhMMi45MDUwMiAyMS4wNDc1QzQuMDE1MjEgMjEuMzU1OSA1LjA1NDUgMjEuNTg3MiA2LjAyMjgyIDIxLjc0MTQgNi45OTExNCAyMS44OTU1IDcuOTA0IDIxLjk3MjcgOC43NjEzMSAyMS45NzI3IDEwLjk3ODYgMjEuOTcyNyAxMi43MzE4IDIxLjQ2ODQgMTQuMDIwOSAyMC40NiAxNS4zMTMgMTkuNDU0NyAxNS45NTkxIDE4LjA5NDcgMTUuOTU5MSAxNi4zOCAxNS45NTkxIDE1LjE4MzUgMTUuNjE2OCAxNC4xNzM1IDE0LjkzMjIgMTMuMzUwMSAxNC4yNDc1IDEyLjUyNjcgMTMuMjc0NiAxMS45NTYyIDEyLjAxMzMgMTEuNjM4NloiLz48cGF0aCB0cmFuc2Zvcm09Im1hdHJpeCgxLjAwMDM1IDAgMCAtMSA1NDUuNzgzIDE2Mi4yOTcpIiBmaWxsPSIjRkZGRkZGIiBkPSJNMy42NzI5IDIuNDU2MzEgOC40NDIxMyAyLjQ1NjMxIDguNDQyMTMgMTguOTI0MiAzLjI1MTk1IDE3Ljg4MzQgMy4yNTE5NSAyMC41NDMzIDguNDE0MzcgMjEuNTg0MSAxMS4zMzMzIDIxLjU4NDEgMTEuMzMzMyAyLjQ1NjMxIDE2LjEwMjUgMi40NTYzMSAxNi4xMDI1IDAgMy42NzI5IDAgMy42NzI5IDIuNDU2MzFaIi8+PHBhdGggdHJhbnNmb3JtPSJtYXRyaXgoMS4wMDAzNSAwIDAgLTEgNTY0LjYyNSAxNjIuMjk3KSIgZmlsbD0iI0ZGRkZGRiIgZD0iTTMuMTY0MDYgMy42NzI5IDYuMjE3MTEgMy42NzI5IDYuMjE3MTEgMCAzLjE2NDA2IDAgMy4xNjQwNiAzLjY3MjlaIi8+PHBhdGggdHJhbnNmb3JtPSJtYXRyaXgoMS4wMDAzNSAwIDAgLTEgNTc0LjAzOSAxNjIuMjk3KSIgZmlsbD0iI0ZGRkZGRiIgZD0iTTIuNDI4NTYgMjEuNTg0MSAxNi4zMDYgMjEuNTg0MSAxNi4zMDYgMjAuMzM5NyA4LjQ2OTg4IDAgNS40MjE0NiAwIDEyLjc5NSAxOS4xMjMxIDIuNDI4NTYgMTkuMTIzMSAyLjQyODU2IDIxLjU4NDFaIi8+PHBhdGggdHJhbnNmb3JtPSJtYXRyaXgoMS4wMDAzNSAwIDAgLTEgNTkyLjg4MiAxNjIuMjk3KSIgZmlsbD0iI0ZGRkZGRiIgZD0iTTMuNjcyOSAyLjQ1NjMxIDguNDQyMTMgMi40NTYzMSA4LjQ0MjEzIDE4LjkyNDIgMy4yNTE5NSAxNy44ODM0IDMuMjUxOTUgMjAuNTQzMyA4LjQxNDM3IDIxLjU4NDEgMTEuMzMzMyAyMS41ODQxIDExLjMzMzMgMi40NTYzMSAxNi4xMDI1IDIuNDU2MzEgMTYuMTAyNSAwIDMuNjcyOSAwIDMuNjcyOSAyLjQ1NjMxWiIvPjxwYXRoIHRyYW5zZm9ybT0ibWF0cml4KDEuMDAwMzUgMCAwIC0xIDY2My45ODEgMTYyLjI5NykiIGZpbGw9IiNGRkZGRkYiIGQ9Ik0xMS4xODk5IDE5LjAzOTkgMy44MTYzIDcuNTE2OTYgMTEuMTg5OSA3LjUxNjk2IDExLjE4OTkgMTkuMDM5OVpNMTAuNDIyIDIxLjU4NDEgMTQuMDk0OSAyMS41ODQxIDE0LjA5NDkgNy41MTY5NiAxNy4xNzU3IDcuNTE2OTYgMTcuMTc1NyA1LjA4ODQgMTQuMDk0OSA1LjA4ODQgMTQuMDk0OSAwIDExLjE4OTkgMCAxMS4xODk5IDUuMDg4NCAxLjQ0Nzg4IDUuMDg4NCAxLjQ0Nzg4IDcuOTA1NTMgMTAuNDIyIDIxLjU4NDFaIi8+PHBhdGggdHJhbnNmb3JtPSJtYXRyaXgoMS4wMDAzNSAwIDAgLTEgNjgyLjgyMyAxNjIuMjk3KSIgZmlsbD0iI0ZGRkZGRiIgZD0iTTkuNDA4OTIgMTAuMjUwOEM4LjAyMTE4IDEwLjI1MDggNi45Mjk0OCA5Ljg3OTIzIDYuMTMzODQgOS4xMzYgNS4zNDEzIDguMzkyNzcgNC45NDUgNy4zNzIwMyA0Ljk0NSA2LjA3MzcgNC45NDUgNC43NzIzMiA1LjM0MTMgMy43NSA2LjEzMzg0IDMuMDA2NzggNi45Mjk0OCAyLjI2MzU3IDguMDIxMTggMS44OTE5NiA5LjQwODkyIDEuODkxOTYgMTAuNzk2NyAxLjg5MTk2IDExLjg4OTkgMi4yNjUxMSAxMi42ODg2IDMuMDExNDEgMTMuNDkwNCAzLjc2MDc5IDEzLjg5MTMgNC43ODE1NyAxMy44OTEzIDYuMDczNyAxMy44OTEzIDcuMzcyMDMgMTMuNDkzNSA4LjM5Mjc3IDEyLjY5NzkgOS4xMzYgMTEuOTA1MyA5Ljg3OTIzIDEwLjgwOSAxMC4yNTA4IDkuNDA4OTIgMTAuMjUwOFpNNi40OTAwMyAxMS40OTA1QzUuMjM3OTYgMTEuNzk4OSA0LjI2MTkyIDEyLjM4MTggMy41NjE4OCAxMy4yMzkxIDIuODY0OTIgMTQuMDk5NSAyLjUxNjQ1IDE1LjE0NjUgMi41MTY0NSAxNi4zOCAyLjUxNjQ1IDE4LjEwMzkgMy4xMzAxNCAxOS40NjcgNC4zNTc1MiAyMC40NjkzIDUuNTg3OTkgMjEuNDcxNSA3LjI3MTc5IDIxLjk3MjcgOS40MDg5MiAyMS45NzI3IDExLjU1ODQgMjEuOTcyNyAxMy4yNDUzIDIxLjQ3MTUgMTQuNDY5NiAyMC40NjkzIDE1LjY5MzkgMTkuNDY3IDE2LjMwNiAxOC4xMDM5IDE2LjMwNiAxNi4zOCAxNi4zMDYgMTUuMTQ2NSAxNS45NTYgMTQuMDk5NSAxNS4yNTYgMTMuMjM5MSAxNC41NTkgMTIuMzgxOCAxMy41ODkxIDExLjc5ODkgMTIuMzQ2MyAxMS40OTA1IDEzLjc1MjYgMTEuMTYzNiAxNC44NDc0IDEwLjUyMjIgMTUuNjMwNyA5LjU2NjIgMTYuNDE3IDguNjEzMjggMTYuODEwMiA3LjQ0OTEgMTYuODEwMiA2LjA3MzcgMTYuODEwMiAzLjk3OTc1IDE2LjE3MTkgMi4zNzMwNSAxNC44OTUxIDEuMjUzNiAxMy42MTg0IDAuMTM3MjMzIDExLjc4OTctMC40MjA5NSA5LjQwODkyLTAuNDIwOTUgNy4wMzEyNS0wLjQyMDk1IDUuMjAyNTIgMC4xMzcyMzMgMy45MjI3IDEuMjUzNiAyLjY0NTk3IDIuMzczMDUgMi4wMDc2MSAzLjk3OTc1IDIuMDA3NjEgNi4wNzM3IDIuMDA3NjEgNy40NDkxIDIuNDAyMzQgOC42MTMyOCAzLjE5MTgyIDkuNTY2MiAzLjk4NDM3IDEwLjUyMjIgNS4wODM3OCAxMS4xNjM2IDYuNDkwMDMgMTEuNDkwNVpNNS40MjE0NiAxNi4xMDI1QzUuNDIxNDYgMTQuOTg2MSA1Ljc2OTkzIDE0LjExNDkgNi40NjY5IDEzLjQ4ODkgNy4xNjY5MyAxMi44NjI5IDguMTQ3NiAxMi41NDk5IDkuNDA4OTIgMTIuNTQ5OSAxMC42NjQgMTIuNTQ5OSAxMS42NDQ3IDEyLjg2MjkgMTIuMzUwOSAxMy40ODg5IDEzLjA2MDIgMTQuMTE0OSAxMy40MTQ5IDE0Ljk4NjEgMTMuNDE0OSAxNi4xMDI1IDEzLjQxNDkgMTcuMjIxOSAxMy4wNjAyIDE4LjA5NDcgMTIuMzUwOSAxOC43MjA3IDExLjY0NDcgMTkuMzQ2NyAxMC42NjQgMTkuNjU5NyA5LjQwODkyIDE5LjY1OTcgOC4xNDc2IDE5LjY1OTcgNy4xNjY5MyAxOS4zNDY3IDYuNDY2OSAxOC43MjA3IDUuNzY5OTMgMTguMDk0NyA1LjQyMTQ2IDE3LjIyMTkgNS40MjE0NiAxNi4xMDI1WiIvPjxwYXRoIHRyYW5zZm9ybT0ibWF0cml4KDEuMDAwMzUgMCAwIC0xIDcwMS42NjYgMTYyLjI5NykiIGZpbGw9IiNGRkZGRkYiIGQ9Ik0zLjE2NDA2IDMuNjcyOSA2LjIxNzExIDMuNjcyOSA2LjIxNzExIDAgMy4xNjQwNiAwIDMuMTY0MDYgMy42NzI5WiIvPjxwYXRoIHRyYW5zZm9ybT0ibWF0cml4KDEuMDAwMzUgMCAwIC0xIDcxMS4wOCAxNjIuMjk3KSIgZmlsbD0iI0ZGRkZGRiIgZD0iTTExLjE4OTkgMTkuMDM5OSAzLjgxNjMgNy41MTY5NiAxMS4xODk5IDcuNTE2OTYgMTEuMTg5OSAxOS4wMzk5Wk0xMC40MjIgMjEuNTg0MSAxNC4wOTQ5IDIxLjU4NDEgMTQuMDk0OSA3LjUxNjk2IDE3LjE3NTcgNy41MTY5NiAxNy4xNzU3IDUuMDg4NCAxNC4wOTQ5IDUuMDg4NCAxNC4wOTQ5IDAgMTEuMTg5OSAwIDExLjE4OTkgNS4wODg0IDEuNDQ3ODggNS4wODg0IDEuNDQ3ODggNy45MDU1MyAxMC40MjIgMjEuNTg0MVoiLz48cGF0aCB0cmFuc2Zvcm09Im1hdHJpeCgxLjAwMDM1IDAgMCAtMSA3MjkuOTIyIDE2Mi4yOTcpIiBmaWxsPSIjRkZGRkZGIiBkPSJNOS40MDg5MiAxMC4yNTA4QzguMDIxMTggMTAuMjUwOCA2LjkyOTQ4IDkuODc5MjMgNi4xMzM4NCA5LjEzNiA1LjM0MTMgOC4zOTI3NyA0Ljk0NSA3LjM3MjAzIDQuOTQ1IDYuMDczNyA0Ljk0NSA0Ljc3MjMyIDUuMzQxMyAzLjc1IDYuMTMzODQgMy4wMDY3OCA2LjkyOTQ4IDIuMjYzNTcgOC4wMjExOCAxLjg5MTk2IDkuNDA4OTIgMS44OTE5NiAxMC43OTY3IDEuODkxOTYgMTEuODg5OSAyLjI2NTExIDEyLjY4ODYgMy4wMTE0MSAxMy40OTA0IDMuNzYwNzkgMTMuODkxMyA0Ljc4MTU3IDEzLjg5MTMgNi4wNzM3IDEzLjg5MTMgNy4zNzIwMyAxMy40OTM1IDguMzkyNzcgMTIuNjk3OSA5LjEzNiAxMS45MDUzIDkuODc5MjMgMTAuODA5IDEwLjI1MDggOS40MDg5MiAxMC4yNTA4Wk02LjQ5MDAzIDExLjQ5MDVDNS4yMzc5NiAxMS43OTg5IDQuMjYxOTIgMTIuMzgxOCAzLjU2MTg4IDEzLjIzOTEgMi44NjQ5MiAxNC4wOTk1IDIuNTE2NDUgMTUuMTQ2NSAyLjUxNjQ1IDE2LjM4IDIuNTE2NDUgMTguMTAzOSAzLjEzMDE0IDE5LjQ2NyA0LjM1NzUyIDIwLjQ2OTMgNS41ODc5OSAyMS40NzE1IDcuMjcxNzkgMjEuOTcyNyA5LjQwODkyIDIxLjk3MjcgMTEuNTU4NCAyMS45NzI3IDEzLjI0NTMgMjEuNDcxNSAxNC40Njk2IDIwLjQ2OTMgMTUuNjkzOSAxOS40NjcgMTYuMzA2IDE4LjEwMzkgMTYuMzA2IDE2LjM4IDE2LjMwNiAxNS4xNDY1IDE1Ljk1NiAxNC4wOTk1IDE1LjI1NiAxMy4yMzkxIDE0LjU1OSAxMi4zODE4IDEzLjU4OTEgMTEuNzk4OSAxMi4zNDYzIDExLjQ5MDUgMTMuNzUyNiAxMS4xNjM2IDE0Ljg0NzQgMTAuNTIyMiAxNS42MzA3IDkuNTY2MiAxNi40MTcgOC42MTMyOCAxNi44MTAyIDcuNDQ5MSAxNi44MTAyIDYuMDczNyAxNi44MTAyIDMuOTc5NzUgMTYuMTcxOSAyLjM3MzA1IDE0Ljg5NTEgMS4yNTM2IDEzLjYxODQgMC4xMzcyMzMgMTEuNzg5Ny0wLjQyMDk1IDkuNDA4OTItMC40MjA5NSA3LjAzMTI1LTAuNDIwOTUgNS4yMDI1MiAwLjEzNzIzMyAzLjkyMjcgMS4yNTM2IDIuNjQ1OTcgMi4zNzMwNSAyLjAwNzYxIDMuOTc5NzUgMi4wMDc2MSA2LjA3MzcgMi4wMDc2MSA3LjQ0OTEgMi40MDIzNCA4LjYxMzI4IDMuMTkxODIgOS41NjYyIDMuOTg0MzcgMTAuNTIyMiA1LjA4Mzc4IDExLjE2MzYgNi40OTAwMyAxMS40OTA1Wk01LjQyMTQ2IDE2LjEwMjVDNS40MjE0NiAxNC45ODYxIDUuNzY5OTMgMTQuMTE0OSA2LjQ2NjkgMTMuNDg4OSA3LjE2NjkzIDEyLjg2MjkgOC4xNDc2IDEyLjU0OTkgOS40MDg5MiAxMi41NDk5IDEwLjY2NCAxMi41NDk5IDExLjY0NDcgMTIuODYyOSAxMi4zNTA5IDEzLjQ4ODkgMTMuMDYwMiAxNC4xMTQ5IDEzLjQxNDkgMTQuOTg2MSAxMy40MTQ5IDE2LjEwMjUgMTMuNDE0OSAxNy4yMjE5IDEzLjA2MDIgMTguMDk0NyAxMi4zNTA5IDE4LjcyMDcgMTEuNjQ0NyAxOS4zNDY3IDEwLjY2NCAxOS42NTk3IDkuNDA4OTIgMTkuNjU5NyA4LjE0NzYgMTkuNjU5NyA3LjE2NjkzIDE5LjM0NjcgNi40NjY5IDE4LjcyMDcgNS43Njk5MyAxOC4wOTQ3IDUuNDIxNDYgMTcuMjIxOSA1LjQyMTQ2IDE2LjEwMjVaIi8+PHBhdGggdHJhbnNmb3JtPSJtYXRyaXgoMS4wMDAzNSAwIDAgLTEgMTI1LjI0MSAzNjIuNTUzKSIgZmlsbD0iIzI2MjYyNiIgZD0iTTEyLjAxMzMgMTEuNjM4NkMxMy40MTAzIDExLjMzOTQgMTQuNTAwNCAxMC43MTY1IDE1LjI4MzcgOS43Njk3NCAxNi4wNzAxIDguODI2MDcgMTYuNDYzMyA3LjY2MDM2IDE2LjQ2MzMgNi4yNzI2MiAxNi40NjMzIDQuMTQ0NzQgMTUuNzMwOSAyLjQ5NjQgMTQuMjY2IDEuMzI3NjEgMTIuODAxMiAwLjE2MTkwNCAxMC43MTk2LTAuNDIwOTUgOC4wMjExOC0wLjQyMDk1IDcuMTE3NjEtMC40MjA5NSA2LjE4NjI1LTAuMzMxNTE3IDUuMjI3MTgtMC4xNTI2NTIgNC4yNjgwOSAwLjAyNjIxMyAzLjI3ODE3IDAuMjk0NTExIDIuMjU3NCAwLjY1MjI0MUwyLjI1NzQgMy40NjkzN0MzLjA2NTM4IDIuOTk3NTMgMy45NTA0NSAyLjY0MTM0IDQuOTEyNjIgMi40MDA4IDUuODc3ODkgMi4xNjAyNiA2Ljg4NjMyIDIuMDM5OTkgNy45Mzc5MSAyLjAzOTk5IDkuNzY2NjQgMi4wMzk5OSAxMS4xNjA2IDIuNDAwOCAxMi4xMTk3IDMuMTIyNDMgMTMuMDc4NyAzLjg0NDA2IDEzLjU1ODMgNC44OTQxMiAxMy41NTgzIDYuMjcyNjIgMTMuNTU4MyA3LjU0NjI0IDEzLjExMjcgOC41NDA3OSAxMi4yMjE0IDkuMjU2MjcgMTEuMzMwMiA5Ljk3NDggMTAuMDkwNCAxMC4zMzQxIDguNTAyMjYgMTAuMzM0MUw1Ljk4NTgxIDEwLjMzNDEgNS45ODU4MSAxMi43MzQ5IDguNjE3OTEgMTIuNzM0OUMxMC4wNTE5IDEyLjczNDkgMTEuMTQ5OCAxMy4wMjE3IDExLjkxMTUgMTMuNTk1MyAxMi42NzMyIDE0LjE2ODkgMTMuMDU0MSAxNC45OTU0IDEzLjA1NDEgMTYuMDc0NyAxMy4wNTQxIDE3LjE4MTggMTIuNjYwOSAxOC4wMzE1IDExLjg3NDUgMTguNjIzNiAxMS4wOTEyIDE5LjIxODggOS45NjcxMiAxOS41MTYzIDguNTAyMjYgMTkuNTE2MyA3LjcwMDQ3IDE5LjUxNjMgNi44NDE1OSAxOS40Mjg1IDUuOTI1NjggMTkuMjUyNyA1LjAwOTc3IDE5LjA4IDQuMDAyODggMTguODExNyAyLjkwNTAyIDE4LjQ0NzhMMi45MDUwMiAyMS4wNDc1QzQuMDE1MjEgMjEuMzU1OSA1LjA1NDUgMjEuNTg3MiA2LjAyMjgyIDIxLjc0MTQgNi45OTExNCAyMS44OTU1IDcuOTA0IDIxLjk3MjcgOC43NjEzMSAyMS45NzI3IDEwLjk3ODYgMjEuOTcyNyAxMi43MzE4IDIxLjQ2ODQgMTQuMDIwOSAyMC40NiAxNS4zMTMgMTkuNDU0NyAxNS45NTkxIDE4LjA5NDcgMTUuOTU5MSAxNi4zOCAxNS45NTkxIDE1LjE4MzUgMTUuNjE2OCAxNC4xNzM1IDE0LjkzMjIgMTMuMzUwMSAxNC4yNDc1IDEyLjUyNjcgMTMuMjc0NiAxMS45NTYyIDEyLjAxMzMgMTEuNjM4NloiLz48cGF0aCB0cmFuc2Zvcm09Im1hdHJpeCgxLjAwMDM1IDAgMCAtMSAxNDQuMDgzIDM2Mi41NTMpIiBmaWxsPSIjMjYyNjI2IiBkPSJNMy4xNjQwNiAzLjY3MjkgNi4yMTcxMSAzLjY3MjkgNi4yMTcxMSAwIDMuMTY0MDYgMCAzLjE2NDA2IDMuNjcyOVoiLz48cGF0aCB0cmFuc2Zvcm09Im1hdHJpeCgxLjAwMDM1IDAgMCAtMSAxNTMuNDk3IDM2Mi41NTMpIiBmaWxsPSIjMjYyNjI2IiBkPSJNMy4xOTY0NCAyMS41ODQxIDE0LjY1OTIgMjEuNTg0MSAxNC42NTkyIDE5LjEyMzEgNS44NzAxNyAxOS4xMjMxIDUuODcwMTcgMTMuODM1OEM2LjI5MjY0IDEzLjk4MDggNi43MTUxNyAxNC4wODg3IDcuMTM3NjQgMTQuMTU5NiA3LjU2MzIyIDE0LjIzMDYgNy45ODg4IDE0LjI2NiA4LjQxNDM3IDE0LjI2NiAxMC44MjI5IDE0LjI2NiAxMi43MzAzIDEzLjYwNjEgMTQuMTM2NSAxMi4yODYyIDE1LjU0NTkgMTAuOTY2MyAxNi4yNTA1IDkuMTc5MTYgMTYuMjUwNSA2LjkyNDg2IDE2LjI1MDUgNC42MDI2OSAxNS41Mjc0IDIuNzk3MDggMTQuMDgxIDEuNTA4MDIgMTIuNjM0NiAwLjIyMjAzOSAxMC41OTYyLTAuNDIwOTUgNy45NjU2Ny0wLjQyMDk1IDcuMDU5LTAuNDIwOTUgNi4xMzUzNy0wLjM0Mzg1MyA1LjE5NDgtMC4xODk2NTkgNC4yNTczLTAuMDM1NDY0NyAzLjI4NzQyIDAuMTk1ODI2IDIuMjg1MTYgMC41MDQyMTVMMi4yODUxNiAzLjQ0MTYxQzMuMTUxNzMgMi45Njk3OCA0LjA0NzU5IDIuNjE4MjIgNC45NzI3NiAyLjM4NjkyIDUuODk3OTIgMi4xNTU2MyA2Ljg3NTUgMi4wMzk5OSA3LjkwNTUzIDIuMDM5OTkgOS41NzM5MyAyLjAzOTk5IDEwLjg5MzggMi40Nzc5IDExLjg2NTIgMy4zNTM3MiAxMi44Mzk4IDQuMjI5NTQgMTMuMzI3IDUuNDE5OTQgMTMuMzI3IDYuOTI0ODYgMTMuMzI3IDguNDI2NzIgMTIuODM5OCA5LjYxNTU2IDExLjg2NTIgMTAuNDkxNCAxMC44OTM4IDExLjM3MDMgOS41NzM5MyAxMS44MDk3IDcuOTA1NTMgMTEuODA5NyA3LjEyNTI5IDExLjgwOTcgNi4zNDY2MyAxMS43MjM0IDUuNTY5NDkgMTEuNTUwNyA0Ljc5NTQ1IDExLjM3OCA0LjAwNDQyIDExLjEwODEgMy4xOTY0NCAxMC43NDEyTDMuMTk2NDQgMjEuNTg0MVoiLz48cGF0aCB0cmFuc2Zvcm09Im1hdHJpeCgxLjAwMDM1IDAgMCAtMSAxNzIuMzQgMzYyLjU1MykiIGZpbGw9IiMyNjI2MjYiIGQ9Ik0yLjQyODU2IDIxLjU4NDEgMTYuMzA2IDIxLjU4NDEgMTYuMzA2IDIwLjMzOTcgOC40Njk4OCAwIDUuNDIxNDYgMCAxMi43OTUgMTkuMTIzMSAyLjQyODU2IDE5LjEyMzEgMi40Mjg1NiAyMS41ODQxWiIvPjxwYXRoIHRyYW5zZm9ybT0ibWF0cml4KDEuMDAwMzUgMCAwIC0xIDI2Mi4yODIgMzYyLjU1MykiIGZpbGw9IiMyNjI2MjYiIGQ9Ik0xMi4wMTMzIDExLjYzODZDMTMuNDEwMyAxMS4zMzk0IDE0LjUwMDQgMTAuNzE2NSAxNS4yODM3IDkuNzY5NzQgMTYuMDcwMSA4LjgyNjA3IDE2LjQ2MzMgNy42NjAzNiAxNi40NjMzIDYuMjcyNjIgMTYuNDYzMyA0LjE0NDc0IDE1LjczMDkgMi40OTY0IDE0LjI2NiAxLjMyNzYxIDEyLjgwMTIgMC4xNjE5MDQgMTAuNzE5Ni0wLjQyMDk1IDguMDIxMTgtMC40MjA5NSA3LjExNzYxLTAuNDIwOTUgNi4xODYyNS0wLjMzMTUxNyA1LjIyNzE4LTAuMTUyNjUyIDQuMjY4MDkgMC4wMjYyMTMgMy4yNzgxNyAwLjI5NDUxMSAyLjI1NzQgMC42NTIyNDFMMi4yNTc0IDMuNDY5MzdDMy4wNjUzOCAyLjk5NzUzIDMuOTUwNDUgMi42NDEzNCA0LjkxMjYyIDIuNDAwOCA1Ljg3Nzg5IDIuMTYwMjYgNi44ODYzMiAyLjAzOTk5IDcuOTM3OTEgMi4wMzk5OSA5Ljc2NjY0IDIuMDM5OTkgMTEuMTYwNiAyLjQwMDggMTIuMTE5NyAzLjEyMjQzIDEzLjA3ODcgMy44NDQwNiAxMy41NTgzIDQuODk0MTIgMTMuNTU4MyA2LjI3MjYyIDEzLjU1ODMgNy41NDYyNCAxMy4xMTI3IDguNTQwNzkgMTIuMjIxNCA5LjI1NjI3IDExLjMzMDIgOS45NzQ4IDEwLjA5MDQgMTAuMzM0MSA4LjUwMjI2IDEwLjMzNDFMNS45ODU4MSAxMC4zMzQxIDUuOTg1ODEgMTIuNzM0OSA4LjYxNzkxIDEyLjczNDlDMTAuMDUxOSAxMi43MzQ5IDExLjE0OTggMTMuMDIxNyAxMS45MTE1IDEzLjU5NTMgMTIuNjczMiAxNC4xNjg5IDEzLjA1NDEgMTQuOTk1NCAxMy4wNTQxIDE2LjA3NDcgMTMuMDU0MSAxNy4xODE4IDEyLjY2MDkgMTguMDMxNSAxMS44NzQ1IDE4LjYyMzYgMTEuMDkxMiAxOS4yMTg4IDkuOTY3MTIgMTkuNTE2MyA4LjUwMjI2IDE5LjUxNjMgNy43MDA0NyAxOS41MTYzIDYuODQxNTkgMTkuNDI4NSA1LjkyNTY4IDE5LjI1MjcgNS4wMDk3NyAxOS4wOCA0LjAwMjg4IDE4LjgxMTcgMi45MDUwMiAxOC40NDc4TDIuOTA1MDIgMjEuMDQ3NUM0LjAxNTIxIDIxLjM1NTkgNS4wNTQ1IDIxLjU4NzIgNi4wMjI4MiAyMS43NDE0IDYuOTkxMTQgMjEuODk1NSA3LjkwNCAyMS45NzI3IDguNzYxMzEgMjEuOTcyNyAxMC45Nzg2IDIxLjk3MjcgMTIuNzMxOCAyMS40Njg0IDE0LjAyMDkgMjAuNDYgMTUuMzEzIDE5LjQ1NDcgMTUuOTU5MSAxOC4wOTQ3IDE1Ljk1OTEgMTYuMzggMTUuOTU5MSAxNS4xODM1IDE1LjYxNjggMTQuMTczNSAxNC45MzIyIDEzLjM1MDEgMTQuMjQ3NSAxMi41MjY3IDEzLjI3NDYgMTEuOTU2MiAxMi4wMTMzIDExLjYzODZaIi8+PHBhdGggdHJhbnNmb3JtPSJtYXRyaXgoMS4wMDAzNSAwIDAgLTEgMjgxLjEyNCAzNjIuNTUzKSIgZmlsbD0iIzI2MjYyNiIgZD0iTTMuMTY0MDYgMy42NzI5IDYuMjE3MTEgMy42NzI5IDYuMjE3MTEgMCAzLjE2NDA2IDAgMy4xNjQwNiAzLjY3MjlaIi8+PHBhdGggdHJhbnNmb3JtPSJtYXRyaXgoMS4wMDAzNSAwIDAgLTEgMjkwLjUzOCAzNjIuNTUzKSIgZmlsbD0iIzI2MjYyNiIgZD0iTTkuNzc0MzYgMTEuOTUzMUM4LjQ2MzczIDExLjk1MzEgNy40MjQ0NSAxMS41MDQ0IDYuNjU2NTYgMTAuNjA3IDUuODkxNzcgOS43MTI3IDUuNTA5MzUgOC40ODUyOCA1LjUwOTM1IDYuOTI0ODYgNS41MDkzNSA1LjM3MzY4IDUuODkxNzcgNC4xNDYyOCA2LjY1NjU2IDMuMjQyNyA3LjQyNDQ1IDIuMzQyMjEgOC40NjM3MyAxLjg5MTk2IDkuNzc0MzYgMS44OTE5NiAxMS4wODUgMS44OTE5NiAxMi4xMjI4IDIuMzQyMjEgMTIuODg3NSAzLjI0MjcgMTMuNjUyMyA0LjE0NjI4IDE0LjAzNDcgNS4zNzM2OCAxNC4wMzQ3IDYuOTI0ODYgMTQuMDM0NyA4LjQ4NTI4IDEzLjY1MjMgOS43MTI3IDEyLjg4NzUgMTAuNjA3IDEyLjEyMjggMTEuNTA0NCAxMS4wODUgMTEuOTUzMSA5Ljc3NDM2IDExLjk1MzFaTTE1LjU3MDUgMjEuMTA3NiAxNS41NzA1IDE4LjQ0NzhDMTQuODM2NSAxOC43OTMyIDE0LjA5NjQgMTkuMDU2OSAxMy4zNTAxIDE5LjIzODggMTIuNjAzOCAxOS40MjM4IDExLjg2MzcgMTkuNTE2MyAxMS4xMjk3IDE5LjUxNjMgOS4yMDIyOSAxOS41MTYzIDcuNzI5NzUgMTguODY1NiA2LjcxMjA3IDE3LjU2NDIgNS42OTc0OSAxNi4yNjI5IDUuMTE3NjkgMTQuMjk2OSA0Ljk3Mjc2IDExLjY2NjMgNS41NDAyMSAxMi41MDUxIDYuMjUyNTkgMTMuMTQ4MSA3LjEwOTg5IDEzLjU5NTMgNy45NzAyOSAxNC4wNDI1IDguOTE1NDkgMTQuMjY2IDkuOTQ1NTIgMTQuMjY2IDEyLjExMzUgMTQuMjY2IDEzLjgyNjYgMTMuNjA3NiAxNS4wODQ4IDEyLjI5MDggMTYuMzQzIDEwLjk3NzEgMTYuOTcyMSA5LjE4ODQxIDE2Ljk3MjEgNi45MjQ4NiAxNi45NzIxIDQuNzA3NTYgMTYuMzE2OCAyLjkyODE1IDE1LjAwNjIgMS41ODY2NiAxMy42OTU1IDAuMjQ4MjUzIDExLjk1MTYtMC40MjA5NSA5Ljc3NDM2LTAuNDIwOTUgNy4yNzY0Mi0wLjQyMDk1IDUuMzY3NDggMC41MzUwNTUgNC4wNDc1OSAyLjQ0NzA2IDIuNzI3NjkgNC4zNjIxNSAyLjA2Nzc0IDcuMTM2MTIgMi4wNjc3NCAxMC43Njg5IDIuMDY3NzQgMTQuMTc5NyAyLjg3NzI2IDE2Ljg5OTcgNC40OTYzIDE4LjkyODkgNi4xMTUzNCAyMC45NTgxIDguMjg3OTUgMjEuOTcyNyAxMS4wMTQxIDIxLjk3MjcgMTEuNzQ4MSAyMS45NzI3IDEyLjQ4ODIgMjEuOTAwMiAxMy4yMzQ1IDIxLjc1NTIgMTMuOTgwOCAyMS42MTAzIDE0Ljc1OTUgMjEuMzk0NCAxNS41NzA1IDIxLjEwNzZaIi8+PHBhdGggdHJhbnNmb3JtPSJtYXRyaXgoMS4wMDAzNSAwIDAgLTEgMzA5LjM4MSAzNjIuNTUzKSIgZmlsbD0iIzI2MjYyNiIgZD0iTTExLjE4OTkgMTkuMDM5OSAzLjgxNjMgNy41MTY5NiAxMS4xODk5IDcuNTE2OTYgMTEuMTg5OSAxOS4wMzk5Wk0xMC40MjIgMjEuNTg0MSAxNC4wOTQ5IDIxLjU4NDEgMTQuMDk0OSA3LjUxNjk2IDE3LjE3NTcgNy41MTY5NiAxNy4xNzU3IDUuMDg4NCAxNC4wOTQ5IDUuMDg4NCAxNC4wOTQ5IDAgMTEuMTg5OSAwIDExLjE4OTkgNS4wODg0IDEuNDQ3ODggNS4wODg0IDEuNDQ3ODggNy45MDU1MyAxMC40MjIgMjEuNTg0MVoiLz48cGF0aCB0cmFuc2Zvcm09Im1hdHJpeCgxLjAwMDM1IDAgMCAtMSAzODkuOTAxIDM2Mi41NTMpIiBmaWxsPSIjMjYyNjI2IiBkPSJNMy42NzI5IDIuNDU2MzEgOC40NDIxMyAyLjQ1NjMxIDguNDQyMTMgMTguOTI0MiAzLjI1MTk1IDE3Ljg4MzQgMy4yNTE5NSAyMC41NDMzIDguNDE0MzcgMjEuNTg0MSAxMS4zMzMzIDIxLjU4NDEgMTEuMzMzMyAyLjQ1NjMxIDE2LjEwMjUgMi40NTYzMSAxNi4xMDI1IDAgMy42NzI5IDAgMy42NzI5IDIuNDU2MzFaIi8+PHBhdGggdHJhbnNmb3JtPSJtYXRyaXgoMS4wMDAzNSAwIDAgLTEgNDA4Ljc0MyAzNjIuNTUzKSIgZmlsbD0iIzI2MjYyNiIgZD0iTTkuNDA4OTIgMTkuNjU5N0M3LjkwNzA2IDE5LjY1OTcgNi43NzY4MyAxOC45MTk2IDYuMDE4MiAxNy40Mzk0IDUuMjYyNjYgMTUuOTYyMiA0Ljg4NDg3IDEzLjczODcgNC44ODQ4NyAxMC43Njg5IDQuODg0ODcgNy44MTE0OSA1LjI2MjY2IDUuNTkyNjIgNi4wMTgyIDQuMTEyMzYgNi43NzY4MyAyLjYzMjA5IDcuOTA3MDYgMS44OTE5NiA5LjQwODkyIDEuODkxOTYgMTAuOTIzMSAxLjg5MTk2IDEyLjA1OCAyLjYzMjA5IDEyLjgxMzUgNC4xMTIzNiAxMy41NzIyIDUuNTkyNjIgMTMuOTUxNSA3LjgxMTQ5IDEzLjk1MTUgMTAuNzY4OSAxMy45NTE1IDEzLjczODcgMTMuNTcyMiAxNS45NjIyIDEyLjgxMzUgMTcuNDM5NCAxMi4wNTggMTguOTE5NiAxMC45MjMxIDE5LjY1OTcgOS40MDg5MiAxOS42NTk3Wk05LjQwODkyIDIxLjk3MjdDMTEuODI5OCAyMS45NzI3IDEzLjY3ODYgMjEuMDE1MSAxNC45NTUzIDE5LjEgMTYuMjMyIDE3LjE4OCAxNi44NzA0IDE0LjQxMSAxNi44NzA0IDEwLjc2ODkgMTYuODcwNCA3LjEzNjEyIDE2LjIzMiA0LjM2MjE1IDE0Ljk1NTMgMi40NDcwNiAxMy42Nzg2IDAuNTM1MDU1IDExLjgyOTgtMC40MjA5NSA5LjQwODkyLTAuNDIwOTUgNi45OTExNC0wLjQyMDk1IDUuMTQzOTEgMC41MzUwNTUgMy44NjcxOSAyLjQ0NzA2IDIuNTkwNDYgNC4zNjIxNSAxLjk1MjEgNy4xMzYxMiAxLjk1MjEgMTAuNzY4OSAxLjk1MjEgMTQuNDExIDIuNTkwNDYgMTcuMTg4IDMuODY3MTkgMTkuMSA1LjE0MzkxIDIxLjAxNTEgNi45OTExNCAyMS45NzI3IDkuNDA4OTIgMjEuOTcyN1oiLz48cGF0aCB0cmFuc2Zvcm09Im1hdHJpeCgxLjAwMDM1IDAgMCAtMSA0MjcuNTg1IDM2Mi41NTMpIiBmaWxsPSIjMjYyNjI2IiBkPSJNMy4xNjQwNiAzLjY3MjkgNi4yMTcxMSAzLjY3MjkgNi4yMTcxMSAwIDMuMTY0MDYgMCAzLjE2NDA2IDMuNjcyOVoiLz48cGF0aCB0cmFuc2Zvcm09Im1hdHJpeCgxLjAwMDM1IDAgMCAtMSA0MzYuOTk5IDM2Mi41NTMpIiBmaWxsPSIjMjYyNjI2IiBkPSJNMTEuMTg5OSAxOS4wMzk5IDMuODE2MyA3LjUxNjk2IDExLjE4OTkgNy41MTY5NiAxMS4xODk5IDE5LjAzOTlaTTEwLjQyMiAyMS41ODQxIDE0LjA5NDkgMjEuNTg0MSAxNC4wOTQ5IDcuNTE2OTYgMTcuMTc1NyA3LjUxNjk2IDE3LjE3NTcgNS4wODg0IDE0LjA5NDkgNS4wODg0IDE0LjA5NDkgMCAxMS4xODk5IDAgMTEuMTg5OSA1LjA4ODQgMS40NDc4OCA1LjA4ODQgMS40NDc4OCA3LjkwNTUzIDEwLjQyMiAyMS41ODQxWiIvPjxwYXRoIHRyYW5zZm9ybT0ibWF0cml4KDEuMDAwMzUgMCAwIC0xIDQ1NS44NDEgMzYyLjU1MykiIGZpbGw9IiMyNjI2MjYiIGQ9Ik01LjY4MDUxIDIuNDU2MzEgMTUuODcxMiAyLjQ1NjMxIDE1Ljg3MTIgMCAyLjE2OTUxIDAgMi4xNjk1MSAyLjQ1NjMxQzMuMjc2NjIgMy42MDM1MiA0Ljc4NjIgNS4xNDIzOSA2LjY5ODE5IDcuMDcyODggOC42MTMyOCA5LjAwNjQ4IDkuODE2IDEwLjI1MzkgMTAuMzA2MyAxMC44MTUyIDExLjI0MDcgMTEuODYzNyAxMS44OTMgMTIuNzUxOSAxMi4yNjMxIDEzLjQ3OTYgMTIuNjM2MiAxNC4yMDc0IDEyLjgyMjggMTQuOTIyOSAxMi44MjI4IDE1LjYyNiAxMi44MjI4IDE2Ljc3MzIgMTIuNDIwMyAxNy43MDc2IDExLjYxNTQgMTguNDI5MyAxMC44MTA1IDE5LjE1NCA5Ljc2MjAxIDE5LjUxNjMgOC40Njk4OCAxOS41MTYzIDcuNTUzOTcgMTkuNTE2MyA2LjU4NzE3IDE5LjM1NzUgNS41Njk0OSAxOS4wMzk5IDQuNTU0ODkgMTguNzIyMiAzLjQ2OTM3IDE4LjIzOTYgMi4zMTI5MSAxNy41OTJMMi4zMTI5MSAyMC41NDMzQzMuNDg3ODcgMjEuMDE1MSA0LjU4NTczIDIxLjM3MTMgNS42MDY1IDIxLjYxMTggNi42MzAzMyAyMS44NTI0IDcuNTY2MzIgMjEuOTcyNyA4LjQxNDM3IDIxLjk3MjcgMTAuNjUwMiAyMS45NzI3IDEyLjQzMjcgMjEuNDEyOSAxMy43NjE4IDIwLjI5MzUgMTUuMDkxIDE5LjE3NzEgMTUuNzU1NiAxNy42ODQ1IDE1Ljc1NTYgMTUuODE1NyAxNS43NTU2IDE0LjkyNzUgMTUuNTg5IDE0LjA4NTYgMTUuMjU2IDEzLjI5IDE0LjkyNiAxMi40OTc0IDE0LjMyMTUgMTEuNTYxNSAxMy40NDI2IDEwLjQ4MjEgMTMuMjAyMSAxMC4yMDE1IDEyLjQzNTcgOS4zOTM1MiAxMS4xNDM2IDguMDU4MTggOS44NTQ1MyA2LjcyMjg1IDguMDMzNTMgNC44NTU1OSA1LjY4MDUxIDIuNDU2MzFaIi8+PHBhdGggdHJhbnNmb3JtPSJtYXRyaXgoMS4wMDAzNSAwIDAgLTEgNTU5LjkxMiAzNjIuNTUzKSIgZmlsbD0iIzI2MjYyNiIgZD0iTTkuNDA4OTIgMTkuNjU5N0M3LjkwNzA2IDE5LjY1OTcgNi43NzY4MyAxOC45MTk2IDYuMDE4MiAxNy40Mzk0IDUuMjYyNjYgMTUuOTYyMiA0Ljg4NDg3IDEzLjczODcgNC44ODQ4NyAxMC43Njg5IDQuODg0ODcgNy44MTE0OSA1LjI2MjY2IDUuNTkyNjIgNi4wMTgyIDQuMTEyMzYgNi43NzY4MyAyLjYzMjA5IDcuOTA3MDYgMS44OTE5NiA5LjQwODkyIDEuODkxOTYgMTAuOTIzMSAxLjg5MTk2IDEyLjA1OCAyLjYzMjA5IDEyLjgxMzUgNC4xMTIzNiAxMy41NzIyIDUuNTkyNjIgMTMuOTUxNSA3LjgxMTQ5IDEzLjk1MTUgMTAuNzY4OSAxMy45NTE1IDEzLjczODcgMTMuNTcyMiAxNS45NjIyIDEyLjgxMzUgMTcuNDM5NCAxMi4wNTggMTguOTE5NiAxMC45MjMxIDE5LjY1OTcgOS40MDg5MiAxOS42NTk3Wk05LjQwODkyIDIxLjk3MjdDMTEuODI5OCAyMS45NzI3IDEzLjY3ODYgMjEuMDE1MSAxNC45NTUzIDE5LjEgMTYuMjMyIDE3LjE4OCAxNi44NzA0IDE0LjQxMSAxNi44NzA0IDEwLjc2ODkgMTYuODcwNCA3LjEzNjEyIDE2LjIzMiA0LjM2MjE1IDE0Ljk1NTMgMi40NDcwNiAxMy42Nzg2IDAuNTM1MDU1IDExLjgyOTgtMC40MjA5NSA5LjQwODkyLTAuNDIwOTUgNi45OTExNC0wLjQyMDk1IDUuMTQzOTEgMC41MzUwNTUgMy44NjcxOSAyLjQ0NzA2IDIuNTkwNDYgNC4zNjIxNSAxLjk1MjEgNy4xMzYxMiAxLjk1MjEgMTAuNzY4OSAxLjk1MjEgMTQuNDExIDIuNTkwNDYgMTcuMTg4IDMuODY3MTkgMTkuMSA1LjE0MzkxIDIxLjAxNTEgNi45OTExNCAyMS45NzI3IDkuNDA4OTIgMjEuOTcyN1oiLz48cGF0aCB0cmFuc2Zvcm09Im1hdHJpeCgxLjAwMDM1IDAgMCAtMSA2NjMuOTgxIDM2Mi41NTMpIiBmaWxsPSIjRkZGRkZGIiBkPSJNMy42NzI5IDIuNDU2MzEgOC40NDIxMyAyLjQ1NjMxIDguNDQyMTMgMTguOTI0MiAzLjI1MTk1IDE3Ljg4MzQgMy4yNTE5NSAyMC41NDMzIDguNDE0MzcgMjEuNTg0MSAxMS4zMzMzIDIxLjU4NDEgMTEuMzMzMyAyLjQ1NjMxIDE2LjEwMjUgMi40NTYzMSAxNi4xMDI1IDAgMy42NzI5IDAgMy42NzI5IDIuNDU2MzFaIi8+PHBhdGggdHJhbnNmb3JtPSJtYXRyaXgoMS4wMDAzNSAwIDAgLTEgNjgyLjgyMyAzNjIuNTUzKSIgZmlsbD0iI0ZGRkZGRiIgZD0iTTUuNjgwNTEgMi40NTYzMSAxNS44NzEyIDIuNDU2MzEgMTUuODcxMiAwIDIuMTY5NTEgMCAyLjE2OTUxIDIuNDU2MzFDMy4yNzY2MiAzLjYwMzUyIDQuNzg2MiA1LjE0MjM5IDYuNjk4MTkgNy4wNzI4OCA4LjYxMzI4IDkuMDA2NDggOS44MTYgMTAuMjUzOSAxMC4zMDYzIDEwLjgxNTIgMTEuMjQwNyAxMS44NjM3IDExLjg5MyAxMi43NTE5IDEyLjI2MzEgMTMuNDc5NiAxMi42MzYyIDE0LjIwNzQgMTIuODIyOCAxNC45MjI5IDEyLjgyMjggMTUuNjI2IDEyLjgyMjggMTYuNzczMiAxMi40MjAzIDE3LjcwNzYgMTEuNjE1NCAxOC40MjkzIDEwLjgxMDUgMTkuMTU0IDkuNzYyMDEgMTkuNTE2MyA4LjQ2OTg4IDE5LjUxNjMgNy41NTM5NyAxOS41MTYzIDYuNTg3MTcgMTkuMzU3NSA1LjU2OTQ5IDE5LjAzOTkgNC41NTQ4OSAxOC43MjIyIDMuNDY5MzcgMTguMjM5NiAyLjMxMjkxIDE3LjU5MkwyLjMxMjkxIDIwLjU0MzNDMy40ODc4NyAyMS4wMTUxIDQuNTg1NzMgMjEuMzcxMyA1LjYwNjUgMjEuNjExOCA2LjYzMDMzIDIxLjg1MjQgNy41NjYzMiAyMS45NzI3IDguNDE0MzcgMjEuOTcyNyAxMC42NTAyIDIxLjk3MjcgMTIuNDMyNyAyMS40MTI5IDEzLjc2MTggMjAuMjkzNSAxNS4wOTEgMTkuMTc3MSAxNS43NTU2IDE3LjY4NDUgMTUuNzU1NiAxNS44MTU3IDE1Ljc1NTYgMTQuOTI3NSAxNS41ODkgMTQuMDg1NiAxNS4yNTYgMTMuMjkgMTQuOTI2IDEyLjQ5NzQgMTQuMzIxNSAxMS41NjE1IDEzLjQ0MjYgMTAuNDgyMSAxMy4yMDIxIDEwLjIwMTUgMTIuNDM1NyA5LjM5MzUyIDExLjE0MzYgOC4wNTgxOCA5Ljg1NDUzIDYuNzIyODUgOC4wMzM1MyA0Ljg1NTU5IDUuNjgwNTEgMi40NTYzMVoiLz48cGF0aCB0cmFuc2Zvcm09Im1hdHJpeCgxLjAwMDM1IDAgMCAtMSA3MDEuNjY2IDM2Mi41NTMpIiBmaWxsPSIjRkZGRkZGIiBkPSJNMy4xNjQwNiAzLjY3MjkgNi4yMTcxMSAzLjY3MjkgNi4yMTcxMSAwIDMuMTY0MDYgMCAzLjE2NDA2IDMuNjcyOVoiLz48cGF0aCB0cmFuc2Zvcm09Im1hdHJpeCgxLjAwMDM1IDAgMCAtMSA3MTEuMDggMzYyLjU1MykiIGZpbGw9IiNGRkZGRkYiIGQ9Ik0zLjY3MjkgMi40NTYzMSA4LjQ0MjEzIDIuNDU2MzEgOC40NDIxMyAxOC45MjQyIDMuMjUxOTUgMTcuODgzNCAzLjI1MTk1IDIwLjU0MzMgOC40MTQzNyAyMS41ODQxIDExLjMzMzMgMjEuNTg0MSAxMS4zMzMzIDIuNDU2MzEgMTYuMTAyNSAyLjQ1NjMxIDE2LjEwMjUgMCAzLjY3MjkgMCAzLjY3MjkgMi40NTYzMVoiLz48cGF0aCB0cmFuc2Zvcm09Im1hdHJpeCgxLjAwMDM1IDAgMCAtMSA3MjkuOTIyIDM2Mi41NTMpIiBmaWxsPSIjRkZGRkZGIiBkPSJNNS42ODA1MSAyLjQ1NjMxIDE1Ljg3MTIgMi40NTYzMSAxNS44NzEyIDAgMi4xNjk1MSAwIDIuMTY5NTEgMi40NTYzMUMzLjI3NjYyIDMuNjAzNTIgNC43ODYyIDUuMTQyMzkgNi42OTgxOSA3LjA3Mjg4IDguNjEzMjggOS4wMDY0OCA5LjgxNiAxMC4yNTM5IDEwLjMwNjMgMTAuODE1MiAxMS4yNDA3IDExLjg2MzcgMTEuODkzIDEyLjc1MTkgMTIuMjYzMSAxMy40Nzk2IDEyLjYzNjIgMTQuMjA3NCAxMi44MjI4IDE0LjkyMjkgMTIuODIyOCAxNS42MjYgMTIuODIyOCAxNi43NzMyIDEyLjQyMDMgMTcuNzA3NiAxMS42MTU0IDE4LjQyOTMgMTAuODEwNSAxOS4xNTQgOS43NjIwMSAxOS41MTYzIDguNDY5ODggMTkuNTE2MyA3LjU1Mzk3IDE5LjUxNjMgNi41ODcxNyAxOS4zNTc1IDUuNTY5NDkgMTkuMDM5OSA0LjU1NDg5IDE4LjcyMjIgMy40NjkzNyAxOC4yMzk2IDIuMzEyOTEgMTcuNTkyTDIuMzEyOTEgMjAuNTQzM0MzLjQ4Nzg3IDIxLjAxNTEgNC41ODU3MyAyMS4zNzEzIDUuNjA2NSAyMS42MTE4IDYuNjMwMzMgMjEuODUyNCA3LjU2NjMyIDIxLjk3MjcgOC40MTQzNyAyMS45NzI3IDEwLjY1MDIgMjEuOTcyNyAxMi40MzI3IDIxLjQxMjkgMTMuNzYxOCAyMC4yOTM1IDE1LjA5MSAxOS4xNzcxIDE1Ljc1NTYgMTcuNjg0NSAxNS43NTU2IDE1LjgxNTcgMTUuNzU1NiAxNC45Mjc1IDE1LjU4OSAxNC4wODU2IDE1LjI1NiAxMy4yOSAxNC45MjYgMTIuNDk3NCAxNC4zMjE1IDExLjU2MTUgMTMuNDQyNiAxMC40ODIxIDEzLjIwMjEgMTAuMjAxNSAxMi40MzU3IDkuMzkzNTIgMTEuMTQzNiA4LjA1ODE4IDkuODU0NTMgNi43MjI4NSA4LjAzMzUzIDQuODU1NTkgNS42ODA1MSAyLjQ1NjMxWiIvPjxwYXRoIHRyYW5zZm9ybT0ibWF0cml4KDEuMDAwMzUgMCAwIC0xIDE0OC43OSA1NjIuODA4KSIgZmlsbD0iIzI2MjYyNiIgZD0iTTkuNDA4OTIgMTkuNjU5N0M3LjkwNzA2IDE5LjY1OTcgNi43NzY4MyAxOC45MTk2IDYuMDE4MiAxNy40Mzk0IDUuMjYyNjYgMTUuOTYyMiA0Ljg4NDg3IDEzLjczODcgNC44ODQ4NyAxMC43Njg5IDQuODg0ODcgNy44MTE0OSA1LjI2MjY2IDUuNTkyNjIgNi4wMTgyIDQuMTEyMzYgNi43NzY4MyAyLjYzMjA5IDcuOTA3MDYgMS44OTE5NiA5LjQwODkyIDEuODkxOTYgMTAuOTIzMSAxLjg5MTk2IDEyLjA1OCAyLjYzMjA5IDEyLjgxMzUgNC4xMTIzNiAxMy41NzIyIDUuNTkyNjIgMTMuOTUxNSA3LjgxMTQ5IDEzLjk1MTUgMTAuNzY4OSAxMy45NTE1IDEzLjczODcgMTMuNTcyMiAxNS45NjIyIDEyLjgxMzUgMTcuNDM5NCAxMi4wNTggMTguOTE5NiAxMC45MjMxIDE5LjY1OTcgOS40MDg5MiAxOS42NTk3Wk05LjQwODkyIDIxLjk3MjdDMTEuODI5OCAyMS45NzI3IDEzLjY3ODYgMjEuMDE1MSAxNC45NTUzIDE5LjEgMTYuMjMyIDE3LjE4OCAxNi44NzA0IDE0LjQxMSAxNi44NzA0IDEwLjc2ODkgMTYuODcwNCA3LjEzNjEyIDE2LjIzMiA0LjM2MjE1IDE0Ljk1NTMgMi40NDcwNiAxMy42Nzg2IDAuNTM1MDU1IDExLjgyOTgtMC40MjA5NSA5LjQwODkyLTAuNDIwOTUgNi45OTExNC0wLjQyMDk1IDUuMTQzOTEgMC41MzUwNTUgMy44NjcxOSAyLjQ0NzA2IDIuNTkwNDYgNC4zNjIxNSAxLjk1MjEgNy4xMzYxMiAxLjk1MjEgMTAuNzY4OSAxLjk1MjEgMTQuNDExIDIuNTkwNDYgMTcuMTg4IDMuODY3MTkgMTkuMSA1LjE0MzkxIDIxLjAxNTEgNi45OTExNCAyMS45NzI3IDkuNDA4OTIgMjEuOTcyN1oiLz48cGF0aCB0cmFuc2Zvcm09Im1hdHJpeCgxLjAwMDM1IDAgMCAtMSAyNjIuMjgyIDU2Mi44MDgpIiBmaWxsPSIjMjYyNjI2IiBkPSJNMy42NzI5IDIuNDU2MzEgOC40NDIxMyAyLjQ1NjMxIDguNDQyMTMgMTguOTI0MiAzLjI1MTk1IDE3Ljg4MzQgMy4yNTE5NSAyMC41NDMzIDguNDE0MzcgMjEuNTg0MSAxMS4zMzMzIDIxLjU4NDEgMTEuMzMzMyAyLjQ1NjMxIDE2LjEwMjUgMi40NTYzMSAxNi4xMDI1IDAgMy42NzI5IDAgMy42NzI5IDIuNDU2MzFaIi8+PHBhdGggdHJhbnNmb3JtPSJtYXRyaXgoMS4wMDAzNSAwIDAgLTEgMjgxLjEyNCA1NjIuODA4KSIgZmlsbD0iIzI2MjYyNiIgZD0iTTMuMTY0MDYgMy42NzI5IDYuMjE3MTEgMy42NzI5IDYuMjE3MTEgMCAzLjE2NDA2IDAgMy4xNjQwNiAzLjY3MjlaIi8+PHBhdGggdHJhbnNmb3JtPSJtYXRyaXgoMS4wMDAzNSAwIDAgLTEgMjkwLjUzOCA1NjIuODA4KSIgZmlsbD0iIzI2MjYyNiIgZD0iTTkuNDA4OTIgMTAuMjUwOEM4LjAyMTE4IDEwLjI1MDggNi45Mjk0OCA5Ljg3OTIzIDYuMTMzODQgOS4xMzYgNS4zNDEzIDguMzkyNzcgNC45NDUgNy4zNzIwMyA0Ljk0NSA2LjA3MzcgNC45NDUgNC43NzIzMiA1LjM0MTMgMy43NSA2LjEzMzg0IDMuMDA2NzggNi45Mjk0OCAyLjI2MzU3IDguMDIxMTggMS44OTE5NiA5LjQwODkyIDEuODkxOTYgMTAuNzk2NyAxLjg5MTk2IDExLjg4OTkgMi4yNjUxMSAxMi42ODg2IDMuMDExNDEgMTMuNDkwNCAzLjc2MDc5IDEzLjg5MTMgNC43ODE1NyAxMy44OTEzIDYuMDczNyAxMy44OTEzIDcuMzcyMDMgMTMuNDkzNSA4LjM5Mjc3IDEyLjY5NzkgOS4xMzYgMTEuOTA1MyA5Ljg3OTIzIDEwLjgwOSAxMC4yNTA4IDkuNDA4OTIgMTAuMjUwOFpNNi40OTAwMyAxMS40OTA1QzUuMjM3OTYgMTEuNzk4OSA0LjI2MTkyIDEyLjM4MTggMy41NjE4OCAxMy4yMzkxIDIuODY0OTIgMTQuMDk5NSAyLjUxNjQ1IDE1LjE0NjUgMi41MTY0NSAxNi4zOCAyLjUxNjQ1IDE4LjEwMzkgMy4xMzAxNCAxOS40NjcgNC4zNTc1MiAyMC40NjkzIDUuNTg3OTkgMjEuNDcxNSA3LjI3MTc5IDIxLjk3MjcgOS40MDg5MiAyMS45NzI3IDExLjU1ODQgMjEuOTcyNyAxMy4yNDUzIDIxLjQ3MTUgMTQuNDY5NiAyMC40NjkzIDE1LjY5MzkgMTkuNDY3IDE2LjMwNiAxOC4xMDM5IDE2LjMwNiAxNi4zOCAxNi4zMDYgMTUuMTQ2NSAxNS45NTYgMTQuMDk5NSAxNS4yNTYgMTMuMjM5MSAxNC41NTkgMTIuMzgxOCAxMy41ODkxIDExLjc5ODkgMTIuMzQ2MyAxMS40OTA1IDEzLjc1MjYgMTEuMTYzNiAxNC44NDc0IDEwLjUyMjIgMTUuNjMwNyA5LjU2NjIgMTYuNDE3IDguNjEzMjggMTYuODEwMiA3LjQ0OTEgMTYuODEwMiA2LjA3MzcgMTYuODEwMiAzLjk3OTc1IDE2LjE3MTkgMi4zNzMwNSAxNC44OTUxIDEuMjUzNiAxMy42MTg0IDAuMTM3MjMzIDExLjc4OTctMC40MjA5NSA5LjQwODkyLTAuNDIwOTUgNy4wMzEyNS0wLjQyMDk1IDUuMjAyNTIgMC4xMzcyMzMgMy45MjI3IDEuMjUzNiAyLjY0NTk3IDIuMzczMDUgMi4wMDc2MSAzLjk3OTc1IDIuMDA3NjEgNi4wNzM3IDIuMDA3NjEgNy40NDkxIDIuNDAyMzQgOC42MTMyOCAzLjE5MTgyIDkuNTY2MiAzLjk4NDM3IDEwLjUyMjIgNS4wODM3OCAxMS4xNjM2IDYuNDkwMDMgMTEuNDkwNVpNNS40MjE0NiAxNi4xMDI1QzUuNDIxNDYgMTQuOTg2MSA1Ljc2OTkzIDE0LjExNDkgNi40NjY5IDEzLjQ4ODkgNy4xNjY5MyAxMi44NjI5IDguMTQ3NiAxMi41NDk5IDkuNDA4OTIgMTIuNTQ5OSAxMC42NjQgMTIuNTQ5OSAxMS42NDQ3IDEyLjg2MjkgMTIuMzUwOSAxMy40ODg5IDEzLjA2MDIgMTQuMTE0OSAxMy40MTQ5IDE0Ljk4NjEgMTMuNDE0OSAxNi4xMDI1IDEzLjQxNDkgMTcuMjIxOSAxMy4wNjAyIDE4LjA5NDcgMTIuMzUwOSAxOC43MjA3IDExLjY0NDcgMTkuMzQ2NyAxMC42NjQgMTkuNjU5NyA5LjQwODkyIDE5LjY1OTcgOC4xNDc2IDE5LjY1OTcgNy4xNjY5MyAxOS4zNDY3IDYuNDY2OSAxOC43MjA3IDUuNzY5OTMgMTguMDk0NyA1LjQyMTQ2IDE3LjIyMTkgNS40MjE0NiAxNi4xMDI1WiIvPjxwYXRoIHRyYW5zZm9ybT0ibWF0cml4KDEuMDAwMzUgMCAwIC0xIDMwOS4zODEgNTYyLjgwOCkiIGZpbGw9IiMyNjI2MjYiIGQ9Ik01LjY4MDUxIDIuNDU2MzEgMTUuODcxMiAyLjQ1NjMxIDE1Ljg3MTIgMCAyLjE2OTUxIDAgMi4xNjk1MSAyLjQ1NjMxQzMuMjc2NjIgMy42MDM1MiA0Ljc4NjIgNS4xNDIzOSA2LjY5ODE5IDcuMDcyODggOC42MTMyOCA5LjAwNjQ4IDkuODE2IDEwLjI1MzkgMTAuMzA2MyAxMC44MTUyIDExLjI0MDcgMTEuODYzNyAxMS44OTMgMTIuNzUxOSAxMi4yNjMxIDEzLjQ3OTYgMTIuNjM2MiAxNC4yMDc0IDEyLjgyMjggMTQuOTIyOSAxMi44MjI4IDE1LjYyNiAxMi44MjI4IDE2Ljc3MzIgMTIuNDIwMyAxNy43MDc2IDExLjYxNTQgMTguNDI5MyAxMC44MTA1IDE5LjE1NCA5Ljc2MjAxIDE5LjUxNjMgOC40Njk4OCAxOS41MTYzIDcuNTUzOTcgMTkuNTE2MyA2LjU4NzE3IDE5LjM1NzUgNS41Njk0OSAxOS4wMzk5IDQuNTU0ODkgMTguNzIyMiAzLjQ2OTM3IDE4LjIzOTYgMi4zMTI5MSAxNy41OTJMMi4zMTI5MSAyMC41NDMzQzMuNDg3ODcgMjEuMDE1MSA0LjU4NTczIDIxLjM3MTMgNS42MDY1IDIxLjYxMTggNi42MzAzMyAyMS44NTI0IDcuNTY2MzIgMjEuOTcyNyA4LjQxNDM3IDIxLjk3MjcgMTAuNjUwMiAyMS45NzI3IDEyLjQzMjcgMjEuNDEyOSAxMy43NjE4IDIwLjI5MzUgMTUuMDkxIDE5LjE3NzEgMTUuNzU1NiAxNy42ODQ1IDE1Ljc1NTYgMTUuODE1NyAxNS43NTU2IDE0LjkyNzUgMTUuNTg5IDE0LjA4NTYgMTUuMjU2IDEzLjI5IDE0LjkyNiAxMi40OTc0IDE0LjMyMTUgMTEuNTYxNSAxMy40NDI2IDEwLjQ4MjEgMTMuMjAyMSAxMC4yMDE1IDEyLjQzNTcgOS4zOTM1MiAxMS4xNDM2IDguMDU4MTggOS44NTQ1MyA2LjcyMjg1IDguMDMzNTMgNC44NTU1OSA1LjY4MDUxIDIuNDU2MzFaIi8+PHBhdGggdHJhbnNmb3JtPSJtYXRyaXgoMS4wMDAzNSAwIDAgLTEgMzg5LjkwMSA1NjIuODA4KSIgZmlsbD0iIzI2MjYyNiIgZD0iTTMuNjcyOSAyLjQ1NjMxIDguNDQyMTMgMi40NTYzMSA4LjQ0MjEzIDE4LjkyNDIgMy4yNTE5NSAxNy44ODM0IDMuMjUxOTUgMjAuNTQzMyA4LjQxNDM3IDIxLjU4NDEgMTEuMzMzMyAyMS41ODQxIDExLjMzMzMgMi40NTYzMSAxNi4xMDI1IDIuNDU2MzEgMTYuMTAyNSAwIDMuNjcyOSAwIDMuNjcyOSAyLjQ1NjMxWiIvPjxwYXRoIHRyYW5zZm9ybT0ibWF0cml4KDEuMDAwMzUgMCAwIC0xIDQwOC43NDMgNTYyLjgwOCkiIGZpbGw9IiMyNjI2MjYiIGQ9Ik05LjQwODkyIDE5LjY1OTdDNy45MDcwNiAxOS42NTk3IDYuNzc2ODMgMTguOTE5NiA2LjAxODIgMTcuNDM5NCA1LjI2MjY2IDE1Ljk2MjIgNC44ODQ4NyAxMy43Mzg3IDQuODg0ODcgMTAuNzY4OSA0Ljg4NDg3IDcuODExNDkgNS4yNjI2NiA1LjU5MjYyIDYuMDE4MiA0LjExMjM2IDYuNzc2ODMgMi42MzIwOSA3LjkwNzA2IDEuODkxOTYgOS40MDg5MiAxLjg5MTk2IDEwLjkyMzEgMS44OTE5NiAxMi4wNTggMi42MzIwOSAxMi44MTM1IDQuMTEyMzYgMTMuNTcyMiA1LjU5MjYyIDEzLjk1MTUgNy44MTE0OSAxMy45NTE1IDEwLjc2ODkgMTMuOTUxNSAxMy43Mzg3IDEzLjU3MjIgMTUuOTYyMiAxMi44MTM1IDE3LjQzOTQgMTIuMDU4IDE4LjkxOTYgMTAuOTIzMSAxOS42NTk3IDkuNDA4OTIgMTkuNjU5N1pNOS40MDg5MiAyMS45NzI3QzExLjgyOTggMjEuOTcyNyAxMy42Nzg2IDIxLjAxNTEgMTQuOTU1MyAxOS4xIDE2LjIzMiAxNy4xODggMTYuODcwNCAxNC40MTEgMTYuODcwNCAxMC43Njg5IDE2Ljg3MDQgNy4xMzYxMiAxNi4yMzIgNC4zNjIxNSAxNC45NTUzIDIuNDQ3MDYgMTMuNjc4NiAwLjUzNTA1NSAxMS44Mjk4LTAuNDIwOTUgOS40MDg5Mi0wLjQyMDk1IDYuOTkxMTQtMC40MjA5NSA1LjE0MzkxIDAuNTM1MDU1IDMuODY3MTkgMi40NDcwNiAyLjU5MDQ2IDQuMzYyMTUgMS45NTIxIDcuMTM2MTIgMS45NTIxIDEwLjc2ODkgMS45NTIxIDE0LjQxMSAyLjU5MDQ2IDE3LjE4OCAzLjg2NzE5IDE5LjEgNS4xNDM5MSAyMS4wMTUxIDYuOTkxMTQgMjEuOTcyNyA5LjQwODkyIDIxLjk3MjdaIi8+PHBhdGggdHJhbnNmb3JtPSJtYXRyaXgoMS4wMDAzNSAwIDAgLTEgNDI3LjU4NSA1NjIuODA4KSIgZmlsbD0iIzI2MjYyNiIgZD0iTTMuMTY0MDYgMy42NzI5IDYuMjE3MTEgMy42NzI5IDYuMjE3MTEgMCAzLjE2NDA2IDAgMy4xNjQwNiAzLjY3MjlaIi8+PHBhdGggdHJhbnNmb3JtPSJtYXRyaXgoMS4wMDAzNSAwIDAgLTEgNDM2Ljk5OSA1NjIuODA4KSIgZmlsbD0iIzI2MjYyNiIgZD0iTTExLjE4OTkgMTkuMDM5OSAzLjgxNjMgNy41MTY5NiAxMS4xODk5IDcuNTE2OTYgMTEuMTg5OSAxOS4wMzk5Wk0xMC40MjIgMjEuNTg0MSAxNC4wOTQ5IDIxLjU4NDEgMTQuMDk0OSA3LjUxNjk2IDE3LjE3NTcgNy41MTY5NiAxNy4xNzU3IDUuMDg4NCAxNC4wOTQ5IDUuMDg4NCAxNC4wOTQ5IDAgMTEuMTg5OSAwIDExLjE4OTkgNS4wODg0IDEuNDQ3ODggNS4wODg0IDEuNDQ3ODggNy45MDU1MyAxMC40MjIgMjEuNTg0MVoiLz48cGF0aCB0cmFuc2Zvcm09Im1hdHJpeCgxLjAwMDM1IDAgMCAtMSA0NTUuODQxIDU2Mi44MDgpIiBmaWxsPSIjMjYyNjI2IiBkPSJNNS42ODA1MSAyLjQ1NjMxIDE1Ljg3MTIgMi40NTYzMSAxNS44NzEyIDAgMi4xNjk1MSAwIDIuMTY5NTEgMi40NTYzMUMzLjI3NjYyIDMuNjAzNTIgNC43ODYyIDUuMTQyMzkgNi42OTgxOSA3LjA3Mjg4IDguNjEzMjggOS4wMDY0OCA5LjgxNiAxMC4yNTM5IDEwLjMwNjMgMTAuODE1MiAxMS4yNDA3IDExLjg2MzcgMTEuODkzIDEyLjc1MTkgMTIuMjYzMSAxMy40Nzk2IDEyLjYzNjIgMTQuMjA3NCAxMi44MjI4IDE0LjkyMjkgMTIuODIyOCAxNS42MjYgMTIuODIyOCAxNi43NzMyIDEyLjQyMDMgMTcuNzA3NiAxMS42MTU0IDE4LjQyOTMgMTAuODEwNSAxOS4xNTQgOS43NjIwMSAxOS41MTYzIDguNDY5ODggMTkuNTE2MyA3LjU1Mzk3IDE5LjUxNjMgNi41ODcxNyAxOS4zNTc1IDUuNTY5NDkgMTkuMDM5OSA0LjU1NDg5IDE4LjcyMjIgMy40NjkzNyAxOC4yMzk2IDIuMzEyOTEgMTcuNTkyTDIuMzEyOTEgMjAuNTQzM0MzLjQ4Nzg3IDIxLjAxNTEgNC41ODU3MyAyMS4zNzEzIDUuNjA2NSAyMS42MTE4IDYuNjMwMzMgMjEuODUyNCA3LjU2NjMyIDIxLjk3MjcgOC40MTQzNyAyMS45NzI3IDEwLjY1MDIgMjEuOTcyNyAxMi40MzI3IDIxLjQxMjkgMTMuNzYxOCAyMC4yOTM1IDE1LjA5MSAxOS4xNzcxIDE1Ljc1NTYgMTcuNjg0NSAxNS43NTU2IDE1LjgxNTcgMTUuNzU1NiAxNC45Mjc1IDE1LjU4OSAxNC4wODU2IDE1LjI1NiAxMy4yOSAxNC45MjYgMTIuNDk3NCAxNC4zMjE1IDExLjU2MTUgMTMuNDQyNiAxMC40ODIxIDEzLjIwMjEgMTAuMjAxNSAxMi40MzU3IDkuMzkzNTIgMTEuMTQzNiA4LjA1ODE4IDkuODU0NTMgNi43MjI4NSA4LjAzMzUzIDQuODU1NTkgNS42ODA1MSAyLjQ1NjMxWiIvPjxwYXRoIHRyYW5zZm9ybT0ibWF0cml4KDEuMDAwMzUgMCAwIC0xIDU1OS45MTIgNTYyLjgwOCkiIGZpbGw9IiMyNjI2MjYiIGQ9Ik05LjQwODkyIDE5LjY1OTdDNy45MDcwNiAxOS42NTk3IDYuNzc2ODMgMTguOTE5NiA2LjAxODIgMTcuNDM5NCA1LjI2MjY2IDE1Ljk2MjIgNC44ODQ4NyAxMy43Mzg3IDQuODg0ODcgMTAuNzY4OSA0Ljg4NDg3IDcuODExNDkgNS4yNjI2NiA1LjU5MjYyIDYuMDE4MiA0LjExMjM2IDYuNzc2ODMgMi42MzIwOSA3LjkwNzA2IDEuODkxOTYgOS40MDg5MiAxLjg5MTk2IDEwLjkyMzEgMS44OTE5NiAxMi4wNTggMi42MzIwOSAxMi44MTM1IDQuMTEyMzYgMTMuNTcyMiA1LjU5MjYyIDEzLjk1MTUgNy44MTE0OSAxMy45NTE1IDEwLjc2ODkgMTMuOTUxNSAxMy43Mzg3IDEzLjU3MjIgMTUuOTYyMiAxMi44MTM1IDE3LjQzOTQgMTIuMDU4IDE4LjkxOTYgMTAuOTIzMSAxOS42NTk3IDkuNDA4OTIgMTkuNjU5N1pNOS40MDg5MiAyMS45NzI3QzExLjgyOTggMjEuOTcyNyAxMy42Nzg2IDIxLjAxNTEgMTQuOTU1MyAxOS4xIDE2LjIzMiAxNy4xODggMTYuODcwNCAxNC40MTEgMTYuODcwNCAxMC43Njg5IDE2Ljg3MDQgNy4xMzYxMiAxNi4yMzIgNC4zNjIxNSAxNC45NTUzIDIuNDQ3MDYgMTMuNjc4NiAwLjUzNTA1NSAxMS44Mjk4LTAuNDIwOTUgOS40MDg5Mi0wLjQyMDk1IDYuOTkxMTQtMC40MjA5NSA1LjE0MzkxIDAuNTM1MDU1IDMuODY3MTkgMi40NDcwNiAyLjU5MDQ2IDQuMzYyMTUgMS45NTIxIDcuMTM2MTIgMS45NTIxIDEwLjc2ODkgMS45NTIxIDE0LjQxMSAyLjU5MDQ2IDE3LjE4OCAzLjg2NzE5IDE5LjEgNS4xNDM5MSAyMS4wMTUxIDYuOTkxMTQgMjEuOTcyNyA5LjQwODkyIDIxLjk3MjdaIi8+PHBhdGggdHJhbnNmb3JtPSJtYXRyaXgoMS4wMDAzNSAwIDAgLTEgNjYzLjk4MSA1NjIuODA4KSIgZmlsbD0iI0ZGRkZGRiIgZD0iTTEyLjAxMzMgMTEuNjM4NkMxMy40MTAzIDExLjMzOTQgMTQuNTAwNCAxMC43MTY1IDE1LjI4MzcgOS43Njk3NCAxNi4wNzAxIDguODI2MDcgMTYuNDYzMyA3LjY2MDM2IDE2LjQ2MzMgNi4yNzI2MiAxNi40NjMzIDQuMTQ0NzQgMTUuNzMwOSAyLjQ5NjQgMTQuMjY2IDEuMzI3NjEgMTIuODAxMiAwLjE2MTkwNCAxMC43MTk2LTAuNDIwOTUgOC4wMjExOC0wLjQyMDk1IDcuMTE3NjEtMC40MjA5NSA2LjE4NjI1LTAuMzMxNTE3IDUuMjI3MTgtMC4xNTI2NTIgNC4yNjgwOSAwLjAyNjIxMyAzLjI3ODE3IDAuMjk0NTExIDIuMjU3NCAwLjY1MjI0MUwyLjI1NzQgMy40NjkzN0MzLjA2NTM4IDIuOTk3NTMgMy45NTA0NSAyLjY0MTM0IDQuOTEyNjIgMi40MDA4IDUuODc3ODkgMi4xNjAyNiA2Ljg4NjMyIDIuMDM5OTkgNy45Mzc5MSAyLjAzOTk5IDkuNzY2NjQgMi4wMzk5OSAxMS4xNjA2IDIuNDAwOCAxMi4xMTk3IDMuMTIyNDMgMTMuMDc4NyAzLjg0NDA2IDEzLjU1ODMgNC44OTQxMiAxMy41NTgzIDYuMjcyNjIgMTMuNTU4MyA3LjU0NjI0IDEzLjExMjcgOC41NDA3OSAxMi4yMjE0IDkuMjU2MjcgMTEuMzMwMiA5Ljk3NDggMTAuMDkwNCAxMC4zMzQxIDguNTAyMjYgMTAuMzM0MUw1Ljk4NTgxIDEwLjMzNDEgNS45ODU4MSAxMi43MzQ5IDguNjE3OTEgMTIuNzM0OUMxMC4wNTE5IDEyLjczNDkgMTEuMTQ5OCAxMy4wMjE3IDExLjkxMTUgMTMuNTk1MyAxMi42NzMyIDE0LjE2ODkgMTMuMDU0MSAxNC45OTU0IDEzLjA1NDEgMTYuMDc0NyAxMy4wNTQxIDE3LjE4MTggMTIuNjYwOSAxOC4wMzE1IDExLjg3NDUgMTguNjIzNiAxMS4wOTEyIDE5LjIxODggOS45NjcxMiAxOS41MTYzIDguNTAyMjYgMTkuNTE2MyA3LjcwMDQ3IDE5LjUxNjMgNi44NDE1OSAxOS40Mjg1IDUuOTI1NjggMTkuMjUyNyA1LjAwOTc3IDE5LjA4IDQuMDAyODggMTguODExNyAyLjkwNTAyIDE4LjQ0NzhMMi45MDUwMiAyMS4wNDc1QzQuMDE1MjEgMjEuMzU1OSA1LjA1NDUgMjEuNTg3MiA2LjAyMjgyIDIxLjc0MTQgNi45OTExNCAyMS44OTU1IDcuOTA0IDIxLjk3MjcgOC43NjEzMSAyMS45NzI3IDEwLjk3ODYgMjEuOTcyNyAxMi43MzE4IDIxLjQ2ODQgMTQuMDIwOSAyMC40NiAxNS4zMTMgMTkuNDU0NyAxNS45NTkxIDE4LjA5NDcgMTUuOTU5MSAxNi4zOCAxNS45NTkxIDE1LjE4MzUgMTUuNjE2OCAxNC4xNzM1IDE0LjkzMjIgMTMuMzUwMSAxNC4yNDc1IDEyLjUyNjcgMTMuMjc0NiAxMS45NTYyIDEyLjAxMzMgMTEuNjM4NloiLz48cGF0aCB0cmFuc2Zvcm09Im1hdHJpeCgxLjAwMDM1IDAgMCAtMSA2ODIuODIzIDU2Mi44MDgpIiBmaWxsPSIjRkZGRkZGIiBkPSJNMTIuMDEzMyAxMS42Mzg2QzEzLjQxMDMgMTEuMzM5NCAxNC41MDA0IDEwLjcxNjUgMTUuMjgzNyA5Ljc2OTc0IDE2LjA3MDEgOC44MjYwNyAxNi40NjMzIDcuNjYwMzYgMTYuNDYzMyA2LjI3MjYyIDE2LjQ2MzMgNC4xNDQ3NCAxNS43MzA5IDIuNDk2NCAxNC4yNjYgMS4zMjc2MSAxMi44MDEyIDAuMTYxOTA0IDEwLjcxOTYtMC40MjA5NSA4LjAyMTE4LTAuNDIwOTUgNy4xMTc2MS0wLjQyMDk1IDYuMTg2MjUtMC4zMzE1MTcgNS4yMjcxOC0wLjE1MjY1MiA0LjI2ODA5IDAuMDI2MjEzIDMuMjc4MTcgMC4yOTQ1MTEgMi4yNTc0IDAuNjUyMjQxTDIuMjU3NCAzLjQ2OTM3QzMuMDY1MzggMi45OTc1MyAzLjk1MDQ1IDIuNjQxMzQgNC45MTI2MiAyLjQwMDggNS44Nzc4OSAyLjE2MDI2IDYuODg2MzIgMi4wMzk5OSA3LjkzNzkxIDIuMDM5OTkgOS43NjY2NCAyLjAzOTk5IDExLjE2MDYgMi40MDA4IDEyLjExOTcgMy4xMjI0MyAxMy4wNzg3IDMuODQ0MDYgMTMuNTU4MyA0Ljg5NDEyIDEzLjU1ODMgNi4yNzI2MiAxMy41NTgzIDcuNTQ2MjQgMTMuMTEyNyA4LjU0MDc5IDEyLjIyMTQgOS4yNTYyNyAxMS4zMzAyIDkuOTc0OCAxMC4wOTA0IDEwLjMzNDEgOC41MDIyNiAxMC4zMzQxTDUuOTg1ODEgMTAuMzM0MSA1Ljk4NTgxIDEyLjczNDkgOC42MTc5MSAxMi43MzQ5QzEwLjA1MTkgMTIuNzM0OSAxMS4xNDk4IDEzLjAyMTcgMTEuOTExNSAxMy41OTUzIDEyLjY3MzIgMTQuMTY4OSAxMy4wNTQxIDE0Ljk5NTQgMTMuMDU0MSAxNi4wNzQ3IDEzLjA1NDEgMTcuMTgxOCAxMi42NjA5IDE4LjAzMTUgMTEuODc0NSAxOC42MjM2IDExLjA5MTIgMTkuMjE4OCA5Ljk2NzEyIDE5LjUxNjMgOC41MDIyNiAxOS41MTYzIDcuNzAwNDcgMTkuNTE2MyA2Ljg0MTU5IDE5LjQyODUgNS45MjU2OCAxOS4yNTI3IDUuMDA5NzcgMTkuMDggNC4wMDI4OCAxOC44MTE3IDIuOTA1MDIgMTguNDQ3OEwyLjkwNTAyIDIxLjA0NzVDNC4wMTUyMSAyMS4zNTU5IDUuMDU0NSAyMS41ODcyIDYuMDIyODIgMjEuNzQxNCA2Ljk5MTE0IDIxLjg5NTUgNy45MDQgMjEuOTcyNyA4Ljc2MTMxIDIxLjk3MjcgMTAuOTc4NiAyMS45NzI3IDEyLjczMTggMjEuNDY4NCAxNC4wMjA5IDIwLjQ2IDE1LjMxMyAxOS40NTQ3IDE1Ljk1OTEgMTguMDk0NyAxNS45NTkxIDE2LjM4IDE1Ljk1OTEgMTUuMTgzNSAxNS42MTY4IDE0LjE3MzUgMTQuOTMyMiAxMy4zNTAxIDE0LjI0NzUgMTIuNTI2NyAxMy4yNzQ2IDExLjk1NjIgMTIuMDEzMyAxMS42Mzg2WiIvPjxwYXRoIHRyYW5zZm9ybT0ibWF0cml4KDEuMDAwMzUgMCAwIC0xIDcwMS42NjYgNTYyLjgwOCkiIGZpbGw9IiNGRkZGRkYiIGQ9Ik0zLjE2NDA2IDMuNjcyOSA2LjIxNzExIDMuNjcyOSA2LjIxNzExIDAgMy4xNjQwNiAwIDMuMTY0MDYgMy42NzI5WiIvPjxwYXRoIHRyYW5zZm9ybT0ibWF0cml4KDEuMDAwMzUgMCAwIC0xIDcxMS4wOCA1NjIuODA4KSIgZmlsbD0iI0ZGRkZGRiIgZD0iTTEyLjAxMzMgMTEuNjM4NkMxMy40MTAzIDExLjMzOTQgMTQuNTAwNCAxMC43MTY1IDE1LjI4MzcgOS43Njk3NCAxNi4wNzAxIDguODI2MDcgMTYuNDYzMyA3LjY2MDM2IDE2LjQ2MzMgNi4yNzI2MiAxNi40NjMzIDQuMTQ0NzQgMTUuNzMwOSAyLjQ5NjQgMTQuMjY2IDEuMzI3NjEgMTIuODAxMiAwLjE2MTkwNCAxMC43MTk2LTAuNDIwOTUgOC4wMjExOC0wLjQyMDk1IDcuMTE3NjEtMC40MjA5NSA2LjE4NjI1LTAuMzMxNTE3IDUuMjI3MTgtMC4xNTI2NTIgNC4yNjgwOSAwLjAyNjIxMyAzLjI3ODE3IDAuMjk0NTExIDIuMjU3NCAwLjY1MjI0MUwyLjI1NzQgMy40NjkzN0MzLjA2NTM4IDIuOTk3NTMgMy45NTA0NSAyLjY0MTM0IDQuOTEyNjIgMi40MDA4IDUuODc3ODkgMi4xNjAyNiA2Ljg4NjMyIDIuMDM5OTkgNy45Mzc5MSAyLjAzOTk5IDkuNzY2NjQgMi4wMzk5OSAxMS4xNjA2IDIuNDAwOCAxMi4xMTk3IDMuMTIyNDMgMTMuMDc4NyAzLjg0NDA2IDEzLjU1ODMgNC44OTQxMiAxMy41NTgzIDYuMjcyNjIgMTMuNTU4MyA3LjU0NjI0IDEzLjExMjcgOC41NDA3OSAxMi4yMjE0IDkuMjU2MjcgMTEuMzMwMiA5Ljk3NDggMTAuMDkwNCAxMC4zMzQxIDguNTAyMjYgMTAuMzM0MUw1Ljk4NTgxIDEwLjMzNDEgNS45ODU4MSAxMi43MzQ5IDguNjE3OTEgMTIuNzM0OUMxMC4wNTE5IDEyLjczNDkgMTEuMTQ5OCAxMy4wMjE3IDExLjkxMTUgMTMuNTk1MyAxMi42NzMyIDE0LjE2ODkgMTMuMDU0MSAxNC45OTU0IDEzLjA1NDEgMTYuMDc0NyAxMy4wNTQxIDE3LjE4MTggMTIuNjYwOSAxOC4wMzE1IDExLjg3NDUgMTguNjIzNiAxMS4wOTEyIDE5LjIxODggOS45NjcxMiAxOS41MTYzIDguNTAyMjYgMTkuNTE2MyA3LjcwMDQ3IDE5LjUxNjMgNi44NDE1OSAxOS40Mjg1IDUuOTI1NjggMTkuMjUyNyA1LjAwOTc3IDE5LjA4IDQuMDAyODggMTguODExNyAyLjkwNTAyIDE4LjQ0NzhMMi45MDUwMiAyMS4wNDc1QzQuMDE1MjEgMjEuMzU1OSA1LjA1NDUgMjEuNTg3MiA2LjAyMjgyIDIxLjc0MTQgNi45OTExNCAyMS44OTU1IDcuOTA0IDIxLjk3MjcgOC43NjEzMSAyMS45NzI3IDEwLjk3ODYgMjEuOTcyNyAxMi43MzE4IDIxLjQ2ODQgMTQuMDIwOSAyMC40NiAxNS4zMTMgMTkuNDU0NyAxNS45NTkxIDE4LjA5NDcgMTUuOTU5MSAxNi4zOCAxNS45NTkxIDE1LjE4MzUgMTUuNjE2OCAxNC4xNzM1IDE0LjkzMjIgMTMuMzUwMSAxNC4yNDc1IDEyLjUyNjcgMTMuMjc0NiAxMS45NTYyIDEyLjAxMzMgMTEuNjM4NloiLz48cGF0aCB0cmFuc2Zvcm09Im1hdHJpeCgxLjAwMDM1IDAgMCAtMSA3MjkuOTIyIDU2Mi44MDgpIiBmaWxsPSIjRkZGRkZGIiBkPSJNMTIuMDEzMyAxMS42Mzg2QzEzLjQxMDMgMTEuMzM5NCAxNC41MDA0IDEwLjcxNjUgMTUuMjgzNyA5Ljc2OTc0IDE2LjA3MDEgOC44MjYwNyAxNi40NjMzIDcuNjYwMzYgMTYuNDYzMyA2LjI3MjYyIDE2LjQ2MzMgNC4xNDQ3NCAxNS43MzA5IDIuNDk2NCAxNC4yNjYgMS4zMjc2MSAxMi44MDEyIDAuMTYxOTA0IDEwLjcxOTYtMC40MjA5NSA4LjAyMTE4LTAuNDIwOTUgNy4xMTc2MS0wLjQyMDk1IDYuMTg2MjUtMC4zMzE1MTcgNS4yMjcxOC0wLjE1MjY1MiA0LjI2ODA5IDAuMDI2MjEzIDMuMjc4MTcgMC4yOTQ1MTEgMi4yNTc0IDAuNjUyMjQxTDIuMjU3NCAzLjQ2OTM3QzMuMDY1MzggMi45OTc1MyAzLjk1MDQ1IDIuNjQxMzQgNC45MTI2MiAyLjQwMDggNS44Nzc4OSAyLjE2MDI2IDYuODg2MzIgMi4wMzk5OSA3LjkzNzkxIDIuMDM5OTkgOS43NjY2NCAyLjAzOTk5IDExLjE2MDYgMi40MDA4IDEyLjExOTcgMy4xMjI0MyAxMy4wNzg3IDMuODQ0MDYgMTMuNTU4MyA0Ljg5NDEyIDEzLjU1ODMgNi4yNzI2MiAxMy41NTgzIDcuNTQ2MjQgMTMuMTEyNyA4LjU0MDc5IDEyLjIyMTQgOS4yNTYyNyAxMS4zMzAyIDkuOTc0OCAxMC4wOTA0IDEwLjMzNDEgOC41MDIyNiAxMC4zMzQxTDUuOTg1ODEgMTAuMzM0MSA1Ljk4NTgxIDEyLjczNDkgOC42MTc5MSAxMi43MzQ5QzEwLjA1MTkgMTIuNzM0OSAxMS4xNDk4IDEzLjAyMTcgMTEuOTExNSAxMy41OTUzIDEyLjY3MzIgMTQuMTY4OSAxMy4wNTQxIDE0Ljk5NTQgMTMuMDU0MSAxNi4wNzQ3IDEzLjA1NDEgMTcuMTgxOCAxMi42NjA5IDE4LjAzMTUgMTEuODc0NSAxOC42MjM2IDExLjA5MTIgMTkuMjE4OCA5Ljk2NzEyIDE5LjUxNjMgOC41MDIyNiAxOS41MTYzIDcuNzAwNDcgMTkuNTE2MyA2Ljg0MTU5IDE5LjQyODUgNS45MjU2OCAxOS4yNTI3IDUuMDA5NzcgMTkuMDggNC4wMDI4OCAxOC44MTE3IDIuOTA1MDIgMTguNDQ3OEwyLjkwNTAyIDIxLjA0NzVDNC4wMTUyMSAyMS4zNTU5IDUuMDU0NSAyMS41ODcyIDYuMDIyODIgMjEuNzQxNCA2Ljk5MTE0IDIxLjg5NTUgNy45MDQgMjEuOTcyNyA4Ljc2MTMxIDIxLjk3MjcgMTAuOTc4NiAyMS45NzI3IDEyLjczMTggMjEuNDY4NCAxNC4wMjA5IDIwLjQ2IDE1LjMxMyAxOS40NTQ3IDE1Ljk1OTEgMTguMDk0NyAxNS45NTkxIDE2LjM4IDE1Ljk1OTEgMTUuMTgzNSAxNS42MTY4IDE0LjE3MzUgMTQuOTMyMiAxMy4zNTAxIDE0LjI0NzUgMTIuNTI2NyAxMy4yNzQ2IDExLjk1NjIgMTIuMDEzMyAxMS42Mzg2WiIvPjxwYXRoIHRyYW5zZm9ybT0ibWF0cml4KDEuMDAwMzUgMCAwIDEgNDEuMDU4NCAwKSIgZmlsbD0iI0ZGRkZGRiIgZD0iTTc2Ni45ODkgNjEyIDc4NC40MjEgNjEyIDc4NC40MjEgMTA4IDc2Ni45ODkgMTA4WiIvPjxnPjxnIHRyYW5zZm9ybT0ibWF0cml4KDAuNzEwNzc0IDAgMCAtMC43MTA1MjYgODA3Ljk4NCA2MTEuNzYzKSI+PGcgY2xpcC1wYXRoPSJ1cmwoI2NsaXA5KSI+PHVzZSB0cmFuc2Zvcm09Im1hdHJpeCgxIDAgMCAxIDEuNzg3MjdlLTA1IDIuNzU2NzJlLTA1KSIgeGxpbms6aHJlZj0iI2ltZzgiIGhlaWdodD0iMTAwJSIgd2lkdGg9IjEwMCUiLz48L2c+PC9nPjwvZz48cGF0aCB0cmFuc2Zvcm09Im1hdHJpeCgxLjAwMDM1IDAgMCAxIDgyNS43NTMgNjEyKSIgZmlsbD0ibm9uZSIgc3Ryb2tlLWxpbmVqb2luPSJyb3VuZCIgc3Ryb2tlLXdpZHRoPSIwLjc4OTQ3NCIgc3Ryb2tlPSIjMDAwMDAwIiBkPSJNMCAwIDMuNDUzOTUgMCIvPjxwYXRoIHRyYW5zZm9ybT0ibWF0cml4KDEuMDAwMzUgMCAwIC0xIDgzMi42NjQgNjE1Ljc0OSkiIGQ9Ik0zLjEzNjMxIDYuNTUzMjVDMi42MzU2OSA2LjU1MzI1IDIuMjU4OTQgNi4zMDY1NCAyLjAwNjA3IDUuODEzMTIgMS43NTQyMiA1LjMyMDczIDEuNjI4MjkgNC41Nzk1NiAxLjYyODI5IDMuNTg5NjQgMS42MjgyOSAyLjYwMzgzIDEuNzU0MjIgMS44NjQyMSAyLjAwNjA3IDEuMzcwNzkgMi4yNTg5NCAwLjg3NzM2NCAyLjYzNTY5IDAuNjMwNjU0IDMuMTM2MzEgMC42MzA2NTQgMy42NDEwMyAwLjYzMDY1NCA0LjAxOTMzIDAuODc3MzY0IDQuMjcxMTggMS4zNzA3OSA0LjUyNDA1IDEuODY0MjEgNC42NTA0OSAyLjYwMzgzIDQuNjUwNDkgMy41ODk2NCA0LjY1MDQ5IDQuNTc5NTYgNC41MjQwNSA1LjMyMDczIDQuMjcxMTggNS44MTMxMiA0LjAxOTMzIDYuMzA2NTQgMy42NDEwMyA2LjU1MzI1IDMuMTM2MzEgNi41NTMyNVpNMy4xMzYzMSA3LjMyNDIyQzMuOTQzMjUgNy4zMjQyMiA0LjU1OTUyIDcuMDA1MDQgNC45ODUwOSA2LjM2NjY3IDUuNDEwNjcgNS43MjkzNCA1LjYyMzQ2IDQuODAzNjUgNS42MjM0NiAzLjU4OTY0IDUuNjIzNDYgMi4zNzg3MSA1LjQxMDY3IDEuNDU0MDUgNC45ODUwOSAwLjgxNTY4NyA0LjU1OTUyIDAuMTc4MzUyIDMuOTQzMjUtMC4xNDAzMTcgMy4xMzYzMS0wLjE0MDMxNyAyLjMzMDM4LTAuMTQwMzE3IDEuNzE0NjQgMC4xNzgzNTIgMS4yODkwNiAwLjgxNTY4NyAwLjg2MzQ4NyAxLjQ1NDA1IDAuNjUwNjk5IDIuMzc4NzEgMC42NTA2OTkgMy41ODk2NCAwLjY1MDY5OSA0LjgwMzY1IDAuODYzNDg3IDUuNzI5MzQgMS4yODkwNiA2LjM2NjY3IDEuNzE0NjQgNy4wMDUwNCAyLjMzMDM4IDcuMzI0MjIgMy4xMzYzMSA3LjMyNDIyWiIvPjxwYXRoIHRyYW5zZm9ybT0ibWF0cml4KDEuMDAwMzUgMCAwIDEgODI1Ljc1MyA1MTEuMikiIGZpbGw9Im5vbmUiIHN0cm9rZS1saW5lam9pbj0icm91bmQiIHN0cm9rZS13aWR0aD0iMC43ODk0NzQiIHN0cm9rZT0iIzAwMDAwMCIgZD0iTTAgMCAzLjQ1Mzk1IDAiLz48cGF0aCB0cmFuc2Zvcm09Im1hdHJpeCgxLjAwMDM1IDAgMCAtMSA4MzIuNjY0IDUxNC45NDkpIiBkPSJNMS4yMjQzIDAuODE4NzcxIDIuODE0MDQgMC44MTg3NzEgMi44MTQwNCA2LjMwODA4IDEuMDgzOTggNS45NjExNCAxLjA4Mzk4IDYuODQ3NzYgMi44MDQ3OSA3LjE5NDcgMy43Nzc3NiA3LjE5NDcgMy43Nzc3NiAwLjgxODc3MSA1LjM2NzUgMC44MTg3NzEgNS4zNjc1IDAgMS4yMjQzIDAgMS4yMjQzIDAuODE4NzcxWiIvPjxwYXRoIHRyYW5zZm9ybT0ibWF0cml4KDEuMDAwMzUgMCAwIC0xIDgzOC45NDQgNTE0Ljk0OSkiIGQ9Ik0zLjEzNjMxIDYuNTUzMjVDMi42MzU2OSA2LjU1MzI1IDIuMjU4OTQgNi4zMDY1NCAyLjAwNjA3IDUuODEzMTIgMS43NTQyMiA1LjMyMDczIDEuNjI4MjkgNC41Nzk1NiAxLjYyODI5IDMuNTg5NjQgMS42MjgyOSAyLjYwMzgzIDEuNzU0MjIgMS44NjQyMSAyLjAwNjA3IDEuMzcwNzkgMi4yNTg5NCAwLjg3NzM2NCAyLjYzNTY5IDAuNjMwNjU0IDMuMTM2MzEgMC42MzA2NTQgMy42NDEwMyAwLjYzMDY1NCA0LjAxOTMzIDAuODc3MzY0IDQuMjcxMTggMS4zNzA3OSA0LjUyNDA1IDEuODY0MjEgNC42NTA0OSAyLjYwMzgzIDQuNjUwNDkgMy41ODk2NCA0LjY1MDQ5IDQuNTc5NTYgNC41MjQwNSA1LjMyMDczIDQuMjcxMTggNS44MTMxMiA0LjAxOTMzIDYuMzA2NTQgMy42NDEwMyA2LjU1MzI1IDMuMTM2MzEgNi41NTMyNVpNMy4xMzYzMSA3LjMyNDIyQzMuOTQzMjUgNy4zMjQyMiA0LjU1OTUyIDcuMDA1MDQgNC45ODUwOSA2LjM2NjY3IDUuNDEwNjcgNS43MjkzNCA1LjYyMzQ2IDQuODAzNjUgNS42MjM0NiAzLjU4OTY0IDUuNjIzNDYgMi4zNzg3MSA1LjQxMDY3IDEuNDU0MDUgNC45ODUwOSAwLjgxNTY4NyA0LjU1OTUyIDAuMTc4MzUyIDMuOTQzMjUtMC4xNDAzMTcgMy4xMzYzMS0wLjE0MDMxNyAyLjMzMDM4LTAuMTQwMzE3IDEuNzE0NjQgMC4xNzgzNTIgMS4yODkwNiAwLjgxNTY4NyAwLjg2MzQ4NyAxLjQ1NDA1IDAuNjUwNjk5IDIuMzc4NzEgMC42NTA2OTkgMy41ODk2NCAwLjY1MDY5OSA0LjgwMzY1IDAuODYzNDg3IDUuNzI5MzQgMS4yODkwNiA2LjM2NjY3IDEuNzE0NjQgNy4wMDUwNCAyLjMzMDM4IDcuMzI0MjIgMy4xMzYzMSA3LjMyNDIyWiIvPjxwYXRoIHRyYW5zZm9ybT0ibWF0cml4KDEuMDAwMzUgMCAwIDEgODI1Ljc1MyA0MTAuNCkiIGZpbGw9Im5vbmUiIHN0cm9rZS1saW5lam9pbj0icm91bmQiIHN0cm9rZS13aWR0aD0iMC43ODk0NzQiIHN0cm9rZT0iIzAwMDAwMCIgZD0iTTAgMCAzLjQ1Mzk1IDAiLz48cGF0aCB0cmFuc2Zvcm09Im1hdHJpeCgxLjAwMDM1IDAgMCAtMSA4MzIuNjY0IDQxNC4xNDkpIiBkPSJNMS44OTM1IDAuODE4NzcxIDUuMjkwNCAwLjgxODc3MSA1LjI5MDQgMCAwLjcyMzE3IDAgMC43MjMxNyAwLjgxODc3MUMxLjA5MjIxIDEuMjAxMTcgMS41OTU0IDEuNzE0MTMgMi4yMzI3MyAyLjM1NzYzIDIuODcxMDkgMy4wMDIxNiAzLjI3MiAzLjQxNzk3IDMuNDM1NDQgMy42MDUwNiAzLjc0NjkyIDMuOTU0NTcgMy45NjQzMyA0LjI1MDYyIDQuMDg3NjkgNC40OTMyMiA0LjIxMjA3IDQuNzM1ODEgNC4yNzQyNiA0Ljk3NDMgNC4yNzQyNiA1LjIwODY4IDQuMjc0MjYgNS41OTEwOCA0LjE0MDExIDUuOTAyNTUgMy44NzE4MSA2LjE0MzA5IDMuNjAzNTIgNi4zODQ2NyAzLjI1NCA2LjUwNTQ1IDIuODIzMjkgNi41MDU0NSAyLjUxNzk5IDYuNTA1NDUgMi4xOTU3MiA2LjQ1MjUxIDEuODU2NSA2LjM0NjYzIDEuNTE4MyA2LjI0MDc0IDEuMTU2NDYgNi4wNzk4NyAwLjc3MDk3IDUuODY0TDAuNzcwOTcgNi44NDc3NkMxLjE2MjYyIDcuMDA1MDQgMS41Mjg1OCA3LjEyMzc3IDEuODY4ODMgNy4yMDM5NSAyLjIxMDExIDcuMjg0MTMgMi41MjIxMSA3LjMyNDIyIDIuODA0NzkgNy4zMjQyMiAzLjU1MDA2IDcuMzI0MjIgNC4xNDQyMyA3LjEzNzY0IDQuNTg3MjcgNi43NjQ0OSA1LjAzMDMyIDYuMzkyMzggNS4yNTE4NSA1Ljg5NDg0IDUuMjUxODUgNS4yNzE5IDUuMjUxODUgNC45NzU4NCA1LjE5NjM0IDQuNjk1MjEgNS4wODUzMiA0LjQzIDQuOTc1MzMgNC4xNjU4MiA0Ljc3Mzg1IDMuODUzODIgNC40ODA4OCAzLjQ5NDA0IDQuNDAwNyAzLjQwMDQ5IDQuMTQ1MjUgMy4xMzExNyAzLjcxNDU0IDIuNjg2MDYgMy4yODQ4NCAyLjI0MDk1IDIuNjc3ODQgMS42MTg1MyAxLjg5MzUgMC44MTg3NzFaIi8+PHBhdGggdHJhbnNmb3JtPSJtYXRyaXgoMS4wMDAzNSAwIDAgLTEgODM4Ljk0NCA0MTQuMTQ5KSIgZD0iTTMuMTM2MzEgNi41NTMyNUMyLjYzNTY5IDYuNTUzMjUgMi4yNTg5NCA2LjMwNjU0IDIuMDA2MDcgNS44MTMxMiAxLjc1NDIyIDUuMzIwNzMgMS42MjgyOSA0LjU3OTU2IDEuNjI4MjkgMy41ODk2NCAxLjYyODI5IDIuNjAzODMgMS43NTQyMiAxLjg2NDIxIDIuMDA2MDcgMS4zNzA3OSAyLjI1ODk0IDAuODc3MzY0IDIuNjM1NjkgMC42MzA2NTQgMy4xMzYzMSAwLjYzMDY1NCAzLjY0MTAzIDAuNjMwNjU0IDQuMDE5MzMgMC44NzczNjQgNC4yNzExOCAxLjM3MDc5IDQuNTI0MDUgMS44NjQyMSA0LjY1MDQ5IDIuNjAzODMgNC42NTA0OSAzLjU4OTY0IDQuNjUwNDkgNC41Nzk1NiA0LjUyNDA1IDUuMzIwNzMgNC4yNzExOCA1LjgxMzEyIDQuMDE5MzMgNi4zMDY1NCAzLjY0MTAzIDYuNTUzMjUgMy4xMzYzMSA2LjU1MzI1Wk0zLjEzNjMxIDcuMzI0MjJDMy45NDMyNSA3LjMyNDIyIDQuNTU5NTIgNy4wMDUwNCA0Ljk4NTA5IDYuMzY2NjcgNS40MTA2NyA1LjcyOTM0IDUuNjIzNDYgNC44MDM2NSA1LjYyMzQ2IDMuNTg5NjQgNS42MjM0NiAyLjM3ODcxIDUuNDEwNjcgMS40NTQwNSA0Ljk4NTA5IDAuODE1Njg3IDQuNTU5NTIgMC4xNzgzNTIgMy45NDMyNS0wLjE0MDMxNyAzLjEzNjMxLTAuMTQwMzE3IDIuMzMwMzgtMC4xNDAzMTcgMS43MTQ2NCAwLjE3ODM1MiAxLjI4OTA2IDAuODE1Njg3IDAuODYzNDg3IDEuNDU0MDUgMC42NTA2OTkgMi4zNzg3MSAwLjY1MDY5OSAzLjU4OTY0IDAuNjUwNjk5IDQuODAzNjUgMC44NjM0ODcgNS43MjkzNCAxLjI4OTA2IDYuMzY2NjcgMS43MTQ2NCA3LjAwNTA0IDIuMzMwMzggNy4zMjQyMiAzLjEzNjMxIDcuMzI0MjJaIi8+PHBhdGggdHJhbnNmb3JtPSJtYXRyaXgoMS4wMDAzNSAwIDAgMSA4MjUuNzUzIDMwOS42KSIgZmlsbD0ibm9uZSIgc3Ryb2tlLWxpbmVqb2luPSJyb3VuZCIgc3Ryb2tlLXdpZHRoPSIwLjc4OTQ3NCIgc3Ryb2tlPSIjMDAwMDAwIiBkPSJNMCAwIDMuNDUzOTUgMCIvPjxwYXRoIHRyYW5zZm9ybT0ibWF0cml4KDEuMDAwMzUgMCAwIC0xIDgzMi42NjQgMzEzLjM0OSkiIGQ9Ik00LjAwNDQyIDMuODc5NTJDNC40NzAwOSAzLjc3OTgxIDQuODMzNDggMy41NzIxNyA1LjA5NDU3IDMuMjU2NTggNS4zNTY3IDIuOTQyMDIgNS40ODc3NyAyLjU1MzQ1IDUuNDg3NzcgMi4wOTA4NyA1LjQ4Nzc3IDEuMzgxNTggNS4yNDM2MyAwLjgzMjEzNSA0Ljc1NTM1IDAuNDQyNTM3IDQuMjY3MDYgMC4wNTM5Njc5IDMuNTczMTktMC4xNDAzMTcgMi42NzM3My0wLjE0MDMxNyAyLjM3MjU0LTAuMTQwMzE3IDIuMDYyMDgtMC4xMTA1MDYgMS43NDIzOS0wLjA1MDg4NCAxLjQyMjcgMC4wMDg3Mzc2NyAxLjA5MjcyIDAuMDk4MTcwMyAwLjc1MjQ2NyAwLjIxNzQxNEwwLjc1MjQ2NyAxLjE1NjQ2QzEuMDIxNzkgMC45OTkxNzggMS4zMTY4MiAwLjg4MDQ0OCAxLjYzNzU0IDAuODAwMjY3IDEuOTU5MyAwLjcyMDA4NiAyLjI5NTQ0IDAuNjc5OTk2IDIuNjQ1OTcgMC42Nzk5OTYgMy4yNTU1NSAwLjY3OTk5NiAzLjcyMDE5IDAuODAwMjY3IDQuMDM5ODkgMS4wNDA4MSA0LjM1OTU4IDEuMjgxMzUgNC41MTk0MyAxLjYzMTM3IDQuNTE5NDMgMi4wOTA4NyA0LjUxOTQzIDIuNTE1NDEgNC4zNzA4OSAyLjg0NjkzIDQuMDczODEgMy4wODU0MiAzLjc3NjcyIDMuMzI0OTMgMy4zNjM0OCAzLjQ0NDcgMi44MzQwOSAzLjQ0NDdMMS45OTUyNyAzLjQ0NDcgMS45OTUyNyA0LjI0NDk2IDIuODcyNjQgNC4yNDQ5NkMzLjM1MDY0IDQuMjQ0OTYgMy43MTY1OSA0LjM0MDU2IDMuOTcwNSA0LjUzMTc2IDQuMjI0NDEgNC43MjI5NiA0LjM1MTM2IDQuOTk4NDYgNC4zNTEzNiA1LjM1ODI0IDQuMzUxMzYgNS43MjcyOCA0LjIyMDI5IDYuMDEwNDkgMy45NTgxNiA2LjIwNzg1IDMuNjk3MDcgNi40MDYyNiAzLjMyMjM3IDYuNTA1NDUgMi44MzQwOSA2LjUwNTQ1IDIuNTY2ODIgNi41MDU0NSAyLjI4MDUzIDYuNDc2MTUgMS45NzUyMyA2LjQxNzU2IDEuNjY5OTIgNi4zNiAxLjMzNDI5IDYuMjcwNTYgMC45NjgzMzkgNi4xNDkyNkwwLjk2ODMzOSA3LjAxNTgzQzEuMzM4NCA3LjExODYzIDEuNjg0ODMgNy4xOTU3MyAyLjAwNzYxIDcuMjQ3MTIgMi4zMzAzOCA3LjI5ODUxIDIuNjM0NjcgNy4zMjQyMiAyLjkyMDQ0IDcuMzI0MjIgMy42NTk1MyA3LjMyNDIyIDQuMjQzOTMgNy4xNTYxNSA0LjY3MzYyIDYuODIgNS4xMDQzMyA2LjQ4NDg5IDUuMzE5NyA2LjAzMTU2IDUuMzE5NyA1LjQ2MDAxIDUuMzE5NyA1LjA2MTE2IDUuMjA1NTkgNC43MjQ1MSA0Ljk3NzM5IDQuNDUwMDQgNC43NDkxOCA0LjE3NTU4IDQuNDI0ODYgMy45ODU0MSA0LjAwNDQyIDMuODc5NTJaIi8+PHBhdGggdHJhbnNmb3JtPSJtYXRyaXgoMS4wMDAzNSAwIDAgLTEgODM4Ljk0NCAzMTMuMzQ5KSIgZD0iTTMuMTM2MzEgNi41NTMyNUMyLjYzNTY5IDYuNTUzMjUgMi4yNTg5NCA2LjMwNjU0IDIuMDA2MDcgNS44MTMxMiAxLjc1NDIyIDUuMzIwNzMgMS42MjgyOSA0LjU3OTU2IDEuNjI4MjkgMy41ODk2NCAxLjYyODI5IDIuNjAzODMgMS43NTQyMiAxLjg2NDIxIDIuMDA2MDcgMS4zNzA3OSAyLjI1ODk0IDAuODc3MzY0IDIuNjM1NjkgMC42MzA2NTQgMy4xMzYzMSAwLjYzMDY1NCAzLjY0MTAzIDAuNjMwNjU0IDQuMDE5MzMgMC44NzczNjQgNC4yNzExOCAxLjM3MDc5IDQuNTI0MDUgMS44NjQyMSA0LjY1MDQ5IDIuNjAzODMgNC42NTA0OSAzLjU4OTY0IDQuNjUwNDkgNC41Nzk1NiA0LjUyNDA1IDUuMzIwNzMgNC4yNzExOCA1LjgxMzEyIDQuMDE5MzMgNi4zMDY1NCAzLjY0MTAzIDYuNTUzMjUgMy4xMzYzMSA2LjU1MzI1Wk0zLjEzNjMxIDcuMzI0MjJDMy45NDMyNSA3LjMyNDIyIDQuNTU5NTIgNy4wMDUwNCA0Ljk4NTA5IDYuMzY2NjcgNS40MTA2NyA1LjcyOTM0IDUuNjIzNDYgNC44MDM2NSA1LjYyMzQ2IDMuNTg5NjQgNS42MjM0NiAyLjM3ODcxIDUuNDEwNjcgMS40NTQwNSA0Ljk4NTA5IDAuODE1Njg3IDQuNTU5NTIgMC4xNzgzNTIgMy45NDMyNS0wLjE0MDMxNyAzLjEzNjMxLTAuMTQwMzE3IDIuMzMwMzgtMC4xNDAzMTcgMS43MTQ2NCAwLjE3ODM1MiAxLjI4OTA2IDAuODE1Njg3IDAuODYzNDg3IDEuNDU0MDUgMC42NTA2OTkgMi4zNzg3MSAwLjY1MDY5OSAzLjU4OTY0IDAuNjUwNjk5IDQuODAzNjUgMC44NjM0ODcgNS43MjkzNCAxLjI4OTA2IDYuMzY2NjcgMS43MTQ2NCA3LjAwNTA0IDIuMzMwMzggNy4zMjQyMiAzLjEzNjMxIDcuMzI0MjJaIi8+PHBhdGggdHJhbnNmb3JtPSJtYXRyaXgoMS4wMDAzNSAwIDAgMSA4MjUuNzUzIDIwOC44KSIgZmlsbD0ibm9uZSIgc3Ryb2tlLWxpbmVqb2luPSJyb3VuZCIgc3Ryb2tlLXdpZHRoPSIwLjc4OTQ3NCIgc3Ryb2tlPSIjMDAwMDAwIiBkPSJNMCAwIDMuNDUzOTUgMCIvPjxwYXRoIHRyYW5zZm9ybT0ibWF0cml4KDEuMDAwMzUgMCAwIC0xIDgzMi42NjQgMjEyLjU0OSkiIGQ9Ik0zLjcyOTk1IDYuMzQ2NjMgMS4yNzIxIDIuNTA1NjUgMy43Mjk5NSAyLjUwNTY1IDMuNzI5OTUgNi4zNDY2M1pNMy40NzM5OSA3LjE5NDcgNC42OTgyOSA3LjE5NDcgNC42OTgyOSAyLjUwNTY1IDUuNzI1MjMgMi41MDU2NSA1LjcyNTIzIDEuNjk2MTMgNC42OTgyOSAxLjY5NjEzIDQuNjk4MjkgMCAzLjcyOTk1IDAgMy43Mjk5NSAxLjY5NjEzIDAuNDgyNjI3IDEuNjk2MTMgMC40ODI2MjcgMi42MzUxOCAzLjQ3Mzk5IDcuMTk0N1oiLz48cGF0aCB0cmFuc2Zvcm09Im1hdHJpeCgxLjAwMDM1IDAgMCAtMSA4MzguOTQ0IDIxMi41NDkpIiBkPSJNMy4xMzYzMSA2LjU1MzI1QzIuNjM1NjkgNi41NTMyNSAyLjI1ODk0IDYuMzA2NTQgMi4wMDYwNyA1LjgxMzEyIDEuNzU0MjIgNS4zMjA3MyAxLjYyODI5IDQuNTc5NTYgMS42MjgyOSAzLjU4OTY0IDEuNjI4MjkgMi42MDM4MyAxLjc1NDIyIDEuODY0MjEgMi4wMDYwNyAxLjM3MDc5IDIuMjU4OTQgMC44NzczNjQgMi42MzU2OSAwLjYzMDY1NCAzLjEzNjMxIDAuNjMwNjU0IDMuNjQxMDMgMC42MzA2NTQgNC4wMTkzMyAwLjg3NzM2NCA0LjI3MTE4IDEuMzcwNzkgNC41MjQwNSAxLjg2NDIxIDQuNjUwNDkgMi42MDM4MyA0LjY1MDQ5IDMuNTg5NjQgNC42NTA0OSA0LjU3OTU2IDQuNTI0MDUgNS4zMjA3MyA0LjI3MTE4IDUuODEzMTIgNC4wMTkzMyA2LjMwNjU0IDMuNjQxMDMgNi41NTMyNSAzLjEzNjMxIDYuNTUzMjVaTTMuMTM2MzEgNy4zMjQyMkMzLjk0MzI1IDcuMzI0MjIgNC41NTk1MiA3LjAwNTA0IDQuOTg1MDkgNi4zNjY2NyA1LjQxMDY3IDUuNzI5MzQgNS42MjM0NiA0LjgwMzY1IDUuNjIzNDYgMy41ODk2NCA1LjYyMzQ2IDIuMzc4NzEgNS40MTA2NyAxLjQ1NDA1IDQuOTg1MDkgMC44MTU2ODcgNC41NTk1MiAwLjE3ODM1MiAzLjk0MzI1LTAuMTQwMzE3IDMuMTM2MzEtMC4xNDAzMTcgMi4zMzAzOC0wLjE0MDMxNyAxLjcxNDY0IDAuMTc4MzUyIDEuMjg5MDYgMC44MTU2ODcgMC44NjM0ODcgMS40NTQwNSAwLjY1MDY5OSAyLjM3ODcxIDAuNjUwNjk5IDMuNTg5NjQgMC42NTA2OTkgNC44MDM2NSAwLjg2MzQ4NyA1LjcyOTM0IDEuMjg5MDYgNi4zNjY2NyAxLjcxNDY0IDcuMDA1MDQgMi4zMzAzOCA3LjMyNDIyIDMuMTM2MzEgNy4zMjQyMloiLz48cGF0aCB0cmFuc2Zvcm09Im1hdHJpeCgxLjAwMDM1IDAgMCAxIDgyNS43NTMgMTA4KSIgZmlsbD0ibm9uZSIgc3Ryb2tlLWxpbmVqb2luPSJyb3VuZCIgc3Ryb2tlLXdpZHRoPSIwLjc4OTQ3NCIgc3Ryb2tlPSIjMDAwMDAwIiBkPSJNMCAwIDMuNDUzOTUgMCIvPjxwYXRoIHRyYW5zZm9ybT0ibWF0cml4KDEuMDAwMzUgMCAwIC0xIDgzMi42NjQgMTExLjc0OSkiIGQ9Ik0xLjA2NTQ4IDcuMTk0NyA0Ljg4NjQxIDcuMTk0NyA0Ljg4NjQxIDYuMzc0MzggMS45NTY3MiA2LjM3NDM4IDEuOTU2NzIgNC42MTE5NUMyLjA5NzU1IDQuNjYwMjUgMi4yMzgzOSA0LjY5NjI0IDIuMzc5MjEgNC43MTk4OCAyLjUyMTA3IDQuNzQzNTIgMi42NjI5MyA0Ljc1NTM1IDIuODA0NzkgNC43NTUzNSAzLjYwNzYzIDQuNzU1MzUgNC4yNDM0MiA0LjUzNTM2IDQuNzEyMTcgNC4wOTU0IDUuMTgxOTUgMy42NTU0MyA1LjQxNjg0IDMuMDU5NzIgNS40MTY4NCAyLjMwODI5IDUuNDE2ODQgMS41MzQyMyA1LjE3NTc5IDAuOTMyMzYxIDQuNjkzNjcgMC41MDI2NzMgNC4yMTE1NSAwLjA3NDAxMzIgMy41MzIwOC0wLjE0MDMxNyAyLjY1NTIyLTAuMTQwMzE3IDIuMzUzLTAuMTQwMzE3IDIuMDQ1MTItMC4xMTQ2MTggMS43MzE2LTAuMDYzMjE5NiAxLjQxOTEtMC4wMTE4MjE2IDEuMDk1ODEgMC4wNjUyNzU0IDAuNzYxNzE5IDAuMTY4MDcyTDAuNzYxNzE5IDEuMTQ3MkMxLjA1MDU4IDAuOTg5OTI2IDEuMzQ5MiAwLjg3MjczOSAxLjY1NzU5IDAuNzk1NjQxIDEuOTY1OTcgMC43MTg1NDQgMi4yOTE4MyAwLjY3OTk5NiAyLjYzNTE4IDAuNjc5OTk2IDMuMTkxMzEgMC42Nzk5OTYgMy42MzEyNyAwLjgyNTk2NyAzLjk1NTA4IDEuMTE3OTEgNC4yNzk5MiAxLjQwOTg1IDQuNDQyMzMgMS44MDY2NSA0LjQ0MjMzIDIuMzA4MjkgNC40NDIzMyAyLjgwODkxIDQuMjc5OTIgMy4yMDUxOSAzLjk1NTA4IDMuNDk3MTIgMy42MzEyNyAzLjc5MDA5IDMuMTkxMzEgMy45MzY1NyAyLjYzNTE4IDMuOTM2NTcgMi4zNzUxIDMuOTM2NTcgMi4xMTU1NCAzLjkwNzc5IDEuODU2NSAzLjg1MDIzIDEuNTk4NDggMy43OTI2NyAxLjMzNDgxIDMuNzAyNzEgMS4wNjU0OCAzLjU4MDM5TDEuMDY1NDggNy4xOTQ3WiIvPjxwYXRoIHRyYW5zZm9ybT0ibWF0cml4KDEuMDAwMzUgMCAwIC0xIDgzOC45NDQgMTExLjc0OSkiIGQ9Ik0zLjEzNjMxIDYuNTUzMjVDMi42MzU2OSA2LjU1MzI1IDIuMjU4OTQgNi4zMDY1NCAyLjAwNjA3IDUuODEzMTIgMS43NTQyMiA1LjMyMDczIDEuNjI4MjkgNC41Nzk1NiAxLjYyODI5IDMuNTg5NjQgMS42MjgyOSAyLjYwMzgzIDEuNzU0MjIgMS44NjQyMSAyLjAwNjA3IDEuMzcwNzkgMi4yNTg5NCAwLjg3NzM2NCAyLjYzNTY5IDAuNjMwNjU0IDMuMTM2MzEgMC42MzA2NTQgMy42NDEwMyAwLjYzMDY1NCA0LjAxOTMzIDAuODc3MzY0IDQuMjcxMTggMS4zNzA3OSA0LjUyNDA1IDEuODY0MjEgNC42NTA0OSAyLjYwMzgzIDQuNjUwNDkgMy41ODk2NCA0LjY1MDQ5IDQuNTc5NTYgNC41MjQwNSA1LjMyMDczIDQuMjcxMTggNS44MTMxMiA0LjAxOTMzIDYuMzA2NTQgMy42NDEwMyA2LjU1MzI1IDMuMTM2MzEgNi41NTMyNVpNMy4xMzYzMSA3LjMyNDIyQzMuOTQzMjUgNy4zMjQyMiA0LjU1OTUyIDcuMDA1MDQgNC45ODUwOSA2LjM2NjY3IDUuNDEwNjcgNS43MjkzNCA1LjYyMzQ2IDQuODAzNjUgNS42MjM0NiAzLjU4OTY0IDUuNjIzNDYgMi4zNzg3MSA1LjQxMDY3IDEuNDU0MDUgNC45ODUwOSAwLjgxNTY4NyA0LjU1OTUyIDAuMTc4MzUyIDMuOTQzMjUtMC4xNDAzMTcgMy4xMzYzMS0wLjE0MDMxNyAyLjMzMDM4LTAuMTQwMzE3IDEuNzE0NjQgMC4xNzgzNTIgMS4yODkwNiAwLjgxNTY4NyAwLjg2MzQ4NyAxLjQ1NDA1IDAuNjUwNjk5IDIuMzc4NzEgMC42NTA2OTkgMy41ODk2NCAwLjY1MDY5OSA0LjgwMzY1IDAuODYzNDg3IDUuNzI5MzQgMS4yODkwNiA2LjM2NjY3IDEuNzE0NjQgNy4wMDUwNCAyLjMzMDM4IDcuMzI0MjIgMy4xMzYzMSA3LjMyNDIyWiIvPjxwYXRoIHRyYW5zZm9ybT0ibWF0cml4KDYuMTI1MzZlLTE3IC0xIC0xLjAwMDM1IC02LjEyMzIyZS0xNyA4NjIuNjc2IDUwNC45NjkpIiBkPSJNOS40ODk0MSAyLjM1OTE3IDQuMjY4NzEgMi4zNTkxNyAzLjQ0NDM5IDAgMC4wODYwNDAzIDAgNC44ODIwOSAxMi45NTA1IDguODY0OTMgMTIuOTUwNSAxMy42NjEgMCAxMC4zMDU0IDAgOS40ODk0MSAyLjM1OTE3Wk01LjEwMTM2IDQuNzYyNzUgOC42NDg0NCA0Ljc2Mjc1IDYuODc3NjcgOS45MTQwNiA1LjEwMTM2IDQuNzYyNzVaIi8+PHBhdGggdHJhbnNmb3JtPSJtYXRyaXgoNi4xMjUzNmUtMTcgLTEgLTEuMDAwMzUgLTYuMTIzMjJlLTE3IDg2Mi42NzYgNDkxLjIyMikiIGQ9Ik00Ljg4MjA5IDEyLjQ3MzEgNC44ODIwOSA5LjcxNDIzIDguMDg1MDEgOS43MTQyMyA4LjA4NTAxIDcuNDkzODMgNC44ODIwOSA3LjQ5MzgzIDQuODgyMDkgMy4zNzVDNC44ODIwOSAyLjkyMzUxIDQuOTcxODIgMi42MTgyMSA1LjE1MTMyIDIuNDU5MDkgNS4zMzA4MSAyLjI5OTk2IDUuNjg2OTkgMi4yMjAzOSA2LjIxOTg4IDIuMjIwMzlMNy44MTU3OSAyLjIyMDM5IDcuODE1NzkgMCA1LjE1MTMyIDBDMy45MjY0MSAwIDMuMDU3NjggMC4yNTUzNDUgMi41NDUxMyAwLjc2NjAzNiAyLjAzNDQ0IDEuMjc4NTggMS43NzkwOSAyLjE0ODIzIDEuNzc5MDkgMy4zNzVMMS43NzkwOSA3LjQ5MzgzIDAuMjMzMTQxIDcuNDkzODMgMC4yMzMxNDEgOS43MTQyMyAxLjc3OTA5IDkuNzE0MjMgMS43NzkwOSAxMi40NzMxIDQuODgyMDkgMTIuNDczMVoiLz48cGF0aCB0cmFuc2Zvcm09Im1hdHJpeCg2LjEyNTM2ZS0xNyAtMSAtMS4wMDAzNSAtNi4xMjMyMmUtMTcgODYyLjY3NiA0ODIuNzMpIiBkPSJNNC44ODIwOSAxMi40NzMxIDQuODgyMDkgOS43MTQyMyA4LjA4NTAxIDkuNzE0MjMgOC4wODUwMSA3LjQ5MzgzIDQuODgyMDkgNy40OTM4MyA0Ljg4MjA5IDMuMzc1QzQuODgyMDkgMi45MjM1MSA0Ljk3MTgyIDIuNjE4MjEgNS4xNTEzMiAyLjQ1OTA5IDUuMzMwODEgMi4yOTk5NiA1LjY4Njk5IDIuMjIwMzkgNi4yMTk4OCAyLjIyMDM5TDcuODE1NzkgMi4yMjAzOSA3LjgxNTc5IDAgNS4xNTEzMiAwQzMuOTI2NDEgMCAzLjA1NzY4IDAuMjU1MzQ1IDIuNTQ1MTMgMC43NjYwMzYgMi4wMzQ0NCAxLjI3ODU4IDEuNzc5MDkgMi4xNDgyMyAxLjc3OTA5IDMuMzc1TDEuNzc5MDkgNy40OTM4MyAwLjIzMzE0MSA3LjQ5MzgzIDAuMjMzMTQxIDkuNzE0MjMgMS43NzkwOSA5LjcxNDIzIDEuNzc5MDkgMTIuNDczMSA0Ljg4MjA5IDEyLjQ3MzFaIi8+PHBhdGggdHJhbnNmb3JtPSJtYXRyaXgoNi4xMjUzNmUtMTcgLTEgLTEuMDAwMzUgLTYuMTIzMjJlLTE3IDg2Mi42NzYgNDc0LjIzOSkiIGQ9Ik01Ljg0NTE5IDQuMzcxNEM1LjE5NzU4IDQuMzcxNCA0LjcxMDAxIDQuMjYxMyA0LjM4MjUgNC4wNDExMiA0LjA1Njg2IDMuODIyNzcgMy44OTQwMiAzLjQ5ODk4IDMuODk0MDIgMy4wNjk3IDMuODk0MDIgMi42Nzc0MyA0LjAyNTM4IDIuMzY5MzUgNC4yODgxNCAyLjE0NTQ2IDQuNTUyNzIgMS45MjM0MiA0LjkxOTA5IDEuODEyNCA1LjM4NzIzIDEuODEyNCA1Ljk3MDA5IDEuODEyNCA2LjQ2MTM1IDIuMDIxNDggNi44NjEwMiAyLjQzOTY2IDcuMjYwNjkgMi44NTk2NyA3LjQ2MDUzIDMuMzg1MTkgNy40NjA1MyA0LjAxNjE0TDcuNDYwNTMgNC4zNzE0IDUuODQ1MTkgNC4zNzE0Wk0xMC41OTEzIDUuNTQyNjYgMTAuNTkxMyAwIDcuNDYwNTMgMCA3LjQ2MDUzIDEuNDQwNDhDNy4wNDQyIDAuODUwMjI1IDYuNTc1MTQgMC40MjAwMjQgNi4wNTMzNSAwLjE0OTg3NyA1LjUzMzQyLTAuMTE4NDIxIDQuOTAwNjEtMC4yNTI1NyA0LjE1NDkxLTAuMjUyNTcgMy4xNDgzMy0wLjI1MjU3IDIuMzMxNDEgMC4wNDA3MDczIDEuNzA0MTUgMC42MjcyNjEgMS4wNzY4OSAxLjIxNTY3IDAuNzYzMjYxIDEuOTc4IDAuNzYzMjYxIDIuOTE0MjcgMC43NjMyNjEgNC4wNTQwOCAxLjE1NDYxIDQuODg5NSAxLjkzNzI5IDUuNDIwNTQgMi43MjE4MyA1Ljk1MzQzIDMuOTUyMyA2LjIxOTg4IDUuNjI4NyA2LjIxOTg4TDcuNDYwNTMgNi4yMTk4OCA3LjQ2MDUzIDYuNDYxMzVDNy40NjA1MyA2Ljk1MzUzIDcuMjY2MjQgNy4zMTM0MyA2Ljg3NzY3IDcuNTQxMDIgNi40OTA5NiA3Ljc3MDQ3IDUuODg2ODIgNy44ODUxOCA1LjA2NTI4IDcuODg1MTggNC40MDEwMiA3Ljg4NTE4IDMuNzgyMDggNy44MTg1NiAzLjIwODQ3IDcuNjg1MzQgMi42MzY3MiA3LjU1MjEyIDIuMTA0NzUgNy4zNTIyOCAxLjYxMjU2IDcuMDg1ODNMMS42MTI1NiA5LjQ1MzMzQzIuMjc4NjggOS42MTYxNyAyLjk0NjY2IDkuNzM5MjEgMy42MTY0NyA5LjgyMjQ3IDQuMjg4MTQgOS45MDU3NCA0Ljk1ODg5IDkuOTQ3MzcgNS42Mjg3IDkuOTQ3MzcgNy4zODA5NSA5Ljk0NzM3IDguNjQ1NjYgOS42MDIyOSA5LjQyMjggOC45MTIxMSAxMC4yMDE4IDguMjIxOTMgMTAuNTkxMyA3LjA5ODggMTAuNTkxMyA1LjU0MjY2WiIvPjxwYXRoIHRyYW5zZm9ybT0ibWF0cml4KDYuMTI1MzZlLTE3IC0xIC0xLjAwMDM1IC02LjEyMzIyZS0xNyA4NjIuNjc2IDQ2Mi4yNTIpIiBkPSJNOS4zNDIzMSA5LjQxMTcgOS4zNDIzMSA2Ljg3NzY3QzguOTIwNDQgNy4xNjYzMiA4LjQ5NjcgNy4zODAwNCA4LjA3MTEzIDcuNTE4ODEgNy42NDU1NyA3LjY1NzU5IDcuMjA0MjYgNy43MjY5NyA2Ljc0NzIyIDcuNzI2OTcgNS44ODEyNyA3LjcyNjk3IDUuMjA2ODMgNy40NzQ0IDQuNzIzODkgNi45NjkyNiA0LjI0MDk1IDYuNDY0MTIgMy45OTk0OSA1Ljc1NzI5IDMuOTk5NDkgNC44NDg3OSAzLjk5OTQ5IDMuOTQwMjggNC4yNDA5NSAzLjIzMjUzIDQuNzIzODkgMi43MjU1MyA1LjIwNjgzIDIuMjIwMzkgNS44ODEyNyAxLjk2NzgyIDYuNzQ3MjIgMS45Njc4MiA3LjIzMzg1IDEuOTY3ODIgNy42OTU1MyAyLjAzOTk5IDguMTMyMiAyLjE4NDMxIDguNTY4ODYgMi4zMzA0OSA4Ljk3MjI1IDIuNTQ1MTMgOS4zNDIzMSAyLjgyODIzTDkuMzQyMzEgMC4yODU4NzZDOC44NTU2OCAwLjEwNjM5NCA4LjM2MjU2LTAuMDI3NzU0OSA3Ljg2Mjk3LTAuMTE2NTcxIDcuMzYzMzgtMC4yMDcyMzcgNi44NjE5NC0wLjI1MjU3IDYuMzU4NjUtMC4yNTI1NyA0LjYwNjQtMC4yNTI1NyAzLjIzNTMxIDAuMTk3MDYgMi4yNDUzNyAxLjA5NjMyIDEuMjU3MyAxLjk5NTU4IDAuNzYzMjYxIDMuMjQ2NDEgMC43NjMyNjEgNC44NDg3OSAwLjc2MzI2MSA2LjQ1MTE2IDEuMjU3MyA3LjcwMTA4IDIuMjQ1MzcgOC41OTg0OCAzLjIzNTMxIDkuNDk3NzQgNC42MDY0IDkuOTQ3MzcgNi4zNTg2NSA5Ljk0NzM3IDYuODY3NDkgOS45NDczNyA3LjM2ODkzIDkuOTAyOTYgNy44NjI5NyA5LjgxNDE0IDguMzU3MDEgOS43MjUzMyA4Ljg1MDEzIDkuNTkxMTkgOS4zNDIzMSA5LjQxMTdaIi8+PHBhdGggdHJhbnNmb3JtPSJtYXRyaXgoNi4xMjUzNmUtMTcgLTEgLTEuMDAwMzUgLTYuMTIzMjJlLTE3IDg2Mi42NzYgNDUxLjcyMykiIGQ9Ik0xLjQ5MzIyIDEzLjQ5NzIgNC41OTYyMiAxMy40OTcyIDQuNTk2MjIgNi4xNTA0OSA4LjE3MTA1IDkuNzE0MjMgMTEuNzc5MiA5LjcxNDIzIDcuMDMzMSA1LjI1Njc4IDEyLjE1MTEgMCA4LjM4NzU0IDAgNC41OTYyMiA0LjA0OTQ0IDQuNTk2MjIgMCAxLjQ5MzIyIDAgMS40OTMyMiAxMy40OTcyWiIvPjxwYXRoIHRyYW5zZm9ybT0ibWF0cml4KDYuMTI1MzZlLTE3IC0xIC0xLjAwMDM1IC02LjEyMzIyZS0xNyA4NjIuNjc2IDQzMy43MjYpIiBkPSJNMTAuNjQxMiAxMi41NDI1IDEwLjY0MTIgOS44MDAyN0M5LjkzMDcxIDEwLjExODUgOS4yMzY4NCAxMC4zNTgxIDguNTU5NjIgMTAuNTE5MSA3Ljg4NDI2IDEwLjY4MiA3LjI0NTkgMTAuNzYzNCA2LjY0NDUzIDEwLjc2MzQgNS44NDcwNSAxMC43NjM0IDUuMjU2NzggMTAuNjUzMyA0Ljg3Mzc3IDEwLjQzMzEgNC40OTI2MSAxMC4yMTQ3IDQuMzAyMDEgOS44NzQyOSA0LjMwMjAxIDkuNDExNyA0LjMwMjAxIDkuMDYzODQgNC40MzA2IDguNzkyNzYgNC42ODc4MSA4LjU5ODQ4IDQuOTQ1MDEgOC40MDYwNSA1LjQxMjIxIDguMjQwNDQgNi4wODk0MyA4LjEwMTY2TDcuNTEwNDggNy44MTU3OUM4Ljk1MDA1IDcuNTI1MjggOS45NzMyNiA3LjA4NDkyIDEwLjU4MDIgNi40OTQ2NSAxMS4xODg5IDUuOTA2MjUgMTEuNDkzMyA1LjA2ODA1IDExLjQ5MzMgMy45ODAwNiAxMS40OTMzIDIuNTUzNDUgMTEuMDY5NiAxLjQ5MTM2IDEwLjIyMjEgMC43OTM3OTEgOS4zNzQ3IDAuMDk2MjE3MiA4LjA4MDM4LTAuMjUyNTcgNi4zMzkyMy0wLjI1MjU3IDUuNTE5NTQtMC4yNTI1NyA0LjY5NjEzLTAuMTczOTMxIDMuODY5MDQtMC4wMTY2NTMgMy4wNDE5NCAwLjEzODc3NSAyLjIxNDg0IDAuMzcwMDY1IDEuMzg3NzUgMC42NzcyMkwxLjM4Nzc1IDMuNDk0MzVDMi4yMTQ4NCAzLjA1NTgyIDMuMDE0MTkgMi43MjQ2MSAzLjc4NTc3IDIuNTAwNzIgNC41NTczNiAyLjI3ODY4IDUuMzAyMTEgMi4xNjc2NiA2LjAyMDA0IDIuMTY3NjYgNi43NDkwOCAyLjE2NzY2IDcuMzA2OTYgMi4yODg4NiA3LjY5MzY3IDIuNTMxMjUgOC4wODAzOCAyLjc3NTQ5IDguMjczNzUgMy4xMjMzNSA4LjI3Mzc1IDMuNTc0ODQgOC4yNzM3NSAzLjk3ODIgOC4xNDIzOCA0LjI5IDcuODc5NjMgNC41MTAxOCA3LjYxNjg3IDQuNzMwMzYgNy4wOTIzIDQuOTI3NDIgNi4zMDU5MiA1LjEwMTM2TDUuMDEyNTQgNS4zODcyM0MzLjcxNzMgNS42NjQ3OCAyLjc2OTk0IDYuMTA3IDIuMTcwNDQgNi43MTM5MiAxLjU3Mjc4IDcuMzIwODQgMS4yNzM5NSA4LjEzODY2IDEuMjczOTUgOS4xNjc0NSAxLjI3Mzk1IDEwLjQ1NzEgMS42OTAyOCAxMS40NDg5IDIuNTIyOTIgMTIuMTQyOCAzLjM1NTU3IDEyLjgzNjcgNC41NTI3MiAxMy4xODM2IDYuMTE0NDEgMTMuMTgzNiA2LjgyNjggMTMuMTgzNiA3LjU1ODU4IDEzLjEyOTkgOC4zMDk4MyAxMy4wMjI2IDkuMDYxMDcgMTIuOTE1MyA5LjgzODIxIDEyLjc1NTMgMTAuNjQxMiAxMi41NDI1WiIvPjxwYXRoIHRyYW5zZm9ybT0ibWF0cml4KDYuMTI1MzZlLTE3IC0xIC0xLjAwMDM1IC02LjEyMzIyZS0xNyA4NjIuNjc2IDQyMC45MzIpIiBkPSJNMS4zODc3NSAzLjc4MyAxLjM4Nzc1IDkuNzE0MjMgNC41MTAxOCA5LjcxNDIzIDQuNTEwMTggOC43NDI4QzQuNTEwMTggOC4yMTczMiA0LjUwNzQgNy41NTY3NSA0LjUwMTg1IDYuNzYxMSA0LjQ5NjMgNS45NjU0NSA0LjQ5MzUyIDUuNDM1MzMgNC40OTM1MiA1LjE3MDc0IDQuNDkzNTIgNC4zODk5MSA0LjUxMzg3IDMuODI3NDEgNC41NTQ1OCAzLjQ4MzI0IDQuNTk1MyAzLjEzOTA4IDQuNjY0NjkgMi44ODgzNyA0Ljc2Mjc1IDIuNzMxMDkgNC44ODg1NiAyLjUyOTQgNS4wNTQxNyAyLjM3MzA1IDUuMjU5NTYgMi4yNjIwMyA1LjQ2NDk1IDIuMTUyODYgNS43MDA4NiAyLjA5ODI3IDUuOTY3MzEgMi4wOTgyNyA2LjYxNDkyIDIuMDk4MjcgNy4xMjM3OCAyLjM0NzE0IDcuNDkzODMgMi44NDQ4OCA3Ljg2Mzg5IDMuMzQyNjEgOC4wNDg5MyA0LjAzMzcxIDguMDQ4OTMgNC45MTgxN0w4LjA0ODkzIDkuNzE0MjMgMTEuMTU0NyA5LjcxNDIzIDExLjE1NDcgMCA4LjA0ODkzIDAgOC4wNDg5MyAxLjQwNDRDNy41ODA3OSAwLjgzODE5OSA3LjA4NDkyIDAuNDIwMDI0IDYuNTYxMjcgMC4xNDk4NzcgNi4wMzc2MS0wLjExODQyMSA1LjQ2MTI2LTAuMjUyNTcgNC44MzIxMy0wLjI1MjU3IDMuNzA4OTctMC4yNTI1NyAyLjg1NDEyIDAuMDkxNTkxMyAyLjI2NzU4IDAuNzc5OTE0IDEuNjgxMDIgMS40NjgyNCAxLjM4Nzc1IDIuNDY5MjYgMS4zODc3NSAzLjc4M1oiLz48cGF0aCB0cmFuc2Zvcm09Im1hdHJpeCg2LjEyNTM2ZS0xNyAtMSAtMS4wMDAzNSAtNi4xMjMyMmUtMTcgODYyLjY3NiA0MDguMjg3KSIgZD0iTTkuMzQyMzEgOS40MTE3IDkuMzQyMzEgNi44Nzc2N0M4LjkyMDQ0IDcuMTY2MzIgOC40OTY3IDcuMzgwMDQgOC4wNzExMyA3LjUxODgxIDcuNjQ1NTcgNy42NTc1OSA3LjIwNDI2IDcuNzI2OTcgNi43NDcyMiA3LjcyNjk3IDUuODgxMjcgNy43MjY5NyA1LjIwNjgzIDcuNDc0NCA0LjcyMzg5IDYuOTY5MjYgNC4yNDA5NSA2LjQ2NDEyIDMuOTk5NDkgNS43NTcyOSAzLjk5OTQ5IDQuODQ4NzkgMy45OTk0OSAzLjk0MDI4IDQuMjQwOTUgMy4yMzI1MyA0LjcyMzg5IDIuNzI1NTMgNS4yMDY4MyAyLjIyMDM5IDUuODgxMjcgMS45Njc4MiA2Ljc0NzIyIDEuOTY3ODIgNy4yMzM4NSAxLjk2NzgyIDcuNjk1NTMgMi4wMzk5OSA4LjEzMjIgMi4xODQzMSA4LjU2ODg2IDIuMzMwNDkgOC45NzIyNSAyLjU0NTEzIDkuMzQyMzEgMi44MjgyM0w5LjM0MjMxIDAuMjg1ODc2QzguODU1NjggMC4xMDYzOTQgOC4zNjI1Ni0wLjAyNzc1NDkgNy44NjI5Ny0wLjExNjU3MSA3LjM2MzM4LTAuMjA3MjM3IDYuODYxOTQtMC4yNTI1NyA2LjM1ODY1LTAuMjUyNTcgNC42MDY0LTAuMjUyNTcgMy4yMzUzMSAwLjE5NzA2IDIuMjQ1MzcgMS4wOTYzMiAxLjI1NzMgMS45OTU1OCAwLjc2MzI2MSAzLjI0NjQxIDAuNzYzMjYxIDQuODQ4NzkgMC43NjMyNjEgNi40NTExNiAxLjI1NzMgNy43MDEwOCAyLjI0NTM3IDguNTk4NDggMy4yMzUzMSA5LjQ5Nzc0IDQuNjA2NCA5Ljk0NzM3IDYuMzU4NjUgOS45NDczNyA2Ljg2NzQ5IDkuOTQ3MzcgNy4zNjg5MyA5LjkwMjk2IDcuODYyOTcgOS44MTQxNCA4LjM1NzAxIDkuNzI1MzMgOC44NTAxMyA5LjU5MTE5IDkuMzQyMzEgOS40MTE3WiIvPjxwYXRoIHRyYW5zZm9ybT0ibWF0cml4KDYuMTI1MzZlLTE3IC0xIC0xLjAwMDM1IC02LjEyMzIyZS0xNyA4NjIuNjc2IDM5Ny43NTcpIiBkPSJNOS4zNDIzMSA5LjQxMTcgOS4zNDIzMSA2Ljg3NzY3QzguOTIwNDQgNy4xNjYzMiA4LjQ5NjcgNy4zODAwNCA4LjA3MTEzIDcuNTE4ODEgNy42NDU1NyA3LjY1NzU5IDcuMjA0MjYgNy43MjY5NyA2Ljc0NzIyIDcuNzI2OTcgNS44ODEyNyA3LjcyNjk3IDUuMjA2ODMgNy40NzQ0IDQuNzIzODkgNi45NjkyNiA0LjI0MDk1IDYuNDY0MTIgMy45OTk0OSA1Ljc1NzI5IDMuOTk5NDkgNC44NDg3OSAzLjk5OTQ5IDMuOTQwMjggNC4yNDA5NSAzLjIzMjUzIDQuNzIzODkgMi43MjU1MyA1LjIwNjgzIDIuMjIwMzkgNS44ODEyNyAxLjk2NzgyIDYuNzQ3MjIgMS45Njc4MiA3LjIzMzg1IDEuOTY3ODIgNy42OTU1MyAyLjAzOTk5IDguMTMyMiAyLjE4NDMxIDguNTY4ODYgMi4zMzA0OSA4Ljk3MjI1IDIuNTQ1MTMgOS4zNDIzMSAyLjgyODIzTDkuMzQyMzEgMC4yODU4NzZDOC44NTU2OCAwLjEwNjM5NCA4LjM2MjU2LTAuMDI3NzU0OSA3Ljg2Mjk3LTAuMTE2NTcxIDcuMzYzMzgtMC4yMDcyMzcgNi44NjE5NC0wLjI1MjU3IDYuMzU4NjUtMC4yNTI1NyA0LjYwNjQtMC4yNTI1NyAzLjIzNTMxIDAuMTk3MDYgMi4yNDUzNyAxLjA5NjMyIDEuMjU3MyAxLjk5NTU4IDAuNzYzMjYxIDMuMjQ2NDEgMC43NjMyNjEgNC44NDg3OSAwLjc2MzI2MSA2LjQ1MTE2IDEuMjU3MyA3LjcwMTA4IDIuMjQ1MzcgOC41OTg0OCAzLjIzNTMxIDkuNDk3NzQgNC42MDY0IDkuOTQ3MzcgNi4zNTg2NSA5Ljk0NzM3IDYuODY3NDkgOS45NDczNyA3LjM2ODkzIDkuOTAyOTYgNy44NjI5NyA5LjgxNDE0IDguMzU3MDEgOS43MjUzMyA4Ljg1MDEzIDkuNTkxMTkgOS4zNDIzMSA5LjQxMTdaIi8+PHBhdGggdHJhbnNmb3JtPSJtYXRyaXgoNi4xMjUzNmUtMTcgLTEgLTEuMDAwMzUgLTYuMTIzMjJlLTE3IDg2Mi42NzYgMzg3LjIyNykiIGQ9Ik0xMS4xODggNC44ODIwOSAxMS4xODggMy45OTk0OSAzLjkzMDEgMy45OTk0OUM0LjAwNDEyIDMuMjcwNDUgNC4yNjY4NSAyLjcyMzY4IDQuNzE4MzQgMi4zNTkxNyA1LjE2OTgzIDEuOTk0NjYgNS43OTk4NiAxLjgxMjQgNi42MDg0NSAxLjgxMjQgNy4yNjE2MSAxLjgxMjQgNy45MzA1IDEuOTA5NTQgOC42MTUxMyAyLjEwMzgyIDkuMzAxNTkgMi4yOTgxMSAxMC4wMDY2IDIuNTkxMzkgMTAuNzMwMSAyLjk4MzY2TDEwLjczMDEgMC41OTExOEM5Ljk5NTQ3IDAuMzEzNjMxIDkuMjYwOTEgMC4xMDM2MTggOC41MjYzMi0wLjAzODg1NjkgNy43OTE3My0wLjE4MTMzMiA3LjA1NzE2LTAuMjUyNTcgNi4zMjI1Ny0wLjI1MjU3IDQuNTY0NzctMC4yNTI1NyAzLjE5ODI4IDAuMTk0Mjg1IDIuMjIzMTcgMS4wODc5OSAxLjI0OTkgMS45ODE3IDAuNzYzMjYxIDMuMjM1MzEgMC43NjMyNjEgNC44NDg3OSAwLjc2MzI2MSA2LjQzMjY4IDEuMjQxNTcgNy42Nzc5MyAyLjE5ODE5IDguNTg0NiAzLjE1NDgyIDkuNDkzMSA0LjQ3MjI0IDkuOTQ3MzcgNi4xNTA0OSA5Ljk0NzM3IDcuNjc3MDEgOS45NDczNyA4Ljg5ODIzIDkuNDg3NTUgOS44MTQxNCA4LjU2Nzk1IDEwLjczMDEgNy42NTAxOCAxMS4xODggNi40MjE1OCAxMS4xODggNC44ODIwOVpNNy45OTYyIDUuOTE0NThDNy45OTYyIDYuNTA0ODQgNy44MjQxMiA2Ljk4MDM3IDcuNDc5OTUgNy4zNDExOCA3LjEzNTc5IDcuNzAzODUgNi42ODYxNiA3Ljg4NTE4IDYuMTMxMDYgNy44ODUxOCA1LjUyOTcgNy44ODUxOCA1LjA0MTIxIDcuNzE1ODcgNC42NjU2IDcuMzc3MjYgNC4yOSA3LjAzODY1IDQuMDU1OTEgNi41NTEwOCAzLjk2MzQgNS45MTQ1OEw3Ljk5NjIgNS45MTQ1OFoiLz48cGF0aCB0cmFuc2Zvcm09Im1hdHJpeCg2LjEyNTM2ZS0xNyAtMSAtMS4wMDAzNSAtNi4xMjMyMmUtMTcgODYyLjY3NiAzNzUuMTgpIiBkPSJNOS4wODE0MSA5LjQxMTcgOS4wODE0MSA3LjA1MjUzQzguNDE3MTYgNy4zMzAwOCA3Ljc3NTA3IDcuNTM4MjQgNy4xNTUyMiA3LjY3NzAxIDYuNTM3MiA3LjgxNTc5IDUuOTUzNDMgNy44ODUxOCA1LjQwMzg5IDcuODg1MTggNC44MTM2MiA3Ljg4NTE4IDQuMzc1MDkgNy44MTExNSA0LjA4ODMgNy42NjMxNCAzLjgwMzM0IDcuNTE1MTIgMy42NjA4OCA3LjI4ODQ1IDMuNjYwODggNi45ODMxNCAzLjY2MDg4IDYuNzMzMzUgMy43NjkxMiA2LjU0MTg0IDMuOTg1NjEgNi40MDg2MSA0LjIwMjEgNi4yNzcyNSA0LjU5MDY3IDYuMTc5MTYgNS4xNTEzMiA2LjExNDQxTDUuNjk4MDkgNi4wMzY3QzcuMjg5MzYgNS44MzUgOC4zNTg4NyA1LjUwMjg5IDguOTA2NTYgNS4wNDAzIDkuNDU2MTEgNC41Nzc3IDkuNzMwODggMy44NTE0NyA5LjczMDg4IDIuODYxNTMgOS43MzA4OCAxLjgyNzIgOS4zNDg3OCAxLjA0OTE0IDguNTg0NiAwLjUyNzM0NCA3LjgyMjI2IDAuMDA3NDAxMzIgNi42ODQzLTAuMjUyNTcgNS4xNzA3NC0wLjI1MjU3IDQuNTI4NjktMC4yNTI1NyAzLjg2NDQtMC4yMDE2ODYgMy4xNzc5NC0wLjA5OTkxNzggMi40OTMzMiAwLjAwMTg1MDMzIDEuNzg5MjcgMC4xNTM1NzcgMS4wNjU3OSAwLjM1NTI2M0wxLjA2NTc5IDIuNzE0NDNDMS42ODU2NSAyLjQxNDY4IDIuMzIwMzEgMi4xODg5NCAyLjk2OTc4IDIuMDM3MjEgMy42MjExIDEuODg3MzQgNC4yODE2NyAxLjgxMjQgNC45NTE0OCAxLjgxMjQgNS41NjAyMyAxLjgxMjQgNi4wMTcyNyAxLjg5NTY2IDYuMzIyNTcgMi4wNjIxOSA2LjYyOTc0IDIuMjMwNTcgNi43ODMzMSAyLjQ4MDM3IDYuNzgzMzEgMi44MTE1NyA2Ljc4MzMxIDMuMDg5MTIgNi42Nzc4NCAzLjI5NTQzIDYuNDY2OSAzLjQzMDUxIDYuMjU1OTYgMy41NjU1OSA1LjgzNSAzLjY3MTA2IDUuMjA0MDUgMy43NDY5Mkw0LjY1NzI4IDMuODE2M0MzLjI3NTA4IDMuOTkwMjQgMi4zMDY0MyA0LjMxMTI2IDEuNzUxMzQgNC43Nzk0IDEuMTk2MjQgNS4yNDc1NCAwLjkxODY4OCA1Ljk1ODk4IDAuOTE4Njg4IDYuOTEzNzUgMC45MTg2ODggNy45NDI1NSAxLjI3MTE4IDguNzA0ODYgMS45NzYxNSA5LjIwMDc2IDIuNjgyOTggOS42OTg0OSAzLjc2NDQ4IDkuOTQ3MzcgNS4yMjA3IDkuOTQ3MzcgNS43OTQzMSA5Ljk0NzM3IDYuMzk1NjUgOS45MDM4OCA3LjAyNDc3IDkuODE2OTIgNy42NTU3MyA5LjczMTggOC4zNDEyNyA5LjU5Njc0IDkuMDgxNDEgOS40MTE3WiIvPjxwYXRoIHRyYW5zZm9ybT0ibWF0cml4KDYuMTI1MzZlLTE3IC0xIC0xLjAwMDM1IC02LjEyMzIyZS0xNyA4NjIuNjc2IDM2NC42MDcpIiBkPSJNOS4wODE0MSA5LjQxMTcgOS4wODE0MSA3LjA1MjUzQzguNDE3MTYgNy4zMzAwOCA3Ljc3NTA3IDcuNTM4MjQgNy4xNTUyMiA3LjY3NzAxIDYuNTM3MiA3LjgxNTc5IDUuOTUzNDMgNy44ODUxOCA1LjQwMzg5IDcuODg1MTggNC44MTM2MiA3Ljg4NTE4IDQuMzc1MDkgNy44MTExNSA0LjA4ODMgNy42NjMxNCAzLjgwMzM0IDcuNTE1MTIgMy42NjA4OCA3LjI4ODQ1IDMuNjYwODggNi45ODMxNCAzLjY2MDg4IDYuNzMzMzUgMy43NjkxMiA2LjU0MTg0IDMuOTg1NjEgNi40MDg2MSA0LjIwMjEgNi4yNzcyNSA0LjU5MDY3IDYuMTc5MTYgNS4xNTEzMiA2LjExNDQxTDUuNjk4MDkgNi4wMzY3QzcuMjg5MzYgNS44MzUgOC4zNTg4NyA1LjUwMjg5IDguOTA2NTYgNS4wNDAzIDkuNDU2MTEgNC41Nzc3IDkuNzMwODggMy44NTE0NyA5LjczMDg4IDIuODYxNTMgOS43MzA4OCAxLjgyNzIgOS4zNDg3OCAxLjA0OTE0IDguNTg0NiAwLjUyNzM0NCA3LjgyMjI2IDAuMDA3NDAxMzIgNi42ODQzLTAuMjUyNTcgNS4xNzA3NC0wLjI1MjU3IDQuNTI4NjktMC4yNTI1NyAzLjg2NDQtMC4yMDE2ODYgMy4xNzc5NC0wLjA5OTkxNzggMi40OTMzMiAwLjAwMTg1MDMzIDEuNzg5MjcgMC4xNTM1NzcgMS4wNjU3OSAwLjM1NTI2M0wxLjA2NTc5IDIuNzE0NDNDMS42ODU2NSAyLjQxNDY4IDIuMzIwMzEgMi4xODg5NCAyLjk2OTc4IDIuMDM3MjEgMy42MjExIDEuODg3MzQgNC4yODE2NyAxLjgxMjQgNC45NTE0OCAxLjgxMjQgNS41NjAyMyAxLjgxMjQgNi4wMTcyNyAxLjg5NTY2IDYuMzIyNTcgMi4wNjIxOSA2LjYyOTc0IDIuMjMwNTcgNi43ODMzMSAyLjQ4MDM3IDYuNzgzMzEgMi44MTE1NyA2Ljc4MzMxIDMuMDg5MTIgNi42Nzc4NCAzLjI5NTQzIDYuNDY2OSAzLjQzMDUxIDYuMjU1OTYgMy41NjU1OSA1LjgzNSAzLjY3MTA2IDUuMjA0MDUgMy43NDY5Mkw0LjY1NzI4IDMuODE2M0MzLjI3NTA4IDMuOTkwMjQgMi4zMDY0MyA0LjMxMTI2IDEuNzUxMzQgNC43Nzk0IDEuMTk2MjQgNS4yNDc1NCAwLjkxODY4OCA1Ljk1ODk4IDAuOTE4Njg4IDYuOTEzNzUgMC45MTg2ODggNy45NDI1NSAxLjI3MTE4IDguNzA0ODYgMS45NzYxNSA5LjIwMDc2IDIuNjgyOTggOS42OTg0OSAzLjc2NDQ4IDkuOTQ3MzcgNS4yMjA3IDkuOTQ3MzcgNS43OTQzMSA5Ljk0NzM3IDYuMzk1NjUgOS45MDM4OCA3LjAyNDc3IDkuODE2OTIgNy42NTU3MyA5LjczMTggOC4zNDEyNyA5LjU5Njc0IDkuMDgxNDEgOS40MTE3WiIvPjxwYXRoIHRyYW5zZm9ybT0ibWF0cml4KDYuMTI1MzZlLTE3IC0xIC0xLjAwMDM1IC02LjEyMzIyZS0xNyA4NjIuNjc2IDM0Ny44NSkiIGQ9Ik02LjM3NTMxIDcuMjA3OTZDNy4wNzQ3MyA3LjIwNzk2IDcuNTc2MTggNy4zMzc0OSA3Ljg3OTYzIDcuNTk2NTMgOC4xODMwNyA3Ljg1NzQyIDguMzM0ODEgOC4yODU3NiA4LjMzNDgxIDguODgxNTggOC4zMzQ4MSA5LjQ3MTg0IDguMTgzMDcgOS44OTM3MiA3Ljg3OTYzIDEwLjE0NzIgNy41NzYxOCAxMC40MDI1IDcuMDc0NzMgMTAuNTMwMiA2LjM3NTMxIDEwLjUzMDJMNC45NzA5MSAxMC41MzAyIDQuOTcwOTEgNy4yMDc5NiA2LjM3NTMxIDcuMjA3OTZaTTQuOTcwOTEgNC45MDE1MiA0Ljk3MDkxIDAgMS42MzE5OSAwIDEuNjMxOTkgMTIuOTUwNSA2LjczMDU3IDEyLjk1MDVDOC40MzY1OCAxMi45NTA1IDkuNjg2NDcgMTIuNjYzNyAxMC40ODAzIDEyLjA5IDExLjI3NTkgMTEuNTE4MyAxMS42NzM3IDEwLjYxMzUgMTEuNjczNyA5LjM3NTYyIDExLjY3MzcgOC41MjA3NiAxMS40NjY1IDcuODE4NTYgMTEuMDUyIDcuMjY5MDIgMTAuNjM5NCA2LjcxOTQ3IDEwLjAxNjggNi4zMTQyNSA5LjE4NDExIDYuMDUzMzUgOS42NDExNSA1Ljk0OTc0IDEwLjA1MDEgNS43MTM4MiAxMC40MTA5IDUuMzQ1NiAxMC43NzM1IDQuOTc5MjQgMTEuMTM5OSA0LjQyMzIyIDExLjUxIDMuNjc3NTNMMTMuMzIyNCAwIDkuNzY2OTYgMCA4LjE4NzcxIDMuMjE2OEM3Ljg2OTQ0IDMuODY0NCA3LjU0NjU3IDQuMzA2NjUgNy4yMTkwNiA0LjU0MzQ4IDYuODkzNDEgNC43ODIxOCA2LjQ1ODU3IDQuOTAxNTIgNS45MTQ1OCA0LjkwMTUyTDQuOTcwOTEgNC45MDE1MloiLz48cGF0aCB0cmFuc2Zvcm09Im1hdHJpeCg2LjEyNTM2ZS0xNyAtMSAtMS4wMDAzNSAtNi4xMjMyMmUtMTcgODYyLjY3NiAzMzQuMTcyKSIgZD0iTTUuODQ1MTkgNC4zNzE0QzUuMTk3NTggNC4zNzE0IDQuNzEwMDEgNC4yNjEzIDQuMzgyNSA0LjA0MTEyIDQuMDU2ODYgMy44MjI3NyAzLjg5NDAyIDMuNDk4OTggMy44OTQwMiAzLjA2OTcgMy44OTQwMiAyLjY3NzQzIDQuMDI1MzggMi4zNjkzNSA0LjI4ODE0IDIuMTQ1NDYgNC41NTI3MiAxLjkyMzQyIDQuOTE5MDkgMS44MTI0IDUuMzg3MjMgMS44MTI0IDUuOTcwMDkgMS44MTI0IDYuNDYxMzUgMi4wMjE0OCA2Ljg2MTAyIDIuNDM5NjYgNy4yNjA2OSAyLjg1OTY3IDcuNDYwNTMgMy4zODUxOSA3LjQ2MDUzIDQuMDE2MTRMNy40NjA1MyA0LjM3MTQgNS44NDUxOSA0LjM3MTRaTTEwLjU5MTMgNS41NDI2NiAxMC41OTEzIDAgNy40NjA1MyAwIDcuNDYwNTMgMS40NDA0OEM3LjA0NDIgMC44NTAyMjUgNi41NzUxNCAwLjQyMDAyNCA2LjA1MzM1IDAuMTQ5ODc3IDUuNTMzNDItMC4xMTg0MjEgNC45MDA2MS0wLjI1MjU3IDQuMTU0OTEtMC4yNTI1NyAzLjE0ODMzLTAuMjUyNTcgMi4zMzE0MSAwLjA0MDcwNzMgMS43MDQxNSAwLjYyNzI2MSAxLjA3Njg5IDEuMjE1NjcgMC43NjMyNjEgMS45NzggMC43NjMyNjEgMi45MTQyNyAwLjc2MzI2MSA0LjA1NDA4IDEuMTU0NjEgNC44ODk1IDEuOTM3MjkgNS40MjA1NCAyLjcyMTgzIDUuOTUzNDMgMy45NTIzIDYuMjE5ODggNS42Mjg3IDYuMjE5ODhMNy40NjA1MyA2LjIxOTg4IDcuNDYwNTMgNi40NjEzNUM3LjQ2MDUzIDYuOTUzNTMgNy4yNjYyNCA3LjMxMzQzIDYuODc3NjcgNy41NDEwMiA2LjQ5MDk2IDcuNzcwNDcgNS44ODY4MiA3Ljg4NTE4IDUuMDY1MjggNy44ODUxOCA0LjQwMTAyIDcuODg1MTggMy43ODIwOCA3LjgxODU2IDMuMjA4NDcgNy42ODUzNCAyLjYzNjcyIDcuNTUyMTIgMi4xMDQ3NSA3LjM1MjI4IDEuNjEyNTYgNy4wODU4M0wxLjYxMjU2IDkuNDUzMzNDMi4yNzg2OCA5LjYxNjE3IDIuOTQ2NjYgOS43MzkyMSAzLjYxNjQ3IDkuODIyNDcgNC4yODgxNCA5LjkwNTc0IDQuOTU4ODkgOS45NDczNyA1LjYyODcgOS45NDczNyA3LjM4MDk1IDkuOTQ3MzcgOC42NDU2NiA5LjYwMjI5IDkuNDIyOCA4LjkxMjExIDEwLjIwMTggOC4yMjE5MyAxMC41OTEzIDcuMDk4OCAxMC41OTEzIDUuNTQyNjZaIi8+PHBhdGggdHJhbnNmb3JtPSJtYXRyaXgoNi4xMjUzNmUtMTcgLTEgLTEuMDAwMzUgLTYuMTIzMjJlLTE3IDg2Mi42NzYgMzIyLjE4NikiIGQ9Ik00Ljg4MjA5IDEyLjQ3MzEgNC44ODIwOSA5LjcxNDIzIDguMDg1MDEgOS43MTQyMyA4LjA4NTAxIDcuNDkzODMgNC44ODIwOSA3LjQ5MzgzIDQuODgyMDkgMy4zNzVDNC44ODIwOSAyLjkyMzUxIDQuOTcxODIgMi42MTgyMSA1LjE1MTMyIDIuNDU5MDkgNS4zMzA4MSAyLjI5OTk2IDUuNjg2OTkgMi4yMjAzOSA2LjIxOTg4IDIuMjIwMzlMNy44MTU3OSAyLjIyMDM5IDcuODE1NzkgMCA1LjE1MTMyIDBDMy45MjY0MSAwIDMuMDU3NjggMC4yNTUzNDUgMi41NDUxMyAwLjc2NjAzNiAyLjAzNDQ0IDEuMjc4NTggMS43NzkwOSAyLjE0ODIzIDEuNzc5MDkgMy4zNzVMMS43NzkwOSA3LjQ5MzgzIDAuMjMzMTQxIDcuNDkzODMgMC4yMzMxNDEgOS43MTQyMyAxLjc3OTA5IDkuNzE0MjMgMS43NzkwOSAxMi40NzMxIDQuODgyMDkgMTIuNDczMVoiLz48cGF0aCB0cmFuc2Zvcm09Im1hdHJpeCg2LjEyNTM2ZS0xNyAtMSAtMS4wMDAzNSAtNi4xMjMyMmUtMTcgODYyLjY3NiAzMTMuNjk0KSIgZD0iTTExLjE4OCA0Ljg4MjA5IDExLjE4OCAzLjk5OTQ5IDMuOTMwMSAzLjk5OTQ5QzQuMDA0MTIgMy4yNzA0NSA0LjI2Njg1IDIuNzIzNjggNC43MTgzNCAyLjM1OTE3IDUuMTY5ODMgMS45OTQ2NiA1Ljc5OTg2IDEuODEyNCA2LjYwODQ1IDEuODEyNCA3LjI2MTYxIDEuODEyNCA3LjkzMDUgMS45MDk1NCA4LjYxNTEzIDIuMTAzODIgOS4zMDE1OSAyLjI5ODExIDEwLjAwNjYgMi41OTEzOSAxMC43MzAxIDIuOTgzNjZMMTAuNzMwMSAwLjU5MTE4QzkuOTk1NDcgMC4zMTM2MzEgOS4yNjA5MSAwLjEwMzYxOCA4LjUyNjMyLTAuMDM4ODU2OSA3Ljc5MTczLTAuMTgxMzMyIDcuMDU3MTYtMC4yNTI1NyA2LjMyMjU3LTAuMjUyNTcgNC41NjQ3Ny0wLjI1MjU3IDMuMTk4MjggMC4xOTQyODUgMi4yMjMxNyAxLjA4Nzk5IDEuMjQ5OSAxLjk4MTcgMC43NjMyNjEgMy4yMzUzMSAwLjc2MzI2MSA0Ljg0ODc5IDAuNzYzMjYxIDYuNDMyNjggMS4yNDE1NyA3LjY3NzkzIDIuMTk4MTkgOC41ODQ2IDMuMTU0ODIgOS40OTMxIDQuNDcyMjQgOS45NDczNyA2LjE1MDQ5IDkuOTQ3MzcgNy42NzcwMSA5Ljk0NzM3IDguODk4MjMgOS40ODc1NSA5LjgxNDE0IDguNTY3OTUgMTAuNzMwMSA3LjY1MDE4IDExLjE4OCA2LjQyMTU4IDExLjE4OCA0Ljg4MjA5Wk03Ljk5NjIgNS45MTQ1OEM3Ljk5NjIgNi41MDQ4NCA3LjgyNDEyIDYuOTgwMzcgNy40Nzk5NSA3LjM0MTE4IDcuMTM1NzkgNy43MDM4NSA2LjY4NjE2IDcuODg1MTggNi4xMzEwNiA3Ljg4NTE4IDUuNTI5NyA3Ljg4NTE4IDUuMDQxMjEgNy43MTU4NyA0LjY2NTYgNy4zNzcyNiA0LjI5IDcuMDM4NjUgNC4wNTU5MSA2LjU1MTA4IDMuOTYzNCA1LjkxNDU4TDcuOTk2MiA1LjkxNDU4WiIvPjxwYXRoIHRyYW5zZm9ybT0ibWF0cml4KDYuMTI1MzZlLTE3IC0xIC0xLjAwMDM1IC02LjEyMzIyZS0xNyA4NjIuNjc2IDI5NS40NjMpIiBkPSJNNi42OTcyNy0yLjM0MjUyIDQuMTE4ODMtMi4zNDI1MkMzLjIzNDM3LTAuOTE0MDYyIDIuNTgxMjEgMC40NDMxNTUgMi4xNTkzMyAxLjcyOTEzIDEuNzM3NDYgMy4wMTY5NiAxLjUyNjUyIDQuMjkzNjkgMS41MjY1MiA1LjU1OTMxIDEuNTI2NTIgNi44MjY4IDEuNzM4MzggOC4xMDkwOCAyLjE2MjExIDkuNDA2MTUgMi41ODc2OCAxMC43MDUxIDMuMjM5OTIgMTIuMDYyMyA0LjExODgzIDEzLjQ3NzhMNi42OTcyNyAxMy40Nzc4QzUuOTU3MTIgMTIuMTA4NiA1LjQwMjAzIDEwLjc2ODkgNS4wMzE5NyA5LjQ1ODg4IDQuNjYxOTEgOC4xNDg4NSA0LjQ3Njg3IDYuODU0NTUgNC40NzY4NyA1LjU3NTk3IDQuNDc2ODcgNC4yOTkyNCA0LjY2MDA1IDMuMDA0IDUuMDI2NDIgMS42OTAyOCA1LjM5Mjc4IDAuMzc4MzkxIDUuOTQ5NzQtMC45NjU4NzIgNi42OTcyNy0yLjM0MjUyWiIvPjxwYXRoIHRyYW5zZm9ybT0ibWF0cml4KDYuMTI1MzZlLTE3IC0xIC0xLjAwMDM1IC02LjEyMzIyZS0xNyA4NjIuNjc2IDI4Ny4zNDQpIiBkPSJNOS40ODk0MSAyLjM1OTE3IDQuMjY4NzEgMi4zNTkxNyAzLjQ0NDM5IDAgMC4wODYwNDAzIDAgNC44ODIwOSAxMi45NTA1IDguODY0OTMgMTIuOTUwNSAxMy42NjEgMCAxMC4zMDU0IDAgOS40ODk0MSAyLjM1OTE3Wk01LjEwMTM2IDQuNzYyNzUgOC42NDg0NCA0Ljc2Mjc1IDYuODc3NjcgOS45MTQwNiA1LjEwMTM2IDQuNzYyNzVaIi8+PHBhdGggdHJhbnNmb3JtPSJtYXRyaXgoNi4xMjUzNmUtMTcgLTEgLTEuMDAwMzUgLTYuMTIzMjJlLTE3IDg2Mi42NzYgMjczLjU5NykiIGQ9Ik0xMC42NDEyIDEyLjU0MjUgMTAuNjQxMiA5LjgwMDI3QzkuOTMwNzEgMTAuMTE4NSA5LjIzNjg0IDEwLjM1ODEgOC41NTk2MiAxMC41MTkxIDcuODg0MjYgMTAuNjgyIDcuMjQ1OSAxMC43NjM0IDYuNjQ0NTMgMTAuNzYzNCA1Ljg0NzA1IDEwLjc2MzQgNS4yNTY3OCAxMC42NTMzIDQuODczNzcgMTAuNDMzMSA0LjQ5MjYxIDEwLjIxNDcgNC4zMDIwMSA5Ljg3NDI5IDQuMzAyMDEgOS40MTE3IDQuMzAyMDEgOS4wNjM4NCA0LjQzMDYgOC43OTI3NiA0LjY4NzgxIDguNTk4NDggNC45NDUwMSA4LjQwNjA1IDUuNDEyMjEgOC4yNDA0NCA2LjA4OTQzIDguMTAxNjZMNy41MTA0OCA3LjgxNTc5QzguOTUwMDUgNy41MjUyOCA5Ljk3MzI2IDcuMDg0OTIgMTAuNTgwMiA2LjQ5NDY1IDExLjE4ODkgNS45MDYyNSAxMS40OTMzIDUuMDY4MDUgMTEuNDkzMyAzLjk4MDA2IDExLjQ5MzMgMi41NTM0NSAxMS4wNjk2IDEuNDkxMzYgMTAuMjIyMSAwLjc5Mzc5MSA5LjM3NDcgMC4wOTYyMTcyIDguMDgwMzgtMC4yNTI1NyA2LjMzOTIzLTAuMjUyNTcgNS41MTk1NC0wLjI1MjU3IDQuNjk2MTMtMC4xNzM5MzEgMy44NjkwNC0wLjAxNjY1MyAzLjA0MTk0IDAuMTM4Nzc1IDIuMjE0ODQgMC4zNzAwNjUgMS4zODc3NSAwLjY3NzIyTDEuMzg3NzUgMy40OTQzNUMyLjIxNDg0IDMuMDU1ODIgMy4wMTQxOSAyLjcyNDYxIDMuNzg1NzcgMi41MDA3MiA0LjU1NzM2IDIuMjc4NjggNS4zMDIxMSAyLjE2NzY2IDYuMDIwMDQgMi4xNjc2NiA2Ljc0OTA4IDIuMTY3NjYgNy4zMDY5NiAyLjI4ODg2IDcuNjkzNjcgMi41MzEyNSA4LjA4MDM4IDIuNzc1NDkgOC4yNzM3NSAzLjEyMzM1IDguMjczNzUgMy41NzQ4NCA4LjI3Mzc1IDMuOTc4MiA4LjE0MjM4IDQuMjkgNy44Nzk2MyA0LjUxMDE4IDcuNjE2ODcgNC43MzAzNiA3LjA5MjMgNC45Mjc0MiA2LjMwNTkyIDUuMTAxMzZMNS4wMTI1NCA1LjM4NzIzQzMuNzE3MyA1LjY2NDc4IDIuNzY5OTQgNi4xMDcgMi4xNzA0NCA2LjcxMzkyIDEuNTcyNzggNy4zMjA4NCAxLjI3Mzk1IDguMTM4NjYgMS4yNzM5NSA5LjE2NzQ1IDEuMjczOTUgMTAuNDU3MSAxLjY5MDI4IDExLjQ0ODkgMi41MjI5MiAxMi4xNDI4IDMuMzU1NTcgMTIuODM2NyA0LjU1MjcyIDEzLjE4MzYgNi4xMTQ0MSAxMy4xODM2IDYuODI2OCAxMy4xODM2IDcuNTU4NTggMTMuMTI5OSA4LjMwOTgzIDEzLjAyMjYgOS4wNjEwNyAxMi45MTUzIDkuODM4MjEgMTIuNzU1MyAxMC42NDEyIDEyLjU0MjVaIi8+PHBhdGggdHJhbnNmb3JtPSJtYXRyaXgoNi4xMjUzNmUtMTcgLTEgLTEuMDAwMzUgLTYuMTIzMjJlLTE3IDg2Mi42NzYgMjYwLjgwNCkiIGQ9Ik02LjM3NTMxIDcuMjA3OTZDNy4wNzQ3MyA3LjIwNzk2IDcuNTc2MTggNy4zMzc0OSA3Ljg3OTYzIDcuNTk2NTMgOC4xODMwNyA3Ljg1NzQyIDguMzM0ODEgOC4yODU3NiA4LjMzNDgxIDguODgxNTggOC4zMzQ4MSA5LjQ3MTg0IDguMTgzMDcgOS44OTM3MiA3Ljg3OTYzIDEwLjE0NzIgNy41NzYxOCAxMC40MDI1IDcuMDc0NzMgMTAuNTMwMiA2LjM3NTMxIDEwLjUzMDJMNC45NzA5MSAxMC41MzAyIDQuOTcwOTEgNy4yMDc5NiA2LjM3NTMxIDcuMjA3OTZaTTQuOTcwOTEgNC45MDE1MiA0Ljk3MDkxIDAgMS42MzE5OSAwIDEuNjMxOTkgMTIuOTUwNSA2LjczMDU3IDEyLjk1MDVDOC40MzY1OCAxMi45NTA1IDkuNjg2NDcgMTIuNjYzNyAxMC40ODAzIDEyLjA5IDExLjI3NTkgMTEuNTE4MyAxMS42NzM3IDEwLjYxMzUgMTEuNjczNyA5LjM3NTYyIDExLjY3MzcgOC41MjA3NiAxMS40NjY1IDcuODE4NTYgMTEuMDUyIDcuMjY5MDIgMTAuNjM5NCA2LjcxOTQ3IDEwLjAxNjggNi4zMTQyNSA5LjE4NDExIDYuMDUzMzUgOS42NDExNSA1Ljk0OTc0IDEwLjA1MDEgNS43MTM4MiAxMC40MTA5IDUuMzQ1NiAxMC43NzM1IDQuOTc5MjQgMTEuMTM5OSA0LjQyMzIyIDExLjUxIDMuNjc3NTNMMTMuMzIyNCAwIDkuNzY2OTYgMCA4LjE4NzcxIDMuMjE2OEM3Ljg2OTQ0IDMuODY0NCA3LjU0NjU3IDQuMzA2NjUgNy4yMTkwNiA0LjU0MzQ4IDYuODkzNDEgNC43ODIxOCA2LjQ1ODU3IDQuOTAxNTIgNS45MTQ1OCA0LjkwMTUyTDQuOTcwOTEgNC45MDE1MloiLz48cGF0aCB0cmFuc2Zvcm09Im1hdHJpeCg2LjEyNTM2ZS0xNyAtMSAtMS4wMDAzNSAtNi4xMjMyMmUtMTcgODYyLjY3NiAyNDcuMTI2KSIgZD0iTTEuNDIzODMtMi4zNDI1MkMyLjE2Mzk2LTAuOTY1ODcyIDIuNzE5MDYgMC4zNzgzOTEgMy4wODkxMiAxLjY5MDI4IDMuNDU5MTggMy4wMDQgMy42NDQyMiA0LjI5OTI0IDMuNjQ0MjIgNS41NzU5NyAzLjY0NDIyIDYuODU0NTUgMy40NTkxOCA4LjE0ODg1IDMuMDg5MTIgOS40NTg4OCAyLjcxOTA2IDEwLjc2ODkgMi4xNjM5NiAxMi4xMDg2IDEuNDIzODMgMTMuNDc3OEwzLjk5OTQ5IDEzLjQ3NzhDNC44Nzg0IDEyLjA2MjMgNS41Mjk3IDEwLjcwNTEgNS45NTM0MyA5LjQwNjE1IDYuMzc5IDguMTA5MDggNi41OTE4IDYuODI2OCA2LjU5MTggNS41NTkzMSA2LjU5MTggNC4yOTM2OSA2LjM4MDg2IDMuMDE2OTYgNS45NTg5OCAxLjcyOTEzIDUuNTM3MTEgMC40NDMxNTUgNC44ODM5NS0wLjkxNDA2MiAzLjk5OTQ5LTIuMzQyNTJMMS40MjM4My0yLjM0MjUyWiIvPjxwYXRoIHRyYW5zZm9ybT0ibWF0cml4KDYuMTI1MzZlLTE3IC0xIC0xLjAwMDM1IC02LjEyMzIyZS0xNyA4NjIuNjc2IDIzMi44MjMpIiBkPSJNMTMuNzYzNyA1LjM0MjgyQzEzLjM1NDggNS4zNDI4MiAxMy4wMzc0IDUuMTY1MTkgMTIuODExNyA0LjgwOTkzIDEyLjU4NTkgNC40NTQ2NyAxMi40NzMxIDMuOTQ2NzUgMTIuNDczMSAzLjI4NjE4IDEyLjQ3MzEgMi42MjE5MiAxMi41ODQxIDIuMTEyMTUgMTIuODA2MSAxLjc1Njg5IDEzLjAyODIgMS40MDE2MiAxMy4zNDczIDEuMjIzOTkgMTMuNzYzNyAxLjIyMzk5IDE0LjE4IDEuMjIzOTkgMTQuNDk4MyAxLjQwMTYyIDE0LjcxODQgMS43NTY4OSAxNC45Mzg2IDIuMTEyMTUgMTUuMDQ4NyAyLjYyMTkyIDE1LjA0ODcgMy4yODYxOCAxNS4wNDg3IDMuOTQ2NzUgMTQuOTM2OCA0LjQ1NDY3IDE0LjcxMjkgNC44MDk5MyAxNC40OTA5IDUuMTY1MTkgMTQuMTc0NCA1LjM0MjgyIDEzLjc2MzcgNS4zNDI4MlpNMTMuNzYzNyA2Ljc5OTk2QzE0Ljg0MDYgNi43OTk5NiAxNS42ODggNi40ODcyNCAxNi4zMDYgNS44NjE4NCAxNi45MjQgNS4yMzgyNyAxNy4yMzMgNC4zNzk3MyAxNy4yMzMgMy4yODYxOCAxNy4yMzMgMi4xOTQ0OSAxNi45MjQgMS4zMzEzMSAxNi4zMDYgMC42OTY2NDkgMTUuNjg4IDAuMDYzODM2MyAxNC44NDA2LTAuMjUyNTcgMTMuNzYzNy0wLjI1MjU3IDEyLjY4ODYtMC4yNTI1NyAxMS44NDAzIDAuMDYzODM2MyAxMS4yMTg1IDAuNjk2NjQ5IDEwLjU5NjggMS4zMzEzMSAxMC4yODYgMi4xOTQ0OSAxMC4yODYgMy4yODYxOCAxMC4yODYgNC4zNzQxOCAxMC41OTY4IDUuMjMxOCAxMS4yMTg1IDUuODU5MDcgMTEuODQwMyA2LjQ4NjMzIDEyLjY4ODYgNi43OTk5NiAxMy43NjM3IDYuNzk5OTZaTTUuODExODgtMC4yNTI1NyAzLjg5NDAyLTAuMjUyNTcgMTEuOTg3NCAxMy4xODM2IDEzLjkxMzUgMTMuMTgzNiA1LjgxMTg4LTAuMjUyNTdaTTQuMDMyNzkgMTMuMTgzNkM1LjEwNzgyIDEzLjE4MzYgNS45NTM0MyAxMi44NyA2LjU2OTU5IDEyLjI0MjcgNy4xODU3NSAxMS42MTU0IDcuNDkzODMgMTAuNzU1IDcuNDkzODMgOS42NjE0OSA3LjQ5MzgzIDguNTY5ODEgNy4xODU3NSA3LjcwODQ2IDYuNTY5NTkgNy4wNzc1MSA1Ljk1MzQzIDYuNDQ2NTUgNS4xMDc4MiA2LjEzMTA2IDQuMDMyNzkgNi4xMzEwNiAyLjk1Nzc2IDYuMTMxMDYgMi4xMTIxNSA2LjQ0NjU1IDEuNDk1OTkgNy4wNzc1MSAwLjg3OTgzMSA3LjcwODQ2IDAuNTcxNzUyIDguNTY5ODEgMC41NzE3NTIgOS42NjE0OSAwLjU3MTc1MiAxMC43NTUgMC44Nzk4MzEgMTEuNjE1NCAxLjQ5NTk5IDEyLjI0MjcgMi4xMTIxNSAxMi44NyAyLjk1Nzc2IDEzLjE4MzYgNC4wMzI3OSAxMy4xODM2Wk00LjAzMjc5IDExLjcyNjVDMy42MTY0NyAxMS43MjY1IDMuMjk1NDMgMTEuNTQ3IDMuMDY5NyAxMS4xODggMi44NDM5NiAxMC44MzA5IDIuNzMxMDkgMTAuMzIyMSAyLjczMTA5IDkuNjYxNDkgMi43MzEwOSA4Ljk5NzIzIDIuODQzOTYgOC40ODM3NyAzLjA2OTcgOC4xMjEwOSAzLjI5NTQzIDcuNzYwMjggMy42MTY0NyA3LjU3OTg3IDQuMDMyNzkgNy41Nzk4NyA0LjQ0OTEyIDcuNTc5ODcgNC43NjgzIDcuNzYwMjggNC45OTAzNCA4LjEyMTA5IDUuMjE0MjQgOC40ODM3NyA1LjMyNjE3IDguOTk3MjMgNS4zMjYxNyA5LjY2MTQ5IDUuMzI2MTcgMTAuMzIyMSA1LjIxMzI5IDEwLjgzMDkgNC45ODc1NiAxMS4xODggNC43NjE4MyAxMS41NDcgNC40NDM1NiAxMS43MjY1IDQuMDMyNzkgMTEuNzI2NVoiLz48cGF0aCB0cmFuc2Zvcm09Im1hdHJpeCgxLjAwMDM1IDAgMCAxIDQxLjA1ODQgMCkiIGZpbGw9Im5vbmUiIHN0cm9rZS1saW5lY2FwPSJzcXVhcmUiIHN0cm9rZS13aWR0aD0iMC43ODk0NzQiIHN0cm9rZT0iIzAwMDAwMCIgZD0iTTc2Ni45ODkgNjEyIDc3NS43MDUgNjEyIDc4NC40MjEgNjEyIDc4NC40MjEgMTA4IDc3NS43MDUgMTA4IDc2Ni45ODkgMTA4IDc2Ni45ODkgNjEyWiIvPjwvZz48L2c+PC9nPjwvZz48L3N2Zz4=;" vertex="1" parent="CWH9IZx8YpNh54ZALPy3-3">
          <mxGeometry width="906" height="721" as="geometry" />
        </mxCell>
        <mxCell id="CWH9IZx8YpNh54ZALPy3-2" value="" style="shape=image;verticalLabelPosition=bottom;labelBackgroundColor=default;verticalAlign=top;aspect=fixed;imageAspect=0;editableCssRules=.*;image=data:image/svg+xml,PHN2ZyB4bWxuczp4bGluaz0iaHR0cDovL3d3dy53My5vcmcvMTk5OS94bGluayIgeG1sbnM9Imh0dHA6Ly93d3cudzMub3JnLzIwMDAvc3ZnIiBzdHlsZT0iY29sb3I6IHJnYigwLCAwLCAwKTsgZm9udC1zaXplOiBtZWRpdW07IGZvbnQtc3R5bGU6IG5vcm1hbDsgZm9udC12YXJpYW50LWxpZ2F0dXJlczogbm9ybWFsOyBmb250LXZhcmlhbnQtY2Fwczogbm9ybWFsOyBmb250LXdlaWdodDogNDAwOyBsZXR0ZXItc3BhY2luZzogbm9ybWFsOyBvcnBoYW5zOiAyOyB0ZXh0LWFsaWduOiBzdGFydDsgdGV4dC1pbmRlbnQ6IDBweDsgdGV4dC10cmFuc2Zvcm06IG5vbmU7IHdpZG93czogMjsgd29yZC1zcGFjaW5nOiAwcHg7IC13ZWJraXQtdGV4dC1zdHJva2Utd2lkdGg6IDBweDsgd2hpdGUtc3BhY2U6IG5vcm1hbDsgdGV4dC1kZWNvcmF0aW9uLXRoaWNrbmVzczogaW5pdGlhbDsgdGV4dC1kZWNvcmF0aW9uLXN0eWxlOiBpbml0aWFsOyB0ZXh0LWRlY29yYXRpb24tY29sb3I6IGluaXRpYWw7IiBvdmVyZmxvdz0iaGlkZGVuIiBzdHJva2UtbGluZWpvaW49InJvdW5kIiB2aWV3Qm94PSItMC42MjUgLTAuNjI1IDcyMS4yNSA1NzcuMjUiIGhlaWdodD0iNzY5LjY2NjY2NjY2NjY2NjYiIHdpZHRoPSI5NjEuNjY2NjY2NjY2NjY2NiI+PGRlZnMvPjxkZWZzPjxjbGlwUGF0aCBpZD0icDNiMDRmYjA5ZWIiPjxyZWN0IGhlaWdodD0iNDU0LjI5MiIgd2lkdGg9IjYzMS41MzkiIHk9IjE5LjQ0IiB4PSI2My4wOSIvPjwvY2xpcFBhdGg+PC9kZWZzPjxnIGlkPSJmaWd1cmVfMSI+PGcgaWQ9InBhdGNoXzEiPjxwYXRoIGZpbGw9IiNGRkZGRkYiIGQ9Ik0wIDU3NiA3MjAgNTc2IDcyMCAwIDAgMFoiLz48L2c+PGcgaWQ9ImF4ZXNfMSI+PGcgaWQ9InBhdGNoXzIiPjxwYXRoIGZpbGw9IiNGRkZGRkYiIGQ9Ik02My4wOSA0NzMuNzMyIDY5NC42MjkgNDczLjczMiA2OTQuNjI5IDE5LjQ0IDYzLjA5IDE5LjQ0WiIvPjwvZz48ZyBpZD0ibWF0cGxvdGxpYi5heGlzXzEiPjxnIGlkPSJ4dGlja18xIj48ZyBpZD0ibGluZTJkXzEiPjxkZWZzPjxwYXRoIHN0cm9rZS13aWR0aD0iMS4yNSIgc3Ryb2tlPSIjMjYyNjI2IiBpZD0ibTBiNjIyODBkMWMiIGQ9Ik0wIDAgMCA2Ii8+PC9kZWZzPjxnPjx1c2UgZmlsbD0iIzI2MjYyNiIgc3Ryb2tlLXdpZHRoPSIxLjI1IiBzdHJva2U9IiMyNjI2MjYiIHhsaW5rOmhyZWY9IiNtMGI2MjI4MGQxYyIgaGVpZ2h0PSIxMDAlIiB3aWR0aD0iMTAwJSIgeT0iNDczLjczMiIgeD0iMTAxLjY5NSIvPjwvZz48L2c+PGcgaWQ9InRleHRfMSI+PGcgdHJhbnNmb3JtPSJtYXRyaXgoMC4xMjcyNzkgMC4xMjcyNzkgMC4xMjcyNzkgLTAuMTI3Mjc5IDEwNC4yMjUgNDkyLjM0MikiIGZpbGw9IiMyNjI2MjYiPjxkZWZzPjxwYXRoIHRyYW5zZm9ybT0ic2NhbGUoMC4wMTU2MjUgMC4wMTU2MjUpIiBpZD0iQXJpYWxNVC01OSIgZD0iTTE3ODQgMCAxNzg0IDE5NDEgMTkgNDU4MSA3NTYgNDU4MSAxNjU5IDMyMDBDMTgyNS42NyAyOTQyIDE5ODEgMjY4My42NyAyMTI1IDI0MjUgMjI2Mi4zMyAyNjY0LjMzIDI0MjkgMjkzNCAyNjI1IDMyMzRMMzUxMyA0NTgxIDQyMTkgNDU4MSAyMzkxIDE5NDEgMjM5MSAwIDE3ODQgMFoiLz48cGF0aCB0cmFuc2Zvcm09InNjYWxlKDAuMDE1NjI1IDAuMDE1NjI1KSIgaWQ9IkFyaWFsTVQtNDUiIGQ9Ik01MDYgMCA1MDYgNDU4MSAzODE5IDQ1ODEgMzgxOSA0MDQxIDExMTMgNDA0MSAxMTEzIDI2MzggMzY0NyAyNjM4IDM2NDcgMjEwMCAxMTEzIDIxMDAgMTExMyA1NDEgMzkyNSA1NDEgMzkyNSAwIDUwNiAwWiIvPjxwYXRoIHRyYW5zZm9ybT0ic2NhbGUoMC4wMTU2MjUgMC4wMTU2MjUpIiBpZD0iQXJpYWxNVC00MSIgZD0iTS05IDAgMTc1MCA0NTgxIDI0MDMgNDU4MSA0Mjc4IDAgMzU4OCAwIDMwNTMgMTM4OCAxMTM4IDEzODggNjM0IDAtOSAwWk0xMzEzIDE4ODEgMjg2NiAxODgxIDIzODggMzE1MEMyMjQyIDM1MzUuMzMgMjEzMy42NyAzODUyIDIwNjMgNDEwMCAyMDA0LjMzIDM4MDYgMTkyMiAzNTE0LjMzIDE4MTYgMzIyNUwxMzEzIDE4ODFaIi8+PHBhdGggdHJhbnNmb3JtPSJzY2FsZSgwLjAxNTYyNSAwLjAxNTYyNSkiIGlkPSJBcmlhbE1ULTUyIiBkPSJNNTAzIDAgNTAzIDQ1ODEgMjUzNCA0NTgxQzI5NDIuNjcgNDU4MSAzMjUzIDQ1MzkuNjcgMzQ2NSA0NDU3IDM2NzcuNjcgNDM3NSAzODQ3LjY3IDQyMjkuNjcgMzk3NSA0MDIxIDQxMDIuMzMgMzgxMyA0MTY2IDM1ODMgNDE2NiAzMzMxIDQxNjYgMzAwNi4zMyA0MDYwLjY3IDI3MzIuMzMgMzg1MCAyNTA5IDM2MzkuMzMgMjI4Ni4zMyAzMzE0LjMzIDIxNDQuNjcgMjg3NSAyMDg0IDMwMzUuNjcgMjAwNy4zMyAzMTU3LjY3IDE5MzEuMzMgMzI0MSAxODU2IDM0MTcuNjcgMTY5NCAzNTg1LjMzIDE0OTEgMzc0NCAxMjQ3TDQ1NDEgMCAzNzc4IDAgMzE3MiA5NTNDMjk5NC42NyAxMjI4LjMzIDI4NDguNjcgMTQzOC42NyAyNzM0IDE1ODQgMjYyMCAxNzMwIDI1MTcuNjcgMTgzMiAyNDI3IDE4OTAgMjMzNi4zMyAxOTQ4LjY3IDIyNDQgMTk4OS42NyAyMTUwIDIwMTMgMjA4MS4zMyAyMDI3IDE5NjkgMjAzNCAxODEzIDIwMzRMMTEwOSAyMDM0IDExMDkgMCA1MDMgMFpNMTEwOSAyNTU5IDI0MTMgMjU1OUMyNjg5LjY3IDI1NTkgMjkwNiAyNTg3LjY3IDMwNjIgMjY0NSAzMjE4LjY3IDI3MDIuMzMgMzMzNy42NyAyNzk0IDM0MTkgMjkyMCAzNTAwLjMzIDMwNDYgMzU0MSAzMTgzIDM1NDEgMzMzMSAzNTQxIDM1NDcuNjcgMzQ2Mi4zMyAzNzI1LjY3IDMzMDUgMzg2NSAzMTQ3LjY3IDQwMDUgMjg5OSA0MDc1IDI1NTkgNDA3NUwxMTA5IDQwNzUgMTEwOSAyNTU5WiIvPjwvZGVmcz48dXNlIHhsaW5rOmhyZWY9IiNBcmlhbE1ULTU5IiBoZWlnaHQ9IjEwMCUiIHdpZHRoPSIxMDAlIi8+PHVzZSB0cmFuc2Zvcm09InRyYW5zbGF0ZSg2Ni42OTkyIDApIiB4bGluazpocmVmPSIjQXJpYWxNVC00NSIgaGVpZ2h0PSIxMDAlIiB3aWR0aD0iMTAwJSIvPjx1c2UgdHJhbnNmb3JtPSJ0cmFuc2xhdGUoMTMzLjM5OCAwKSIgeGxpbms6aHJlZj0iI0FyaWFsTVQtNDEiIGhlaWdodD0iMTAwJSIgd2lkdGg9IjEwMCUiLz48dXNlIHRyYW5zZm9ybT0idHJhbnNsYXRlKDIwMC4wOTggMCkiIHhsaW5rOmhyZWY9IiNBcmlhbE1ULTUyIiBoZWlnaHQ9IjEwMCUiIHdpZHRoPSIxMDAlIi8+PC9nPjwvZz48L2c+PGcgaWQ9Inh0aWNrXzIiPjxnIGlkPSJsaW5lMmRfMiI+PGc+PHVzZSBmaWxsPSIjMjYyNjI2IiBzdHJva2Utd2lkdGg9IjEuMjUiIHN0cm9rZT0iIzI2MjYyNiIgeGxpbms6aHJlZj0iI20wYjYyMjgwZDFjIiBoZWlnaHQ9IjEwMCUiIHdpZHRoPSIxMDAlIiB5PSI0NzMuNzMyIiB4PSIxNDEuMjkiLz48L2c+PC9nPjxnIGlkPSJ0ZXh0XzIiPjxnIHRyYW5zZm9ybT0ibWF0cml4KDAuMTI3Mjc5IDAuMTI3Mjc5IDAuMTI3Mjc5IC0wLjEyNzI3OSAxNDMuODIgNDkyLjM0MikiIGZpbGw9IiMyNjI2MjYiPjxkZWZzPjxwYXRoIHRyYW5zZm9ybT0ic2NhbGUoMC4wMTU2MjUgMC4wMTU2MjUpIiBpZD0iQXJpYWxNVC00YyIgZD0iTTQ2OSAwIDQ2OSA0NTgxIDEwNzUgNDU4MSAxMDc1IDU0MSAzMzMxIDU0MSAzMzMxIDAgNDY5IDBaIi8+PHBhdGggdHJhbnNmb3JtPSJzY2FsZSgwLjAxNTYyNSAwLjAxNTYyNSkiIGlkPSJBcmlhbE1ULTRmIiBkPSJNMzA5IDIyMzFDMzA5IDI5OTEuNjcgNTEzIDM1ODcgOTIxIDQwMTcgMTMyOS42NyA0NDQ3LjY3IDE4NTcgNDY2MyAyNTAzIDQ2NjMgMjkyNi4zMyA0NjYzIDMzMDcuNjcgNDU2MS42NyAzNjQ3IDQzNTkgMzk4Ni4zMyA0MTU3IDQyNDUgMzg3NS4zMyA0NDIzIDM1MTQgNDYwMS42NyAzMTUyLjY3IDQ2OTEgMjc0Mi42NyA0NjkxIDIyODQgNDY5MSAxODIwIDQ1OTcgMTQwNC42NyA0NDA5IDEwMzggNDIyMS42NyA2NzEuMzMzIDM5NTYgMzkzLjY2NyAzNjEyIDIwNSAzMjY4LjY3IDE2LjMzMzMgMjg5OC03OCAyNTAwLTc4IDIwNjguNjctNzggMTY4MyAyNiAxMzQzIDIzNCAxMDAzLjY3IDQ0Mi42NjcgNzQ2LjMzMyA3MjcgNTcxIDEwODcgMzk2LjMzMyAxNDQ3LjY3IDMwOSAxODI5IDMwOSAyMjMxWk05MzQgMjIyMkM5MzQgMTY3MCAxMDgyLjMzIDEyMzUgMTM3OSA5MTcgMTY3Ni4zMyA1OTkuNjY3IDIwNDkgNDQxIDI0OTcgNDQxIDI5NTMgNDQxIDMzMjguMzMgNjAxLjMzMyAzNjIzIDkyMiAzOTE4LjMzIDEyNDIuNjcgNDA2NiAxNjk4IDQwNjYgMjI4OCA0MDY2IDI2NjAuNjcgNDAwMyAyOTg2IDM4NzcgMzI2NCAzNzUxIDM1NDIgMzU2Ni4zMyAzNzU3LjY3IDMzMjMgMzkxMSAzMDgwLjMzIDQwNjQuMzMgMjgwOCA0MTQxIDI1MDYgNDE0MSAyMDc3LjMzIDQxNDEgMTcwOCAzOTkzLjMzIDEzOTggMzY5OCAxMDg4LjY3IDM0MDMuMzMgOTM0IDI5MTEuMzMgOTM0IDIyMjJaIi8+PHBhdGggdHJhbnNmb3JtPSJzY2FsZSgwLjAxNTYyNSAwLjAxNTYyNSkiIGlkPSJBcmlhbE1ULTRiIiBkPSJNNDY5IDAgNDY5IDQ1ODEgMTA3NSA0NTgxIDEwNzUgMjMwOSAzMzUwIDQ1ODEgNDE3MiA0NTgxIDIyNTAgMjcyNSA0MjU2IDAgMzQ1NiAwIDE4MjUgMjMxOSAxMDc1IDE1ODggMTA3NSAwIDQ2OSAwWiIvPjwvZGVmcz48dXNlIHhsaW5rOmhyZWY9IiNBcmlhbE1ULTRjIiBoZWlnaHQ9IjEwMCUiIHdpZHRoPSIxMDAlIi8+PHVzZSB0cmFuc2Zvcm09InRyYW5zbGF0ZSg1NS42MTUyIDApIiB4bGluazpocmVmPSIjQXJpYWxNVC00ZiIgaGVpZ2h0PSIxMDAlIiB3aWR0aD0iMTAwJSIvPjx1c2UgdHJhbnNmb3JtPSJ0cmFuc2xhdGUoMTMzLjM5OCAwKSIgeGxpbms6aHJlZj0iI0FyaWFsTVQtNGYiIGhlaWdodD0iMTAwJSIgd2lkdGg9IjEwMCUiLz48dXNlIHRyYW5zZm9ybT0idHJhbnNsYXRlKDIxMS4xODIgMCkiIHhsaW5rOmhyZWY9IiNBcmlhbE1ULTRiIiBoZWlnaHQ9IjEwMCUiIHdpZHRoPSIxMDAlIi8+PC9nPjwvZz48L2c+PGcgaWQ9Inh0aWNrXzMiPjxnIGlkPSJsaW5lMmRfMyI+PGc+PHVzZSBmaWxsPSIjMjYyNjI2IiBzdHJva2Utd2lkdGg9IjEuMjUiIHN0cm9rZT0iIzI2MjYyNiIgeGxpbms6aHJlZj0iI20wYjYyMjgwZDFjIiBoZWlnaHQ9IjEwMCUiIHdpZHRoPSIxMDAlIiB5PSI0NzMuNzMyIiB4PSIxODAuODg1Ii8+PC9nPjwvZz48ZyBpZD0idGV4dF8zIj48ZyB0cmFuc2Zvcm09Im1hdHJpeCgwLjEyNzI3OSAwLjEyNzI3OSAwLjEyNzI3OSAtMC4xMjcyNzkgMTgzLjQxNSA0OTIuMzQyKSIgZmlsbD0iIzI2MjYyNiI+PGRlZnM+PHBhdGggdHJhbnNmb3JtPSJzY2FsZSgwLjAxNTYyNSAwLjAxNTYyNSkiIGlkPSJBcmlhbE1ULTQ4IiBkPSJNNTEzIDAgNTEzIDQ1ODEgMTExOSA0NTgxIDExMTkgMjcwMCAzNTAwIDI3MDAgMzUwMCA0NTgxIDQxMDYgNDU4MSA0MTA2IDAgMzUwMCAwIDM1MDAgMjE1OSAxMTE5IDIxNTkgMTExOSAwIDUxMyAwWiIvPjxwYXRoIHRyYW5zZm9ybT0ic2NhbGUoMC4wMTU2MjUgMC4wMTU2MjUpIiBpZD0iQXJpYWxNVC00ZCIgZD0iTTQ3NSAwIDQ3NSA0NTgxIDEzODggNDU4MSAyNDcyIDEzMzhDMjU3MiAxMDM1LjMzIDI2NDUgODA5IDI2OTEgNjU5IDI3NDMgODI1LjY2NyAyODI0IDEwNzAuNjcgMjkzNCAxMzk0TDQwMzEgNDU4MSA0ODQ3IDQ1ODEgNDg0NyAwIDQyNjMgMCA0MjYzIDM4MzQgMjkzMSAwIDIzODQgMCAxMDU5IDM5MDAgMTA1OSAwIDQ3NSAwWiIvPjwvZGVmcz48dXNlIHhsaW5rOmhyZWY9IiNBcmlhbE1ULTQ4IiBoZWlnaHQ9IjEwMCUiIHdpZHRoPSIxMDAlIi8+PHVzZSB0cmFuc2Zvcm09InRyYW5zbGF0ZSg3Mi4yMTY4IDApIiB4bGluazpocmVmPSIjQXJpYWxNVC00ZiIgaGVpZ2h0PSIxMDAlIiB3aWR0aD0iMTAwJSIvPjx1c2UgdHJhbnNmb3JtPSJ0cmFuc2xhdGUoMTUwIDApIiB4bGluazpocmVmPSIjQXJpYWxNVC00ZCIgaGVpZ2h0PSIxMDAlIiB3aWR0aD0iMTAwJSIvPjx1c2UgdHJhbnNmb3JtPSJ0cmFuc2xhdGUoMjMzLjMwMSAwKSIgeGxpbms6aHJlZj0iI0FyaWFsTVQtNDUiIGhlaWdodD0iMTAwJSIgd2lkdGg9IjEwMCUiLz48L2c+PC9nPjwvZz48ZyBpZD0ieHRpY2tfNCI+PGcgaWQ9ImxpbmUyZF80Ij48Zz48dXNlIGZpbGw9IiMyNjI2MjYiIHN0cm9rZS13aWR0aD0iMS4yNSIgc3Ryb2tlPSIjMjYyNjI2IiB4bGluazpocmVmPSIjbTBiNjIyODBkMWMiIGhlaWdodD0iMTAwJSIgd2lkdGg9IjEwMCUiIHk9IjQ3My43MzIiIHg9IjIyMC40OCIvPjwvZz48L2c+PGcgaWQ9InRleHRfNCI+PGcgdHJhbnNmb3JtPSJtYXRyaXgoMC4xMjcyNzkgMC4xMjcyNzkgMC4xMjcyNzkgLTAuMTI3Mjc5IDIyMy4wMSA0OTIuMzQyKSIgZmlsbD0iIzI2MjYyNiI+PGRlZnM+PHBhdGggdHJhbnNmb3JtPSJzY2FsZSgwLjAxNTYyNSAwLjAxNTYyNSkiIGlkPSJBcmlhbE1ULTU3IiBkPSJNMTI5NCAwIDc4IDQ1ODEgNzAwIDQ1ODEgMTM5NyAxNTc4QzE0NzEuNjcgMTI2My4zMyAxNTM2LjMzIDk1MSAxNTkxIDY0MSAxNzA3LjY3IDExMzAuMzMgMTc3Ni4zMyAxNDEyLjY3IDE3OTcgMTQ4OEwyNjY5IDQ1ODEgMzQwMCA0NTgxIDQwNTYgMjI2M0M0MjIwLjY3IDE2ODcuNjcgNDMzOS42NyAxMTQ3IDQ0MTMgNjQxIDQ0NzEgOTMwLjMzMyA0NTQ3IDEyNjIuNjcgNDY0MSAxNjM4TDUzNTkgNDU4MSA1OTY5IDQ1ODEgNDcxMyAwIDQxMjggMCAzMTYzIDM0OTFDMzA4MS42NyAzNzgyLjMzIDMwMzMuNjcgMzk2MS4zMyAzMDE5IDQwMjggMjk3MSAzODE4IDI5MjYgMzYzOSAyODg0IDM0OTFMMTkxMyAwIDEyOTQgMFoiLz48cGF0aCB0cmFuc2Zvcm09InNjYWxlKDAuMDE1NjI1IDAuMDE1NjI1KSIgaWQ9IkFyaWFsTVQtNDQiIGQ9Ik00OTQgMCA0OTQgNDU4MSAyMDcyIDQ1ODFDMjQyOCA0NTgxIDI3MDAgNDU1OS4zMyAyODg4IDQ1MTYgMzE1MCA0NDU1LjMzIDMzNzMuNjcgNDM0NiAzNTU5IDQxODggMzgwMSAzOTgzLjMzIDM5ODEuNjcgMzcyMiA0MTAxIDM0MDQgNDIyMSAzMDg2LjY3IDQyODEgMjcyNCA0MjgxIDIzMTYgNDI4MSAxOTY4IDQyNDAuMzMgMTY1OS42NyA0MTU5IDEzOTEgNDA3OC4zMyAxMTIyLjMzIDM5NzQuMzMgODk5LjY2NyAzODQ3IDcyMyAzNzE5LjY3IDU0NyAzNTgwLjMzIDQwOC4zMzMgMzQyOSAzMDcgMzI3OC4zMyAyMDYuMzMzIDMwOTYuMzMgMTMwIDI4ODMgNzggMjY2OS42NyAyNiAyNDI0LjMzIDAgMjE0NyAwTDQ5NCAwWk0xMTAwIDU0MSAyMDc4IDU0MUMyMzgwIDU0MSAyNjE3IDU2OSAyNzg5IDYyNSAyOTYxIDY4MSAzMDk4IDc2MC4zMzMgMzIwMCA4NjMgMzM0NCAxMDA2LjMzIDM0NTYgMTE5OS4zMyAzNTM2IDE0NDIgMzYxNiAxNjg0LjY3IDM2NTYgMTk3OSAzNjU2IDIzMjUgMzY1NiAyODA0LjMzIDM1NzcuMzMgMzE3Mi42NyAzNDIwIDM0MzAgMzI2Mi42NyAzNjg3LjMzIDMwNzEuNjcgMzg1OS42NyAyODQ3IDM5NDcgMjY4NC4zMyA0MDA5LjY3IDI0MjMgNDA0MSAyMDYzIDQwNDFMMTEwMCA0MDQxIDExMDAgNTQxWiIvPjwvZGVmcz48dXNlIHhsaW5rOmhyZWY9IiNBcmlhbE1ULTU3IiBoZWlnaHQ9IjEwMCUiIHdpZHRoPSIxMDAlIi8+PHVzZSB0cmFuc2Zvcm09InRyYW5zbGF0ZSg5NC4zODQ4IDApIiB4bGluazpocmVmPSIjQXJpYWxNVC00ZiIgaGVpZ2h0PSIxMDAlIiB3aWR0aD0iMTAwJSIvPjx1c2UgdHJhbnNmb3JtPSJ0cmFuc2xhdGUoMTcyLjE2OCAwKSIgeGxpbms6aHJlZj0iI0FyaWFsTVQtNTIiIGhlaWdodD0iMTAwJSIgd2lkdGg9IjEwMCUiLz48dXNlIHRyYW5zZm9ybT0idHJhbnNsYXRlKDI0NC4zODUgMCkiIHhsaW5rOmhyZWY9IiNBcmlhbE1ULTRjIiBoZWlnaHQ9IjEwMCUiIHdpZHRoPSIxMDAlIi8+PHVzZSB0cmFuc2Zvcm09InRyYW5zbGF0ZSgzMDAgMCkiIHhsaW5rOmhyZWY9IiNBcmlhbE1ULTQ0IiBoZWlnaHQ9IjEwMCUiIHdpZHRoPSIxMDAlIi8+PC9nPjwvZz48L2c+PGcgaWQ9Inh0aWNrXzUiPjxnIGlkPSJsaW5lMmRfNSI+PGc+PHVzZSBmaWxsPSIjMjYyNjI2IiBzdHJva2Utd2lkdGg9IjEuMjUiIHN0cm9rZT0iIzI2MjYyNiIgeGxpbms6aHJlZj0iI20wYjYyMjgwZDFjIiBoZWlnaHQ9IjEwMCUiIHdpZHRoPSIxMDAlIiB5PSI0NzMuNzMyIiB4PSIyNjAuMDc1Ii8+PC9nPjwvZz48ZyBpZD0idGV4dF81Ij48ZyB0cmFuc2Zvcm09Im1hdHJpeCgwLjEyNzI3OSAwLjEyNzI3OSAwLjEyNzI3OSAtMC4xMjcyNzkgMjYyLjYwNCA0OTIuMzQyKSIgZmlsbD0iIzI2MjYyNiI+PGRlZnM+PHBhdGggdHJhbnNmb3JtPSJzY2FsZSgwLjAxNTYyNSAwLjAxNTYyNSkiIGlkPSJBcmlhbE1ULTQ2IiBkPSJNNTI1IDAgNTI1IDQ1ODEgMzYxNiA0NTgxIDM2MTYgNDA0MSAxMTMxIDQwNDEgMTEzMSAyNjIyIDMyODEgMjYyMiAzMjgxIDIwODEgMTEzMSAyMDgxIDExMzEgMCA1MjUgMFoiLz48cGF0aCB0cmFuc2Zvcm09InNjYWxlKDAuMDE1NjI1IDAuMDE1NjI1KSIgaWQ9IkFyaWFsTVQtNDkiIGQ9Ik01OTcgMCA1OTcgNDU4MSAxMjAzIDQ1ODEgMTIwMyAwIDU5NyAwWiIvPjwvZGVmcz48dXNlIHhsaW5rOmhyZWY9IiNBcmlhbE1ULTQ2IiBoZWlnaHQ9IjEwMCUiIHdpZHRoPSIxMDAlIi8+PHVzZSB0cmFuc2Zvcm09InRyYW5zbGF0ZSg1NS41ODQgMCkiIHhsaW5rOmhyZWY9IiNBcmlhbE1ULTQxIiBoZWlnaHQ9IjEwMCUiIHdpZHRoPSIxMDAlIi8+PHVzZSB0cmFuc2Zvcm09InRyYW5zbGF0ZSgxMjIuMjgzIDApIiB4bGluazpocmVmPSIjQXJpYWxNVC00ZCIgaGVpZ2h0PSIxMDAlIiB3aWR0aD0iMTAwJSIvPjx1c2UgdHJhbnNmb3JtPSJ0cmFuc2xhdGUoMjA1LjU4NCAwKSIgeGxpbms6aHJlZj0iI0FyaWFsTVQtNDkiIGhlaWdodD0iMTAwJSIgd2lkdGg9IjEwMCUiLz48dXNlIHRyYW5zZm9ybT0idHJhbnNsYXRlKDIzMy4zNjcgMCkiIHhsaW5rOmhyZWY9IiNBcmlhbE1ULTRjIiBoZWlnaHQ9IjEwMCUiIHdpZHRoPSIxMDAlIi8+PHVzZSB0cmFuc2Zvcm09InRyYW5zbGF0ZSgyODEuNjA3IDApIiB4bGluazpocmVmPSIjQXJpYWxNVC01OSIgaGVpZ2h0PSIxMDAlIiB3aWR0aD0iMTAwJSIvPjwvZz48L2c+PC9nPjxnIGlkPSJ4dGlja182Ij48ZyBpZD0ibGluZTJkXzYiPjxnPjx1c2UgZmlsbD0iIzI2MjYyNiIgc3Ryb2tlLXdpZHRoPSIxLjI1IiBzdHJva2U9IiMyNjI2MjYiIHhsaW5rOmhyZWY9IiNtMGI2MjI4MGQxYyIgaGVpZ2h0PSIxMDAlIiB3aWR0aD0iMTAwJSIgeT0iNDczLjczMiIgeD0iMjk5LjY3Ii8+PC9nPjwvZz48ZyBpZD0idGV4dF82Ij48ZyB0cmFuc2Zvcm09Im1hdHJpeCgwLjEyNzI3OSAwLjEyNzI3OSAwLjEyNzI3OSAtMC4xMjcyNzkgMzAyLjE5OSA0OTIuMzQyKSIgZmlsbD0iIzI2MjYyNiI+PGRlZnM+PHBhdGggdHJhbnNmb3JtPSJzY2FsZSgwLjAxNTYyNSAwLjAxNTYyNSkiIGlkPSJBcmlhbE1ULTQyIiBkPSJNNDY5IDAgNDY5IDQ1ODEgMjE4OCA0NTgxQzI1MzggNDU4MSAyODE4LjY3IDQ1MzQuNjcgMzAzMCA0NDQyIDMyNDEuMzMgNDM0OS4zMyAzNDA2LjY3IDQyMDYuNjcgMzUyNiA0MDE0IDM2NDYgMzgyMS4zMyAzNzA2IDM2MTkuNjcgMzcwNiAzNDA5IDM3MDYgMzIxMy42NyAzNjUzIDMwMjkuMzMgMzU0NyAyODU2IDM0NDEgMjY4My4zMyAzMjgwLjY3IDI1NDQgMzA2NiAyNDM4IDMzNDIuNjcgMjM1Ni42NyAzNTU1LjMzIDIyMTggMzcwNCAyMDIyIDM4NTMuMzMgMTgyNiAzOTI4IDE1OTQuNjcgMzkyOCAxMzI4IDM5MjggMTExMy4zMyAzODgyLjY3IDkxMy42NjcgMzc5MiA3MjkgMzcwMS4zMyA1NDUgMzU4OS4zMyA0MDMgMzQ1NiAzMDMgMzMyMi42NyAyMDMgMzE1NS4zMyAxMjcuMzMzIDI5NTQgNzYgMjc1My4zMyAyNS4zMzMzIDI1MDcuMzMgMCAyMjE2IDBMNDY5IDBaTTEwNzUgMjY1NiAyMDY2IDI2NTZDMjMzNC42NyAyNjU2IDI1MjcuMzMgMjY3My42NyAyNjQ0IDI3MDkgMjc5OCAyNzU1IDI5MTQgMjgzMSAyOTkyIDI5MzcgMzA3MCAzMDQzLjY3IDMxMDkgMzE3Ny4zMyAzMTA5IDMzMzggMzEwOSAzNDkwIDMwNzIuNjcgMzYyMy42NyAzMDAwIDM3MzkgMjkyNy4zMyAzODU1IDI4MjMgMzkzNC4zMyAyNjg3IDM5NzcgMjU1MS42NyA0MDE5LjY3IDIzMTkuNjcgNDA0MSAxOTkxIDQwNDFMMTA3NSA0MDQxIDEwNzUgMjY1NlpNMTA3NSA1NDEgMjIxNiA1NDFDMjQxMS4zMyA1NDEgMjU0OC42NyA1NDguMzMzIDI2MjggNTYzIDI3NjggNTg3LjY2NyAyODg0LjY3IDYyOSAyOTc4IDY4NyAzMDcyIDc0NS42NjcgMzE0OSA4MzAuNjY3IDMyMDkgOTQyIDMyNjkuNjcgMTA1My4zMyAzMzAwIDExODIgMzMwMCAxMzI4IDMzMDAgMTQ5OC42NyAzMjU2LjMzIDE2NDcgMzE2OSAxNzczIDMwODEuNjcgMTg5OS42NyAyOTYwLjMzIDE5ODguMzMgMjgwNSAyMDM5IDI2NDkuNjcgMjA5MC4zMyAyNDI2IDIxMTYgMjEzNCAyMTE2TDEwNzUgMjExNiAxMDc1IDU0MVoiLz48cGF0aCB0cmFuc2Zvcm09InNjYWxlKDAuMDE1NjI1IDAuMDE1NjI1KSIgaWQ9IkFyaWFsTVQtNTMiIGQ9Ik0yODggMTQ3MiA4NTkgMTUyMkM4ODYuMzMzIDEyOTIuNjcgOTQ5LjMzMyAxMTA0LjY3IDEwNDggOTU4IDExNDcuMzMgODExLjMzMyAxMzAxIDY5Mi42NjcgMTUwOSA2MDIgMTcxNy42NyA1MTEuMzMzIDE5NTIuMzMgNDY2IDIyMTMgNDY2IDI0NDMuNjcgNDY2IDI2NDcuNjcgNTAwLjMzMyAyODI1IDU2OSAzMDAyLjMzIDYzNy42NjcgMzEzNCA3MzEuNjY3IDMyMjAgODUxIDMzMDYuNjcgOTcxIDMzNTAgMTEwMiAzMzUwIDEyNDQgMzM1MCAxMzg3LjMzIDMzMDguMzMgMTUxMi42NyAzMjI1IDE2MjAgMzE0MS42NyAxNzI3LjMzIDMwMDQuMzMgMTgxNy42NyAyODEzIDE4OTEgMjY4OS42NyAxOTM5IDI0MTcuNjcgMjAxMy4zMyAxOTk3IDIxMTQgMTU3Ni4zMyAyMjE1LjMzIDEyODEuNjcgMjMxMC42NyAxMTEzIDI0MDAgODkzLjY2NyAyNTE0LjY3IDczMC4zMzMgMjY1Ni42NyA2MjMgMjgyNiA1MTYuMzMzIDI5OTYgNDYzIDMxODYuMzMgNDYzIDMzOTcgNDYzIDM2MjguMzMgNTI4LjMzMyAzODQ0LjMzIDY1OSA0MDQ1IDc5MC4zMzMgNDI0Ni4zMyA5ODIgNDM5OSAxMjM0IDQ1MDMgMTQ4Ni42NyA0NjA3IDE3NjcgNDY1OSAyMDc1IDQ2NTkgMjQxNC4zMyA0NjU5IDI3MTMuNjcgNDYwNC4zMyAyOTczIDQ0OTUgMzIzMyA0Mzg1LjY3IDM0MzIuNjcgNDIyNC42NyAzNTcyIDQwMTIgMzcxMS4zMyAzODAwIDM3ODYuMzMgMzU1OS42NyAzNzk3IDMyOTFMMzIxNiAzMjQ3QzMxODQuNjcgMzUzNi4zMyAzMDc4LjY3IDM3NTUgMjg5OCAzOTAzIDI3MTggNDA1MSAyNDUyIDQxMjUgMjEwMCA0MTI1IDE3MzMuMzMgNDEyNSAxNDY2IDQwNTcuNjcgMTI5OCAzOTIzIDExMzAuNjcgMzc4OSAxMDQ3IDM2MjcuMzMgMTA0NyAzNDM4IDEwNDcgMzI3My4zMyAxMTA2LjMzIDMxMzcuNjcgMTIyNSAzMDMxIDEzNDEuNjcgMjkyNSAxNjQ2LjMzIDI4MTYuMzMgMjEzOSAyNzA1IDI2MzEuNjcgMjU5My42NyAyOTY5LjY3IDI0OTYuMzMgMzE1MyAyNDEzIDM0MTkuNjcgMjI4OS42NyAzNjE2LjMzIDIxMzMuNjcgMzc0MyAxOTQ1IDM4NzAuMzMgMTc1NyAzOTM0IDE1NDAgMzkzNCAxMjk0IDM5MzQgMTA1MCAzODY0LjMzIDgyMCAzNzI1IDYwNCAzNTg1LjY3IDM4OC42NjcgMzM4NSAyMjEgMzEyMyAxMDEgMjg2MS42Ny0xOC4zMzMzIDI1NjcuNjctNzggMjI0MS03OCAxODI2LjMzLTc4IDE0NzguNjctMTcuNjY2NyAxMTk4IDEwMyA5MTggMjIzLjY2NyA2OTguMzMzIDQwNS4zMzMgNTM5IDY0OCAzNzkuNjY3IDg5MS4zMzMgMjk2IDExNjYgMjg4IDE0NzJaIi8+PHBhdGggdHJhbnNmb3JtPSJzY2FsZSgwLjAxNTYyNSAwLjAxNTYyNSkiIGlkPSJBcmlhbE1ULTU0IiBkPSJNMTY1OSAwIDE2NTkgNDA0MSAxNTAgNDA0MSAxNTAgNDU4MSAzNzgxIDQ1ODEgMzc4MSA0MDQxIDIyNjYgNDA0MSAyMjY2IDAgMTY1OSAwWiIvPjwvZGVmcz48dXNlIHhsaW5rOmhyZWY9IiNBcmlhbE1ULTQyIiBoZWlnaHQ9IjEwMCUiIHdpZHRoPSIxMDAlIi8+PHVzZSB0cmFuc2Zvcm09InRyYW5zbGF0ZSg2Ni42OTkyIDApIiB4bGluazpocmVmPSIjQXJpYWxNVC00NSIgaGVpZ2h0PSIxMDAlIiB3aWR0aD0iMTAwJSIvPjx1c2UgdHJhbnNmb3JtPSJ0cmFuc2xhdGUoMTMzLjM5OCAwKSIgeGxpbms6aHJlZj0iI0FyaWFsTVQtNTMiIGhlaWdodD0iMTAwJSIgd2lkdGg9IjEwMCUiLz48dXNlIHRyYW5zZm9ybT0idHJhbnNsYXRlKDIwMC4wOTggMCkiIHhsaW5rOmhyZWY9IiNBcmlhbE1ULTU0IiBoZWlnaHQ9IjEwMCUiIHdpZHRoPSIxMDAlIi8+PC9nPjwvZz48L2c+PGcgaWQ9Inh0aWNrXzciPjxnIGlkPSJsaW5lMmRfNyI+PGc+PHVzZSBmaWxsPSIjMjYyNjI2IiBzdHJva2Utd2lkdGg9IjEuMjUiIHN0cm9rZT0iIzI2MjYyNiIgeGxpbms6aHJlZj0iI20wYjYyMjgwZDFjIiBoZWlnaHQ9IjEwMCUiIHdpZHRoPSIxMDAlIiB5PSI0NzMuNzMyIiB4PSIzMzkuMjY1Ii8+PC9nPjwvZz48ZyBpZD0idGV4dF83Ij48ZyB0cmFuc2Zvcm09Im1hdHJpeCgwLjEyNzI3OSAwLjEyNzI3OSAwLjEyNzI3OSAtMC4xMjcyNzkgMzQxLjc5NCA0OTIuMzQyKSIgZmlsbD0iIzI2MjYyNiI+PHVzZSB4bGluazpocmVmPSIjQXJpYWxNVC00YyIgaGVpZ2h0PSIxMDAlIiB3aWR0aD0iMTAwJSIvPjx1c2UgdHJhbnNmb3JtPSJ0cmFuc2xhdGUoNTUuNjE1MiAwKSIgeGxpbms6aHJlZj0iI0FyaWFsTVQtNDkiIGhlaWdodD0iMTAwJSIgd2lkdGg9IjEwMCUiLz48dXNlIHRyYW5zZm9ybT0idHJhbnNsYXRlKDgzLjM5ODQgMCkiIHhsaW5rOmhyZWY9IiNBcmlhbE1ULTRiIiBoZWlnaHQ9IjEwMCUiIHdpZHRoPSIxMDAlIi8+PHVzZSB0cmFuc2Zvcm09InRyYW5zbGF0ZSgxNTAuMDk4IDApIiB4bGluazpocmVmPSIjQXJpYWxNVC00NSIgaGVpZ2h0PSIxMDAlIiB3aWR0aD0iMTAwJSIvPjwvZz48L2c+PC9nPjxnIGlkPSJ4dGlja184Ij48ZyBpZD0ibGluZTJkXzgiPjxnPjx1c2UgZmlsbD0iIzI2MjYyNiIgc3Ryb2tlLXdpZHRoPSIxLjI1IiBzdHJva2U9IiMyNjI2MjYiIHhsaW5rOmhyZWY9IiNtMGI2MjI4MGQxYyIgaGVpZ2h0PSIxMDAlIiB3aWR0aD0iMTAwJSIgeT0iNDczLjczMiIgeD0iMzc4Ljg2Ii8+PC9nPjwvZz48ZyBpZD0idGV4dF84Ij48ZyB0cmFuc2Zvcm09Im1hdHJpeCgwLjEyNzI3OSAwLjEyNzI3OSAwLjEyNzI3OSAtMC4xMjcyNzkgMzgxLjM4OSA0OTIuMzQyKSIgZmlsbD0iIzI2MjYyNiI+PHVzZSB4bGluazpocmVmPSIjQXJpYWxNVC00ZCIgaGVpZ2h0PSIxMDAlIiB3aWR0aD0iMTAwJSIvPjx1c2UgdHJhbnNmb3JtPSJ0cmFuc2xhdGUoODMuMzAwOCAwKSIgeGxpbms6aHJlZj0iI0FyaWFsTVQtNDEiIGhlaWdodD0iMTAwJSIgd2lkdGg9IjEwMCUiLz48dXNlIHRyYW5zZm9ybT0idHJhbnNsYXRlKDE0Mi42MjUgMCkiIHhsaW5rOmhyZWY9IiNBcmlhbE1ULTU5IiBoZWlnaHQ9IjEwMCUiIHdpZHRoPSIxMDAlIi8+PC9nPjwvZz48L2c+PGcgaWQ9Inh0aWNrXzkiPjxnIGlkPSJsaW5lMmRfOSI+PGc+PHVzZSBmaWxsPSIjMjYyNjI2IiBzdHJva2Utd2lkdGg9IjEuMjUiIHN0cm9rZT0iIzI2MjYyNiIgeGxpbms6aHJlZj0iI20wYjYyMjgwZDFjIiBoZWlnaHQ9IjEwMCUiIHdpZHRoPSIxMDAlIiB5PSI0NzMuNzMyIiB4PSI0MTguNDU1Ii8+PC9nPjwvZz48ZyBpZD0idGV4dF85Ij48ZyB0cmFuc2Zvcm09Im1hdHJpeCgwLjEyNzI3OSAwLjEyNzI3OSAwLjEyNzI3OSAtMC4xMjcyNzkgNDIwLjk4NCA0OTIuMzQyKSIgZmlsbD0iIzI2MjYyNiI+PHVzZSB4bGluazpocmVmPSIjQXJpYWxNVC01NyIgaGVpZ2h0PSIxMDAlIiB3aWR0aD0iMTAwJSIvPjx1c2UgdHJhbnNmb3JtPSJ0cmFuc2xhdGUoOTQuMzg0OCAwKSIgeGxpbms6aHJlZj0iI0FyaWFsTVQtNDUiIGhlaWdodD0iMTAwJSIgd2lkdGg9IjEwMCUiLz48dXNlIHRyYW5zZm9ybT0idHJhbnNsYXRlKDE2MS4wODQgMCkiIHhsaW5rOmhyZWY9IiNBcmlhbE1ULTQ1IiBoZWlnaHQ9IjEwMCUiIHdpZHRoPSIxMDAlIi8+PHVzZSB0cmFuc2Zvcm09InRyYW5zbGF0ZSgyMjcuNzgzIDApIiB4bGluazpocmVmPSIjQXJpYWxNVC00YiIgaGVpZ2h0PSIxMDAlIiB3aWR0aD0iMTAwJSIvPjwvZz48L2c+PC9nPjxnIGlkPSJ4dGlja18xMCI+PGcgaWQ9ImxpbmUyZF8xMCI+PGc+PHVzZSBmaWxsPSIjMjYyNjI2IiBzdHJva2Utd2lkdGg9IjEuMjUiIHN0cm9rZT0iIzI2MjYyNiIgeGxpbms6aHJlZj0iI20wYjYyMjgwZDFjIiBoZWlnaHQ9IjEwMCUiIHdpZHRoPSIxMDAlIiB5PSI0NzMuNzMyIiB4PSI0NTguMDQ5Ii8+PC9nPjwvZz48ZyBpZD0idGV4dF8xMCI+PGcgdHJhbnNmb3JtPSJtYXRyaXgoMC4xMjcyNzkgMC4xMjcyNzkgMC4xMjcyNzkgLTAuMTI3Mjc5IDQ2MC41NzkgNDkyLjM0MikiIGZpbGw9IiMyNjI2MjYiPjxkZWZzPjxwYXRoIHRyYW5zZm9ybT0ic2NhbGUoMC4wMTU2MjUgMC4wMTU2MjUpIiBpZD0iQXJpYWxNVC00ZSIgZD0iTTQ4OCAwIDQ4OCA0NTgxIDExMDkgNDU4MSAzNTE2IDk4NCAzNTE2IDQ1ODEgNDA5NyA0NTgxIDQwOTcgMCAzNDc1IDAgMTA2OSAzNjAwIDEwNjkgMCA0ODggMFoiLz48L2RlZnM+PHVzZSB4bGluazpocmVmPSIjQXJpYWxNVC00ZiIgaGVpZ2h0PSIxMDAlIiB3aWR0aD0iMTAwJSIvPjx1c2UgdHJhbnNmb3JtPSJ0cmFuc2xhdGUoNzcuNzgzMiAwKSIgeGxpbms6aHJlZj0iI0FyaWFsTVQtNGUiIGhlaWdodD0iMTAwJSIgd2lkdGg9IjEwMCUiLz48dXNlIHRyYW5zZm9ybT0idHJhbnNsYXRlKDE1MCAwKSIgeGxpbms6aHJlZj0iI0FyaWFsTVQtNGMiIGhlaWdodD0iMTAwJSIgd2lkdGg9IjEwMCUiLz48dXNlIHRyYW5zZm9ybT0idHJhbnNsYXRlKDE5OC4yNCAwKSIgeGxpbms6aHJlZj0iI0FyaWFsTVQtNTkiIGhlaWdodD0iMTAwJSIgd2lkdGg9IjEwMCUiLz48L2c+PC9nPjwvZz48ZyBpZD0ieHRpY2tfMTEiPjxnIGlkPSJsaW5lMmRfMTEiPjxnPjx1c2UgZmlsbD0iIzI2MjYyNiIgc3Ryb2tlLXdpZHRoPSIxLjI1IiBzdHJva2U9IiMyNjI2MjYiIHhsaW5rOmhyZWY9IiNtMGI2MjI4MGQxYyIgaGVpZ2h0PSIxMDAlIiB3aWR0aD0iMTAwJSIgeT0iNDczLjczMiIgeD0iNDk3LjY0NCIvPjwvZz48L2c+PGcgaWQ9InRleHRfMTEiPjxnIHRyYW5zZm9ybT0ibWF0cml4KDAuMTI3Mjc5IDAuMTI3Mjc5IDAuMTI3Mjc5IC0wLjEyNzI3OSA1MDAuMTc0IDQ5Mi4zNDIpIiBmaWxsPSIjMjYyNjI2Ij48dXNlIHhsaW5rOmhyZWY9IiNBcmlhbE1ULTQ2IiBoZWlnaHQ9IjEwMCUiIHdpZHRoPSIxMDAlIi8+PHVzZSB0cmFuc2Zvcm09InRyYW5zbGF0ZSg1NS41ODQgMCkiIHhsaW5rOmhyZWY9IiNBcmlhbE1ULTQxIiBoZWlnaHQ9IjEwMCUiIHdpZHRoPSIxMDAlIi8+PHVzZSB0cmFuc2Zvcm09InRyYW5zbGF0ZSgxMjIuMjgzIDApIiB4bGluazpocmVmPSIjQXJpYWxNVC01MiIgaGVpZ2h0PSIxMDAlIiB3aWR0aD0iMTAwJSIvPjwvZz48L2c+PC9nPjxnIGlkPSJ4dGlja18xMiI+PGcgaWQ9ImxpbmUyZF8xMiI+PGc+PHVzZSBmaWxsPSIjMjYyNjI2IiBzdHJva2Utd2lkdGg9IjEuMjUiIHN0cm9rZT0iIzI2MjYyNiIgeGxpbms6aHJlZj0iI20wYjYyMjgwZDFjIiBoZWlnaHQ9IjEwMCUiIHdpZHRoPSIxMDAlIiB5PSI0NzMuNzMyIiB4PSI1MzcuMjM5Ii8+PC9nPjwvZz48ZyBpZD0idGV4dF8xMiI+PGcgdHJhbnNmb3JtPSJtYXRyaXgoMC4xMjcyNzkgMC4xMjcyNzkgMC4xMjcyNzkgLTAuMTI3Mjc5IDUzOS43NjkgNDkyLjM0MikiIGZpbGw9IiMyNjI2MjYiPjxkZWZzPjxwYXRoIHRyYW5zZm9ybT0ic2NhbGUoMC4wMTU2MjUgMC4wMTU2MjUpIiBpZD0iQXJpYWxNVC00NyIgZD0iTTI2MzggMTc5NyAyNjM4IDIzMzQgNDU3OCAyMzM4IDQ1NzggNjM4QzQyODAgNDAwIDM5NzIuNjcgMjIxIDM2NTYgMTAxIDMzMzkuMzMtMTguMzMzMyAzMDE0LjMzLTc4IDI2ODEtNzggMjIzMS03OCAxODIyIDE4LjMzMzMgMTQ1NCAyMTEgMTA4Ni42NyA0MDMuNjY3IDgwOS4zMzMgNjgyLjMzMyA2MjIgMTA0NyA0MzQuNjY3IDE0MTEuNjcgMzQxIDE4MTkgMzQxIDIyNjkgMzQxIDI3MTUgNDM0IDMxMzEgNjIwIDM1MTcgODA2LjY2NyAzOTAzLjY3IDEwNzUgNDE5MC42NyAxNDI1IDQzNzggMTc3NSA0NTY1LjMzIDIxNzggNDY1OSAyNjM0IDQ2NTkgMjk2NS4zMyA0NjU5IDMyNjQuNjcgNDYwNS4zMyAzNTMyIDQ0OTggMzgwMCA0MzkxLjMzIDQwMTAgNDI0MiA0MTYyIDQwNTAgNDMxNC42NyAzODU4LjY3IDQ0MzAuMzMgMzYwOC42NyA0NTA5IDMzMDBMMzk2MyAzMTUwQzM4OTMuNjcgMzM4My4zMyAzODA4IDM1NjYuNjcgMzcwNiAzNzAwIDM2MDQgMzgzMy4zMyAzNDU4IDM5NDAgMzI2OCA0MDIwIDMwNzguNjcgNDEwMC42NyAyODY4LjY3IDQxNDEgMjYzOCA0MTQxIDIzNjAuNjcgNDE0MSAyMTIxIDQwOTguNjcgMTkxOSA0MDE0IDE3MTcgMzkzMCAxNTU0IDM4MTkgMTQzMCAzNjgxIDEzMDYgMzU0My42NyAxMjA5LjY3IDMzOTIuNjcgMTE0MSAzMjI4IDEwMjQuMzMgMjk0NC42NyA5NjYgMjYzNy4zMyA5NjYgMjMwNiA5NjYgMTg5OCAxMDM2LjMzIDE1NTYuMzMgMTE3NyAxMjgxIDEzMTcuNjcgMTAwNi4zMyAxNTIyLjMzIDgwMi4zMzMgMTc5MSA2NjkgMjA1OS42NyA1MzUuNjY3IDIzNDUgNDY5IDI2NDcgNDY5IDI5MDkuNjcgNDY5IDMxNjYgNTE5LjMzMyAzNDE2IDYyMCAzNjY2IDcyMS4zMzMgMzg1NS4zMyA4MjkuMzMzIDM5ODQgOTQ0TDM5ODQgMTc5NyAyNjM4IDE3OTdaIi8+PC9kZWZzPjx1c2UgeGxpbms6aHJlZj0iI0FyaWFsTVQtNDciIGhlaWdodD0iMTAwJSIgd2lkdGg9IjEwMCUiLz48dXNlIHRyYW5zZm9ybT0idHJhbnNsYXRlKDc3Ljc4MzIgMCkiIHhsaW5rOmhyZWY9IiNBcmlhbE1ULTRmIiBoZWlnaHQ9IjEwMCUiIHdpZHRoPSIxMDAlIi8+PHVzZSB0cmFuc2Zvcm09InRyYW5zbGF0ZSgxNTUuNTY2IDApIiB4bGluazpocmVmPSIjQXJpYWxNVC00ZiIgaGVpZ2h0PSIxMDAlIiB3aWR0aD0iMTAwJSIvPjx1c2UgdHJhbnNmb3JtPSJ0cmFuc2xhdGUoMjMzLjM1IDApIiB4bGluazpocmVmPSIjQXJpYWxNVC00NCIgaGVpZ2h0PSIxMDAlIiB3aWR0aD0iMTAwJSIvPjwvZz48L2c+PC9nPjxnIGlkPSJ4dGlja18xMyI+PGcgaWQ9ImxpbmUyZF8xMyI+PGc+PHVzZSBmaWxsPSIjMjYyNjI2IiBzdHJva2Utd2lkdGg9IjEuMjUiIHN0cm9rZT0iIzI2MjYyNiIgeGxpbms6aHJlZj0iI20wYjYyMjgwZDFjIiBoZWlnaHQ9IjEwMCUiIHdpZHRoPSIxMDAlIiB5PSI0NzMuNzMyIiB4PSI1NzYuODM0Ii8+PC9nPjwvZz48ZyBpZD0idGV4dF8xMyI+PGcgdHJhbnNmb3JtPSJtYXRyaXgoMC4xMjcyNzkgMC4xMjcyNzkgMC4xMjcyNzkgLTAuMTI3Mjc5IDU3OS4zNjQgNDkyLjM0MikiIGZpbGw9IiMyNjI2MjYiPjxkZWZzPjxwYXRoIHRyYW5zZm9ybT0ic2NhbGUoMC4wMTU2MjUgMC4wMTU2MjUpIiBpZD0iQXJpYWxNVC01NSIgZD0iTTM1MDAgNDU4MSA0MTA2IDQ1ODEgNDEwNiAxOTM0QzQxMDYgMTQ3NCA0MDU0IDExMDguMzMgMzk1MCA4MzcgMzg0NiA1NjYuMzMzIDM2NTggMzQ2IDMzODYgMTc2IDMxMTQgNi42NjY2NyAyNzU3LjMzLTc4IDIzMTYtNzggMTg4Ni42Ny03OCAxNTM1LjMzLTQgMTI2MiAxNDQgOTg5LjMzMyAyOTIgNzk0LjY2NyA1MDYgNjc4IDc4NiA1NjEuMzMzIDEwNjYgNTAzIDE0NDguNjcgNTAzIDE5MzRMNTAzIDQ1ODEgMTEwOSA0NTgxIDExMDkgMTkzOEMxMTA5IDE1NDAgMTE0NiAxMjQ2LjY3IDEyMjAgMTA1OCAxMjk0IDg2OS4zMzMgMTQyMSA3MjQgMTYwMSA2MjIgMTc4MS42NyA1MjAgMjAwMi4zMyA0NjkgMjI2MyA0NjkgMjcwOC4zMyA0NjkgMzAyNS42NyA1NzAgMzIxNSA3NzIgMzQwNSA5NzQgMzUwMCAxMzYyLjY3IDM1MDAgMTkzOEwzNTAwIDQ1ODFaIi8+PC9kZWZzPjx1c2UgeGxpbms6aHJlZj0iI0FyaWFsTVQtNTMiIGhlaWdodD0iMTAwJSIgd2lkdGg9IjEwMCUiLz48dXNlIHRyYW5zZm9ybT0idHJhbnNsYXRlKDY2LjY5OTIgMCkiIHhsaW5rOmhyZWY9IiNBcmlhbE1ULTU1IiBoZWlnaHQ9IjEwMCUiIHdpZHRoPSIxMDAlIi8+PHVzZSB0cmFuc2Zvcm09InRyYW5zbGF0ZSgxMzguOTE2IDApIiB4bGluazpocmVmPSIjQXJpYWxNVC01MiIgaGVpZ2h0PSIxMDAlIiB3aWR0aD0iMTAwJSIvPjx1c2UgdHJhbnNmb3JtPSJ0cmFuc2xhdGUoMjExLjEzMyAwKSIgeGxpbms6aHJlZj0iI0FyaWFsTVQtNDUiIGhlaWdodD0iMTAwJSIgd2lkdGg9IjEwMCUiLz48L2c+PC9nPjwvZz48ZyBpZD0ieHRpY2tfMTQiPjxnIGlkPSJsaW5lMmRfMTQiPjxnPjx1c2UgZmlsbD0iIzI2MjYyNiIgc3Ryb2tlLXdpZHRoPSIxLjI1IiBzdHJva2U9IiMyNjI2MjYiIHhsaW5rOmhyZWY9IiNtMGI2MjI4MGQxYyIgaGVpZ2h0PSIxMDAlIiB3aWR0aD0iMTAwJSIgeT0iNDczLjczMiIgeD0iNjE2LjQyOSIvPjwvZz48L2c+PGcgaWQ9InRleHRfMTQiPjxnIHRyYW5zZm9ybT0ibWF0cml4KDAuMTI3Mjc5IDAuMTI3Mjc5IDAuMTI3Mjc5IC0wLjEyNzI3OSA2MTguOTU5IDQ5Mi4zNDIpIiBmaWxsPSIjMjYyNjI2Ij48dXNlIHhsaW5rOmhyZWY9IiNBcmlhbE1ULTRjIiBoZWlnaHQ9IjEwMCUiIHdpZHRoPSIxMDAlIi8+PHVzZSB0cmFuc2Zvcm09InRyYW5zbGF0ZSg1NS42MTUyIDApIiB4bGluazpocmVmPSIjQXJpYWxNVC00OSIgaGVpZ2h0PSIxMDAlIiB3aWR0aD0iMTAwJSIvPjx1c2UgdHJhbnNmb3JtPSJ0cmFuc2xhdGUoODMuMzk4NCAwKSIgeGxpbms6aHJlZj0iI0FyaWFsTVQtNTQiIGhlaWdodD0iMTAwJSIgd2lkdGg9IjEwMCUiLz48dXNlIHRyYW5zZm9ybT0idHJhbnNsYXRlKDE0NC40ODIgMCkiIHhsaW5rOmhyZWY9IiNBcmlhbE1ULTU0IiBoZWlnaHQ9IjEwMCUiIHdpZHRoPSIxMDAlIi8+PHVzZSB0cmFuc2Zvcm09InRyYW5zbGF0ZSgyMDUuNTY2IDApIiB4bGluazpocmVmPSIjQXJpYWxNVC00YyIgaGVpZ2h0PSIxMDAlIiB3aWR0aD0iMTAwJSIvPjx1c2UgdHJhbnNmb3JtPSJ0cmFuc2xhdGUoMjYxLjE4MiAwKSIgeGxpbms6aHJlZj0iI0FyaWFsTVQtNDUiIGhlaWdodD0iMTAwJSIgd2lkdGg9IjEwMCUiLz48L2c+PC9nPjwvZz48ZyBpZD0ieHRpY2tfMTUiPjxnIGlkPSJsaW5lMmRfMTUiPjxnPjx1c2UgZmlsbD0iIzI2MjYyNiIgc3Ryb2tlLXdpZHRoPSIxLjI1IiBzdHJva2U9IiMyNjI2MjYiIHhsaW5rOmhyZWY9IiNtMGI2MjI4MGQxYyIgaGVpZ2h0PSIxMDAlIiB3aWR0aD0iMTAwJSIgeT0iNDczLjczMiIgeD0iNjU2LjAyNCIvPjwvZz48L2c+PGcgaWQ9InRleHRfMTUiPjxnIHRyYW5zZm9ybT0ibWF0cml4KDAuMTI3Mjc5IDAuMTI3Mjc5IDAuMTI3Mjc5IC0wLjEyNzI3OSA2NTguNTU0IDQ5Mi4zNDIpIiBmaWxsPSIjMjYyNjI2Ij48dXNlIHhsaW5rOmhyZWY9IiNBcmlhbE1ULTU3IiBoZWlnaHQ9IjEwMCUiIHdpZHRoPSIxMDAlIi8+PHVzZSB0cmFuc2Zvcm09InRyYW5zbGF0ZSg5NC4zODQ4IDApIiB4bGluazpocmVmPSIjQXJpYWxNVC00NSIgaGVpZ2h0PSIxMDAlIiB3aWR0aD0iMTAwJSIvPjx1c2UgdHJhbnNmb3JtPSJ0cmFuc2xhdGUoMTYxLjA4NCAwKSIgeGxpbms6aHJlZj0iI0FyaWFsTVQtNGMiIGhlaWdodD0iMTAwJSIgd2lkdGg9IjEwMCUiLz48dXNlIHRyYW5zZm9ybT0idHJhbnNsYXRlKDIxNi42OTkgMCkiIHhsaW5rOmhyZWY9IiNBcmlhbE1ULTRjIiBoZWlnaHQ9IjEwMCUiIHdpZHRoPSIxMDAlIi8+PC9nPjwvZz48L2c+PGcgaWQ9InRleHRfMTYiPjxnIHRyYW5zZm9ybT0ibWF0cml4KDAuMTggMCAwIC0wLjE4IDMxOS4zMjYgNTU5LjEzMSkiIGZpbGw9IiMyNjI2MjYiPjxkZWZzPjxwYXRoIHRyYW5zZm9ybT0ic2NhbGUoMC4wMTU2MjUgMC4wMTU2MjUpIiBpZD0iQXJpYWxNVC01MCIgZD0iTTQ5NCAwIDQ5NCA0NTgxIDIyMjIgNDU4MUMyNTI2IDQ1ODEgMjc1OC4zMyA0NTY2LjY3IDI5MTkgNDUzOCAzMTQzLjY3IDQ1MDAgMzMzMiA0NDI4LjMzIDM0ODQgNDMyMyAzNjM2LjY3IDQyMTguMzMgMzc1OS4zMyA0MDcxIDM4NTIgMzg4MSAzOTQ0LjY3IDM2OTEuNjcgMzk5MSAzNDgzLjMzIDM5OTEgMzI1NiAzOTkxIDI4NjYuNjcgMzg2NyAyNTM3IDM2MTkgMjI2NyAzMzcxIDE5OTcuNjcgMjkyMyAxODYzIDIyNzUgMTg2M0wxMTAwIDE4NjMgMTEwMCAwIDQ5NCAwWk0xMTAwIDI0MDMgMjI4NCAyNDAzQzI2NzYgMjQwMyAyOTU0LjMzIDI0NzYgMzExOSAyNjIyIDMyODMuNjcgMjc2OCAzMzY2IDI5NzMuMzMgMzM2NiAzMjM4IDMzNjYgMzQyOS4zMyAzMzE3LjMzIDM1OTMgMzIyMCAzNzI5IDMxMjMuMzMgMzg2NS42NyAyOTk2IDM5NTYgMjgzOCA0MDAwIDI3MzUuMzMgNDAyNy4zMyAyNTQ2LjY3IDQwNDEgMjI3MiA0MDQxTDExMDAgNDA0MSAxMTAwIDI0MDNaIi8+PHBhdGggdHJhbnNmb3JtPSJzY2FsZSgwLjAxNTYyNSAwLjAxNTYyNSkiIGlkPSJBcmlhbE1ULTZmIiBkPSJNMjEzIDE2NTlDMjEzIDIyNzMuNjcgMzgzLjY2NyAyNzI5IDcyNSAzMDI1IDEwMTAuMzMgMzI3MSAxMzU4LjMzIDMzOTQgMTc2OSAzMzk0IDIyMjUgMzM5NCAyNTk3LjY3IDMyNDQuMzMgMjg4NyAyOTQ1IDMxNzcgMjY0Ni4zMyAzMzIyIDIyMzMuMzMgMzMyMiAxNzA2IDMzMjIgMTI3OS4zMyAzMjU4IDk0My4zMzMgMzEzMCA2OTggMzAwMiA0NTMuMzMzIDI4MTUuMzMgMjYzLjMzMyAyNTcwIDEyOCAyMzI1LjMzLTcuMzMzMzMgMjA1OC4zMy03NSAxNzY5LTc1IDEzMDQuMzMtNzUgOTI4LjY2NyA3NCA2NDIgMzcyIDM1NiA2NzAgMjEzIDEwOTkgMjEzIDE2NTlaTTc5MSAxNjU5Qzc5MSAxMjM0LjMzIDg4My42NjcgOTE2LjMzMyAxMDY5IDcwNSAxMjU0LjMzIDQ5My42NjcgMTQ4Ny42NyAzODggMTc2OSAzODggMjA0OC4zMyAzODggMjI4MC42NyA0OTQgMjQ2NiA3MDYgMjY1MS4zMyA5MTguNjY3IDI3NDQgMTI0Mi42NyAyNzQ0IDE2NzggMjc0NCAyMDg4LjY3IDI2NTAuNjcgMjM5OS42NyAyNDY0IDI2MTEgMjI3Ny4zMyAyODIyLjMzIDIwNDUuNjcgMjkyOCAxNzY5IDI5MjggMTQ4Ny42NyAyOTI4IDEyNTQuMzMgMjgyMi42NyAxMDY5IDI2MTIgODgzLjY2NyAyNDAyIDc5MSAyMDg0LjMzIDc5MSAxNjU5WiIvPjxwYXRoIHRyYW5zZm9ybT0ic2NhbGUoMC4wMTU2MjUgMC4wMTU2MjUpIiBpZD0iQXJpYWxNVC02OSIgZD0iTTQyNSAzOTM0IDQyNSA0NTgxIDk4OCA0NTgxIDk4OCAzOTM0IDQyNSAzOTM0Wk00MjUgMCA0MjUgMzMxOSA5ODggMzMxOSA5ODggMCA0MjUgMFoiLz48cGF0aCB0cmFuc2Zvcm09InNjYWxlKDAuMDE1NjI1IDAuMDE1NjI1KSIgaWQ9IkFyaWFsTVQtNzMiIGQ9Ik0xOTcgOTkxIDc1MyAxMDc4Qzc4NC4zMzMgODU1LjMzMyA4NzEuMzMzIDY4NC42NjcgMTAxNCA1NjYgMTE1Ni42NyA0NDcuMzMzIDEzNTYuMzMgMzg4IDE2MTMgMzg4IDE4NzEgMzg4IDIwNjIuMzMgNDQwLjMzMyAyMTg3IDU0NSAyMzEyLjMzIDY1MC4zMzMgMjM3NSA3NzQgMjM3NSA5MTYgMjM3NSAxMDQyLjY3IDIzMTkuNjcgMTE0Mi42NyAyMjA5IDEyMTYgMjEzMi4zMyAxMjY2IDE5NDAuNjcgMTMyOS4zMyAxNjM0IDE0MDYgMTIyMiAxNTEwLjY3IDkzNi4zMzMgMTYwMSA3NzcgMTY3NyA2MTcuNjY3IDE3NTMgNDk2LjY2NyAxODU4IDQxNCAxOTkyIDMzMiAyMTI2LjY3IDI5MSAyMjc1LjMzIDI5MSAyNDM4IDI5MSAyNTg1LjMzIDMyNC42NjcgMjcyMiAzOTIgMjg0OCA0NjAgMjk3NC42NyA1NTIuMzMzIDMwNzkuNjcgNjY5IDMxNjMgNzU2LjMzMyAzMjI3IDg3NS4zMzMgMzI4MS4zMyAxMDI2IDMzMjYgMTE3Ny4zMyAzMzcxLjMzIDEzMzkuNjcgMzM5NCAxNTEzIDMzOTQgMTc3MyAzMzk0IDIwMDEuMzMgMzM1Ni4zMyAyMTk4IDMyODEgMjM5NS4zMyAzMjA2LjMzIDI1NDAuNjcgMzEwNC42NyAyNjM0IDI5NzYgMjcyOCAyODQ4IDI3OTIuNjcgMjY3NyAyODI4IDI0NjNMMjI3OCAyMzg4QzIyNTMuMzMgMjU1OC42NyAyMTgxIDI2OTEuNjcgMjA2MSAyNzg3IDE5NDEgMjg4MyAxNzcxLjY3IDI5MzEgMTU1MyAyOTMxIDEyOTUgMjkzMSAxMTEwLjY3IDI4ODguMzMgMTAwMCAyODAzIDg4OS4zMzMgMjcxNy42NyA4MzQgMjYxNy42NyA4MzQgMjUwMyA4MzQgMjQzMC4zMyA4NTcgMjM2NC42NyA5MDMgMjMwNiA5NDkgMjI0NiAxMDIxIDIxOTYgMTExOSAyMTU2IDExNzUgMjEzNS4zMyAxMzQwLjY3IDIwODcuNjcgMTYxNiAyMDEzIDIwMTQgMTkwNi4zMyAyMjkxLjMzIDE4MTkgMjQ0OCAxNzUxIDI2MDUuMzMgMTY4My42NyAyNzI4LjY3IDE1ODUuMzMgMjgxOCAxNDU2IDI5MDggMTMyNy4zMyAyOTUzIDExNjcgMjk1MyA5NzUgMjk1MyA3ODcuNjY3IDI4OTguMzMgNjExIDI3ODkgNDQ1IDI2NzkuNjcgMjc5LjY2NyAyNTIxLjY3IDE1MS42NjcgMjMxNSA2MSAyMTA5LTI5LjY2NjcgMTg3Ni03NSAxNjE2LTc1IDExODQuNjctNzUgODU2IDE0LjY2NjcgNjMwIDE5NCA0MDQgMzczLjMzMyAyNTkuNjY3IDYzOSAxOTcgOTkxWiIvPjxwYXRoIHRyYW5zZm9ybT0ic2NhbGUoMC4wMTU2MjUgMC4wMTU2MjUpIiBpZD0iQXJpYWxNVC02ZSIgZD0iTTQyMiAwIDQyMiAzMzE5IDkyOCAzMzE5IDkyOCAyODQ3QzExNzIgMzIxMS42NyAxNTI0IDMzOTQgMTk4NCAzMzk0IDIxODQgMzM5NCAyMzY4IDMzNTggMjUzNiAzMjg2IDI3MDQgMzIxNCAyODI5LjY3IDMxMTkuNjcgMjkxMyAzMDAzIDI5OTYuMzMgMjg4Ni4zMyAzMDU0LjY3IDI3NDggMzA4OCAyNTg4IDMxMDguNjcgMjQ4My4zMyAzMTE5IDIzMDEgMzExOSAyMDQxTDMxMTkgMCAyNTU2IDAgMjU1NiAyMDE5QzI1NTYgMjI0OC4zMyAyNTM0IDI0MTkuNjcgMjQ5MCAyNTMzIDI0NDYuNjcgMjY0Ni4zMyAyMzY5LjMzIDI3MzYuNjcgMjI1OCAyODA0IDIxNDYuNjcgMjg3MiAyMDE2IDI5MDYgMTg2NiAyOTA2IDE2MjYgMjkwNiAxNDE5IDI4MzAgMTI0NSAyNjc4IDEwNzEgMjUyNiA5ODQgMjIzNy42NyA5ODQgMTgxM0w5ODQgMCA0MjIgMFoiLz48cGF0aCB0cmFuc2Zvcm09InNjYWxlKDAuMDE1NjI1IDAuMDE1NjI1KSIgaWQ9IkFyaWFsTVQtNjUiIGQ9Ik0yNjk0IDEwNjkgMzI3NSA5OTdDMzE4My42NyA2NTcuNjY3IDMwMTQgMzk0IDI3NjYgMjA2IDI1MTggMTguNjY2NyAyMjAxLjMzLTc1IDE4MTYtNzUgMTMzMC42Ny03NSA5NDUuNjY3IDc0LjMzMzMgNjYxIDM3MyAzNzYuMzMzIDY3Mi4zMzMgMjM0IDEwOTEuNjcgMjM0IDE2MzEgMjM0IDIxODkuNjcgMzc3LjY2NyAyNjIzIDY2NSAyOTMxIDk1MyAzMjM5LjY3IDEzMjYgMzM5NCAxNzg0IDMzOTQgMjIyOCAzMzk0IDI1OTAuNjcgMzI0MyAyODcyIDI5NDEgMzE1My4zMyAyNjM5IDMyOTQgMjIxNCAzMjk0IDE2NjYgMzI5NCAxNjMyLjY3IDMyOTMgMTU4Mi42NyAzMjkxIDE1MTZMODE2IDE1MTZDODM2LjY2NyAxMTUxLjMzIDkzOS42NjcgODcyIDExMjUgNjc4IDEzMTAuMzMgNDg0LjY2NyAxNTQxLjY3IDM4OCAxODE5IDM4OCAyMDI1IDM4OCAyMjAxIDQ0MiAyMzQ3IDU1MCAyNDkzIDY1OC42NjcgMjYwOC42NyA4MzEuNjY3IDI2OTQgMTA2OVpNODQ3IDE5NzggMjcwMCAxOTc4QzI2NzUuMzMgMjI1Ny4zMyAyNjA0LjY3IDI0NjYuNjcgMjQ4OCAyNjA2IDIzMDguNjcgMjgyMi42NyAyMDc2LjMzIDI5MzEgMTc5MSAyOTMxIDE1MzIuMzMgMjkzMSAxMzE1IDI4NDQuNjcgMTEzOSAyNjcyIDk2MyAyNDk5LjMzIDg2NS42NjcgMjI2OCA4NDcgMTk3OFoiLz48cGF0aCB0cmFuc2Zvcm09InNjYWxlKDAuMDE1NjI1IDAuMDE1NjI1KSIgaWQ9IkFyaWFsTVQtNjQiIGQ9Ik0yNTc1IDAgMjU3NSA0MTlDMjM2NC4zMyA4OS42NjY3IDIwNTUtNzUgMTY0Ny03NSAxMzgyLjMzLTc1IDExMzktMiA5MTcgMTQ0IDY5NSAyOTAgNTIzIDQ5My42NjcgNDAxIDc1NSAyNzkuNjY3IDEwMTYuMzMgMjE5IDEzMTYuNjcgMjE5IDE2NTYgMjE5IDE5ODcuMzMgMjc0IDIyODggMzg0IDI1NTggNDk0LjY2NyAyODI4IDY2MC4zMzMgMzAzNC42NyA4ODEgMzE3OCAxMTAyLjMzIDMzMjIgMTM0OS4zMyAzMzk0IDE2MjIgMzM5NCAxODIyIDMzOTQgMjAwMCAzMzUxLjY3IDIxNTYgMzI2NyAyMzEyLjY3IDMxODMgMjQ0MCAzMDczLjMzIDI1MzggMjkzOEwyNTM4IDQ1ODEgMzA5NyA0NTgxIDMwOTcgMCAyNTc1IDBaTTc5NyAxNjU2Qzc5NyAxMjMxLjMzIDg4Ni4zMzMgOTEzLjY2NyAxMDY1IDcwMyAxMjQ0LjMzIDQ5MyAxNDU2IDM4OCAxNzAwIDM4OCAxOTQ2IDM4OCAyMTU0LjY3IDQ4OC4zMzMgMjMyNiA2ODkgMjQ5OCA4OTAuMzMzIDI1ODQgMTE5NyAyNTg0IDE2MDkgMjU4NCAyMDYzLjY3IDI0OTYuMzMgMjM5NyAyMzIxIDI2MDkgMjE0Ni4zMyAyODIxLjY3IDE5MzEgMjkyOCAxNjc1IDI5MjggMTQyNSAyOTI4IDEyMTYgMjgyNiAxMDQ4IDI2MjIgODgwLjY2NyAyNDE4IDc5NyAyMDk2IDc5NyAxNjU2WiIvPjxwYXRoIHRyYW5zZm9ybT0ic2NhbGUoMC4wMTU2MjUgMC4wMTU2MjUpIiBpZD0iQXJpYWxNVC0yMCIgZD0iIi8+PHBhdGggdHJhbnNmb3JtPSJzY2FsZSgwLjAxNTYyNSAwLjAxNTYyNSkiIGlkPSJBcmlhbE1ULTc3IiBkPSJNMTAzNCAwIDE5IDMzMTkgNjAwIDMzMTkgMTEyOCAxNDAzIDEzMjUgNjkxQzEzMzMuNjcgNzI2LjMzMyAxMzkxIDk1NC4zMzMgMTQ5NyAxMzc1TDIwMjUgMzMxOSAyNjAzIDMzMTkgMzEwMCAxMzk0IDMyNjYgNzU5IDM0NTYgMTQwMCA0MDI1IDMzMTkgNDU3MiAzMzE5IDM1MzQgMCAyOTUwIDAgMjQyMiAxOTg4IDIyOTQgMjU1MyAxNjIyIDAgMTAzNCAwWiIvPjxwYXRoIHRyYW5zZm9ybT0ic2NhbGUoMC4wMTU2MjUgMC4wMTU2MjUpIiBpZD0iQXJpYWxNVC03MiIgZD0iTTQxNiAwIDQxNiAzMzE5IDkyMiAzMzE5IDkyMiAyODE2QzEwNTEuMzMgMzA1MS4zMyAxMTcwLjY3IDMyMDYuMzMgMTI4MCAzMjgxIDEzODkuMzMgMzM1Ni4zMyAxNTA5LjY3IDMzOTQgMTY0MSAzMzk0IDE4MzAuMzMgMzM5NCAyMDIzIDMzMzMuNjcgMjIxOSAzMjEzTDIwMjUgMjY5MUMxODg3LjY3IDI3NzIuMzMgMTc1MC4zMyAyODEzIDE2MTMgMjgxMyAxNDg5LjY3IDI4MTMgMTM3OSAyNzc2IDEyODEgMjcwMiAxMTgzIDI2MjggMTExMy4zMyAyNTI1LjMzIDEwNzIgMjM5NCAxMDA5LjMzIDIxOTQgOTc4IDE5NzUuMzMgOTc4IDE3MzhMOTc4IDAgNDE2IDBaIi8+PC9kZWZzPjx1c2UgeGxpbms6aHJlZj0iI0FyaWFsTVQtNTAiIGhlaWdodD0iMTAwJSIgd2lkdGg9IjEwMCUiLz48dXNlIHRyYW5zZm9ybT0idHJhbnNsYXRlKDY2LjY5OTIgMCkiIHhsaW5rOmhyZWY9IiNBcmlhbE1ULTZmIiBoZWlnaHQ9IjEwMCUiIHdpZHRoPSIxMDAlIi8+PHVzZSB0cmFuc2Zvcm09InRyYW5zbGF0ZSgxMjIuMzE0IDApIiB4bGluazpocmVmPSIjQXJpYWxNVC02OSIgaGVpZ2h0PSIxMDAlIiB3aWR0aD0iMTAwJSIvPjx1c2UgdHJhbnNmb3JtPSJ0cmFuc2xhdGUoMTQ0LjUzMSAwKSIgeGxpbms6aHJlZj0iI0FyaWFsTVQtNzMiIGhlaWdodD0iMTAwJSIgd2lkdGg9IjEwMCUiLz48dXNlIHRyYW5zZm9ybT0idHJhbnNsYXRlKDE5NC41MzEgMCkiIHhsaW5rOmhyZWY9IiNBcmlhbE1ULTZmIiBoZWlnaHQ9IjEwMCUiIHdpZHRoPSIxMDAlIi8+PHVzZSB0cmFuc2Zvcm09InRyYW5zbGF0ZSgyNTAuMTQ2IDApIiB4bGluazpocmVmPSIjQXJpYWxNVC02ZSIgaGVpZ2h0PSIxMDAlIiB3aWR0aD0iMTAwJSIvPjx1c2UgdHJhbnNmb3JtPSJ0cmFuc2xhdGUoMzA1Ljc2MiAwKSIgeGxpbms6aHJlZj0iI0FyaWFsTVQtNjUiIGhlaWdodD0iMTAwJSIgd2lkdGg9IjEwMCUiLz48dXNlIHRyYW5zZm9ybT0idHJhbnNsYXRlKDM2MS4zNzcgMCkiIHhsaW5rOmhyZWY9IiNBcmlhbE1ULTY0IiBoZWlnaHQ9IjEwMCUiIHdpZHRoPSIxMDAlIi8+PHVzZSB0cmFuc2Zvcm09InRyYW5zbGF0ZSg0MTYuOTkyIDApIiB4bGluazpocmVmPSIjQXJpYWxNVC0yMCIgaGVpZ2h0PSIxMDAlIiB3aWR0aD0iMTAwJSIvPjx1c2UgdHJhbnNmb3JtPSJ0cmFuc2xhdGUoNDQ0Ljc3NSAwKSIgeGxpbms6aHJlZj0iI0FyaWFsTVQtNzciIGhlaWdodD0iMTAwJSIgd2lkdGg9IjEwMCUiLz48dXNlIHRyYW5zZm9ybT0idHJhbnNsYXRlKDUxNi45OTIgMCkiIHhsaW5rOmhyZWY9IiNBcmlhbE1ULTZmIiBoZWlnaHQ9IjEwMCUiIHdpZHRoPSIxMDAlIi8+PHVzZSB0cmFuc2Zvcm09InRyYW5zbGF0ZSg1NzIuNjA3IDApIiB4bGluazpocmVmPSIjQXJpYWxNVC03MiIgaGVpZ2h0PSIxMDAlIiB3aWR0aD0iMTAwJSIvPjx1c2UgdHJhbnNmb3JtPSJ0cmFuc2xhdGUoNjA1LjkwOCAwKSIgeGxpbms6aHJlZj0iI0FyaWFsTVQtNjQiIGhlaWdodD0iMTAwJSIgd2lkdGg9IjEwMCUiLz48L2c+PC9nPjwvZz48ZyBpZD0ibWF0cGxvdGxpYi5heGlzXzIiPjxnIGlkPSJ5dGlja18xIj48ZyBpZD0ibGluZTJkXzE2Ij48ZGVmcz48cGF0aCBzdHJva2Utd2lkdGg9IjEuMjUiIHN0cm9rZT0iIzI2MjYyNiIgaWQ9Im1hNjFkMTNjOWIyIiBkPSJNMCAwLTYgMCIvPjwvZGVmcz48Zz48dXNlIGZpbGw9IiMyNjI2MjYiIHN0cm9rZS13aWR0aD0iMS4yNSIgc3Ryb2tlPSIjMjYyNjI2IiB4bGluazpocmVmPSIjbWE2MWQxM2M5YjIiIGhlaWdodD0iMTAwJSIgd2lkdGg9IjEwMCUiIHk9IjQ3My43MzIiIHg9IjYzLjA5Ii8+PC9nPjwvZz48ZyBpZD0idGV4dF8xNyI+PGcgdHJhbnNmb3JtPSJtYXRyaXgoMC4xOCAwIDAgLTAuMTggNDMuNTgwMyA0ODAuMTc0KSIgZmlsbD0iIzI2MjYyNiI+PGRlZnM+PHBhdGggdHJhbnNmb3JtPSJzY2FsZSgwLjAxNTYyNSAwLjAxNTYyNSkiIGlkPSJBcmlhbE1ULTMwIiBkPSJNMjY2IDIyNTlDMjY2IDI4MDEgMzIxLjY2NyAzMjM3IDQzMyAzNTY3IDU0NC4zMzMgMzg5Ny42NyA3MDkuNjY3IDQxNTIuMzMgOTI5IDQzMzEgMTE0OSA0NTEwLjMzIDE0MjUuNjcgNDYwMCAxNzU5IDQ2MDAgMjAwNSA0NjAwIDIyMjAuNjcgNDU1MC4zMyAyNDA2IDQ0NTEgMjU5MS4zMyA0MzUyLjMzIDI3NDQuMzMgNDIwOS42NyAyODY1IDQwMjMgMjk4Ni4zMyAzODM3IDMwODEuMzMgMzYxMCAzMTUwIDMzNDIgMzIxOC42NyAzMDc0LjY3IDMyNTMgMjcxMy42NyAzMjUzIDIyNTkgMzI1MyAxNzIxLjY3IDMxOTcuNjcgMTI4OCAzMDg3IDk1OCAyOTc3IDYyOCAyODEyIDM3Mi42NjcgMjU5MiAxOTIgMjM3Mi42NyAxMiAyMDk1LTc4IDE3NTktNzggMTMxNy42Ny03OCA5NzEgODAuMzMzMyA3MTkgMzk3IDQxNyA3NzguMzMzIDI2NiAxMzk5IDI2NiAyMjU5Wk04NDQgMjI1OUM4NDQgMTUwNyA5MzIgMTAwNi4zMyAxMTA4IDc1NyAxMjg0IDUwOC4zMzMgMTUwMSAzODQgMTc1OSAzODQgMjAxNy42NyAzODQgMjIzNSA1MDkgMjQxMSA3NTkgMjU4NyAxMDA5IDI2NzUgMTUwOSAyNjc1IDIyNTkgMjY3NSAzMDEzLjY3IDI1ODcgMzUxNC42NyAyNDExIDM3NjIgMjIzNSA0MDEwIDIwMTUuNjcgNDEzNCAxNzUzIDQxMzQgMTQ5NSA0MTM0IDEyODguNjcgNDAyNC42NyAxMTM0IDM4MDYgOTQwLjY2NyAzNTI3LjMzIDg0NCAzMDExLjY3IDg0NCAyMjU5WiIvPjwvZGVmcz48dXNlIHhsaW5rOmhyZWY9IiNBcmlhbE1ULTMwIiBoZWlnaHQ9IjEwMCUiIHdpZHRoPSIxMDAlIi8+PC9nPjwvZz48L2c+PGcgaWQ9Inl0aWNrXzIiPjxnIGlkPSJsaW5lMmRfMTciPjxnPjx1c2UgZmlsbD0iIzI2MjYyNiIgc3Ryb2tlLXdpZHRoPSIxLjI1IiBzdHJva2U9IiMyNjI2MjYiIHhsaW5rOmhyZWY9IiNtYTYxZDEzYzliMiIgaGVpZ2h0PSIxMDAlIiB3aWR0aD0iMTAwJSIgeT0iMzgyLjg3MyIgeD0iNjMuMDkiLz48L2c+PC9nPjxnIGlkPSJ0ZXh0XzE4Ij48ZyB0cmFuc2Zvcm09Im1hdHJpeCgwLjE4IDAgMCAtMC4xOCAzMy41NzA2IDM4OS4zMTUpIiBmaWxsPSIjMjYyNjI2Ij48ZGVmcz48cGF0aCB0cmFuc2Zvcm09InNjYWxlKDAuMDE1NjI1IDAuMDE1NjI1KSIgaWQ9IkFyaWFsTVQtMzEiIGQ9Ik0yMzg0IDAgMTgyMiAwIDE4MjIgMzU4NEMxNjg2LjY3IDM0NTUuMzMgMTUwOSAzMzI2LjMzIDEyODkgMzE5NyAxMDY5IDMwNjcuNjcgODcxLjY2NyAyOTcwLjY3IDY5NyAyOTA2TDY5NyAzNDUwQzEwMTEuNjcgMzU5OCAxMjg2LjY3IDM3NzcgMTUyMiAzOTg3IDE3NTcuMzMgNDE5Ny42NyAxOTI0IDQ0MDIgMjAyMiA0NjAwTDIzODQgNDYwMCAyMzg0IDBaIi8+PC9kZWZzPjx1c2UgeGxpbms6aHJlZj0iI0FyaWFsTVQtMzEiIGhlaWdodD0iMTAwJSIgd2lkdGg9IjEwMCUiLz48dXNlIHRyYW5zZm9ybT0idHJhbnNsYXRlKDU1LjYxNTIgMCkiIHhsaW5rOmhyZWY9IiNBcmlhbE1ULTMwIiBoZWlnaHQ9IjEwMCUiIHdpZHRoPSIxMDAlIi8+PC9nPjwvZz48L2c+PGcgaWQ9Inl0aWNrXzMiPjxnIGlkPSJsaW5lMmRfMTgiPjxnPjx1c2UgZmlsbD0iIzI2MjYyNiIgc3Ryb2tlLXdpZHRoPSIxLjI1IiBzdHJva2U9IiMyNjI2MjYiIHhsaW5rOmhyZWY9IiNtYTYxZDEzYzliMiIgaGVpZ2h0PSIxMDAlIiB3aWR0aD0iMTAwJSIgeT0iMjkyLjAxNSIgeD0iNjMuMDkiLz48L2c+PC9nPjxnIGlkPSJ0ZXh0XzE5Ij48ZyB0cmFuc2Zvcm09Im1hdHJpeCgwLjE4IDAgMCAtMC4xOCAzMy41NzA2IDI5OC40NTcpIiBmaWxsPSIjMjYyNjI2Ij48ZGVmcz48cGF0aCB0cmFuc2Zvcm09InNjYWxlKDAuMDE1NjI1IDAuMDE1NjI1KSIgaWQ9IkFyaWFsTVQtMzIiIGQ9Ik0zMjIyIDU0MSAzMjIyIDAgMTk0IDBDMTkwIDEzNS4zMzMgMjExLjY2NyAyNjUuNjY3IDI1OSAzOTEgMzM2LjMzMyA1OTcgNDU5LjY2NyA4MDAgNjI5IDEwMDAgNzk5IDEyMDAgMTA0NC42NyAxNDMxLjMzIDEzNjYgMTY5NCAxODY0IDIxMDIgMjIwMC4zMyAyNDI1LjMzIDIzNzUgMjY2NCAyNTUwLjMzIDI5MDIuNjcgMjYzOCAzMTI4LjMzIDI2MzggMzM0MSAyNjM4IDM1NjMuNjcgMjU1OCAzNzUxLjMzIDIzOTggMzkwNCAyMjM4LjY3IDQwNTcuMzMgMjAzMSA0MTM0IDE3NzUgNDEzNCAxNTA0LjMzIDQxMzQgMTI4Ny42NyA0MDUyLjY3IDExMjUgMzg5MCA5NjIuMzMzIDM3MjggODgwIDM1MDMuMzMgODc4IDMyMTZMMzAwIDMyNzVDMzM5LjMzMyAzNzA2LjMzIDQ4OCA0MDM1IDc0NiA0MjYxIDEwMDQuNjcgNDQ4NyAxMzUyIDQ2MDAgMTc4OCA0NjAwIDIyMjcuMzMgNDYwMCAyNTc1IDQ0NzggMjgzMSA0MjM0IDMwODcuNjcgMzk5MC42NyAzMjE2IDM2ODguNjcgMzIxNiAzMzI4IDMyMTYgMzE0NC42NyAzMTc4LjMzIDI5NjQuMzMgMzEwMyAyNzg3IDMwMjguMzMgMjYxMC4zMyAyOTA0IDI0MjQgMjczMCAyMjI4IDI1NTYgMjAzMiAyMjY3IDE3NjMuMzMgMTg2MyAxNDIyIDE1MjUgMTEzOC42NyAxMzA4IDk0Ni4zMzMgMTIxMiA4NDUgMTExNi42NyA3NDQuMzMzIDEwMzcuNjcgNjQzIDk3NSA1NDFMMzIyMiA1NDFaIi8+PC9kZWZzPjx1c2UgeGxpbms6aHJlZj0iI0FyaWFsTVQtMzIiIGhlaWdodD0iMTAwJSIgd2lkdGg9IjEwMCUiLz48dXNlIHRyYW5zZm9ybT0idHJhbnNsYXRlKDU1LjYxNTIgMCkiIHhsaW5rOmhyZWY9IiNBcmlhbE1ULTMwIiBoZWlnaHQ9IjEwMCUiIHdpZHRoPSIxMDAlIi8+PC9nPjwvZz48L2c+PGcgaWQ9Inl0aWNrXzQiPjxnIGlkPSJsaW5lMmRfMTkiPjxnPjx1c2UgZmlsbD0iIzI2MjYyNiIgc3Ryb2tlLXdpZHRoPSIxLjI1IiBzdHJva2U9IiMyNjI2MjYiIHhsaW5rOmhyZWY9IiNtYTYxZDEzYzliMiIgaGVpZ2h0PSIxMDAlIiB3aWR0aD0iMTAwJSIgeT0iMjAxLjE1NyIgeD0iNjMuMDkiLz48L2c+PC9nPjxnIGlkPSJ0ZXh0XzIwIj48ZyB0cmFuc2Zvcm09Im1hdHJpeCgwLjE4IDAgMCAtMC4xOCAzMy41NzA2IDIwNy41OTkpIiBmaWxsPSIjMjYyNjI2Ij48ZGVmcz48cGF0aCB0cmFuc2Zvcm09InNjYWxlKDAuMDE1NjI1IDAuMDE1NjI1KSIgaWQ9IkFyaWFsTVQtMzMiIGQ9Ik0yNjkgMTIwOSA4MzEgMTI4NEM4OTUuNjY3IDk2NS4zMzMgMTAwNS42NyA3MzUuNjY3IDExNjEgNTk1IDEzMTYuMzMgNDU0LjMzMyAxNTA1LjMzIDM4NCAxNzI4IDM4NCAxOTkyLjY3IDM4NCAyMjE2IDQ3NS42NjcgMjM5OCA2NTkgMjU4MC42NyA4NDIuMzMzIDI2NzIgMTA2OS42NyAyNjcyIDEzNDEgMjY3MiAxNTk5IDI1ODcuNjcgMTgxMS42NyAyNDE5IDE5NzkgMjI1MC4zMyAyMTQ3IDIwMzUuNjcgMjIzMSAxNzc1IDIyMzEgMTY2OSAyMjMxIDE1MzYuNjcgMjIxMC4zMyAxMzc4IDIxNjlMMTQ0MSAyNjYzQzE0NzguMzMgMjY1OC4zMyAxNTA4LjMzIDI2NTYgMTUzMSAyNjU2IDE3NzEgMjY1NiAxOTg2LjY3IDI3MTguMzMgMjE3OCAyODQzIDIzNzAgMjk2OC4zMyAyNDY2IDMxNjEuMzMgMjQ2NiAzNDIyIDI0NjYgMzYyOCAyMzk2IDM3OTguNjcgMjI1NiAzOTM0IDIxMTYuNjcgNDA3MCAxOTM2LjY3IDQxMzggMTcxNiA0MTM4IDE0OTcuMzMgNDEzOCAxMzE1IDQwNjkgMTE2OSAzOTMxIDEwMjMgMzc5My42NyA5MjkuMzMzIDM1ODcuNjcgODg4IDMzMTNMMzI1IDM0MTNDMzkzLjY2NyAzNzg5LjY3IDU0OS42NjcgNDA4MS42NyA3OTMgNDI4OSAxMDM3IDQ0OTYuMzMgMTM0MC4zMyA0NjAwIDE3MDMgNDYwMCAxOTUzIDQ2MDAgMjE4MyA0NTQ2LjMzIDIzOTMgNDQzOSAyNjAzLjY3IDQzMzEuNjcgMjc2NC42NyA0MTg1LjMzIDI4NzYgNDAwMCAyOTg4IDM4MTQuNjcgMzA0NCAzNjE3LjY3IDMwNDQgMzQwOSAzMDQ0IDMyMTEuNjcgMjk5MC42NyAzMDMxLjY3IDI4ODQgMjg2OSAyNzc4IDI3MDYuMzMgMjYyMSAyNTc3IDI0MTMgMjQ4MSAyNjgzLjY3IDI0MTkgMjg5NCAyMjg5LjMzIDMwNDQgMjA5MiAzMTk0IDE4OTUuMzMgMzI2OSAxNjQ5IDMyNjkgMTM1MyAzMjY5IDk1MyAzMTIzIDYxNCAyODMxIDMzNiAyNTM5LjY3IDU4IDIxNzEtODEgMTcyNS04MSAxMzIzLTgxIDk4OSAzOC42NjY3IDcyMyAyNzggNDU3LjY2NyA1MTggMzA2LjMzMyA4MjguMzMzIDI2OSAxMjA5WiIvPjwvZGVmcz48dXNlIHhsaW5rOmhyZWY9IiNBcmlhbE1ULTMzIiBoZWlnaHQ9IjEwMCUiIHdpZHRoPSIxMDAlIi8+PHVzZSB0cmFuc2Zvcm09InRyYW5zbGF0ZSg1NS42MTUyIDApIiB4bGluazpocmVmPSIjQXJpYWxNVC0zMCIgaGVpZ2h0PSIxMDAlIiB3aWR0aD0iMTAwJSIvPjwvZz48L2c+PC9nPjxnIGlkPSJ5dGlja181Ij48ZyBpZD0ibGluZTJkXzIwIj48Zz48dXNlIGZpbGw9IiMyNjI2MjYiIHN0cm9rZS13aWR0aD0iMS4yNSIgc3Ryb2tlPSIjMjYyNjI2IiB4bGluazpocmVmPSIjbWE2MWQxM2M5YjIiIGhlaWdodD0iMTAwJSIgd2lkdGg9IjEwMCUiIHk9IjExMC4yOTgiIHg9IjYzLjA5Ii8+PC9nPjwvZz48ZyBpZD0idGV4dF8yMSI+PGcgdHJhbnNmb3JtPSJtYXRyaXgoMC4xOCAwIDAgLTAuMTggMzMuNTcwNiAxMTYuNzQpIiBmaWxsPSIjMjYyNjI2Ij48ZGVmcz48cGF0aCB0cmFuc2Zvcm09InNjYWxlKDAuMDE1NjI1IDAuMDE1NjI1KSIgaWQ9IkFyaWFsTVQtMzQiIGQ9Ik0yMDY5IDAgMjA2OSAxMDk3IDgxIDEwOTcgODEgMTYxMyAyMTcyIDQ1ODEgMjYzMSA0NTgxIDI2MzEgMTYxMyAzMjUwIDE2MTMgMzI1MCAxMDk3IDI2MzEgMTA5NyAyNjMxIDAgMjA2OSAwWk0yMDY5IDE2MTMgMjA2OSAzNjc4IDYzNCAxNjEzIDIwNjkgMTYxM1oiLz48L2RlZnM+PHVzZSB4bGluazpocmVmPSIjQXJpYWxNVC0zNCIgaGVpZ2h0PSIxMDAlIiB3aWR0aD0iMTAwJSIvPjx1c2UgdHJhbnNmb3JtPSJ0cmFuc2xhdGUoNTUuNjE1MiAwKSIgeGxpbms6aHJlZj0iI0FyaWFsTVQtMzAiIGhlaWdodD0iMTAwJSIgd2lkdGg9IjEwMCUiLz48L2c+PC9nPjwvZz48ZyBpZD0ieXRpY2tfNiI+PGcgaWQ9ImxpbmUyZF8yMSI+PGc+PHVzZSBmaWxsPSIjMjYyNjI2IiBzdHJva2Utd2lkdGg9IjEuMjUiIHN0cm9rZT0iIzI2MjYyNiIgeGxpbms6aHJlZj0iI21hNjFkMTNjOWIyIiBoZWlnaHQ9IjEwMCUiIHdpZHRoPSIxMDAlIiB5PSIxOS40NCIgeD0iNjMuMDkiLz48L2c+PC9nPjxnIGlkPSJ0ZXh0XzIyIj48ZyB0cmFuc2Zvcm09Im1hdHJpeCgwLjE4IDAgMCAtMC4xOCAzMy41NzA2IDI1Ljg4MikiIGZpbGw9IiMyNjI2MjYiPjxkZWZzPjxwYXRoIHRyYW5zZm9ybT0ic2NhbGUoMC4wMTU2MjUgMC4wMTU2MjUpIiBpZD0iQXJpYWxNVC0zNSIgZD0iTTI2NiAxMjAwIDg1NiAxMjUwQzkwMCA5NjIuNjY3IDEwMDEuNjcgNzQ2LjMzMyAxMTYxIDYwMSAxMzIwLjMzIDQ1Ni4zMzMgMTUxMi42NyAzODQgMTczOCAzODQgMjAwOC42NyAzODQgMjIzNy42NyA0ODYgMjQyNSA2OTAgMjYxMi4zMyA4OTQuNjY3IDI3MDYgMTE2NS42NyAyNzA2IDE1MDMgMjcwNiAxODIzLjY3IDI2MTYgMjA3Ni42NyAyNDM2IDIyNjIgMjI1NiAyNDQ4IDIwMjAgMjU0MSAxNzI4IDI1NDEgMTU0Ni42NyAyNTQxIDEzODMgMjQ5OS42NyAxMjM3IDI0MTcgMTA5MS42NyAyMzM1IDk3Ny4zMzMgMjIyOC4zMyA4OTQgMjA5N0wzNjYgMjE2NiA4MDkgNDUxOSAzMDg4IDQ1MTkgMzA4OCAzOTgxIDEyNTkgMzk4MSAxMDEzIDI3NTBDMTI4Ny42NyAyOTQyIDE1NzYgMzAzOCAxODc4IDMwMzggMjI3OCAzMDM4IDI2MTUuMzMgMjg5OS4zMyAyODkwIDI2MjIgMzE2NS4zMyAyMzQ0LjY3IDMzMDMgMTk4OC4zMyAzMzAzIDE1NTMgMzMwMyAxMTM4LjMzIDMxODIuMzMgNzgwIDI5NDEgNDc4IDI2NDcgMTA3LjMzMyAyMjQ2LTc4IDE3MzgtNzggMTMyMS4zMy03OCA5ODEgMzguNjY2NyA3MTcgMjcyIDQ1My42NjcgNTA1LjMzMyAzMDMuMzMzIDgxNC42NjcgMjY2IDEyMDBaIi8+PC9kZWZzPjx1c2UgeGxpbms6aHJlZj0iI0FyaWFsTVQtMzUiIGhlaWdodD0iMTAwJSIgd2lkdGg9IjEwMCUiLz48dXNlIHRyYW5zZm9ybT0idHJhbnNsYXRlKDU1LjYxNTIgMCkiIHhsaW5rOmhyZWY9IiNBcmlhbE1ULTMwIiBoZWlnaHQ9IjEwMCUiIHdpZHRoPSIxMDAlIi8+PC9nPjwvZz48L2c+PGcgaWQ9InRleHRfMjMiPjxnIHRyYW5zZm9ybT0ibWF0cml4KDEuMTAyMThlLTE3IC0wLjE4IC0wLjE4IC0xLjEwMjE4ZS0xNyAyNS43ODIyIDI4MS41ODkpIiBmaWxsPSIjMjYyNjI2Ij48ZGVmcz48cGF0aCB0cmFuc2Zvcm09InNjYWxlKDAuMDE1NjI1IDAuMDE1NjI1KSIgaWQ9IkFyaWFsTVQtMjgiIGQ9Ik0xNDk3LTEzNDdDMTE4Ni4zMy05NTUgOTIzLjY2Ny00OTYuNjY3IDcwOSAyOCA0OTUgNTUzLjMzMyAzODggMTA5NyAzODggMTY1OSAzODggMjE1NSA0NjggMjYzMCA2MjggMzA4NCA4MTUuMzMzIDM2MTEuMzMgMTEwNSA0MTM2LjMzIDE0OTcgNDY1OUwxOTAwIDQ2NTlDMTY0OCA0MjI1LjY3IDE0ODEuMzMgMzkxNi4zMyAxNDAwIDM3MzEgMTI3Mi42NyAzNDQzLjY3IDExNzIuNjcgMzE0My42NyAxMTAwIDI4MzEgMTAxMC42NyAyNDQxLjY3IDk2NiAyMDUwIDk2NiAxNjU2IDk2NiA2NTQgMTI3Ny4zMy0zNDcgMTkwMC0xMzQ3TDE0OTctMTM0N1oiLz48cGF0aCB0cmFuc2Zvcm09InNjYWxlKDAuMDE1NjI1IDAuMDE1NjI1KSIgaWQ9IkFyaWFsTVQtMjUiIGQ9Ik0zNzIgMzQ4MUMzNzIgMzgwOC4zMyA0NTQuMzMzIDQwODYuMzMgNjE5IDQzMTUgNzgzLjY2NyA0NTQ0LjMzIDEwMjIgNDY1OSAxMzM0IDQ2NTkgMTYyMiA0NjU5IDE4NjAgNDU1Ni4zMyAyMDQ4IDQzNTEgMjIzNi42NyA0MTQ2LjMzIDIzMzEgMzg0NSAyMzMxIDM0NDcgMjMzMSAzMDU5LjY3IDIyMzUuNjcgMjc2MS4zMyAyMDQ1IDI1NTIgMTg1NC4zMyAyMzQyLjY3IDE2MTkuNjcgMjIzOCAxMzQxIDIyMzggMTA2My42NyAyMjM4IDgzMi42NjcgMjM0MSA2NDggMjU0NyA0NjQgMjc1MyAzNzIgMzA2NC4zMyAzNzIgMzQ4MVpNMTM1MCA0MjcyQzEyMTAuNjcgNDI3MiAxMDk0LjY3IDQyMTEuMzMgMTAwMiA0MDkwIDkwOS4zMzMgMzk2OS4zMyA4NjMgMzc0Ny42NyA4NjMgMzQyNSA4NjMgMzEzMSA5MDkuNjY3IDI5MjQgMTAwMyAyODA0IDEwOTcgMjY4NC42NyAxMjEyLjY3IDI2MjUgMTM1MCAyNjI1IDE0OTIgMjYyNSAxNjA5LjMzIDI2ODUuMzMgMTcwMiAyODA2IDE3OTQuNjcgMjkyNy4zMyAxODQxIDMxNDguMzMgMTg0MSAzNDY5IDE4NDEgMzc2NSAxNzk0IDM5NzIuNjcgMTcwMCA0MDkyIDE2MDYgNDIxMiAxNDg5LjMzIDQyNzIgMTM1MCA0MjcyWk0xMzUzLTE2OSAzODU5IDQ2NTkgNDMxNiA0NjU5IDE4MTktMTY5IDEzNTMtMTY5Wk0zMzM0IDEwNzVDMzMzNCAxNDA0LjMzIDM0MTYuMzMgMTY4MyAzNTgxIDE5MTEgMzc0NS42NyAyMTM5IDM5ODUuMzMgMjI1MyA0MzAwIDIyNTMgNDU4Ny4zMyAyMjUzIDQ4MjUuMzMgMjE1MC4zMyA1MDE0IDE5NDUgNTIwMi42NyAxNzQwLjMzIDUyOTcgMTQzOSA1Mjk3IDEwNDEgNTI5NyA2NTMgNTIwMS42NyAzNTQuMzMzIDUwMTEgMTQ1IDQ4MjAuMzMtNjQuMzMzMyA0NTg0LjMzLTE2OSA0MzAzLTE2OSA0MDI2LjMzLTE2OSAzNzk1LjY3LTY1LjMzMzMgMzYxMSAxNDIgMzQyNi4zMyAzNDkuMzMzIDMzMzQgNjYwLjMzMyAzMzM0IDEwNzVaTTQzMTYgMTg2NkM0MTc0IDE4NjYgNDA1Ni42NyAxODA1LjMzIDM5NjQgMTY4NCAzODcxLjMzIDE1NjMuMzMgMzgyNSAxMzQxLjY3IDM4MjUgMTAxOSAzODI1IDcyNyAzODcxLjY3IDUyMC42NjcgMzk2NSA0MDAgNDA1OSAyNzkuMzMzIDQxNzUgMjE5IDQzMTMgMjE5IDQ0NTYuMzMgMjE5IDQ1NzQuMzMgMjc5LjMzMyA0NjY3IDQwMCA0NzU5LjY3IDUyMC42NjcgNDgwNiA3NDEuNjY3IDQ4MDYgMTA2MyA0ODA2IDEzNTguMzMgNDc1OSAxNTY2IDQ2NjUgMTY4NiA0NTcxLjY3IDE4MDYgNDQ1NS4zMyAxODY2IDQzMTYgMTg2NloiLz48cGF0aCB0cmFuc2Zvcm09InNjYWxlKDAuMDE1NjI1IDAuMDE1NjI1KSIgaWQ9IkFyaWFsTVQtMjkiIGQ9Ik03OTEtMTM0NyAzODgtMTM0N0MxMDEwLjY3LTM0NyAxMzIyIDY1NCAxMzIyIDE2NTYgMTMyMiAyMDQ4IDEyNzcuMzMgMjQzNi42NyAxMTg4IDI4MjIgMTExNi42NyAzMTM0LjY3IDEwMTcuNjcgMzQzNC42NyA4OTEgMzcyMiA4MDkuNjY3IDM5MDkuMzMgNjQyIDQyMjEuNjcgMzg4IDQ2NTlMNzkxIDQ2NTlDMTE4Mi4zMyA0MTM2LjMzIDE0NzEuNjcgMzYxMS4zMyAxNjU5IDMwODQgMTgxOS42NyAyNjMwIDE5MDAgMjE1NSAxOTAwIDE2NTkgMTkwMCAxMDk3IDE3OTIgNTUzLjMzMyAxNTc2IDI4IDEzNjAuNjctNDk2LjY2NyAxMDk5LTk1NSA3OTEtMTM0N1oiLz48L2RlZnM+PHVzZSB4bGluazpocmVmPSIjQXJpYWxNVC00MSIgaGVpZ2h0PSIxMDAlIiB3aWR0aD0iMTAwJSIvPjx1c2UgdHJhbnNmb3JtPSJ0cmFuc2xhdGUoNjYuNjk5MiAwKSIgeGxpbms6aHJlZj0iI0FyaWFsTVQtNTMiIGhlaWdodD0iMTAwJSIgd2lkdGg9IjEwMCUiLz48dXNlIHRyYW5zZm9ybT0idHJhbnNsYXRlKDEzMy4zOTggMCkiIHhsaW5rOmhyZWY9IiNBcmlhbE1ULTUyIiBoZWlnaHQ9IjEwMCUiIHdpZHRoPSIxMDAlIi8+PHVzZSB0cmFuc2Zvcm09InRyYW5zbGF0ZSgyMDUuNjE1IDApIiB4bGluazpocmVmPSIjQXJpYWxNVC0yMCIgaGVpZ2h0PSIxMDAlIiB3aWR0aD0iMTAwJSIvPjx1c2UgdHJhbnNmb3JtPSJ0cmFuc2xhdGUoMjMzLjM5OCAwKSIgeGxpbms6aHJlZj0iI0FyaWFsTVQtMjgiIGhlaWdodD0iMTAwJSIgd2lkdGg9IjEwMCUiLz48dXNlIHRyYW5zZm9ybT0idHJhbnNsYXRlKDI2Ni42OTkgMCkiIHhsaW5rOmhyZWY9IiNBcmlhbE1ULTI1IiBoZWlnaHQ9IjEwMCUiIHdpZHRoPSIxMDAlIi8+PHVzZSB0cmFuc2Zvcm09InRyYW5zbGF0ZSgzNTUuNjE1IDApIiB4bGluazpocmVmPSIjQXJpYWxNVC0yOSIgaGVpZ2h0PSIxMDAlIiB3aWR0aD0iMTAwJSIvPjwvZz48L2c+PC9nPjxnIGlkPSJwYXRjaF8zIj48cGF0aCBjbGlwLXBhdGg9InVybCgjcDNiMDRmYjA5ZWIpIiBmaWxsPSIjRjc3MTg5IiBzdHJva2UtbGluZWpvaW49Im1pdGVyIiBzdHJva2U9IiNGRkZGRkYiIGQ9Ik05MS43OTYzIDQ3My43MzIgMTExLjU5NCA0NzMuNzMyIDExMS41OTQgMzM5LjE3IDkxLjc5NjMgMzM5LjE3WiIvPjwvZz48ZyBpZD0icGF0Y2hfNCI+PHBhdGggY2xpcC1wYXRoPSJ1cmwoI3AzYjA0ZmIwOWViKSIgZmlsbD0iI0YzN0EzMiIgc3Ryb2tlLWxpbmVqb2luPSJtaXRlciIgc3Ryb2tlPSIjRkZGRkZGIiBkPSJNMTMxLjM5MSA0NzMuNzMyIDE1MS4xODkgNDczLjczMiAxNTEuMTg5IDM3NC42MDUgMTMxLjM5MSAzNzQuNjA1WiIvPjwvZz48ZyBpZD0icGF0Y2hfNSI+PHBhdGggY2xpcC1wYXRoPSJ1cmwoI3AzYjA0ZmIwOWViKSIgZmlsbD0iI0NBOTIzMiIgc3Ryb2tlLWxpbmVqb2luPSJtaXRlciIgc3Ryb2tlPSIjRkZGRkZGIiBkPSJNMTcwLjk4NiA0NzMuNzMyIDE5MC43ODQgNDczLjczMiAxOTAuNzg0IDU3LjMyNzkgMTcwLjk4NiA1Ny4zMjc5WiIvPjwvZz48ZyBpZD0icGF0Y2hfNiI+PHBhdGggY2xpcC1wYXRoPSJ1cmwoI3AzYjA0ZmIwOWViKSIgZmlsbD0iI0FFOUQzMSIgc3Ryb2tlLWxpbmVqb2luPSJtaXRlciIgc3Ryb2tlPSIjRkZGRkZGIiBkPSJNMjEwLjU4MSA0NzMuNzMyIDIzMC4zNzkgNDczLjczMiAyMzAuMzc5IDIwNy43ODkgMjEwLjU4MSAyMDcuNzg5WiIvPjwvZz48ZyBpZD0icGF0Y2hfNyI+PHBhdGggY2xpcC1wYXRoPSJ1cmwoI3AzYjA0ZmIwOWViKSIgZmlsbD0iIzhFQTYzMSIgc3Ryb2tlLWxpbmVqb2luPSJtaXRlciIgc3Ryb2tlPSIjRkZGRkZGIiBkPSJNMjUwLjE3NiA0NzMuNzMyIDI2OS45NzQgNDczLjczMiAyNjkuOTc0IDg4LjMxMDYgMjUwLjE3NiA4OC4zMTA2WiIvPjwvZz48ZyBpZD0icGF0Y2hfOCI+PHBhdGggY2xpcC1wYXRoPSJ1cmwoI3AzYjA0ZmIwOWViKSIgZmlsbD0iIzUwQjEzMSIgc3Ryb2tlLWxpbmVqb2luPSJtaXRlciIgc3Ryb2tlPSIjRkZGRkZGIiBkPSJNMjg5Ljc3MSA0NzMuNzMyIDMwOS41NjggNDczLjczMiAzMDkuNTY4IDMzOS4xNyAyODkuNzcxIDMzOS4xN1oiLz48L2c+PGcgaWQ9InBhdGNoXzkiPjxwYXRoIGNsaXAtcGF0aD0idXJsKCNwM2IwNGZiMDllYikiIGZpbGw9IiMzM0IwN0EiIHN0cm9rZS1saW5lam9pbj0ibWl0ZXIiIHN0cm9rZT0iI0ZGRkZGRiIgZD0iTTMyOS4zNjYgNDczLjczMiAzNDkuMTYzIDQ3My43MzIgMzQ5LjE2MyAyMTcuNDIgMzI5LjM2NiAyMTcuNDJaIi8+PC9nPjxnIGlkPSJwYXRjaF8xMCI+PHBhdGggY2xpcC1wYXRoPSJ1cmwoI3AzYjA0ZmIwOWViKSIgZmlsbD0iIzM1QUU5OSIgc3Ryb2tlLWxpbmVqb2luPSJtaXRlciIgc3Ryb2tlPSIjRkZGRkZGIiBkPSJNMzY4Ljk2MSA0NzMuNzMyIDM4OC43NTggNDczLjczMiAzODguNzU4IDQ0Ni4yMDEgMzY4Ljk2MSA0NDYuMjAxWiIvPjwvZz48ZyBpZD0icGF0Y2hfMTEiPjxwYXRoIGNsaXAtcGF0aD0idXJsKCNwM2IwNGZiMDllYikiIGZpbGw9IiMzNkFDQUUiIHN0cm9rZS1saW5lam9pbj0ibWl0ZXIiIHN0cm9rZT0iI0ZGRkZGRiIgZD0iTTQwOC41NTYgNDczLjczMiA0MjguMzUzIDQ3My43MzIgNDI4LjM1MyAzMTcuMDkyIDQwOC41NTYgMzE3LjA5MloiLz48L2c+PGcgaWQ9InBhdGNoXzEyIj48cGF0aCBjbGlwLXBhdGg9InVybCgjcDNiMDRmYjA5ZWIpIiBmaWxsPSIjMzhBOUM1IiBzdHJva2UtbGluZWpvaW49Im1pdGVyIiBzdHJva2U9IiNGRkZGRkYiIGQ9Ik00NDguMTUxIDQ3My43MzIgNDY3Ljk0OCA0NzMuNzMyIDQ2Ny45NDggMzc5LjA1NyA0NDguMTUxIDM3OS4wNTdaIi8+PC9nPjxnIGlkPSJwYXRjaF8xMyI+PHBhdGggY2xpcC1wYXRoPSJ1cmwoI3AzYjA0ZmIwOWViKSIgZmlsbD0iIzNCQTNFQyIgc3Ryb2tlLWxpbmVqb2luPSJtaXRlciIgc3Ryb2tlPSIjRkZGRkZGIiBkPSJNNDg3Ljc0NiA0NzMuNzMyIDUwNy41NDMgNDczLjczMiA1MDcuNTQzIDQwNi40MDYgNDg3Ljc0NiA0MDYuNDA2WiIvPjwvZz48ZyBpZD0icGF0Y2hfMTQiPjxwYXRoIGNsaXAtcGF0aD0idXJsKCNwM2IwNGZiMDllYikiIGZpbGw9IiM5NTkxRjQiIHN0cm9rZS1saW5lam9pbj0ibWl0ZXIiIHN0cm9rZT0iI0ZGRkZGRiIgZD0iTTUyNy4zNDEgNDczLjczMiA1NDcuMTM4IDQ3My43MzIgNTQ3LjEzOCAzMzYuMDgxIDUyNy4zNDEgMzM2LjA4MVoiLz48L2c+PGcgaWQ9InBhdGNoXzE1Ij48cGF0aCBjbGlwLXBhdGg9InVybCgjcDNiMDRmYjA5ZWIpIiBmaWxsPSIjQ0M3QUY0IiBzdHJva2UtbGluZWpvaW49Im1pdGVyIiBzdHJva2U9IiNGRkZGRkYiIGQ9Ik01NjYuOTM1IDQ3My43MzIgNTg2LjczMyA0NzMuNzMyIDU4Ni43MzMgMzQ4LjQzOCA1NjYuOTM1IDM0OC40MzhaIi8+PC9nPjxnIGlkPSJwYXRjaF8xNiI+PHBhdGggY2xpcC1wYXRoPSJ1cmwoI3AzYjA0ZmIwOWViKSIgZmlsbD0iI0Y1NjBFNCIgc3Ryb2tlLWxpbmVqb2luPSJtaXRlciIgc3Ryb2tlPSIjRkZGRkZGIiBkPSJNNjA2LjUzIDQ3My43MzIgNjI2LjMyOCA0NzMuNzMyIDYyNi4zMjggNDM4Ljc1MSA2MDYuNTMgNDM4Ljc1MVoiLz48L2c+PGcgaWQ9InBhdGNoXzE3Ij48cGF0aCBjbGlwLXBhdGg9InVybCgjcDNiMDRmYjA5ZWIpIiBmaWxsPSIjRjY2QUI3IiBzdHJva2UtbGluZWpvaW49Im1pdGVyIiBzdHJva2U9IiNGRkZGRkYiIGQ9Ik02NDYuMTI1IDQ3My43MzIgNjY1LjkyMyA0NzMuNzMyIDY2NS45MjMgMzE2LjcyOCA2NDYuMTI1IDMxNi43MjhaIi8+PC9nPjxnIGlkPSJwYXRjaF8xOCI+PHBhdGggZmlsbD0ibm9uZSIgc3Ryb2tlLWxpbmVqb2luPSJtaXRlciIgc3Ryb2tlLWxpbmVjYXA9InNxdWFyZSIgc3Ryb2tlLXdpZHRoPSIxLjI1IiBzdHJva2U9IiMyNjI2MjYiIGQ9Ik02My4wOSA0NzMuNzMyIDYzLjA5IDE5LjQ0Ii8+PC9nPjxnIGlkPSJwYXRjaF8xOSI+PHBhdGggZmlsbD0ibm9uZSIgc3Ryb2tlLWxpbmVqb2luPSJtaXRlciIgc3Ryb2tlLWxpbmVjYXA9InNxdWFyZSIgc3Ryb2tlLXdpZHRoPSIxLjI1IiBzdHJva2U9IiMyNjI2MjYiIGQ9Ik02My4wOSA0NzMuNzMyIDY5NC42MjkgNDczLjczMiIvPjwvZz48L2c+PC9nPjwvc3ZnPg==;" vertex="1" parent="CWH9IZx8YpNh54ZALPy3-3">
          <mxGeometry x="860" width="962" height="770" as="geometry" />
        </mxCell>
      </root>
    </mxGraphModel>
  </diagram>
</mxfile>
